<?xml version="1.0" encoding="utf-8" ?>
<svg baseProfile="full" height="100%" version="1.1" viewBox="0,0,510,330" width="100%" xmlns="http://www.w3.org/2000/svg" xmlns:ev="http://www.w3.org/2001/xml-events" xmlns:xlink="http://www.w3.org/1999/xlink"><defs /><path d="M0,0 " fill="none" stroke="white" stroke-linecap="round" stroke-width="2" /><path d="M59.6345901489,43.634059906 L59.2019386292,43.3189659119 L58.4875068665,42.8759231567 L57.5132369995,42.4231567383 L56.3512458801,42.1511993408 L54.9301261902,42.1291122437 L53.2436180115,42.4201049805 L51.3246536255,43.0418586731 L49.3115005493,44.0142860413 L47.3424949646,45.3125610352 L45.5203514099,46.9054718018 L43.9143257141,48.7423171997 L42.586730957,50.772983551 L41.5716743469,52.9295692444 L40.9173469543,55.133895874 L40.6528511047,57.2742385864 L40.8073272705,59.2351913452 L41.41173172,60.8922424316 L42.4922332764,62.1466522217 L44.0223693848,62.9431991577 L45.998714447,63.2451286316 L48.2907409668,63.0869216919 L50.702796936,62.5687141418 L52.668422699,61.9827041626 L53.9038391113,61.5409049988 " fill="none" stroke="white" stroke-linecap="round" stroke-width="2" /><path d="M65.8662719727,52.7814598083 " fill="none" stroke="white" stroke-linecap="round" stroke-width="2" /><path d="M65.1494522095,51.2020225525 L64.7793731689,50.9165344238 L64.1267089844,50.5840415955 L63.2061462402,50.3789405823 L62.0847320557,50.52003479 L60.7460250854,51.0564193726 L59.2832756042,51.9996528625 L57.8267326355,53.2898406982 L56.5651092529,54.8505706787 L55.7009620667,56.563117981 L55.3677749634,58.266292572 L55.6329193115,59.7734107971 L56.5247993469,60.919631958 L57.9912719727,61.5722312927 L59.8967208862,61.667591095 L62.0504798889,61.2067871094 L64.232635498,60.2423706055 L66.2165527344,58.8866539001 L67.826210022,57.3019866943 L68.9355926514,55.6753807068 L69.4618225098,54.1877708435 L69.3959655762,52.9686775208 L68.7918930054,52.0777854919 L67.7640914917,51.567905426 L66.5241775513,51.4386291504 L65.3091964722,51.646987915 L64.397644043,51.9857788086 L63.8899765015,52.2816085815 " fill="none" stroke="white" stroke-linecap="round" stroke-width="2" /><path d="M73.8057861328,52.1357917786 L73.8359909058,52.5150184631 L73.8320083618,53.2997016907 L73.7495346069,54.5103988647 L73.5536422729,56.0125579834 L73.2765350342,57.6199035645 L72.9879150391,59.1178016663 L72.7416305542,60.3339195251 L72.5814285278,61.1408081055 L72.54271698,61.4547233582 L72.6155395508,61.2454719543 L72.8080368042,60.5029830933 L73.1368789673,59.266708374 L73.6153259277,57.6567497253 L74.2754364014,55.8387451172 L75.1410751343,53.9960517883 L76.176651001,52.3195762634 L77.3294448853,50.9625244141 L78.530632019,50.0428619385 L79.7116012573,49.6344451904 L80.8259277344,49.7514877319 L81.8047180176,50.358039856 L82.5840301514,51.3935928345 L83.1173095703,52.7628631592 L83.3956222534,54.3390579224 L83.4592132568,55.9381790161 L83.3985595703,57.369556427 L83.2789230347,58.4914741516 L83.1673431396,59.2136383057 L83.1166915894,59.4897460938 L83.1558151245,59.3055458069 L83.3577728271,58.6366119385 L83.8134155273,57.5230407715 L84.5608901978,56.0934448242 L85.591003418,54.5206871033 L86.8604431152,52.9979133606 L88.2694854736,51.695980072 L89.7452774048,50.7008590698 L91.2128067017,50.0754165649 L92.5791015625,49.8485870361 L93.7499237061,50.0188331604 L94.6867599487,50.5820426941 L95.3580169678,51.5149116516 L95.7592697144,52.7491912842 L95.9029846191,54.1979789734 L95.8242111206,55.7278594971 L95.5909423828,57.1867141724 L95.3028640747,58.4491157532 L95.0725021362,59.4060173035 L94.9807815552,60.0116882324 L95.0701675415,60.2877159119 L95.24659729,60.3438491821 L95.4186401367,60.3005065918 " fill="none" stroke="white" stroke-linecap="round" stroke-width="2" /><path d="M99.1369552612,58.7312507629 L99.4438171387,58.6031188965 L100.08971405,58.3035202026 L101.117286682,57.7946014404 L102.403877258,57.0811309814 L103.804382324,56.2011260986 L105.146720886,55.2030982971 L106.281738281,54.157699585 L107.11554718,53.1310653687 L107.620254517,52.1952819824 L107.751472473,51.3894233704 L107.521446228,50.7537651062 L106.944313049,50.3275947571 L106.01360321,50.1662063599 L104.771102905,50.3465919495 L103.318405151,50.9123573303 L101.77646637,51.8384170532 L100.340995789,53.043296814 L99.1996994019,54.4130249023 L98.4781799316,55.8332672119 L98.2702407837,57.2358474731 L98.6624908447,58.5383720398 L99.6811676025,59.6426239014 L101.32169342,60.4537162781 L103.544403076,60.8841552734 L106.121894836,60.9258079529 L108.74432373,60.6597442627 L110.818771362,60.304725647 L112.06665802,60.0217285156 " fill="none" stroke="white" stroke-linecap="round" stroke-width="2" /><path d="M136.183853149,53.6306419373 L136.060836792,53.3308830261 L135.817977905,52.8656539917 L135.407241821,52.3073997498 L134.800140381,51.7918014526 L133.955001831,51.3761253357 L132.846221924,51.1271400452 L131.500137329,51.1174430847 L129.97857666,51.4311637878 L128.342803955,52.1211700439 L126.702644348,53.1922416687 L125.19593811,54.5923919678 L123.97076416,56.2014579773 L123.193595886,57.8565216064 L122.981994629,59.3658065796 L123.365402222,60.5495948792 L124.322387695,61.2715759277 L125.761169434,61.4525794983 L127.561950684,61.0634040833 L129.559921265,60.1279945374 L131.619171143,58.7029190063 L133.601608276,56.8651390076 L135.415756226,54.7121124268 L136.999801636,52.367225647 L138.327713013,49.9670333862 L139.356079102,47.6597099304 L140.107192993,45.5935745239 L140.604568481,43.8799514771 L140.897994995,42.5838088989 L141.04083252,41.7399368286 L141.057281494,41.3654403687 L140.945388794,41.4816665649 L140.696090698,42.138633728 L140.303283691,43.3584938049 L139.793670654,45.1050415039 L139.226867676,47.2744636536 L138.689865112,49.7148971558 L138.271499634,52.2473602295 L138.019180298,54.7064437866 L137.94921875,56.941116333 L138.052932739,58.8004570007 L138.280349731,60.1649246216 L138.597320557,60.9940719604 L138.890899658,61.3725891113 L139.090591431,61.4639282227 " fill="none" stroke="white" stroke-linecap="round" stroke-width="2" /><path d="M150.366195679,53.517326355 L150.379150391,53.1488418579 L150.314941406,52.6012878418 L150.082183838,51.9878005981 L149.593276978,51.4963340759 L148.791824341,51.1928405762 L147.680847168,51.1396522522 L146.339324951,51.3680686951 L144.874832153,51.9270553589 L143.420471191,52.8197174072 L142.121734619,54.0053100586 L141.092330933,55.3866271973 L140.450714111,56.8343887329 L140.288024902,58.1745414734 L140.632614136,59.2443771362 L141.448471069,59.8945388794 L142.650238037,60.0346641541 L144.12878418,59.6311683655 L145.773361206,58.7457542419 L147.453033447,57.4978294373 L149.036224365,56.0540962219 L150.386688232,54.5928115845 L151.390197754,53.2889022827 L152.023376465,52.2442321777 L152.326705933,51.5369033813 L152.385223389,51.2137756348 L152.310195923,51.2979812622 L152.175994873,51.8144302368 L152.022003174,52.7682495117 L151.919326782,54.0613479614 L151.910888672,55.5404396057 L152.065048218,57.025188446 L152.441558838,58.3141365051 L153.096862793,59.2465362549 L154.05406189,59.6961364746 L155.317764282,59.5890617371 L156.786682129,58.9291496277 L158.335144043,57.829574585 L159.796066284,56.4554595947 L161.028488159,55.0353240967 L161.941375732,53.7525596619 L162.523101807,52.7503395081 L162.81211853,52.1097946167 L162.891189575,51.8764762878 L162.833618164,52.0650520325 L162.657806396,52.7077789307 L162.387252808,53.7558555603 L162.068222046,55.0792388916 L161.809936523,56.4523773193 L161.703445435,57.6258850098 L161.799087524,58.4159965515 L161.985427856,58.8153915405 L162.158004761,58.9351425171 " fill="none" stroke="white" stroke-linecap="round" stroke-width="2" /><path d="M163.110046387,43.1110229492 L163.122909546,43.0367126465 L163.166442871,42.9759140015 L163.222747803,42.9445724487 L163.273895264,42.9586486816 " fill="none" stroke="white" stroke-linecap="round" stroke-width="2" /><path d="M172.750061035,41.3296890259 L172.684463501,41.6790275574 L172.546188354,42.4482307434 L172.317001343,43.7078361511 L171.986251831,45.402053833 L171.557189941,47.4524459839 L171.025817871,49.7645759583 L170.419784546,52.2356643677 L169.825897217,54.7298622131 L169.34854126,57.0368041992 L169.069732666,58.9494972229 L168.97883606,60.2356681824 L168.996078491,60.8969230652 " fill="none" stroke="white" stroke-linecap="round" stroke-width="2" /><path d="M174.102752686,51.4189300537 L174.169784546,51.6705360413 L174.283676147,52.2363586426 L174.451324463,53.1604385376 L174.663085938,54.3379745483 L174.944656372,55.6091041565 L175.358032227,56.7817153931 L175.947540283,57.6975669861 L176.748062134,58.2260322571 L177.788894653,58.2878074646 L179.032989502,57.8348121643 L180.405639648,56.915813446 L181.81463623,55.6604690552 L183.091110229,54.2748260498 L184.108963013,52.9726600647 L184.797912598,51.9200286865 L185.141311646,51.2088432312 L185.190124512,50.8947372437 L184.994552612,51.0189933777 L184.570053101,51.6534194946 L183.964859009,52.8578910828 L183.211547852,54.6191902161 L182.382049561,56.8609619141 L181.563812256,59.4486122131 L180.787872314,62.2314567566 L180.069381714,65.0838775635 L179.404647827,67.8742599487 L178.760772705,70.46043396 L178.172363281,72.6719818115 L177.697769165,74.3436431885 L177.382507324,75.3977813721 L177.23274231,75.9085922241 L177.20123291,76.0547866821 " fill="none" stroke="white" stroke-linecap="round" stroke-width="2" /><path d="M205.906066895,41.0 L205.959701538,41.2807846069 L206.014434814,41.9289398193 L205.999771118,43.0437469482 L205.836517334,44.6205940247 L205.459075928,46.6048622131 L204.853988647,48.8973731995 L204.067169189,51.3742713928 L203.196533203,53.8890304565 L202.351608276,56.2860641479 L201.663314819,58.4259910583 L201.205993652,60.2149925232 L201.016845703,61.5493545532 L201.057388306,62.3721466064 L201.251922607,62.6850357056 L201.462417603,62.6658668518 L201.611465454,62.5140304565 " fill="none" stroke="white" stroke-linecap="round" stroke-width="2" /><path d="M197.844696045,52.3950462341 L197.858200073,52.2561607361 L198.127059937,52.0980300903 L198.836181641,51.9720840454 L200.224884033,51.9470291138 L202.266098022,52.0029182434 L204.768447876,52.1057777405 L206.981079102,52.1991500854 L208.458877563,52.2673339844 " fill="none" stroke="white" stroke-linecap="round" stroke-width="2" /><path d="M221.695632935,52.9473991394 L221.486358643,52.6674156189 L221.029586792,52.2644309998 L220.250534058,51.8563423157 L219.129867554,51.6237068176 L217.68107605,51.6547317505 L215.989837646,52.0172462463 L214.184112549,52.7153968811 L212.477935791,53.7319908142 L211.090896606,54.9925918579 L210.198059082,56.3741226196 L209.922912598,57.7312927246 L210.28414917,58.91223526 L211.231903076,59.783946991 L212.68309021,60.2551460266 L214.502929688,60.2803688049 L216.507904053,59.8618469238 L218.505584717,59.0493774414 L220.305786133,57.9328460693 L221.762466431,56.6376152039 L222.761672974,55.2883834839 L223.263046265,54.0291442871 L223.299758911,52.9622344971 L223.094482422,52.2241363525 L222.856506348,51.8275566101 " fill="none" stroke="white" stroke-linecap="round" stroke-width="2" /><path d="M239.765075684,42.0078659058 L239.760726929,42.0220718384 L239.758361816,42.195854187 L239.718582153,42.6636886597 L239.58303833,43.5382003784 L239.279724121,44.8377990723 L238.79510498,46.5289382935 L238.165908813,48.5523834229 L237.465713501,50.7949180603 L236.781402588,53.1075897217 L236.209121704,55.3221626282 L235.808853149,57.2748222351 L235.604537964,58.8132629395 L235.565505981,59.8548088074 L235.616333008,60.383682251 L235.682159424,60.5386810303 L235.728088379,60.5007781982 " fill="none" stroke="white" stroke-linecap="round" stroke-width="2" /><path d="M232.42755127,50.5263214111 L232.507324219,50.6093292236 L232.847351074,50.7836303711 L233.601715088,51.044052124 L234.841491699,51.3204612732 L236.494689941,51.5412216187 L238.416442871,51.6349029541 L240.446228027,51.5955047607 L242.460845947,51.3731079102 L244.34437561,50.9569625854 L245.995864868,50.3462142944 L247.187194824,49.7501602173 L247.861923218,49.3112335205 " fill="none" stroke="white" stroke-linecap="round" stroke-width="2" /><path d="M248.845870972,41.6134185791 L248.913146973,41.7227172852 L248.994171143,42.1285552979 L249.047988892,42.978767395 L249.000717163,44.3241653442 L248.809814453,46.0819282532 L248.495803833,48.1173248291 L248.082550049,50.2834854126 L247.622711182,52.4260406494 L247.192016602,54.3647422791 L246.840637207,55.9440383911 L246.618728638,57.0422515869 L246.582962036,57.591217041 L246.756744385,57.5891265869 L247.185806274,57.0591545105 L247.889694214,56.0557098389 L248.860427856,54.7321052551 L250.043365479,53.273059845 L251.35697937,51.8742637634 L252.706497192,50.7107620239 L254.01725769,49.8791427612 L255.209365845,49.430606842 L256.241943359,49.4077758789 L257.067993164,49.8196678162 L257.661987305,50.6603965759 L258.031311035,51.873336792 L258.211029053,53.3199424744 L258.270080566,54.8289222717 L258.327575684,56.2182617188 L258.499816895,57.333530426 L258.882904053,58.0735015869 L259.546264648,58.3690719604 L260.514892578,58.1730461121 L261.751434326,57.4977722168 L263.148529053,56.4102210999 L264.535705566,55.0422859192 L265.714416504,53.5594139099 L266.530456543,52.1260871887 L266.920501709,50.8704185486 L266.903259277,49.8960494995 L266.53692627,49.2735366821 L265.88494873,49.0625 L265.009857178,49.2973670959 L264.009887695,49.9915924072 L263.034118652,51.0998802185 L262.274719238,52.5176582336 L261.918670654,54.0887184143 L262.079376221,55.6301345825 L262.869567871,56.9523086548 L264.251220703,57.9251251221 L266.061767578,58.4959259033 L267.714416504,58.7352104187 L268.837921143,58.7775382996 " fill="none" stroke="white" stroke-linecap="round" stroke-width="2" /><path d="M285.801574707,49.8317260742 L285.814697266,49.967048645 L285.855712891,50.35572052 L285.924133301,51.1122589111 L286.002807617,52.2516937256 L286.066009521,53.6823425293 L286.114227295,55.2461700439 L286.194274902,56.7633590698 L286.361968994,58.0841140747 L286.653686523,59.1145858765 L287.088348389,59.7632751465 L287.66784668,59.9571838379 L288.412384033,59.6283187866 L289.330810547,58.7689666748 L290.385803223,57.4582672119 L291.473724365,55.8570518494 L292.483642578,54.1279373169 L293.33026123,52.4227409363 L294.004211426,50.8397979736 L294.51663208,49.4542808533 L294.937561035,48.3702888489 L295.300964355,47.6730651855 L295.635131836,47.3797569275 L295.895874023,47.364402771 L296.065246582,47.4662780762 " fill="none" stroke="white" stroke-linecap="round" stroke-width="2" /><path d="M296.776367188,57.4847259521 L296.92300415,57.4429016113 L297.307830811,57.2811775208 L297.993560791,56.9385490417 L298.957519531,56.3839149475 L300.099121094,55.6447753906 L301.290222168,54.7652435303 L302.429229736,53.7937736511 L303.410644531,52.7769622803 L304.133666992,51.7797393799 L304.529663086,50.8687515259 L304.545593262,50.1215286255 L304.174285889,49.610710144 L303.469207764,49.4109687805 L302.495697021,49.5742759705 L301.331237793,50.1357078552 L300.101501465,51.0852813721 L298.939453125,52.3600234985 L297.999328613,53.8587532043 L297.407318115,55.4610671997 L297.335845947,57.0063247681 L297.836395264,58.3357849121 L298.868530273,59.3325576782 L299.973266602,59.9321212769 L300.808563232,60.1967353821 " fill="none" stroke="white" stroke-linecap="round" stroke-width="2" /><path d="M310.22442627,51.7741203308 L310.053497314,51.8535842896 L309.767150879,52.1544914246 L309.372283936,52.7845916748 L308.920837402,53.761516571 L308.434204102,54.9823913574 L307.948516846,56.2854309082 L307.51574707,57.4905891418 L307.191589355,58.4771842957 L306.991882324,59.1611557007 L306.93347168,59.4741439819 L307.01272583,59.361000061 L307.23059082,58.7817802429 L307.592529297,57.7463302612 L308.081848145,56.3794631958 L308.660552979,54.8633232117 L309.307556152,53.3692245483 L309.997375488,52.0173721313 L310.748962402,50.8781242371 L311.560089111,49.9825706482 L312.472076416,49.3782958984 L313.476196289,49.0845413208 L314.535552979,49.0595321655 L315.409484863,49.1674308777 L315.979095459,49.2933387756 " fill="none" stroke="white" stroke-linecap="round" stroke-width="2" /><path d="M319.178131104,50.5275688171 L319.271881104,50.674911499 L319.400909424,51.0195236206 L319.532287598,51.5957450867 L319.635437012,52.3701629639 L319.747589111,53.2759208679 L319.905487061,54.2079391479 L320.174133301,55.0765914917 L320.642272949,55.7699241638 L321.33605957,56.1871871948 L322.218566895,56.2840461731 L323.027679443,56.18309021 L323.577423096,56.0191497803 " fill="none" stroke="white" stroke-linecap="round" stroke-width="2" /><path d="M328.449981689,51.6075668335 L328.281066895,51.701133728 L327.86932373,51.972568512 L327.146026611,52.4873886108 L326.078918457,53.2634468079 L324.673034668,54.2708625793 L322.955993652,55.483795166 L321.012084961,56.8616333008 L319.005493164,58.3668212891 L317.149932861,59.9309616089 L315.60043335,61.4619483948 L314.507598877,62.8097953796 L313.909942627,63.8416824341 L313.771209717,64.4536590576 L313.896331787,64.701751709 L314.094970703,64.723526001 " fill="none" stroke="white" stroke-linecap="round" stroke-width="2" /><path d="M347.427612305,49.0191650391 L346.636108398,49.0291976929 L345.360015869,49.126701355 L343.759216309,49.3745384216 L342.2003479,49.8137893677 L340.849761963,50.4468917847 L339.846221924,51.2561836243 L339.26965332,52.2193870544 L339.22454834,53.3044013977 L339.731323242,54.4534492493 L340.76864624,55.5891036987 L342.185913086,56.6402359009 L343.735534668,57.5507736206 L345.139038086,58.2970352173 L346.139343262,58.8728752136 L346.548217773,59.281047821 L346.29977417,59.5428886414 L345.35760498,59.6839675903 L343.757476807,59.7207756042 L341.634613037,59.6881217957 L339.216674805,59.5886650085 L336.824493408,59.4227523804 L334.80670166,59.2117996216 L333.453613281,59.0192718506 L332.774505615,58.882850647 " fill="none" stroke="white" stroke-linecap="round" stroke-width="2" /><path d="M357.931304932,53.3571853638 L357.888885498,53.0273513794 L357.758422852,52.4937324524 L357.45993042,51.8508491516 L356.91229248,51.2758789062 L356.034423828,50.8733901978 L354.826812744,50.7417488098 L353.346954346,50.9311408997 L351.73626709,51.4690513611 L350.166992188,52.3444404602 L348.808746338,53.4864730835 L347.765777588,54.7935752869 L347.149871826,56.1390419006 L347.00958252,57.3791809082 L347.37008667,58.3657226562 L348.22164917,58.9659118652 L349.50213623,59.0859260559 L351.060821533,58.7045631409 L352.768981934,57.8810081482 L354.456756592,56.743927002 L355.964752197,55.4500465393 L357.179412842,54.170173645 L358.04598999,53.0435562134 L358.545501709,52.1576576233 L358.74710083,51.5623550415 L358.726257324,51.2941818237 L358.546875,51.3801231384 L358.259918213,51.8766517639 L357.924041748,52.7905654907 L357.59197998,54.0531539917 L357.332763672,55.5298919678 L357.200195312,57.0627212524 L357.25579834,58.4571418762 L357.52456665,59.5659408569 L358.00769043,60.2847213745 L358.511230469,60.6348648071 L358.891448975,60.7274246216 " fill="none" stroke="white" stroke-linecap="round" stroke-width="2" /><path d="M363.130004883,51.3100280762 L363.139526367,51.2832221985 L363.165100098,51.3900260925 L363.203369141,51.7655181885 L363.224121094,52.5112342834 L363.185302734,53.5891151428 L363.076599121,54.8812026978 L362.911468506,56.2090911865 L362.755615234,57.410697937 L362.692047119,58.3542938232 L362.762939453,58.9525909424 L362.978118896,59.1443443298 L363.346313477,58.9068641663 L363.853210449,58.2393302917 L364.520477295,57.1928138733 L365.369171143,55.8738746643 L366.370910645,54.4305686951 L367.480865479,53.0342941284 L368.624145508,51.8433570862 L369.708618164,50.9941711426 L370.670654297,50.568561554 L371.457183838,50.6055030823 L372.00668335,51.0924377441 L372.284362793,51.9740715027 L372.268432617,53.1396179199 L372.002197266,54.45728302 L371.599975586,55.7453346252 L371.197998047,56.8423805237 L370.932037354,57.6212692261 L370.89276123,58.001537323 L371.124145508,57.9436264038 L371.655456543,57.4446029663 L372.479400635,56.5258369446 L373.536376953,55.2881622314 L374.751434326,53.8924064636 L376.023406982,52.5267105103 L377.264831543,51.3767089844 L378.43548584,50.5707626343 L379.485687256,50.1743278503 L380.370300293,50.2096862793 L381.02746582,50.6664047241 L381.396240234,51.5004882812 L381.457183838,52.6544532776 L381.271209717,54.0158843994 L380.953491211,55.4478569031 L380.662475586,56.7898368835 L380.510192871,57.9123764038 L380.488464355,58.6713943481 L380.536682129,59.0721549988 " fill="none" stroke="white" stroke-linecap="round" stroke-width="2" /><path d="M384.312530518,57.1570510864 L384.721801758,56.9602050781 L385.525177002,56.5669250488 L386.714782715,55.9649276733 L388.137268066,55.1834068298 L389.643707275,54.2499580383 L391.07409668,53.2070426941 L392.32208252,52.130241394 L393.289215088,51.1060066223 L393.881591797,50.2308692932 L394.011688232,49.5695915222 L393.600036621,49.1887588501 L392.624084473,49.1478996277 L391.164276123,49.5239448547 L389.40713501,50.3467407227 L387.628356934,51.5796737671 L386.125030518,53.1066131592 L385.186645508,54.7687644958 L385.018737793,56.3850898743 L385.756347656,57.8131484985 L387.638122559,58.9178199768 L390.64666748,59.6178474426 L394.508575439,59.9020233154 L398.035400391,59.9137229919 L400.428588867,59.8118057251 " fill="none" stroke="white" stroke-linecap="round" stroke-width="2" /><path d="M0,0 " fill="none" stroke="white" stroke-linecap="round" stroke-width="2" /><path d="M44.5203742981,99.7565307617 L44.5402679443,100.182067871 L44.5958404541,100.992675781 L44.6787643433,102.199264526 L44.7439994812,103.700920105 L44.7394256592,105.459396362 L44.633605957,107.428504944 L44.4640312195,109.556114197 L44.2779922485,111.73790741 L44.1332778931,113.844665527 L44.0502548218,115.733390808 L44.0189361572,117.307571411 L44.0246047974,118.443130493 L44.0613555908,119.058242798 L44.1020736694,119.143623352 L44.1376914978,118.929466248 L44.1607589722,118.644287109 " fill="none" stroke="white" stroke-linecap="round" stroke-width="2" /><path d="M36.1958084106,97.7757110596 L36.2265625,97.7345581055 L36.4398651123,97.6687927246 L36.9953842163,97.5905838013 L38.0072631836,97.4987716675 L39.5002441406,97.3868179321 L41.4105415344,97.2482299805 L43.6051177979,97.0745010376 L45.9771347046,96.8720550537 L48.3648719788,96.6633911133 L50.5887527466,96.4538726807 L52.2659683228,96.2904815674 L53.2523002625,96.1921539307 " fill="none" stroke="white" stroke-linecap="round" stroke-width="2" /><path d="M56.625202179,97.5053405762 L56.6351242065,97.9152603149 L56.6126861572,98.7553482056 L56.5191650391,100.084259033 L56.3063774109,101.832740784 L55.9585151672,103.926841736 L55.4980201721,106.233261108 L54.9804992676,108.598861694 L54.4838142395,110.841583252 L54.1012039185,112.780929565 L53.8538246155,114.291000366 L53.7320289612,115.328285217 L53.711063385,115.878471375 L53.7751235962,115.949043274 L53.9653320312,115.54548645 L54.3696708679,114.661476135 L55.0248527527,113.359031677 L55.9310379028,111.8019104 L57.0453605652,110.180084229 L58.2939834595,108.692443848 L59.6213531494,107.499229431 L60.9774246216,106.684577942 L62.3046379089,106.30456543 L63.531578064,106.390678406 L64.5890655518,106.943115234 L65.4273147583,107.938972473 L66.0213165283,109.308601379 L66.3592681885,110.932380676 L66.4761199951,112.648040771 L66.4361801147,114.244033813 L66.3235549927,115.540939331 L66.2220458984,116.38949585 L66.1688766479,116.805847168 " fill="none" stroke="white" stroke-linecap="round" stroke-width="2" /><path d="M69.8222961426,113.197647095 L70.1337738037,113.227882385 L70.8209762573,113.161056519 L71.9322967529,112.898773193 L73.3499679565,112.364952087 L74.9016342163,111.579925537 L76.4026641846,110.610870361 L77.6866760254,109.534439087 L78.6485137939,108.422859192 L79.2281646729,107.351470947 L79.3653411865,106.392913818 L79.0525360107,105.64440918 L78.2776031494,105.206611633 L77.0669250488,105.167991638 L75.5219116211,105.586677551 L73.8232727051,106.464958191 L72.1992340088,107.736801147 L70.9197921753,109.288993835 L70.1816864014,110.978164673 L70.1180648804,112.653717041 L70.9196777344,114.151382446 L72.590927124,115.330482483 L74.9754638672,116.10710144 L77.2514419556,116.501480103 L78.8477325439,116.62890625 " fill="none" stroke="white" stroke-linecap="round" stroke-width="2" /><path d="M99.7436523438,100.17565155 L99.8166656494,100.23210907 L99.9538421631,100.442146301 L100.119384766,100.902542114 L100.238571167,101.67401123 L100.257202148,102.758476257 L100.125961304,104.125427246 L99.8562774658,105.720878601 L99.4987792969,107.457321167 L99.1132507324,109.209030151 L98.7597503662,110.813720703 L98.4930267334,112.130661011 L98.3061828613,113.058639526 L98.2004699707,113.530006409 L98.1964874268,113.51386261 L98.3392791748,112.999404907 L98.6808624268,112.019767761 L99.2772979736,110.70791626 L100.137374878,109.246063232 L101.246185303,107.792259216 L102.58996582,106.483200073 L104.145828247,105.405937195 L105.857833862,104.631637573 L107.662216187,104.241149902 L109.456665039,104.293296814 L111.102172852,104.798278809 L112.477508545,105.7292099 L113.500900269,107.008056641 L114.135009766,108.52256012 L114.374893188,110.136665344 L114.237503052,111.710456848 L113.709915161,113.11706543 L112.777954102,114.259407043 L111.452301025,115.078269958 L109.812301636,115.540664673 L107.976730347,115.660049438 L106.104492188,115.448883057 L104.360458374,114.965950012 L102.882858276,114.310806274 L101.854827881,113.715301514 L101.300628662,113.313743591 " fill="none" stroke="white" stroke-linecap="round" stroke-width="2" /><path d="M116.338943481,113.189552307 L116.706237793,113.001167297 L117.405014038,112.608375549 L118.415908813,111.988937378 L119.597763062,111.174842834 L120.861785889,110.202613831 L122.076568604,109.117904663 L123.147277832,107.986473083 L123.973770142,106.890838623 L124.484405518,105.931602478 L124.61630249,105.184761047 L124.371109009,104.710906982 L123.728408813,104.557548523 L122.713562012,104.782539368 L121.386306763,105.430084229 L119.903869629,106.505691528 L118.436431885,107.931854248 L117.191986084,109.557785034 L116.349716187,111.215888977 L116.022094727,112.748420715 L116.386825562,114.017463684 L117.497375488,114.937606812 L119.242355347,115.474510193 L120.965484619,115.695144653 L122.207336426,115.729888916 " fill="none" stroke="white" stroke-linecap="round" stroke-width="2" /><path d="M135.730575562,108.985710144 L135.654403687,108.653518677 L135.455215454,108.136016846 L135.057113647,107.545730591 L134.398880005,107.084976196 L133.457763672,106.874649048 L132.261016846,106.989562988 L130.915557861,107.452827454 L129.589096069,108.234115601 L128.444213867,109.251319885 L127.645858765,110.387908936 L127.307250977,111.511566162 L127.478088379,112.487602234 L128.183120728,113.213264465 L129.364974976,113.59287262 L130.887939453,113.57283783 L132.619033813,113.154693604 L134.363067627,112.380767822 L135.94354248,111.342453003 L137.245437622,110.179679871 L138.173675537,109.040489197 L138.699356079,108.049842834 L138.894683838,107.294158936 L138.843505859,106.813407898 L138.65032959,106.637496948 L138.40512085,106.813110352 L138.149673462,107.394302368 L137.92350769,108.383964539 L137.783508301,109.735336304 L137.772003174,111.360176086 L137.901062012,113.173721313 L138.133865356,115.097244263 L138.388244629,117.056060791 L138.569717407,118.956954956 L138.609420776,120.709793091 L138.434432983,122.235778809 L137.990829468,123.481994629 L137.25541687,124.407913208 L136.240783691,124.967163086 L135.008758545,125.130111694 L133.68661499,124.896766663 L132.385055542,124.299308777 L131.215164185,123.391700745 L130.275894165,122.269256592 L129.68812561,120.949211121 L129.524414062,119.498588562 L129.801055908,118.006668091 L130.257843018,116.794975281 L130.663223267,116.026367188 " fill="none" stroke="white" stroke-linecap="round" stroke-width="2" /><path d="M143.347167969,106.874656677 L143.426589966,107.046600342 L143.522399902,107.483177185 L143.588562012,108.259529114 L143.572433472,109.353492737 L143.493255615,110.663269043 L143.387207031,112.033279419 L143.286727905,113.314613342 L143.253387451,114.30242157 L143.310043335,114.831001282 L143.456481934,114.835784912 L143.628356934,114.543869019 L143.765945435,114.197463989 " fill="none" stroke="white" stroke-linecap="round" stroke-width="2" /><path d="M144.561828613,100.444389343 L144.605026245,100.205085754 L144.69229126,99.9367675781 L144.790863037,99.7235641479 L144.868041992,99.6495819092 " fill="none" stroke="white" stroke-linecap="round" stroke-width="2" /><path d="M149.557632446,106.470565796 L149.613479614,106.554275513 L149.696472168,106.823486328 L149.776046753,107.369018555 L149.785720825,108.237533569 L149.698501587,109.401863098 L149.51512146,110.74520874 L149.276870728,112.096260071 L149.060562134,113.281555176 L148.924331665,114.148445129 L148.866622925,114.601890564 L148.899841309,114.606529236 L149.023757935,114.129325867 L149.278427124,113.167274475 L149.697616577,111.79977417 L150.326660156,110.17906189 L151.145767212,108.488189697 L152.154373169,106.916793823 L153.340744019,105.586532593 L154.677749634,104.564460754 L156.094223022,103.895927429 L157.528839111,103.610084534 L158.879699707,103.726699829 L160.080291748,104.267860413 L161.080871582,105.234870911 L161.79725647,106.590103149 L162.189071655,108.243789673 L162.254364014,110.040992737 L162.079269409,111.788108826 L161.816467285,113.28364563 L161.604309082,114.381896973 L161.487533569,115.02507019 L161.462142944,115.298881531 " fill="none" stroke="white" stroke-linecap="round" stroke-width="2" /><path d="M166.076141357,105.741424561 L166.105758667,105.920318604 L166.147857666,106.379211426 L166.163711548,107.204193115 L166.101852417,108.369812012 L165.963317871,109.775970459 L165.744995117,111.240592957 L165.509307861,112.587211609 L165.330856323,113.670524597 L165.236740112,114.38898468 L165.230239868,114.66268158 L165.345733643,114.464012146 L165.572738647,113.770187378 L165.925704956,112.642082214 L166.419113159,111.204315186 L167.05178833,109.623916626 L167.815032959,108.047767639 L168.731796265,106.593696594 L169.7865448,105.336601257 L170.949081421,104.351730347 L172.169036865,103.70716095 L173.392730713,103.464347839 L174.553787231,103.658966064 L175.60194397,104.304901123 L176.477493286,105.38180542 L177.128387451,106.832023621 L177.52722168,108.536453247 L177.688140869,110.328727722 L177.701568604,111.987174988 L177.681442261,113.310752869 L177.723831177,114.170837402 L177.818603516,114.59437561 L177.92124939,114.716369629 " fill="none" stroke="white" stroke-linecap="round" stroke-width="2" /><path d="M183.427429199,106.314582825 L183.456466675,106.348098755 L183.500411987,106.548126221 L183.543945312,107.049171448 L183.539993286,107.942405701 L183.442428589,109.20665741 L183.24130249,110.718467712 L182.972427368,112.293754578 L182.717819214,113.687355042 L182.562911987,114.693893433 L182.532806396,115.201370239 L182.576751709,115.320770264 L182.636352539,115.238975525 " fill="none" stroke="white" stroke-linecap="round" stroke-width="2" /><path d="M184.62979126,98.5857467651 L184.597640991,98.3141708374 L184.586669922,97.9753265381 L184.596588135,97.6799468994 L184.627029419,97.5388031006 " fill="none" stroke="white" stroke-linecap="round" stroke-width="2" /><path d="M190.012359619,106.502227783 L190.026138306,106.910614014 L190.038726807,107.673736572 L190.024612427,108.781204224 L189.955780029,110.086212158 L189.8228302,111.466796875 L189.656387329,112.777809143 L189.489761353,113.907463074 L189.381668091,114.741539001 L189.353393555,115.195877075 L189.400390625,115.199272156 L189.504669189,114.717933655 L189.680358887,113.764549255 L189.934997559,112.457603455 L190.328765869,110.939613342 L190.890090942,109.370323181 L191.639007568,107.859191895 L192.577896118,106.506065369 L193.696151733,105.374198914 L194.933990479,104.561950684 L196.249710083,104.132827759 L197.562942505,104.120445251 L198.821685791,104.503715515 L199.981414795,105.256652832 L200.98274231,106.307952881 L201.741897583,107.594703674 L202.203491211,109.029281616 L202.348693848,110.496856689 L202.278793335,111.886322021 L202.145553589,113.085456848 L202.09375,114.00479126 L202.134765625,114.583747864 L202.220733643,114.862586975 " fill="none" stroke="white" stroke-linecap="round" stroke-width="2" /><path d="M210.808517456,108.262214661 L210.815658569,107.972434998 L210.811813354,107.548217773 L210.761123657,107.072227478 L210.610931396,106.687538147 L210.318099976,106.461837769 L209.832901001,106.474571228 L209.10975647,106.777732849 L208.199920654,107.42678833 L207.193435669,108.389305115 L206.242233276,109.561500549 L205.543945312,110.807548523 L205.244094849,111.977455139 L205.416381836,112.91847229 L206.095062256,113.507102966 L207.219940186,113.657188416 L208.671783447,113.346954346 L210.287216187,112.642913818 L211.84942627,111.683197021 L213.171905518,110.618331909 L214.15675354,109.596694946 L214.788375854,108.721733093 L215.117706299,108.048126221 L215.233200073,107.622505188 L215.217697144,107.504852295 L215.131896973,107.748832703 L215.02154541,108.414169312 L214.917221069,109.508255005 L214.834640503,110.974952698 L214.812393188,112.724098206 L214.885055542,114.658973694 L215.022567749,116.681640625 L215.1537323,118.701034546 L215.166305542,120.622329712 L214.956939697,122.355392456 L214.478744507,123.806167603 L213.739852905,124.913459778 L212.747085571,125.624137878 L211.522537231,125.919616699 L210.103729248,125.844200134 L208.521377563,125.472541809 L206.823867798,124.885322571 L205.080795288,124.171531677 L203.375518799,123.379867554 L201.792953491,122.524703979 L200.452758789,121.662727356 L199.401931763,120.842643738 L198.71685791,120.213012695 L198.363845825,119.840011597 " fill="none" stroke="white" stroke-linecap="round" stroke-width="2" /><path d="M236.098236084,108.25302887 L236.107345581,108.122016907 L236.107131958,107.934890747 L236.063415527,107.730079651 L235.932327271,107.575553894 L235.661651611,107.487068176 L235.196075439,107.474685669 L234.514465332,107.553367615 L233.651733398,107.766990662 L232.669876099,108.132385254 L231.653747559,108.654251099 L230.67098999,109.306747437 L229.788757324,110.063690186 L229.069671631,110.901451111 L228.569824219,111.820968628 L228.346328735,112.796943665 L228.430938721,113.785758972 L228.825668335,114.703300476 L229.517608643,115.459365845 L230.489151001,115.960800171 L231.692230225,116.144241333 L233.063461304,115.969421387 L234.505569458,115.440208435 L235.884048462,114.575065613 L237.046325684,113.449935913 L237.881469727,112.153015137 L238.322784424,110.788421631 L238.356536865,109.462135315 L237.975158691,108.255317688 L237.237258911,107.227874756 L236.231933594,106.437088013 L235.30015564,105.929100037 L234.661758423,105.675827026 " fill="none" stroke="white" stroke-linecap="round" stroke-width="2" /><path d="M250.138000488,99.3726272583 L250.068115234,98.9615707397 L249.933441162,98.3566207886 L249.68737793,97.6905975342 L249.28994751,97.1874160767 L248.707870483,96.9449081421 L247.938156128,97.0435409546 L247.025390625,97.5112304688 L246.065612793,98.3774337769 L245.145812988,99.6059265137 L244.33795166,101.127929688 L243.708435059,102.877716064 L243.256820679,104.798530579 L242.959228516,106.84942627 L242.78225708,108.992454529 L242.707565308,111.171699524 L242.711593628,113.310585022 L242.789230347,115.281036377 L242.902786255,116.943328857 L243.005462646,118.092178345 L243.066818237,118.703865051 " fill="none" stroke="white" stroke-linecap="round" stroke-width="2" /><path d="M239.182876587,110.437606812 L239.552261353,110.431060791 L240.255645752,110.407531738 L241.033599854,110.376739502 L241.626647949,110.34841156 " fill="none" stroke="white" stroke-linecap="round" stroke-width="2" /><path d="M264.119445801,102.204185486 L264.180725098,102.523834229 L264.252380371,103.21245575 L264.295532227,104.322029114 L264.250091553,105.77431488 L264.078796387,107.466384888 L263.820343018,109.291069031 L263.515869141,111.142753601 L263.247650146,112.935142517 L263.079772949,114.561645508 L263.021942139,115.914375305 L263.026489258,116.839736938 L263.058288574,117.334068298 " fill="none" stroke="white" stroke-linecap="round" stroke-width="2" /><path d="M256.717590332,108.094146729 L256.982696533,108.139953613 L257.713409424,108.203147888 L259.024627686,108.256095886 L260.889923096,108.253677368 L263.070556641,108.196655273 L265.304412842,108.102134705 L267.068756104,108.011108398 L268.149230957,107.954154968 " fill="none" stroke="white" stroke-linecap="round" stroke-width="2" /><path d="M273.620788574,99.6223449707 L273.735015869,99.888458252 L273.929351807,100.491706848 L274.143096924,101.515136719 L274.265899658,102.937698364 L274.240264893,104.704917908 L274.033752441,106.690872192 L273.704833984,108.765380859 L273.347137451,110.763519287 L273.040985107,112.505783081 L272.836151123,113.867729187 L272.752929688,114.78213501 L272.77835083,115.207061768 L272.910003662,115.158248901 L273.155212402,114.652999878 L273.558258057,113.717918396 L274.156066895,112.474594116 L274.953643799,111.066612244 L275.943817139,109.627868652 L277.076751709,108.281593323 L278.289886475,107.115341187 L279.535186768,106.192001343 L280.753051758,105.585601807 L281.87689209,105.336723328 L282.876617432,105.466567993 L283.705169678,105.970146179 L284.336181641,106.825187683 L284.758239746,107.981712341 L284.989685059,109.38722229 L285.077209473,110.913200378 L285.117401123,112.415290833 L285.145690918,113.58013916 L285.179260254,114.277130127 " fill="none" stroke="white" stroke-linecap="round" stroke-width="2" /><path d="M291.093017578,113.124259949 L291.576507568,112.825653076 L292.416992188,112.26815033 L293.506561279,111.470329285 L294.616485596,110.529586792 L295.609069824,109.507820129 L296.390991211,108.485939026 L296.910705566,107.523971558 L297.139923096,106.683128357 L297.019561768,106.034606934 L296.530853271,105.631370544 L295.680267334,105.537719727 L294.516235352,105.822311401 L293.132415771,106.504440308 L291.684814453,107.564002991 L290.359436035,108.931503296 L289.370239258,110.504478455 L288.922271729,112.172706604 L289.163024902,113.821975708 L290.151123047,115.331268311 L291.96484375,116.555282593 L294.488952637,117.378746033 L297.451599121,117.761169434 L300.017730713,117.826255798 L301.69543457,117.742500305 " fill="none" stroke="white" stroke-linecap="round" stroke-width="2" /><path d="M321.061340332,106.569961548 L320.898986816,106.313537598 L320.535400391,105.983810425 L319.905639648,105.707885742 L318.993713379,105.648254395 L317.815948486,105.841438293 L316.496429443,106.276222229 L315.215026855,106.892936707 L314.191802979,107.636993408 L313.62902832,108.459701538 L313.652862549,109.322128296 L314.294311523,110.205383301 L315.513549805,111.092651367 L317.148132324,111.952354431 L318.994995117,112.74508667 L320.823272705,113.451911926 L322.407592773,114.074310303 L323.590911865,114.633110046 L324.292205811,115.154403687 L324.466644287,115.642303467 L324.118652344,116.084259033 L323.272888184,116.472862244 L321.953399658,116.806755066 L320.254882812,117.085998535 L318.297485352,117.29788208 L316.292633057,117.430091858 L314.466552734,117.480751038 L313.144104004,117.477989197 L312.405273438,117.456687927 " fill="none" stroke="white" stroke-linecap="round" stroke-width="2" /><path d="M328.038513184,108.149040222 L328.099060059,108.206687927 L328.200469971,108.468109131 L328.295715332,109.063568115 L328.328857422,110.087562561 L328.241973877,111.533088684 L328.010986328,113.355537415 L327.640411377,115.45186615 L327.166809082,117.692298889 L326.629272461,119.911231995 L326.106506348,121.938323975 L325.661132812,123.616119385 L325.35055542,124.849105835 L325.181213379,125.55758667 L325.129638672,125.709381104 L325.16784668,125.294471741 L325.297454834,124.330734253 L325.535949707,122.885650635 L325.921417236,121.078399658 L326.46685791,119.053016663 L327.17199707,116.955810547 L328.021148682,114.905052185 L328.990661621,112.997497559 L330.041473389,111.290473938 L331.154968262,109.837371826 L332.317230225,108.702056885 L333.548400879,107.93674469 L334.847930908,107.569747925 L336.177215576,107.613113403 L337.457397461,108.020103455 L338.589691162,108.721534729 L339.448638916,109.620162964 L339.962890625,110.639976501 L340.083862305,111.688339233 L339.794921875,112.680702209 L339.127258301,113.529716492 L338.116821289,114.163482666 L336.795806885,114.524154663 L335.232940674,114.623855591 L333.524658203,114.486351013 L331.820678711,114.132987976 L330.320587158,113.609596252 L329.17855835,112.990707397 L328.483978271,112.451881409 L328.176239014,112.103042603 " fill="none" stroke="white" stroke-linecap="round" stroke-width="2" /><path d="M342.698791504,107.399131775 L342.759643555,107.671066284 L342.834625244,108.200454712 L342.896820068,108.989349365 L342.906463623,109.97366333 L342.850402832,111.103996277 L342.744232178,112.316055298 L342.631774902,113.540565491 L342.555969238,114.61807251 L342.554748535,115.369125366 L342.625946045,115.684890747 L342.716186523,115.675064087 L342.785003662,115.519645691 " fill="none" stroke="white" stroke-linecap="round" stroke-width="2" /><path d="M343.760101318,100.679153442 L343.808044434,100.541603088 L343.910369873,100.39315033 L344.02835083,100.279563904 L344.123321533,100.246612549 " fill="none" stroke="white" stroke-linecap="round" stroke-width="2" /><path d="M349.563201904,108.204193115 L349.524353027,108.509513855 L349.445343018,109.13609314 L349.313476562,110.110801697 L349.148956299,111.349319458 L348.973358154,112.729972839 L348.837219238,114.088043213 L348.759185791,115.265350342 L348.740356445,116.139686584 L348.756713867,116.592796326 L348.824157715,116.572990417 L348.965270996,116.055450439 L349.221160889,115.067390442 L349.597839355,113.723052979 L350.080322266,112.183158875 L350.651733398,110.574333191 L351.345458984,109.0390625 L352.207000732,107.686332703 L353.245544434,106.590034485 L354.392822266,105.804229736 L355.583953857,105.367156982 L356.723480225,105.242500305 L357.75894165,105.373046875 L358.540679932,105.600418091 L359.012542725,105.798141479 " fill="none" stroke="white" stroke-linecap="round" stroke-width="2" /><path d="M363.333679199,106.614173889 L363.367095947,106.684753418 L363.411132812,106.949005127 L363.44039917,107.532737732 L363.397277832,108.492256165 L363.244354248,109.794647217 L362.981384277,111.326072693 L362.673431396,112.938270569 L362.409301758,114.428588867 L362.271942139,115.618156433 L362.282714844,116.379135132 L362.373565674,116.739677429 L362.467437744,116.825027466 " fill="none" stroke="white" stroke-linecap="round" stroke-width="2" /><path d="M364.404663086,100.390075684 L364.46081543,100.321266174 L364.640106201,100.305511475 L364.870574951,100.339759827 L365.080230713,100.420913696 " fill="none" stroke="white" stroke-linecap="round" stroke-width="2" /><path d="M372.936004639,99.7779159546 L372.967468262,99.8076248169 L372.975158691,100.035507202 L372.898468018,100.623519897 L372.679595947,101.68572998 L372.31072998,103.197067261 L371.842102051,105.065834045 L371.339416504,107.1668396 L370.90032959,109.360710144 L370.600219727,111.510002136 L370.492675781,113.475547791 L370.600067139,115.107315063 L370.940673828,116.220489502 L371.459991455,116.707794189 L372.094177246,116.563148499 L372.649108887,116.107719421 L373.013061523,115.651481628 " fill="none" stroke="white" stroke-linecap="round" stroke-width="2" /><path d="M370.018676758,107.108200073 L370.33380127,107.158813477 L371.053863525,107.250450134 L371.90411377,107.349777222 L372.609680176,107.423461914 " fill="none" stroke="white" stroke-linecap="round" stroke-width="2" /><path d="M383.160949707,105.731758118 L382.871459961,105.882598877 L382.42755127,106.267730713 L381.90737915,106.971214294 L381.428100586,108.002281189 L381.025024414,109.318618774 L380.724456787,110.81187439 L380.573638916,112.337478638 L380.655212402,113.741096497 L381.046875,114.873718262 L381.757324219,115.599975586 L382.778839111,115.857559204 L384.035522461,115.612182617 L385.423156738,114.894569397 L386.8125,113.790878296 L388.061279297,112.424278259 L389.059753418,110.917411804 L389.784332275,109.423217773 L390.257141113,108.067245483 L390.540161133,106.958656311 L390.687713623,106.166610718 L390.71862793,105.738510132 L390.672698975,105.69683075 L390.565826416,106.069602966 L390.414733887,106.873680115 L390.242431641,108.064697266 L390.083099365,109.545654297 L389.975067139,111.17035675 L390.044372559,112.778907776 L390.363616943,114.207473755 L390.949371338,115.341239929 L391.570037842,116.070785522 L392.040985107,116.430809021 " fill="none" stroke="white" stroke-linecap="round" stroke-width="2" /><path d="M402.4034729,108.314964294 L402.185028076,108.004631042 L401.75189209,107.540733337 L401.069671631,107.034255981 L400.176483154,106.675430298 L399.129516602,106.595916748 L397.975982666,106.85874939 L396.801879883,107.483253479 L395.754058838,108.441329956 L394.94430542,109.631874084 L394.479736328,110.906951904 L394.437011719,112.136817932 L394.811737061,113.14730072 L395.594512939,113.808387756 L396.753723145,114.024139404 L398.172637939,113.768096924 L399.700836182,113.088027954 L401.170654297,112.111824036 L402.413238525,110.97177124 L403.349029541,109.822715759 L403.979034424,108.806915283 L404.338500977,108.010940552 L404.493164062,107.494255066 L404.499023438,107.297607422 L404.390045166,107.450454712 L404.200073242,108.004219055 L403.964263916,108.989448547 L403.740905762,110.333641052 L403.618865967,111.925285339 L403.648345947,113.562194824 L403.850738525,115.035179138 L404.109680176,116.093421936 L404.316101074,116.679122925 " fill="none" stroke="white" stroke-linecap="round" stroke-width="2" /><path d="M410.567749023,96.445602417 L410.588562012,96.2081680298 L410.638977051,96.0 L410.703186035,96.0246734619 L410.74420166,96.5089569092 L410.699401855,97.4954833984 L410.5206604,98.9494171143 L410.240325928,100.771820068 L409.92779541,102.859352112 L409.655395508,105.073707581 L409.501220703,107.263450623 L409.46875,109.279067993 L409.539123535,110.956855774 L409.707305908,112.173027039 L409.945587158,112.873748779 L410.164489746,113.154983521 L410.324371338,113.183998108 " fill="none" stroke="white" stroke-linecap="round" stroke-width="2" /><path d="M428.297943115,97.2783050537 L428.313934326,97.341255188 L428.315216064,97.6431808472 L428.247772217,98.3403625488 L428.049621582,99.5174942017 L427.672393799,101.142150879 L427.145355225,103.106941223 L426.553894043,105.272659302 L426.014770508,107.495109558 L425.62286377,109.638366699 L425.435211182,111.570449829 L425.43371582,113.21434021 L425.67074585,114.449859619 L426.166748047,115.192863464 L426.906799316,115.417190552 L427.638183594,115.31463623 L428.176269531,115.095199585 " fill="none" stroke="white" stroke-linecap="round" stroke-width="2" /><path d="M433.123291016,107.176094055 L433.095733643,107.52191925 L433.039337158,108.202186584 L432.949523926,109.220840454 L432.831756592,110.473953247 L432.704315186,111.876663208 L432.604522705,113.308357239 L432.557067871,114.65952301 L432.627655029,115.739883423 L432.843933105,116.366409302 L433.198760986,116.445991516 L433.559173584,116.196243286 L433.826660156,115.864501953 " fill="none" stroke="white" stroke-linecap="round" stroke-width="2" /><path d="M436.412811279,102.285385132 L436.39642334,102.064399719 L436.39630127,101.808082581 L436.428771973,101.602745056 L436.538818359,101.566230774 L436.721862793,101.670181274 L436.987915039,101.883003235 L437.250793457,102.096435547 L437.442779541,102.258300781 " fill="none" stroke="white" stroke-linecap="round" stroke-width="2" /><path d="M445.708679199,108.718521118 L445.535827637,108.362075806 L445.158233643,107.8097229 L444.502471924,107.188026428 L443.558074951,106.715713501 L442.348205566,106.511161804 L440.986450195,106.625190735 L439.660247803,107.048904419 L438.59375,107.737876892 L437.966430664,108.617774963 L437.895080566,109.581756592 L438.378601074,110.510406494 L439.34262085,111.257087708 L440.643859863,111.718673706 L442.129974365,111.825836182 L443.636383057,111.570632935 L445.030639648,110.992019653 L446.194854736,110.169662476 L447.059082031,109.214096069 L447.60369873,108.276741028 L447.88168335,107.472579956 L447.960235596,106.903961182 L447.917205811,106.643928528 L447.817871094,106.757606506 L447.709442139,107.319274902 L447.62411499,108.36857605 L447.587860107,109.862434387 L447.591766357,111.69732666 L447.614807129,113.73664856 L447.614654541,115.846282959 L447.536956787,117.915206909 L447.316192627,119.826667786 L446.892913818,121.468948364 L446.222564697,122.733146667 L445.300109863,123.540588379 L444.167144775,123.863273621 L442.919494629,123.639648438 L441.71194458,122.89087677 L440.68963623,121.727241516 L440.000488281,120.588897705 L439.648834229,119.777824402 " fill="none" stroke="white" stroke-linecap="round" stroke-width="2" /><path d="M452.399169922,100.541282654 L452.362091064,101.018569946 L452.281616211,101.967124939 L452.131561279,103.393951416 L451.908325195,105.13293457 L451.648651123,107.025520325 L451.403503418,108.885314941 L451.235778809,110.544761658 L451.20614624,111.868278503 L451.339813232,112.73261261 L451.648773193,113.046699524 L452.169403076,112.80721283 L452.926879883,112.057746887 L453.888824463,110.923873901 L454.982666016,109.607589722 L456.108612061,108.310562134 L457.162689209,107.185379028 L458.105072021,106.361572266 L458.958312988,105.896034241 L459.741516113,105.832778931 L460.4503479,106.185752869 L461.063812256,106.95589447 L461.530944824,108.090240479 L461.81640625,109.503410339 L461.963562012,111.042762756 L462.052825928,112.515151978 L462.165313721,113.717147827 L462.298431396,114.501525879 L462.419342041,114.879112244 " fill="none" stroke="white" stroke-linecap="round" stroke-width="2" /><path d="M469.500427246,98.4325408936 L469.556335449,98.4151229858 L469.683410645,98.5524749756 L469.860412598,98.9976119995 L470.022521973,99.8639678955 L470.087249756,101.145202637 L469.994110107,102.783821106 L469.730804443,104.661109924 L469.361816406,106.65776825 L468.983947754,108.656867981 L468.698547363,110.522346497 L468.585388184,112.15146637 L468.662994385,113.420135498 L468.881225586,114.224281311 L469.155914307,114.542617798 L469.38583374,114.53944397 L469.518798828,114.398429871 " fill="none" stroke="white" stroke-linecap="round" stroke-width="2" /><path d="M0,0 " fill="none" stroke="white" stroke-linecap="round" stroke-width="2" /><path d="M42.0189971924,151.891555786 L42.0110473633,152.11479187 L42.0421028137,152.680969238 L42.1148109436,153.702194214 L42.2120742798,155.189682007 L42.2703208923,157.065109253 L42.2688980103,159.222747803 L42.2110404968,161.530487061 L42.1181526184,163.851196289 L42.0086593628,166.049865723 L41.9196281433,168.012390137 L41.8604316711,169.652877808 L41.8802375793,170.897918701 L42.0059089661,171.703384399 L42.2146377563,172.066207886 L42.4216690063,172.123657227 L42.5745162964,172.040039062 " fill="none" stroke="white" stroke-linecap="round" stroke-width="2" /><path d="M51.1755218506,151.0 L51.1501655579,151.325424194 L51.0526542664,152.02305603 L50.8602905273,153.139175415 L50.5605812073,154.610839844 L50.1942520142,156.37713623 L49.7927207947,158.392089844 L49.4042854309,160.595199585 L49.0825462341,162.886749268 L48.8924407959,165.111633301 L48.8541717529,167.105911255 L48.9603157043,168.751922607 L49.1332206726,169.942367554 L49.2951812744,170.624298096 L49.3820991516,170.812469482 L49.4014663696,170.704330444 L49.3833007812,170.505844116 " fill="none" stroke="white" stroke-linecap="round" stroke-width="2" /><path d="M44.0528373718,162.682022095 L44.4141311646,162.638244629 L45.3440284729,162.555587769 L46.967464447,162.445114136 L49.2266197205,162.327041626 L51.8061485291,162.203140259 L54.3644599915,162.073104858 L56.3347053528,161.961227417 L57.5016288757,161.880462646 " fill="none" stroke="white" stroke-linecap="round" stroke-width="2" /><path d="M65.8185348511,158.619873047 L65.4095306396,158.577774048 L64.6465835571,158.595352173 L63.5355072021,158.752075195 L62.2238273621,159.098175049 L60.8566627502,159.605392456 L59.647480011,160.22303772 L58.7717514038,160.904876709 L58.3793869019,161.624099731 L58.5186004639,162.365447998 L59.1722373962,163.09928894 L60.267364502,163.794464111 L61.6827926636,164.431869507 L63.252281189,165.021270752 L64.7828979492,165.575256348 L66.0828399658,166.110076904 L67.009437561,166.632614136 L67.4758148193,167.140686035 L67.4429931641,167.633377075 L66.9210968018,168.098983765 L65.9294586182,168.505172729 L64.5353164673,168.816955566 L62.8239250183,169.016876221 L60.9292907715,169.11038208 L59.0234336853,169.117599487 L57.3065338135,169.054779053 L55.9421653748,168.935379028 L55.0709877014,168.808258057 L54.6500396729,168.71144104 " fill="none" stroke="white" stroke-linecap="round" stroke-width="2" /><path d="M84.7034225464,158.517089844 L84.7038269043,158.553359985 L84.7136993408,158.750823975 L84.7093811035,159.227401733 L84.6699905396,160.069763184 L84.5807876587,161.274337769 L84.4557876587,162.771652222 L84.3728408813,164.430648804 L84.403213501,166.068069458 L84.5934753418,167.483901978 L84.9691543579,168.486953735 L85.5309524536,168.929931641 L86.2563095093,168.747207642 L87.1322937012,167.963195801 L88.0944213867,166.708892822 L89.0429229736,165.187896729 L89.8639450073,163.630722046 L90.4833984375,162.249816895 L90.8702087402,161.166229248 L91.0762252808,160.426589966 L91.1934814453,160.060623169 L91.2859573364,160.081710815 L91.4031677246,160.528579712 L91.5695877075,161.428512573 L91.7785415649,162.713623047 L92.0736465454,164.244842529 L92.5107345581,165.828811646 L93.1273651123,167.252990723 L93.9357376099,168.346466064 L94.9059448242,168.989196777 L95.9723739624,169.10736084 L97.090385437,168.67906189 L98.2051315308,167.729034424 L99.2521896362,166.335128784 L100.149528503,164.634628296 L100.828834534,162.810974121 L101.223320007,161.063659668 L101.330909729,159.574569702 L101.21572876,158.461227417 L100.973709106,157.752822876 L100.747062683,157.464859009 L100.650550842,157.550125122 L100.710205078,157.932403564 L100.848373413,158.385971069 L100.982727051,158.741867065 " fill="none" stroke="white" stroke-linecap="round" stroke-width="2" /><path d="M111.655853271,159.858642578 L111.401649475,159.518661499 L110.956771851,158.999954224 L110.305839539,158.427474976 L109.478477478,158.013305664 L108.467041016,157.879882812 L107.302978516,158.100921631 L106.072219849,158.690490723 L104.923797607,159.626785278 L103.960235596,160.844543457 L103.259025574,162.232147217 L102.84740448,163.660125732 L102.743103027,164.981826782 L102.965324402,166.057418823 L103.533477783,166.765197754 L104.422065735,167.020980835 L105.583442688,166.768722534 L106.91368103,166.014160156 L108.281303406,164.83682251 L109.546882629,163.375640869 L110.609474182,161.805084229 L111.404678345,160.311172485 L111.924789429,159.039428711 L112.230773926,158.065673828 L112.377479553,157.440048218 L112.414596558,157.19871521 L112.371879578,157.376296997 L112.248031616,158.015136719 L112.044807434,159.126098633 L111.822608948,160.588088989 L111.640625,162.225799561 L111.575286865,163.846725464 L111.671112061,165.274765015 L111.907165527,166.394378662 L112.221557617,167.177749634 L112.502456665,167.62020874 L112.678863525,167.803085327 " fill="none" stroke="white" stroke-linecap="round" stroke-width="2" /><path d="M116.035850525,158.516586304 L116.161643982,158.683181763 L116.434623718,159.060852051 L116.875747681,159.685348511 L117.452934265,160.522384644 L118.114250183,161.509063721 L118.845932007,162.559768677 L119.663215637,163.606536865 L120.596824646,164.541900635 L121.641693115,165.252029419 L122.727363586,165.660751343 L123.601524353,165.811019897 L124.144500732,165.801864624 " fill="none" stroke="white" stroke-linecap="round" stroke-width="2" /><path d="M129.494293213,159.080856323 L129.358413696,159.196151733 L129.076187134,159.485748291 L128.61076355,160.023040771 L127.954978943,160.82434082 L127.115585327,161.891616821 L126.098228455,163.187301636 L124.94342804,164.650405884 L123.723777771,166.219680786 L122.51411438,167.828765869 L121.388671875,169.402297974 L120.423164368,170.885726929 L119.69908905,172.18409729 L119.282562256,173.194381714 L119.174980164,173.848327637 L119.253379822,174.167907715 L119.383491516,174.255569458 " fill="none" stroke="white" stroke-linecap="round" stroke-width="2" /><path d="M0,0 " fill="none" stroke="white" stroke-linecap="round" stroke-width="2" /><path d="M47.8653182983,208.094787598 L47.7538299561,208.237991333 L47.584903717,208.611068726 L47.3621368408,209.317886353 L47.0951881409,210.419403076 L46.7629966736,211.93157959 L46.3650665283,213.811157227 L45.9232215881,215.964889526 L45.5138893127,218.272186279 L45.1704330444,220.594482422 L44.9005966187,222.815582275 L44.6753921509,224.843078613 L44.4722709656,226.605865479 L44.2875785828,228.033721924 L44.1648979187,229.085418701 L44.1057891846,229.72505188 L44.1015052795,230.020233154 " fill="none" stroke="white" stroke-linecap="round" stroke-width="2" /><path d="M56.6774024963,212.040588379 L56.6279067993,212.268066406 L56.5500793457,212.791183472 L56.4423599243,213.679351807 L56.2863578796,214.922225952 L56.0512237549,216.472854614 L55.7255363464,218.266433716 L55.3334655762,220.20274353 L54.938621521,222.158157349 L54.6311378479,223.986953735 L54.4881401062,225.562835693 L54.569732666,226.799911499 L54.8686904907,227.596160889 L55.3289489746,227.902572632 L55.8497505188,227.736175537 L56.2749290466,227.351425171 L56.5331535339,226.98298645 " fill="none" stroke="white" stroke-linecap="round" stroke-width="2" /><path d="M50.94739151,218.809692383 L51.2546043396,218.856567383 L51.989402771,218.922897339 L53.2186203003,218.988189697 L54.9375305176,219.023788452 L56.9948234558,219.024993896 L59.1996803284,219.00769043 L61.0109329224,218.987503052 L62.1680030823,218.975082397 " fill="none" stroke="white" stroke-linecap="round" stroke-width="2" /><path d="M74.4153747559,219.762054443 L74.3631515503,219.537261963 L74.1305084229,219.177597046 L73.5860977173,218.759429932 L72.6261749268,218.430862427 L71.2235946655,218.285324097 L69.4958648682,218.364883423 L67.6736831665,218.64666748 L66.0034637451,219.085830688 L64.7392120361,219.629455566 L64.0439147949,220.244369507 L63.9713783264,220.912612915 L64.5251693726,221.595672607 L65.6637115479,222.262893677 L67.2801742554,222.890853882 L69.2326278687,223.48890686 L71.2957839966,224.084671021 L73.1849212646,224.692596436 L74.6697769165,225.293960571 L75.6025314331,225.87512207 L75.9338760376,226.40524292 L75.7307281494,226.891540527 L75.0578231812,227.331481934 L73.964225769,227.701171875 L72.5213394165,227.967193604 L70.8168640137,228.110046387 L68.9709625244,228.098693848 L67.1307678223,227.941680908 L65.423866272,227.653091431 L63.9790267944,227.280029297 L62.8865509033,226.899261475 L62.2104911804,226.610809326 L61.8993148804,226.44833374 " fill="none" stroke="white" stroke-linecap="round" stroke-width="2" /><path d="M97.9864349365,218.345123291 L97.884513855,218.4659729 L97.6936569214,218.858932495 L97.4179000854,219.66885376 L97.0936813354,220.944152832 L96.7495422363,222.590621948 L96.4095230103,224.409896851 L96.1435470581,226.151763916 L96.0308227539,227.591323853 L96.1598129272,228.55480957 L96.586265564,228.923355103 L97.3139419556,228.624191284 L98.2806777954,227.658416748 L99.4093780518,226.138839722 L100.5835495,224.295547485 L101.678749084,222.418457031 L102.572860718,220.783279419 L103.197387695,219.548614502 L103.547080994,218.791000366 L103.685829163,218.533187866 L103.702568054,218.793838501 L103.655151367,219.591751099 L103.582191467,220.908813477 L103.514541626,222.600692749 L103.502418518,224.462905884 L103.64339447,226.244934082 L104.039482117,227.712554932 L104.738517761,228.697753906 L105.751861572,229.095046997 L107.024604797,228.826034546 L108.468826294,227.895217896 L109.99319458,226.40296936 L111.477920532,224.53465271 L112.773109436,222.566970825 L113.754989624,220.771087646 L114.356048584,219.318847656 L114.630271912,218.292114258 L114.70803833,217.678253174 L114.747787476,217.3931427 L114.802017212,217.317901611 L114.86856842,217.341903687 " fill="none" stroke="white" stroke-linecap="round" stroke-width="2" /><path d="M125.247200012,219.774398804 L125.101119995,219.411819458 L124.769592285,218.891387939 L124.163986206,218.362823486 L123.248382568,218.073242188 L121.992622375,218.14855957 L120.42791748,218.692321777 L118.691719055,219.725692749 L116.965644836,221.208938599 L115.469688416,222.983703613 L114.422668457,224.818908691 L113.938720703,226.460845947 L114.018539429,227.696014404 L114.602622986,228.400054932 L115.601913452,228.532821655 L116.945137024,228.105361938 L118.568519592,227.178314209 L120.365455627,225.872406006 L122.18421936,224.345581055 L123.838104248,222.82850647 L125.174087524,221.523513794 L126.101669312,220.564224243 L126.622085571,220.000305176 L126.798568726,219.84564209 L126.742240906,220.103347778 L126.518562317,220.823852539 L126.173377991,221.988143921 L125.750595093,223.486251831 L125.344902039,225.125366211 L125.059455872,226.665649414 L124.98651123,227.906845093 L125.060066223,228.715484619 L125.181716919,229.114547729 " fill="none" stroke="white" stroke-linecap="round" stroke-width="2" /><path d="M134.850524902,210.82901001 L134.937973022,210.768508911 L135.051208496,210.855621338 L135.131118774,211.27053833 L135.086380005,212.177154541 L134.875091553,213.590682983 L134.483139038,215.450134277 L133.954788208,217.619262695 L133.370849609,219.949478149 L132.834579468,222.265884399 L132.433273315,224.401611328 L132.217376709,226.213562012 L132.161621094,227.548660278 L132.193603516,228.294250488 L132.218643188,228.442687988 L132.209747314,228.239746094 L132.175796509,227.944915771 " fill="none" stroke="white" stroke-linecap="round" stroke-width="2" /><path d="M128.689849854,219.837219238 L128.88142395,219.970581055 L129.40272522,220.236526489 L130.371673584,220.59803772 L131.816101074,220.95010376 L133.679946899,221.194824219 L135.817657471,221.258773804 L138.073379517,221.120193481 L140.308441162,220.79850769 L142.364151001,220.315307617 L144.101470947,219.708679199 L145.417755127,219.039672852 L146.215713501,218.372024536 L146.437667847,217.761886597 L146.112197876,217.271011353 L145.280914307,216.980438232 L144.023895264,216.987350464 L142.465194702,217.36555481 L140.774169922,218.135620117 L139.147964478,219.241149902 L137.81930542,220.583633423 L136.963088989,222.044509888 L136.68258667,223.522506714 L136.976501465,224.906234741 L137.826324463,226.094436646 L139.182632446,226.986709595 L140.974899292,227.503768921 L143.101623535,227.589782715 L145.399597168,227.246673584 L147.665496826,226.512939453 L149.731002808,225.464080811 L151.476608276,224.198348999 L152.814590454,222.845993042 L153.740463257,221.565994263 L154.275878906,220.505630493 L154.492401123,219.795028687 L154.479232788,219.518676758 L154.317459106,219.720840454 L154.029418945,220.405014038 L153.657226562,221.530914307 L153.239852905,222.951873779 L152.831863403,224.461547852 L152.502044678,225.833084106 L152.282836914,226.91355896 L152.168243408,227.615844727 L152.142791748,227.914459229 L152.183944702,227.792175293 L152.26965332,227.235687256 L152.413101196,226.255905151 L152.615524292,224.962661743 L152.903305054,223.493560791 L153.315429688,221.999649048 L153.919525146,220.601455688 L154.758804321,219.375930786 L155.874176025,218.36680603 L157.215759277,217.612472534 L158.716461182,217.115249634 L160.294677734,216.863723755 L161.908706665,216.822784424 L163.499267578,216.932937622 L165.061462402,217.141448975 L166.507614136,217.385513306 L167.77015686,217.615036011 L168.673675537,217.783218384 L169.185424805,217.88053894 " fill="none" stroke="white" stroke-linecap="round" stroke-width="2" /><path d="M189.940261841,206.0 L189.864685059,206.061004639 L189.749694824,206.339447021 L189.587356567,206.973678589 L189.375,208.046981812 L189.067306519,209.55279541 L188.657226562,211.463287354 L188.129684448,213.718338013 L187.521682739,216.26499939 L186.886672974,219.006820679 L186.29850769,221.793609619 L185.81803894,224.449752808 L185.499237061,226.791671753 L185.340087891,228.651596069 L185.32723999,229.957565308 L185.388153076,230.705154419 L185.46131897,231.020584106 " fill="none" stroke="white" stroke-linecap="round" stroke-width="2" /><path d="M193.286300659,218.255462646 L193.259338379,218.445602417 L193.240646362,218.952407837 L193.226730347,219.870010376 L193.184936523,221.159500122 L193.062042236,222.688919067 L192.840301514,224.30696106 L192.556488037,225.882827759 L192.305145264,227.273101807 L192.16708374,228.347579956 L192.165664673,228.999603271 L192.243515015,229.276809692 L192.328811646,229.311264038 " fill="none" stroke="white" stroke-linecap="round" stroke-width="2" /><path d="M195.140823364,211.985443115 L195.102798462,211.83190918 L195.06237793,211.660064697 L195.029724121,211.528640747 L195.020584106,211.527816772 L195.035690308,211.644836426 L195.067749023,211.869659424 L195.099411011,212.101425171 L195.127731323,212.281967163 " fill="none" stroke="white" stroke-linecap="round" stroke-width="2" /><path d="M198.920791626,218.632217407 L198.904327393,218.863922119 L198.87171936,219.400177002 L198.788269043,220.314758301 L198.626235962,221.580612183 L198.338745117,223.113800049 L197.957229614,224.754089355 L197.56211853,226.313262939 L197.23425293,227.621810913 L197.033096313,228.573669434 L196.964767456,229.117263794 L196.977600098,229.236358643 L197.058654785,228.920837402 L197.2315979,228.154556274 L197.535446167,226.96383667 L198.057266235,225.469421387 L198.816513062,223.810058594 L199.797088623,222.143066406 L200.951263428,220.619491577 L202.211837769,219.334838867 L203.509628296,218.364303589 L204.820404053,217.765884399 L206.075256348,217.550018311 L207.193054199,217.740203857 L208.09765625,218.354736328 L208.71534729,219.37789917 L209.014282227,220.762756348 L209.048126221,222.39855957 L208.897140503,224.130142212 L208.656539917,225.799224854 L208.450637817,227.263534546 L208.354736328,228.410690308 L208.409820557,229.1693573 L208.640304565,229.487533569 L209.063308716,229.348526001 L209.694610596,228.757110596 L210.562759399,227.761962891 L211.640914917,226.466079712 L212.849472046,224.990890503 L214.054779053,223.463851929 L215.123138428,222.009246826 L215.936660767,220.710571289 L216.435501099,219.624816895 L216.59967041,218.816131592 L216.428573608,218.322174072 L215.929946899,218.195907593 L215.130493164,218.481246948 L214.100402832,219.184906006 L212.973571777,220.254135132 L211.937026978,221.58631897 L211.158309937,223.038345337 L210.764923096,224.488388062 L210.954605103,225.840316772 L211.824554443,227.023162842 L213.342834473,227.98135376 L214.920471191,228.625991821 L216.095001221,228.962753296 " fill="none" stroke="white" stroke-linecap="round" stroke-width="2" /><path d="M0,0 " fill="none" stroke="white" stroke-linecap="round" stroke-width="2" /><path d="M43.990978241,262.581451416 L43.901096344,263.139892578 L43.7765350342,264.167236328 L43.6286582947,265.638061523 L43.486125946,267.383331299 L43.3195991516,269.322937012 L43.0975418091,271.388031006 L42.8237380981,273.525360107 L42.5163116455,275.667541504 L42.2170791626,277.695892334 L41.989440918,279.481689453 L41.8547668457,280.768951416 L41.7998809814,281.493591309 " fill="none" stroke="white" stroke-linecap="round" stroke-width="2" /><path d="M51.5465049744,262.607055664 L51.5097007751,263.04284668 L51.3965568542,263.899841309 L51.1814804077,265.199737549 L50.868347168,266.827636719 L50.5073928833,268.692443848 L50.1515045166,270.70098877 L49.8493804932,272.755096436 L49.6236572266,274.757598877 L49.4719161987,276.581726074 L49.3594856262,278.102630615 L49.2800827026,279.142913818 L49.2303352356,279.697479248 " fill="none" stroke="white" stroke-linecap="round" stroke-width="2" /><path d="M46.0215530396,271.234619141 L46.4079360962,271.271636963 L47.2184829712,271.334747314 L48.4795913696,271.410247803 L50.1133460999,271.476196289 L51.9688034058,271.516174316 L53.8621902466,271.533081055 L55.3738975525,271.537658691 L56.3110961914,271.537567139 " fill="none" stroke="white" stroke-linecap="round" stroke-width="2" /><path d="M71.9081192017,272.801330566 L71.7515869141,272.630126953 L71.4216842651,272.376068115 L70.8545837402,272.110839844 L70.0271759033,271.959381104 L68.9248580933,271.991119385 L67.616355896,272.217224121 L66.270904541,272.593841553 L65.0877075195,273.053497314 L64.2527923584,273.53338623 L63.8921051025,274.010131836 L64.0219802856,274.493865967 L64.6363830566,274.984832764 L65.6761627197,275.480529785 L67.0204391479,275.988494873 L68.5174255371,276.523803711 L69.9939498901,277.112548828 L71.2547683716,277.766052246 L72.2132720947,278.458007812 L72.7753829956,279.143280029 L72.9052658081,279.777740479 L72.5845184326,280.323516846 L71.8185424805,280.753662109 L70.6418838501,281.036560059 L69.1708755493,281.132171631 L67.5218734741,281.020568848 L65.8731384277,280.710418701 L64.3988800049,280.254852295 L63.3128204346,279.68536377 L62.7615432739,279.044128418 L62.7805976868,278.353851318 L63.102142334,277.771881104 L63.4593505859,277.386108398 " fill="none" stroke="white" stroke-linecap="round" stroke-width="2" /><path d="M75.2706375122,280.121276855 L75.3546600342,280.106048584 L75.6159896851,279.980438232 L76.1572875977,279.666229248 L77.026802063,279.104736328 L78.1678161621,278.306274414 L79.4692459106,277.326690674 L80.7975845337,276.250610352 L81.9898757935,275.150482178 L82.9445037842,274.112731934 L83.5950393677,273.189086914 L83.8986053467,272.421386719 L83.8527450562,271.839752197 L83.4743881226,271.486358643 L82.7391891479,271.417663574 L81.6772155762,271.706726074 L80.3570480347,272.387268066 L78.9190597534,273.424560547 L77.5383834839,274.703613281 L76.4199905396,276.084350586 L75.7166366577,277.43270874 L75.5610275269,278.645233154 L76.03465271,279.660949707 L77.1351470947,280.423706055 L78.8564758301,280.84677124 L81.0635681152,280.901672363 L83.5063247681,280.623352051 L85.5491333008,280.227874756 L86.8546295166,279.902893066 " fill="none" stroke="white" stroke-linecap="round" stroke-width="2" /><path d="M86.8127822876,278.705871582 L87.152305603,278.722167969 L87.8542175293,278.631103516 L88.9449157715,278.332092285 L90.2880249023,277.758789062 L91.7265777588,276.937591553 L93.1149902344,275.937347412 L94.2974853516,274.846862793 L95.1638259888,273.763031006 L95.6625900269,272.771606445 L95.7445526123,271.953063965 L95.4261550903,271.363250732 L94.7280578613,271.065734863 L93.6464996338,271.120422363 L92.2193984985,271.571594238 L90.5964279175,272.420013428 L88.9646759033,273.600708008 L87.5857849121,274.978973389 L86.6853485107,276.422088623 L86.3851318359,277.805786133 L86.8112335205,279.012512207 L87.9694976807,279.94821167 L89.6946258545,280.552490234 L91.3580474854,280.847320557 L92.5329666138,280.931610107 " fill="none" stroke="white" stroke-linecap="round" stroke-width="2" /><path d="M100.513046265,272.983123779 L100.54044342,273.120849609 L100.619972229,273.483917236 L100.745925903,274.158782959 L100.868736267,275.136474609 L100.943695068,276.3253479 L100.951179504,277.576843262 L100.910552979,278.727386475 L100.884147644,279.64440918 L100.922302246,280.25302124 L101.035202026,280.484222412 L101.252174377,280.285552979 L101.573272705,279.618713379 L102.010238647,278.508026123 L102.604675293,277.056335449 L103.390037537,275.444061279 L104.365386963,273.853912354 L105.500976562,272.451843262 L106.680328369,271.359954834 L107.781288147,270.681396484 L108.714996338,270.472442627 L109.431144714,270.758392334 L109.925743103,271.503356934 L110.217628479,272.620727539 L110.299247742,273.971954346 L110.211975098,275.382171631 L110.033149719,276.661437988 L109.859886169,277.656433105 L109.797698975,278.252471924 L109.916793823,278.371582031 L110.229980469,277.983276367 L110.751304626,277.112915039 L111.483856201,275.866210938 L112.418144226,274.41784668 L113.533195496,272.960144043 L114.766891479,271.645111084 L116.028388977,270.57635498 L117.246162415,269.833404541 L118.378326416,269.474975586 L119.400123596,269.544128418 L120.297477722,270.047088623 L121.040901184,270.949279785 L121.594657898,272.173706055 L121.939529419,273.6121521 L122.108474731,275.139312744 L122.160491943,276.60534668 L122.169883728,277.868713379 L122.176330566,278.752441406 L122.192642212,279.231842041 " fill="none" stroke="white" stroke-linecap="round" stroke-width="2" /><path d="M133.18132019,271.626739502 L132.982574463,271.290496826 L132.560333252,270.789672852 L131.859970093,270.235351562 L130.908615112,269.79776001 L129.745407104,269.518249512 L128.486694336,269.403930664 L127.266784668,269.422241211 L126.233291626,269.57333374 L125.517051697,269.863433838 L125.222709656,270.295898438 L125.387428284,270.851989746 L126.03591156,271.496765137 L127.140518188,272.179931641 L128.630249023,272.873474121 L130.373931885,273.565246582 L132.183364868,274.261230469 L133.851394653,274.965148926 L135.203552246,275.664581299 L136.134979248,276.329772949 L136.60534668,276.941314697 L136.610473633,277.466674805 L136.172424316,277.882537842 L135.350112915,278.18637085 L134.1902771,278.362335205 L132.765304565,278.404541016 L131.13861084,278.327728271 L129.386581421,278.138671875 L127.585609436,277.850799561 L125.868354797,277.512878418 L124.372909546,277.176055908 L123.232719421,276.905944824 L122.621757507,276.739379883 L122.64037323,276.670959473 L123.245727539,276.648162842 L124.045196533,276.639801025 L124.70589447,276.627471924 " fill="none" stroke="white" stroke-linecap="round" stroke-width="2" /><path d="M153.337661743,262.374603271 L153.36428833,262.429840088 L153.420822144,262.651885986 L153.484207153,263.165496826 L153.511260986,264.060852051 L153.437805176,265.35333252 L153.227432251,267.01184082 L152.874664307,268.938079834 L152.426742554,271.036499023 L151.970352173,273.21383667 L151.607620239,275.370849609 L151.403915405,277.397155762 L151.392562866,279.159637451 L151.53237915,280.517547607 L151.774688721,281.408294678 L152.011001587,281.865600586 L152.176208496,282.02130127 " fill="none" stroke="white" stroke-linecap="round" stroke-width="2" /><path d="M148.386123657,272.458129883 L148.482315063,272.470428467 L148.854736328,272.484802246 L149.66456604,272.495361328 L151.069656372,272.482727051 L153.016479492,272.437316895 L155.307800293,272.366790771 L157.290374756,272.297180176 L158.585128784,272.247192383 " fill="none" stroke="white" stroke-linecap="round" stroke-width="2" /><path d="M167.68711853,273.187835693 L167.553543091,273.02243042 L167.2394104,272.805938721 L166.660125732,272.635101318 L165.772369385,272.650909424 L164.578781128,272.926300049 L163.166793823,273.502349854 L161.713684082,274.367919922 L160.41583252,275.46307373 L159.453430176,276.699554443 L158.959854126,277.949920654 L159.003326416,279.080688477 L159.613021851,279.958221436 L160.762710571,280.465026855 L162.327865601,280.517059326 L164.141036987,280.107666016 L166.007247925,279.276428223 L167.71307373,278.130187988 L169.112045288,276.788330078 L170.087753296,275.387786865 L170.547576904,274.04989624 L170.510528564,272.901824951 L170.095077515,272.02822876 L169.583328247,271.489868164 L169.198913574,271.237640381 " fill="none" stroke="white" stroke-linecap="round" stroke-width="2" /><path d="M192.617141724,272.59274292 L192.399612427,272.181671143 L191.972137451,271.559204102 L191.288818359,270.856872559 L190.360046387,270.304656982 L189.177856445,270.002380371 L187.81463623,270.001159668 L186.379180908,270.27456665 L185.059616089,270.782165527 L184.032745361,271.458129883 L183.442520142,272.236297607 L183.373428345,273.083404541 L183.879089355,273.963104248 L184.954330444,274.840240479 L186.53326416,275.680999756 L188.480209351,276.47064209 L190.583862305,277.202209473 L192.599731445,277.896179199 L194.29246521,278.557067871 L195.490890503,279.18560791 L196.06590271,279.757263184 L195.97833252,280.251098633 L195.22718811,280.640167236 L193.843078613,280.913238525 L191.916778564,281.067352295 L189.610671997,281.109222412 L187.147171021,281.035491943 L184.793579102,280.858154297 L182.846862793,280.53414917 L181.513366699,280.055633545 L180.897140503,279.44732666 L180.794830322,278.889038086 L180.937332153,278.501403809 " fill="none" stroke="white" stroke-linecap="round" stroke-width="2" /><path d="M200.629104614,263.897064209 L200.619415283,264.09777832 L200.579528809,264.593566895 L200.482635498,265.468536377 L200.315444946,266.727874756 L200.089355469,268.316650391 L199.83039856,270.160064697 L199.560195923,272.154998779 L199.327224731,274.189422607 L199.154800415,276.119628906 L199.065567017,277.820465088 L199.057312012,279.183349609 L199.085769653,280.089111328 L199.089614868,280.470855713 L199.026779175,280.339447021 L198.924499512,279.958221436 L198.829864502,279.581268311 " fill="none" stroke="white" stroke-linecap="round" stroke-width="2" /><path d="M196.047576904,271.762359619 L196.121566772,271.618713379 L196.443984985,271.43359375 L197.144058228,271.257659912 L198.286834717,271.164459229 L199.792984009,271.151123047 L201.530029297,271.200012207 L203.38899231,271.294891357 L205.237930298,271.429321289 L206.944351196,271.583862305 L208.228881836,271.718566895 L208.980514526,271.807891846 " fill="none" stroke="white" stroke-linecap="round" stroke-width="2" /><path d="M213.366668701,273.025482178 L213.285369873,272.886169434 L213.051605225,272.658538818 L212.558456421,272.395812988 L211.714065552,272.228729248 L210.489440918,272.262207031 L208.95513916,272.579498291 L207.265716553,273.194763184 L205.616424561,274.074829102 L204.194335938,275.136352539 L203.16784668,276.297943115 L202.674606323,277.453308105 L202.80418396,278.492889404 L203.580734253,279.29598999 L204.938323975,279.766113281 L206.736404419,279.83480835 L208.7840271,279.496002197 L210.843078613,278.789611816 L212.700241089,277.787597656 L214.152648926,276.583648682 L215.069152832,275.299957275 L215.402053833,274.061096191 L215.181411743,272.99230957 L214.492431641,272.202362061 L213.498336792,271.788208008 L212.390945435,271.779022217 L211.379760742,272.128723145 L210.664230347,272.587921143 L210.290420532,272.957458496 " fill="none" stroke="white" stroke-linecap="round" stroke-width="2" /><path d="M221.099456787,272.850494385 L221.06918335,273.053863525 L220.981613159,273.53112793 L220.804824829,274.363525391 L220.529327393,275.561248779 L220.137008667,277.127197266 L219.631500244,279.064178467 L219.028533936,281.345306396 L218.34324646,283.880218506 L217.615539551,286.505310059 L216.91255188,288.973022461 L216.300689697,291.066711426 L215.821166992,292.607086182 L215.515945435,293.490264893 L215.391326904,293.668548584 L215.428848267,293.146728516 L215.598068237,291.940460205 L215.879089355,290.163879395 L216.244644165,287.970977783 L216.69694519,285.546569824 L217.24230957,283.056335449 L217.88394165,280.626922607 L218.6378479,278.334442139 L219.532852173,276.255706787 L220.607147217,274.455108643 L221.882278442,272.992156982 L223.346038818,271.923736572 L224.94367981,271.287322998 L226.576583862,271.103881836 L228.116653442,271.36151123 L229.43838501,272.011871338 L230.42980957,272.981964111 L231.010299683,274.174285889 L231.135025024,275.459594727 L230.765991211,276.69921875 L229.904556274,277.758758545 L228.572753906,278.501220703 L226.917724609,278.871490479 L225.171478271,278.903533936 L223.774780273,278.759399414 L222.929199219,278.594299316 " fill="none" stroke="white" stroke-linecap="round" stroke-width="2" /><path d="M250.918121338,263.456787109 L250.896621704,263.687194824 L250.870162964,264.203216553 L250.828643799,265.093261719 L250.723602295,266.361877441 L250.469223022,267.990112305 L250.052993774,269.917602539 L249.536636353,272.046417236 L248.995910645,274.234924316 L248.53326416,276.349517822 L248.173370361,278.250915527 L247.887435913,279.853118896 L247.642959595,281.057037354 L247.42779541,281.80291748 L247.218719482,282.081054688 L247.059631348,282.05859375 L246.961959839,281.914733887 " fill="none" stroke="white" stroke-linecap="round" stroke-width="2" /><path d="M243.005996704,275.096069336 L243.147445679,275.075500488 L243.572311401,275.026245117 L244.420776367,274.927093506 L245.743148804,274.751708984 L247.468566895,274.479553223 L249.483184814,274.100616455 L251.623474121,273.630126953 L253.759384155,273.115020752 L255.740158081,272.613769531 L257.416259766,272.17199707 L258.658630371,271.84085083 L259.401794434,271.655578613 L259.637878418,271.681793213 L259.454620361,271.996368408 L258.935333252,272.667694092 L258.178955078,273.697143555 L257.331787109,275.024627686 L256.551605225,276.519042969 L255.966339111,278.0206604 L255.647644043,279.345184326 L255.567871094,280.378662109 L255.622146606,281.054992676 L255.722503662,281.353790283 L255.835174561,281.280822754 L255.956924438,280.826782227 L256.124511719,279.965423584 L256.357849121,278.77130127 L256.656921387,277.376434326 L257.000915527,275.940582275 L257.403381348,274.615661621 L257.873901367,273.48425293 L258.492889404,272.568572998 L259.324737549,271.886413574 L260.420959473,271.441833496 L261.747009277,271.226348877 L263.257751465,271.225738525 L264.803649902,271.384613037 L266.272491455,271.631896973 L267.386474609,271.859191895 L268.050292969,272.007232666 " fill="none" stroke="white" stroke-linecap="round" stroke-width="2" /><path d="M269.696807861,271.526489258 L269.767883301,271.683227539 L269.91519165,272.030303955 L270.128479004,272.618774414 L270.383758545,273.446105957 L270.671539307,274.501586914 L270.995635986,275.72076416 L271.386108398,277.003845215 L271.950531006,278.215637207 L272.704681396,279.206573486 L273.618499756,279.88079834 L274.434326172,280.24005127 L274.97769165,280.364898682 " fill="none" stroke="white" stroke-linecap="round" stroke-width="2" /><path d="M280.665802002,272.659851074 L280.671936035,272.692474365 L280.625274658,272.892883301 L280.448608398,273.378845215 L280.060394287,274.231414795 L279.428222656,275.441925049 L278.544891357,276.938476562 L277.4190979,278.626953125 L276.135864258,280.428283691 L274.747528076,282.27633667 L273.312652588,284.109710693 L271.907623291,285.849609375 L270.663635254,287.35168457 L269.705383301,288.447387695 L269.158508301,289.04498291 L268.960296631,289.239044189 L268.969299316,289.206329346 " fill="none" stroke="white" stroke-linecap="round" stroke-width="2" /><path d="M285.241577148,272.071044922 L285.236022949,272.355377197 L285.144958496,272.951385498 L284.916931152,273.891876221 L284.526702881,275.091522217 L284.022796631,276.453338623 L283.480407715,277.851959229 L282.976989746,279.177429199 L282.589477539,280.271881104 L282.369506836,280.990600586 L282.327972412,281.246948242 L282.394470215,281.188812256 L282.486816406,281.005249023 " fill="none" stroke="white" stroke-linecap="round" stroke-width="2" /><path d="M286.123382568,263.856445312 L286.151824951,263.80380249 L286.196685791,263.763031006 L286.256011963,263.755096436 L286.308746338,263.814117432 L286.348266602,263.922821045 L286.376098633,264.086853027 L286.392974854,264.24887085 L286.400543213,264.374145508 " fill="none" stroke="white" stroke-linecap="round" stroke-width="2" /><path d="M289.710968018,272.08114624 L289.684509277,272.298583984 L289.621490479,272.80847168 L289.477813721,273.666687012 L289.225708008,274.821380615 L288.85546875,276.150848389 L288.40637207,277.493499756 L287.958190918,278.709381104 L287.595611572,279.701507568 L287.367645264,280.389648438 L287.308959961,280.694824219 L287.431610107,280.553436279 L287.756164551,279.902587891 L288.326446533,278.771057129 L289.154571533,277.302856445 L290.229309082,275.693786621 L291.501739502,274.11932373 L292.897338867,272.732421875 L294.340484619,271.61895752 L295.7706604,270.861877441 L297.118133545,270.539855957 L298.298553467,270.701812744 L299.220947266,271.33972168 L299.828491211,272.410400391 L300.097381592,273.827178955 L300.054168701,275.454711914 L299.79888916,277.119598389 L299.440002441,278.641937256 L299.178314209,279.815216064 L299.195861816,280.511749268 L299.579071045,280.712768555 L300.10369873,280.607727051 L300.56149292,280.408050537 " fill="none" stroke="white" stroke-linecap="round" stroke-width="2" /><path d="M309.625091553,274.805328369 L309.56338501,274.463439941 L309.389831543,273.933746338 L309.039154053,273.29598999 L308.463195801,272.71081543 L307.647460938,272.25592041 L306.633087158,272.017578125 L305.46295166,272.067352295 L304.237945557,272.454162598 L303.077148438,273.144073486 L302.11630249,274.034973145 L301.500946045,274.997833252 L301.352722168,275.888549805 L301.71194458,276.581878662 L302.595703125,276.985198975 L303.924591064,277.034057617 L305.554473877,276.71963501 L307.26940918,276.097015381 L308.855255127,275.264770508 L310.148406982,274.349273682 L311.075836182,273.480133057 L311.643005371,272.745300293 L311.91595459,272.21572876 L311.959869385,271.94631958 L311.873687744,271.997924805 L311.766296387,272.433258057 L311.706054688,273.293914795 L311.745330811,274.558074951 L311.88079834,276.174804688 L312.060302734,278.060791016 L312.230224609,280.120269775 L312.350921631,282.25378418 L312.350738525,284.347106934 L312.170166016,286.25769043 L311.74206543,287.877075195 L311.021331787,289.114318848 L310.015106201,289.922058105 L308.797821045,290.296417236 L307.45022583,290.263641357 L306.083709717,289.862060547 L304.801361084,289.160491943 L303.71105957,288.224060059 L302.908935547,287.127929688 L302.487365723,285.938079834 L302.520629883,284.713439941 L303.044616699,283.496429443 L304.065307617,282.332611084 L305.543182373,281.280334473 L307.417510986,280.398162842 L309.619598389,279.718841553 L312.066101074,279.253173828 L314.715606689,278.960571289 L317.464447021,278.787628174 L320.130371094,278.680114746 L322.20791626,278.613586426 L323.471160889,278.571685791 " fill="none" stroke="white" stroke-linecap="round" stroke-width="2" /><path d="M333.041687012,264.661499023 L333.076690674,264.639831543 L333.115539551,264.728149414 L333.108581543,265.05581665 L333.004821777,265.755218506 L332.786468506,266.864135742 L332.462219238,268.344177246 L332.089660645,270.104095459 L331.758972168,272.024169922 L331.534942627,273.964996338 L331.474578857,275.803619385 L331.590301514,277.421539307 L331.91116333,278.702819824 L332.408416748,279.56362915 L333.021972656,279.983978271 L333.564117432,280.083892822 L333.923156738,280.024749756 " fill="none" stroke="white" stroke-linecap="round" stroke-width="2" /><path d="M327.953277588,270.205688477 L327.978637695,270.238006592 L328.261016846,270.321533203 L328.988311768,270.456390381 L330.391113281,270.60723877 L332.442382812,270.732788086 L334.948120117,270.80670166 L337.165771484,270.834655762 L338.643829346,270.837860107 " fill="none" stroke="white" stroke-linecap="round" stroke-width="2" /><path d="M349.846710205,273.007232666 L349.770324707,272.838378906 L349.522735596,272.566436768 L349.001312256,272.251159668 L348.14074707,272.019226074 L346.948486328,271.959655762 L345.501342773,272.155609131 L343.940185547,272.651123047 L342.453216553,273.44720459 L341.225341797,274.499084473 L340.423797607,275.717926025 L340.169952393,276.964691162 L340.532745361,278.094604492 L341.521575928,278.973205566 L343.027099609,279.483825684 L344.871734619,279.573150635 L346.814147949,279.227935791 L348.614776611,278.482147217 L350.098693848,277.431152344 L351.164154053,276.207519531 L351.727722168,274.932403564 L351.842285156,273.758270264 L351.601013184,272.786315918 L351.245727539,272.126403809 L350.962341309,271.782623291 " fill="none" stroke="white" stroke-linecap="round" stroke-width="2" /><path d="M375.571685791,274.320037842 L375.521759033,273.839599609 L375.365753174,273.089935303 L375.010009766,272.209838867 L374.347259521,271.448730469 L373.286346436,270.918365479 L371.811431885,270.71496582 L370.035339355,270.878479004 L368.172210693,271.413208008 L366.497161865,272.260040283 L365.247070312,273.295471191 L364.560699463,274.359619141 L364.47177124,275.292572021 L364.966949463,275.97177124 L365.965087891,276.29397583 L367.350067139,276.216918945 L368.955444336,275.755218506 L370.585510254,274.978149414 L372.075683594,273.995788574 L373.324523926,272.978118896 L374.263702393,272.059997559 L374.87991333,271.331481934 L375.186767578,270.826019287 L375.24899292,270.572540283 L375.151184082,270.610198975 L374.983795166,271.042755127 L374.791687012,271.939788818 L374.609222412,273.274963379 L374.441741943,274.944641113 L374.315338135,276.836334229 L374.221313477,278.837371826 L374.141265869,280.872741699 L373.991912842,282.841918945 L373.701812744,284.607635498 L373.199035645,286.030487061 L372.452148438,287.02243042 L371.457672119,287.536010742 L370.260437012,287.588256836 L368.919464111,287.203826904 L367.563293457,286.446868896 L366.373321533,285.330169678 L365.519256592,283.937713623 L365.102020264,282.390075684 L365.022186279,281.088409424 L365.10559082,280.246429443 " fill="none" stroke="white" stroke-linecap="round" stroke-width="2" /><path d="M378.59072876,275.196502686 L378.838195801,275.158813477 L379.376098633,275.043731689 L380.262390137,274.81262207 L381.449768066,274.447296143 L382.860443115,273.953277588 L384.359313965,273.342315674 L385.786071777,272.646362305 L386.989349365,271.910644531 L387.826843262,271.181488037 L388.197540283,270.517578125 L388.049163818,269.967926025 L387.376403809,269.592254639 L386.217437744,269.468994141 L384.694152832,269.658996582 L382.996795654,270.181091309 L381.381103516,271.012298584 L380.116638184,272.07144165 L379.427459717,273.259338379 L379.405303955,274.471374512 L380.168212891,275.57019043 L381.679351807,276.424957275 L383.762481689,276.952362061 L385.715820312,277.183563232 L387.078277588,277.223083496 " fill="none" stroke="white" stroke-linecap="round" stroke-width="2" /><path d="M397.919647217,261.034393311 L397.931091309,261.0 L397.911712646,261.174987793 L397.803039551,261.753448486 L397.560333252,262.877807617 L397.183502197,264.496154785 L396.707336426,266.476593018 L396.191986084,268.647857666 L395.675964355,270.880218506 L395.18347168,273.014343262 L394.744476318,274.904632568 L394.424194336,276.265380859 L394.240661621,277.027832031 " fill="none" stroke="white" stroke-linecap="round" stroke-width="2" /><path d="M391.746459961,270.862518311 L392.022277832,270.594787598 L392.748931885,270.201843262 L394.089080811,269.769134521 L396.053314209,269.444641113 L398.404083252,269.273590088 L400.805938721,269.251647949 L402.684295654,269.306427002 L403.7890625,269.377380371 " fill="none" stroke="white" stroke-linecap="round" stroke-width="2" /></svg>