<?xml version="1.0" encoding="utf-8" ?>
<svg baseProfile="full" height="100%" version="1.1" viewBox="0,0,405,385" width="100%" xmlns="http://www.w3.org/2000/svg" xmlns:ev="http://www.w3.org/2001/xml-events" xmlns:xlink="http://www.w3.org/1999/xlink"><defs /><path d="M0,0 " fill="none" stroke="white" stroke-linecap="round" stroke-width="2" /><path d="M51.0070838928,41.0459671021 L50.9888076782,41.0632553101 L50.9320068359,41.2210464478 L50.82213974,41.6289100647 L50.6582527161,42.376247406 L50.4419441223,43.456401825 L50.1704483032,44.8603172302 L49.8356895447,46.5357894897 L49.4593162537,48.4299659729 L49.0500297546,50.4719963074 L48.6399841309,52.5883178711 L48.2366981506,54.6816253662 L47.8405075073,56.6723175049 L47.4773368835,58.4740333557 L47.1950073242,60.0188751221 L47.0159721375,61.2629699707 L46.9749794006,62.1609535217 L47.0483055115,62.6983795166 L47.1823310852,62.8936042786 L47.3139419556,62.8746795654 L47.4014854431,62.7737731934 " fill="none" stroke="white" stroke-linecap="round" stroke-width="2" /><path d="M66.0054779053,45.4734916687 " fill="none" stroke="white" stroke-linecap="round" stroke-width="2" /><path d="M66.1189804077,46.5906066895 L66.049911499,47.2362213135 L65.8983459473,48.3648452759 L65.6402282715,49.9056777954 L65.3016433716,51.627822876 L64.917427063,53.4277305603 L64.5294418335,55.1997833252 L64.1642379761,56.8583717346 L63.8672294617,58.2949829102 L63.6474647522,59.4190483093 L63.5215911865,60.1970977783 L63.4753036499,60.6144218445 L63.5079307556,60.6598739624 L63.6244316101,60.3015327454 L63.8692779541,59.5036277771 L64.2779388428,58.291595459 L64.8630752563,56.7996063232 L65.6219558716,55.1984176636 L66.5408477783,53.657623291 L67.5921554565,52.3025283813 L68.7538452148,51.2080726624 L69.987197876,50.4337692261 L71.2250213623,50.0343666077 L72.4210891724,50.028465271 L73.5208740234,50.4018249512 L74.4772262573,51.1186904907 L75.2502365112,52.1184272766 L75.8095703125,53.3299484253 L76.1402511597,54.6667785645 L76.2793273926,56.0274581909 L76.2844314575,57.3106842041 L76.2556991577,58.4282608032 L76.2837295532,59.3076515198 L76.4247589111,59.9240837097 L76.6111526489,60.2789993286 L76.7744598389,60.432636261 " fill="none" stroke="white" stroke-linecap="round" stroke-width="2" /><path d="M85.5939407349,53.9000358582 L85.3948745728,53.6335983276 L85.0223922729,53.2527885437 L84.4457855225,52.8690185547 L83.6831893921,52.6635475159 L82.7249755859,52.7290344238 L81.5859985352,53.1103134155 L80.3597488403,53.8241691589 L79.159614563,54.8402633667 L78.1134414673,56.0809745789 L77.3329467773,57.4297981262 L76.9052124023,58.7453765869 L76.8720626831,59.8602142334 L77.2595672607,60.641960144 L78.0332489014,60.9804954529 L79.1392593384,60.8288459778 L80.4697952271,60.1970252991 L81.9328994751,59.1586074829 L83.4162445068,57.8253707886 L84.7959289551,56.3544197083 L85.9473190308,54.9256210327 L86.7963104248,53.7151489258 L87.3098373413,52.8183860779 L87.5590820312,52.2721824646 L87.614616394,52.0792999268 L87.5287017822,52.2574195862 L87.2995376587,52.8595733643 L86.942024231,53.9218406677 L86.5046691895,55.3641433716 L86.1230392456,57.0184440613 L85.908493042,58.6737442017 L85.9538650513,60.1482772827 L86.2923049927,61.2826538086 L86.8941192627,61.9903182983 L87.6754837036,62.2498168945 L88.3907241821,62.216632843 L88.8728561401,62.0713996887 " fill="none" stroke="white" stroke-linecap="round" stroke-width="2" /><path d="M93.0542526245,52.8908920288 L93.0789108276,52.9123497009 L93.1252212524,53.1045722961 L93.1830444336,53.5883293152 L93.2150115967,54.4321403503 L93.2128677368,55.5894050598 L93.2138748169,56.9562683105 L93.2727432251,58.3818283081 L93.4818344116,59.7223358154 L93.8993453979,60.826461792 L94.5413742065,61.5558662415 L95.3916473389,61.8124656677 L96.4269866943,61.5531387329 L97.5824432373,60.7838592529 L98.7802505493,59.5976905823 L99.9050140381,58.1333312988 L100.871574402,56.5572471619 L101.577598572,55.0331192017 L102.012535095,53.6898040771 L102.202964783,52.6029396057 L102.220695496,51.8127174377 L102.148445129,51.315032959 L102.081031799,51.0653038025 L102.036331177,50.9796485901 L102.025627136,50.9749755859 " fill="none" stroke="white" stroke-linecap="round" stroke-width="2" /><path d="M104.789329529,60.023109436 L105.018112183,59.8337516785 L105.532073975,59.4507484436 L106.371154785,58.8574409485 L107.459724426,58.0938987732 L108.672142029,57.1932601929 L109.878005981,56.2012405396 L110.964797974,55.1731758118 L111.842185974,54.1708030701 L112.431564331,53.263343811 L112.668334961,52.5110435486 L112.519424438,51.9648933411 L111.988777161,51.6798400879 L111.093521118,51.7125358582 L109.887268066,52.1112365723 L108.462127686,52.8858337402 L106.973373413,53.9891204834 L105.641014099,55.312625885 L104.700737,56.7227363586 L104.323204041,58.0865440369 L104.740234375,59.278968811 L105.998588562,60.1989898682 L107.969863892,60.7889900208 L109.915534973,61.0763320923 L111.312431335,61.1569328308 " fill="none" stroke="white" stroke-linecap="round" stroke-width="2" /><path d="M133.400100708,46.0794677734 L133.458282471,46.0362319946 L133.551208496,46.112197876 L133.6353302,46.447013855 L133.639266968,47.1723480225 L133.510147095,48.3024253845 L133.253448486,49.7937850952 L132.892929077,51.5464401245 L132.478256226,53.4468955994 L132.042449951,55.3620033264 L131.617630005,57.145275116 L131.251083374,58.6624259949 L130.985397339,59.8201370239 L130.825576782,60.5549125671 L130.777999878,60.8407897949 L130.850463867,60.6652641296 L131.079864502,60.0236854553 L131.532989502,58.9760284424 L132.240478516,57.6457138062 L133.205184937,56.2031860352 L134.395614624,54.8230934143 L135.76335144,53.6503944397 L137.239715576,52.7936477661 L138.748535156,52.329158783 L140.214859009,52.2922706604 L141.573989868,52.697517395 L142.751998901,53.5035400391 L143.673492432,54.6287155151 L144.246032715,55.9641990662 L144.383880615,57.3809661865 L144.043807983,58.7448806763 L143.233016968,59.9529571533 L142.025268555,60.9110221863 L140.529922485,61.5519065857 L138.874954224,61.8478355408 L137.16947937,61.8182258606 L135.522949219,61.488483429 L134.068969727,60.9334983826 L132.944976807,60.2505187988 L132.242355347,59.6503677368 L131.9246521,59.2554550171 " fill="none" stroke="white" stroke-linecap="round" stroke-width="2" /><path d="M147.29624939,59.0743026733 L147.599960327,59.1471557617 L148.255935669,59.1757926941 L149.310211182,59.0625457764 L150.682693481,58.7153511047 L152.260681152,58.1425094604 L153.895675659,57.3937530518 L155.444580078,56.5425872803 L156.803985596,55.6534881592 L157.860168457,54.7723007202 L158.513580322,53.9379844666 L158.684814453,53.2138748169 L158.317642212,52.6835784912 L157.400894165,52.4472846985 L156.013946533,52.5923461914 L154.293243408,53.1554946899 L152.431152344,54.1028709412 L150.685943604,55.3461074829 L149.2840271,56.7603187561 L148.407577515,58.2314987183 L148.174987793,59.636516571 L148.641845703,60.864616394 L149.785461426,61.8145866394 L151.578674316,62.420627594 L153.950439453,62.6271133423 L156.682098389,62.4666137695 L159.452575684,62.009563446 L161.638641357,61.5051574707 L162.945251465,61.1271476746 " fill="none" stroke="white" stroke-linecap="round" stroke-width="2" /><path d="M162.423797607,60.361618042 L162.589370728,60.3210258484 L163.014511108,60.1665382385 L163.767364502,59.8258857727 L164.808959961,59.2630157471 L166.009536743,58.4923591614 L167.235183716,57.5569610596 L168.365783691,56.5107345581 L169.299407959,55.4374389648 L169.948913574,54.4231185913 L170.238357544,53.565864563 L170.108764648,52.9538841248 L169.554397583,52.6510276794 L168.631256104,52.6992111206 L167.449111938,53.1162261963 L166.147125244,53.8838233948 L164.897506714,54.9573440552 L163.867996216,56.264541626 L163.195297241,57.6938972473 L162.976150513,59.1254081726 L163.304534912,60.4243621826 L164.222366333,61.437538147 L165.729858398,62.0533676147 L167.751403809,62.2115516663 L170.11517334,61.9071121216 L172.552505493,61.2060661316 L174.823287964,60.2112998962 L176.727111816,59.0112304688 L178.14604187,57.7157783508 L179.048080444,56.4485015869 L179.519134521,55.3294830322 L179.663696289,54.4613647461 L179.604660034,53.9297103882 L179.441238403,53.788444519 L179.199157715,54.0688591003 L178.865829468,54.792427063 L178.482131958,55.9052352905 L178.105072021,57.2687568665 L177.808807373,58.7098426819 L177.665649414,60.0421600342 L177.664627075,61.1160087585 L177.753372192,61.8557128906 L177.856445312,62.2085952759 L177.926589966,62.1453437805 L177.970535278,61.6721382141 L178.034790039,60.815738678 L178.159378052,59.6679344177 L178.395324707,58.3508644104 L178.788803101,56.9813537598 L179.390518188,55.6587333679 L180.270309448,54.4727363586 L181.431915283,53.4870681763 L182.810897827,52.7799301147 L184.308761597,52.4030570984 L185.826156616,52.3934211731 L187.254425049,52.7497520447 L188.539581299,53.456413269 L189.60218811,54.4596405029 L190.393310547,55.6849975586 L190.905502319,57.0453643799 L191.149490356,58.4896965027 L191.156829834,59.9189910889 L191.004745483,61.2404098511 L190.807144165,62.231842041 L190.653335571,62.8075256348 " fill="none" stroke="white" stroke-linecap="round" stroke-width="2" /><path d="M216.33380127,55.5366668701 L216.190963745,55.1370887756 L215.862594604,54.5481796265 L215.288925171,53.9031105042 L214.451812744,53.4311981201 L213.314208984,53.2153511047 L211.880264282,53.3245773315 L210.232315063,53.7806549072 L208.483917236,54.604133606 L206.827789307,55.7472953796 L205.46937561,57.109828949 L204.547058105,58.5207176208 L204.166152954,59.8016319275 L204.369827271,60.7849617004 L205.139541626,61.3554267883 L206.437896729,61.4325218201 L208.183303833,60.9909515381 L210.23600769,60.0642852783 L212.432174683,58.7555923462 L214.573501587,57.2307701111 L216.416015625,55.6990737915 L217.803634644,54.3360595703 L218.673492432,53.2879943848 L219.038467407,52.6698760986 L218.983810425,52.5573348999 L218.64125061,53.0083961487 L218.076080322,54.0245399475 L217.421966553,55.4836921692 L216.928359985,57.2266387939 L216.800964355,59.0266265869 L217.17010498,60.6694869995 L217.78012085,61.8710289001 L218.330612183,62.557094574 " fill="none" stroke="white" stroke-linecap="round" stroke-width="2" /><path d="M248.163574219,55.2144050598 L248.112640381,54.8307380676 L247.906387329,54.2545967102 L247.429153442,53.6080818176 L246.564254761,53.0883598328 L245.284744263,52.7623405457 L243.636444092,52.6714859009 L241.764709473,52.7958450317 L239.898696899,53.1136932373 L238.285446167,53.585193634 L237.120056152,54.1516456604 L236.548828125,54.769077301 L236.605529785,55.4081420898 L237.259246826,56.0506324768 L238.458908081,56.6785354614 L240.115570068,57.3172645569 L242.096420288,57.9864845276 L244.219940186,58.6984214783 L246.230804443,59.4327774048 L247.887527466,60.1548156738 L249.031433105,60.8045349121 L249.588684082,61.3687438965 L249.553924561,61.8357810974 L248.964889526,62.2006912231 L247.832275391,62.451423645 L246.201766968,62.5716056824 L244.185302734,62.5318107605 L241.955352783,62.3263397217 L239.7290802,61.9622039795 L237.710906982,61.4568519592 L236.024932861,60.8345451355 L234.717437744,60.1162376404 L233.854064941,59.3007736206 L233.478302002,58.4241981506 L233.59803772,57.5617027283 L233.963668823,56.8874931335 L234.340667725,56.4825592041 " fill="none" stroke="white" stroke-linecap="round" stroke-width="2" /><path d="M251.642807007,52.5431442261 L251.534957886,52.7433776855 L251.354675293,53.1932754517 L251.119659424,53.9443359375 L250.862289429,54.9672279358 L250.600494385,56.2069664001 L250.345504761,57.572303772 L250.113601685,58.9679603577 L249.957885742,60.2856864929 L249.911148071,61.4075889587 L249.974945068,62.2454833984 L250.090026855,62.7549438477 L250.191253662,62.982963562 " fill="none" stroke="white" stroke-linecap="round" stroke-width="2" /><path d="M252.38722229,46.4015693665 L252.391723633,46.3683013916 L252.419067383,46.3751907349 L252.45753479,46.4142379761 L252.495391846,46.477432251 " fill="none" stroke="white" stroke-linecap="round" stroke-width="2" /><path d="M256.128814697,52.9434318542 L256.177642822,52.9203605652 L256.249359131,52.9555397034 L256.294464111,53.166973114 L256.240264893,53.6853408813 L256.028930664,54.5934677124 L255.645278931,55.8286018372 L255.146194458,57.2419586182 L254.639526367,58.622631073 L254.216339111,59.7947769165 L253.946136475,60.6472930908 L253.848739624,61.1303939819 L253.927246094,61.205745697 L254.197311401,60.8569107056 L254.663665771,60.0697174072 L255.324996948,58.915184021 L256.180053711,57.5326461792 L257.202667236,56.095451355 L258.374389648,54.753276825 L259.675994873,53.6212501526 L261.027130127,52.77293396 L262.35256958,52.2755966187 L263.573150635,52.1887435913 L264.602783203,52.5461578369 L265.396240234,53.3356208801 L265.944763184,54.4917831421 L266.246307373,55.907459259 L266.341400146,57.4293174744 L266.330596924,58.8971481323 L266.319213867,60.1610183716 L266.405090332,61.1292800903 L266.554199219,61.7336845398 L266.704315186,62.0244598389 " fill="none" stroke="white" stroke-linecap="round" stroke-width="2" /><path d="M283.724822998,47.6606254578 L283.798400879,47.0134506226 L283.849456787,45.9838638306 L283.782165527,44.7152023315 L283.495117188,43.4973182678 L282.949615479,42.442565918 L282.135559082,41.6313934326 L281.120910645,41.1248931885 L279.96484375,41.0 L278.742340088,41.3098335266 L277.539367676,42.0893859863 L276.414093018,43.3338546753 L275.385864258,45.0157814026 L274.492980957,47.0935974121 L273.748748779,49.504119873 L273.186553955,52.1739196777 L272.849273682,55.0052947998 L272.753753662,57.8483657837 L272.862884521,60.5260925293 L273.131408691,62.8687095642 L273.460540771,64.6937866211 L273.755126953,65.890914917 L273.948394775,66.4575424194 L274.036804199,66.5835876465 L274.046936035,66.4980773926 " fill="none" stroke="white" stroke-linecap="round" stroke-width="2" /><path d="M267.374603271,53.6841697693 L267.855438232,53.6783599854 L268.836761475,53.6793365479 L270.30178833,53.6887054443 L272.143127441,53.6983528137 L274.197723389,53.6912155151 L276.290924072,53.655796051 L277.968170166,53.6074371338 L279.027496338,53.5671806335 " fill="none" stroke="white" stroke-linecap="round" stroke-width="2" /><path d="M283.890930176,51.6083183289 L283.591400146,51.9981422424 L283.135894775,52.7456321716 L282.607757568,53.8413581848 L282.176818848,55.1485557556 L281.912078857,56.5441970825 L281.892944336,57.8834342957 L282.164703369,59.0377922058 L282.746490479,59.8985519409 L283.618835449,60.3627166748 L284.745697021,60.368560791 L286.064971924,59.899143219 L287.501861572,58.9988479614 L288.959777832,57.7820510864 L290.327819824,56.4086380005 L291.508148193,55.0415458679 L292.426086426,53.8319854736 L293.086639404,52.8743286133 L293.501281738,52.2387695312 L293.692504883,51.9901924133 L293.671813965,52.1783409119 L293.449615479,52.8323020935 L293.029052734,53.9223976135 L292.510253906,55.3159408569 L292.018798828,56.8552970886 L291.674987793,58.3425445557 L291.548248291,59.6118431091 L291.58114624,60.4889526367 L291.663269043,60.9572372437 " fill="none" stroke="white" stroke-linecap="round" stroke-width="2" /><path d="M300.218841553,42.768497467 L300.304718018,42.8507652283 L300.389190674,43.1607246399 L300.390258789,43.8240890503 L300.2265625,44.8998985291 L299.880493164,46.3510894775 L299.38973999,48.106048584 L298.838623047,50.075843811 L298.322479248,52.173828125 L297.911254883,54.2986068726 L297.678070068,56.3378944397 L297.624603271,58.1583404541 L297.802459717,59.6411056519 L298.225799561,60.6997795105 L298.875244141,61.3179512024 L299.514160156,61.5821838379 L299.987884521,61.6394424438 " fill="none" stroke="white" stroke-linecap="round" stroke-width="2" /><path d="M312.544616699,56.4072799683 L312.457519531,57.0300521851 L312.273193359,58.0573959351 L311.999450684,59.370300293 L311.682037354,60.6633720398 L311.369232178,61.7930603027 L311.107421875,62.6263923645 L310.917724609,63.1009902954 L310.813476562,63.1559867859 L310.813446045,62.7775192261 L310.952331543,61.9543991089 L311.245697021,60.7445869446 L311.699249268,59.2618865967 L312.314025879,57.6549758911 L313.094787598,56.0628967285 L314.027832031,54.5917549133 L315.133911133,53.3140678406 L316.378082275,52.2842178345 L317.699493408,51.5695800781 L319.021911621,51.2184486389 L320.259796143,51.2767601013 L321.311187744,51.7455329895 L322.145019531,52.6102523804 L322.726806641,53.7929000854 L323.053924561,55.1833229065 L323.151794434,56.6175842285 L323.085845947,57.948299408 L322.921966553,59.039932251 L322.754180908,59.8150749207 L322.63104248,60.2313232422 L322.574615479,60.2778167725 L322.601928711,59.9360313416 L322.757873535,59.2052345276 L323.11114502,58.1319656372 L323.715942383,56.8123703003 L324.581359863,55.3857841492 L325.688842773,53.994468689 L326.98059082,52.7381896973 L328.367736816,51.6838302612 L329.778930664,50.8939285278 L331.104797363,50.4174423218 L332.267272949,50.2922935486 L333.231018066,50.5362548828 L333.964904785,51.1299819946 L334.437286377,52.042098999 L334.653961182,53.2187805176 L334.618164062,54.5827674866 L334.413848877,56.0368080139 L334.181365967,57.4760284424 L334.042449951,58.7734832764 L334.061981201,59.8252906799 L334.181335449,60.5205802917 L334.305450439,60.8709106445 " fill="none" stroke="white" stroke-linecap="round" stroke-width="2" /><path d="M345.276885986,53.9213066101 L345.202789307,53.5747871399 L345.038482666,53.0644607544 L344.726959229,52.5056610107 L344.229919434,52.0858612061 L343.493560791,51.8790206909 L342.515289307,51.9435882568 L341.348937988,52.3132476807 L340.112335205,53.0119972229 L338.93460083,54.0127563477 L337.949645996,55.2432746887 L337.262054443,56.601940155 L336.921722412,57.9564857483 L336.962036133,59.1794166565 L337.386474609,60.1446609497 L338.165985107,60.7464065552 L339.232147217,60.9183120728 L340.508148193,60.657119751 L341.878326416,59.996257782 L343.222747803,59.0299072266 L344.426727295,57.874168396 L345.396392822,56.6542663574 L346.084320068,55.4946708679 L346.495147705,54.5060081482 L346.695648193,53.745716095 L346.74307251,53.2563018799 L346.705535889,53.057510376 L346.602416992,53.1564407349 L346.466705322,53.5841789246 L346.313232422,54.3491172791 L346.194274902,55.3966522217 L346.152557373,56.6396141052 L346.277374268,57.9419212341 L346.588409424,59.137298584 L347.075439453,60.1051559448 L347.554504395,60.739528656 L347.896057129,61.0510292053 " fill="none" stroke="white" stroke-linecap="round" stroke-width="2" /><path class="linestart" d="M351.913116455,52.2602157593 L351.967956543,52.4477081299 L352.030029297,52.941192627 L352.045898438,53.8221817017 L351.981506348,55.0454330444 L351.84173584,56.4481239319 L351.705932617,57.8191719055 L351.635925293,58.9818191528 L351.661529541,59.8349113464 L351.760925293,60.3211097717 L351.920471191,60.414188385 L352.129364014,60.0870475769 L352.454101562,59.3388595581 L352.927001953,58.2274093628 L353.570800781,56.8785400391 L354.367675781,55.4339179993 L355.316375732,54.0283508301 L356.402008057,52.7563095093 L357.656951904,51.7048187256 L359.063812256,50.9543609619 L360.570404053,50.581943512 L362.04788208,50.6302604675 L363.374237061,51.1119194031 L364.406829834,51.9964141846 L365.080047607,53.2278747559 L365.397918701,54.7144851685 L365.437347412,56.3267593384 L365.311431885,57.9203491211 L365.165374756,59.3895721436 L365.082580566,60.6420249939 L365.091308594,61.6315727234 L365.152618408,62.2889442444 L365.214202881,62.631313324 " fill="none" stroke="white" stroke-linecap="round" stroke-width="2" /><path d="M0,0 " fill="none" stroke="white" stroke-linecap="round" stroke-width="2" /><path d="M47.0593643188,97.2024307251 L47.0803451538,97.252746582 L47.1380577087,97.4645233154 L47.2160453796,97.9669418335 L47.265422821,98.866897583 L47.2276153564,100.209777832 L47.074432373,101.974327087 L46.8287582397,104.063674927 L46.5309028625,106.349960327 L46.1955375671,108.679862976 L45.8374214172,110.892837524 L45.4869117737,112.837638855 L45.165096283,114.39074707 L44.9347724915,115.479415894 L44.822013855,116.07661438 L44.8034324646,116.170539856 L44.8729782104,115.770301819 L45.0632629395,114.894699097 L45.3971710205,113.613235474 L45.9409675598,112.075737 L46.7309532166,110.456985474 L47.7611846924,108.918701172 L49.0069580078,107.598388672 L50.4455947876,106.593658447 L51.9996871948,105.988594055 L53.5946350098,105.858329773 L55.1353492737,106.239028931 L56.5251045227,107.111907959 L57.6491203308,108.392745972 L58.4238624573,109.953735352 L58.7712593079,111.639472961 L58.6663818359,113.296562195 L58.0904312134,114.792327881 L57.0690689087,116.023330688 L55.6265640259,116.911354065 L53.8480644226,117.423782349 L51.8582344055,117.563796997 L49.8208045959,117.367736816 L47.9027442932,116.905357361 L46.2605895996,116.275352478 L45.0608863831,115.547744751 L44.4158248901,114.801704407 L44.3371543884,114.093399048 L44.5731506348,113.548072815 L44.8742294312,113.216018677 " fill="none" stroke="white" stroke-linecap="round" stroke-width="2" /><path d="M62.4096221924,108.370140076 L62.2432098389,108.681564331 L62.0046691895,109.303344727 L61.7532043457,110.258895874 L61.5827293396,111.472358704 L61.527759552,112.870872498 L61.633934021,114.352241516 L61.9291381836,115.792892456 L62.4365844727,117.050453186 L63.1508140564,117.983200073 L64.0610733032,118.47833252 L65.1444702148,118.467933655 L66.3616409302,117.925964355 L67.6452026367,116.884391785 L68.9089279175,115.438789368 L70.0523223877,113.7396698 L71.0312042236,111.96962738 L71.8193664551,110.32408905 L72.3902130127,108.961654663 L72.768157959,107.966529846 L72.9800262451,107.368972778 L73.0441665649,107.174705505 L73.0047607422,107.3932724 L72.8715896606,108.06967926 L72.642539978,109.233360291 L72.3739318848,110.802452087 L72.1304397583,112.629417419 L71.9660644531,114.512382507 L71.9458389282,116.240730286 L72.0799179077,117.654441833 L72.3360519409,118.66784668 L72.6023101807,119.249862671 L72.7994232178,119.496131897 " fill="none" stroke="white" stroke-linecap="round" stroke-width="2" /><path d="M81.2260665894,97.9100036621 L81.2592773438,97.887298584 L81.3254852295,97.9971466064 L81.4082489014,98.3789672852 L81.4762191772,99.1636123657 L81.4841003418,100.381752014 L81.3865356445,102.012023926 L81.1719284058,103.975822449 L80.8643569946,106.160644531 L80.5155487061,108.420600891 L80.2134017944,110.61240387 L80.0030822754,112.596839905 L79.933303833,114.262619019 L80.0001525879,115.51914978 L80.1672363281,116.330039978 L80.3444595337,116.741172791 L80.478843689,116.877922058 " fill="none" stroke="white" stroke-linecap="round" stroke-width="2" /><path d="M77.9540252686,108.536178589 L78.095741272,108.421310425 L78.6413116455,108.24912262 L79.7455215454,108.050186157 L81.4142074585,107.87651062 L83.3651580811,107.725784302 L85.3111801147,107.593399048 L86.7909164429,107.488265991 L87.6546554565,107.420776367 " fill="none" stroke="white" stroke-linecap="round" stroke-width="2" /><path d="M106.437141418,100.489532471 L106.467254639,100.596710205 L106.519424438,100.939796448 L106.56993103,101.646995544 L106.577140808,102.773002625 L106.493217468,104.301811218 L106.280838013,106.163124084 L105.971427917,108.254043579 L105.606864929,110.458770752 L105.235198975,112.652366638 L104.905776978,114.690246582 L104.639511108,116.468315125 L104.434089661,117.85836792 L104.302986145,118.76776123 L104.230949402,119.186729431 L104.197792053,119.261772156 L104.188575745,119.172958374 " fill="none" stroke="white" stroke-linecap="round" stroke-width="2" /><path d="M100.699203491,110.794502258 L100.784324646,110.791862488 L101.119026184,110.80255127 L101.861999512,110.827758789 L103.087173462,110.843338013 L104.734176636,110.808982849 L106.668952942,110.691963196 L108.711669922,110.464691162 L110.677757263,110.13495636 L112.408927917,109.722976685 L113.781539917,109.257995605 L114.748283386,108.783592224 L115.321884155,108.340675354 L115.537010193,107.937591553 L115.427474976,107.609298706 L114.981285095,107.390480042 L114.179367065,107.364448547 L113.04233551,107.626083374 L111.652809143,108.250648499 L110.151725769,109.234146118 L108.737663269,110.524810791 L107.613922119,112.000549316 L106.955749512,113.538726807 L106.832984924,114.999389648 L107.352684021,116.241973877 L108.491668701,117.147003174 L110.124824524,117.664115906 L111.683311462,117.862319946 L112.788841248,117.878288269 " fill="none" stroke="white" stroke-linecap="round" stroke-width="2" /><path d="M123.974624634,109.708869934 L123.771240234,109.403839111 L123.412460327,109.010162354 L122.86403656,108.675338745 L122.140037537,108.615142822 L121.206642151,108.916229248 L120.083084106,109.628128052 L118.845169067,110.714225769 L117.640739441,112.107345581 L116.605613708,113.644592285 L115.901657104,115.13759613 L115.621498108,116.401329041 L115.797348022,117.282585144 L116.397377014,117.669166565 L117.341888428,117.510353088 L118.517730713,116.810829163 L119.813117981,115.661949158 L121.097610474,114.224052429 L122.256439209,112.687835693 L123.20173645,111.255142212 L123.869735718,110.06413269 L124.281639099,109.194923401 L124.474655151,108.686195374 L124.502128601,108.565551758 L124.401435852,108.854652405 L124.208526611,109.585159302 L123.946807861,110.702148438 L123.688774109,112.076339722 L123.552970886,113.53730011 L123.634460449,114.898681641 L123.962944031,116.016616821 L124.372268677,116.769393921 L124.704872131,117.16065979 " fill="none" stroke="white" stroke-linecap="round" stroke-width="2" /><path d="M134.954055786,109.197364807 L134.89944458,108.9506073 L134.680786133,108.615394592 L134.199188232,108.30859375 L133.395278931,108.211532593 L132.24937439,108.413330078 L130.84286499,108.982673645 L129.32421875,109.905532837 L127.893348694,111.129753113 L126.789611816,112.52519989 L126.216766357,113.940559387 L126.250175476,115.232223511 L126.909469604,116.280044556 L128.132537842,116.980079651 L129.82611084,117.256584167 L131.864547729,117.045341492 L134.104171753,116.333679199 L136.363754272,115.15524292 L138.48286438,113.561576843 L140.340835571,111.607246399 L141.891113281,109.372581482 L143.116958618,106.966789246 L144.040390015,104.546257019 L144.688781738,102.318977356 L145.081008911,100.461990356 L145.259429932,99.074798584 L145.275177002,98.2274627686 L145.149353027,97.963394165 L144.89024353,98.3258666992 L144.487930298,99.3498382568 L143.93421936,100.977638245 L143.292953491,103.050674438 L142.641891479,105.365333557 L142.043518066,107.709640503 L141.557678223,109.895233154 L141.185150146,111.756126404 L140.928955078,113.164749146 L140.837158203,114.040550232 L140.970428467,114.354232788 L141.374954224,114.120277405 L142.101333618,113.384338379 L143.118499756,112.247077942 L144.374313354,110.889389038 L145.772201538,109.515518188 L147.209564209,108.31451416 L148.577377319,107.41178894 L149.81930542,106.886558533 L150.903549194,106.793739319 L151.842941284,107.17653656 L152.629867554,108.02141571 L153.264968872,109.264709473 L153.730957031,110.772239685 L154.058258057,112.446517944 L154.295425415,114.156196594 L154.505935669,115.780006409 L154.676696777,117.021766663 L154.798995972,117.767059326 " fill="none" stroke="white" stroke-linecap="round" stroke-width="2" /><path d="M169.899017334,109.402420044 " fill="none" stroke="white" stroke-linecap="round" stroke-width="2" /><path d="M170.127792358,109.62587738 L170.120269775,110.003707886 L170.070510864,110.722999573 L169.954818726,111.79838562 L169.749511719,113.132270813 L169.449935913,114.633514404 L169.079284668,116.15259552 L168.70300293,117.510047913 L168.381057739,118.566947937 L168.168228149,119.244903564 L168.069732666,119.518463135 L168.054077148,119.374557495 L168.089248657,118.778823853 L168.18788147,117.713043213 L168.383255005,116.265304565 L168.719772339,114.573440552 L169.247894287,112.799911499 L170.001251221,111.096748352 L170.989303589,109.581466675 L172.192504883,108.35786438 L173.542022705,107.51940918 L174.938476562,107.126014709 L176.271820068,107.198951721 L177.437606812,107.735801697 L178.352539062,108.704856873 L178.961181641,110.043327332 L179.258666992,111.625343323 L179.293899536,113.296607971 L179.125259399,114.856933594 L178.858093262,116.154136658 L178.585571289,117.081985474 L178.375259399,117.583770752 L178.305862427,117.632461548 L178.394180298,117.23727417 L178.636886597,116.391021729 L179.087585449,115.176193237 L179.791656494,113.712814331 L180.794906616,112.153800964 L182.11340332,110.661849976 L183.648376465,109.393371582 L185.262176514,108.444984436 L186.823471069,107.904411316 L188.221252441,107.816329956 L189.408126831,108.19745636 L190.351623535,109.033058167 L191.02911377,110.274055481 L191.433441162,111.80216217 L191.561950684,113.466316223 L191.451553345,115.100135803 L191.211669922,116.545394897 L190.940490723,117.707458496 L190.753692627,118.491073608 L190.727172852,118.846382141 L190.860031128,118.797424316 L191.046112061,118.549919128 L191.210235596,118.285545349 " fill="none" stroke="white" stroke-linecap="round" stroke-width="2" /><path d="M194.090423584,116.313575745 L194.177352905,116.296386719 L194.522659302,116.184188843 L195.252746582,115.891166687 L196.411804199,115.361038208 L197.883743286,114.586837769 L199.491897583,113.609069824 L201.067581177,112.496841431 L202.467453003,111.325881958 L203.575897217,110.165519714 L204.334487915,109.094818115 L204.692321777,108.187110901 L204.619049072,107.526916504 L204.108352661,107.199203491 L203.143432617,107.275970459 L201.77545166,107.79750824 L200.159255981,108.742835999 L198.553466797,110.03352356 L197.214279175,111.551025391 L196.338638306,113.150161743 L196.034912109,114.70955658 L196.33644104,116.120361328 L197.237640381,117.284065247 L198.711395264,118.133415222 L200.762832642,118.586540222 L203.262908936,118.613166809 L206.009338379,118.274330139 L208.309875488,117.819824219 L209.787246704,117.448982239 " fill="none" stroke="white" stroke-linecap="round" stroke-width="2" /><path d="M223.44303894,106.825111389 L223.559677124,107.040115356 L223.69102478,107.539810181 L223.738723755,108.415802002 L223.58631897,109.663627625 L223.225601196,111.226066589 L222.703475952,112.968765259 L222.140686035,114.700454712 L221.645996094,116.223640442 L221.283935547,117.398986816 L221.057998657,118.131530762 L220.958053589,118.385147095 L220.967758179,118.158050537 L221.122558594,117.436004639 L221.451950073,116.247093201 L221.992828369,114.705352783 L222.751449585,112.965232849 L223.722930908,111.199501038 L224.877227783,109.563919067 L226.182525635,108.14931488 L227.573608398,107.0259552 L228.974411011,106.267539978 L230.300537109,105.938919067 L231.470413208,106.087852478 L232.406860352,106.720352173 L233.067962646,107.787628174 L233.445220947,109.200325012 L233.569259644,110.8203125 L233.525863647,112.500076294 L233.40586853,114.068778992 L233.301422119,115.379562378 L233.250671387,116.268806458 L233.246963501,116.735786438 " fill="none" stroke="white" stroke-linecap="round" stroke-width="2" /><path d="M242.700515747,109.342773438 L242.441558838,108.976165771 L241.97883606,108.501625061 L241.302078247,108.098060608 L240.462432861,108.002685547 L239.487640381,108.280693054 L238.43951416,108.933609009 L237.403793335,109.890800476 L236.50843811,111.081169128 L235.865280151,112.394325256 L235.565185547,113.696006775 L235.679229736,114.864524841 L236.231262207,115.762397766 L237.18989563,116.273490906 L238.485122681,116.313034058 L240.00793457,115.853515625 L241.614440918,114.940422058 L243.125656128,113.696456909 L244.369827271,112.263504028 L245.193771362,110.798912048 L245.509567261,109.397651672 L245.352859497,108.144058228 L244.872619629,107.091522217 L244.350708008,106.354866028 L243.981567383,105.945487976 " fill="none" stroke="white" stroke-linecap="round" stroke-width="2" /><path d="M252.561599731,97.0465164185 L252.508300781,97.1784973145 L252.419555664,97.580581665 L252.288162231,98.367805481 L252.104354858,99.5668182373 L251.843093872,101.102996826 L251.514877319,102.924797058 L251.155914307,104.940109253 L250.831390381,107.071174622 L250.586990356,109.220451355 L250.440383911,111.259040833 L250.379516602,113.062431335 L250.400085449,114.509109497 L250.496612549,115.490600586 L250.659240723,115.985572815 L250.822998047,116.122047424 L250.943878174,116.073097229 " fill="none" stroke="white" stroke-linecap="round" stroke-width="2" /><path d="M246.331130981,106.341072083 L246.655853271,106.319419861 L247.417572021,106.297492981 L248.668579102,106.274497986 L250.385070801,106.250526428 L252.412734985,106.221076965 L254.546035767,106.178352356 L256.283111572,106.134407043 L257.384887695,106.106521606 " fill="none" stroke="white" stroke-linecap="round" stroke-width="2" /><path d="M286.230041504,101.607276917 L286.213500977,100.880355835 L286.078399658,99.7908325195 L285.739929199,98.555480957 L285.12322998,97.5318222046 L284.212036133,96.8215332031 L283.040405273,96.4917526245 L281.651000977,96.5573883057 L280.15057373,97.0759429932 L278.674346924,98.0641784668 L277.36114502,99.5041809082 L276.299560547,101.333786011 L275.513183594,103.488296509 L274.952819824,105.895004272 L274.554534912,108.482704163 L274.270385742,111.166824341 L274.098327637,113.85231781 L274.029571533,116.41721344 L274.04977417,118.758331299 L274.121826172,120.776779175 L274.183654785,122.339256287 L274.201416016,123.348678589 L274.163757324,123.783843994 L274.100982666,123.821334839 L274.046661377,123.687759399 " fill="none" stroke="white" stroke-linecap="round" stroke-width="2" /><path d="M269.27835083,111.12651825 L269.405670166,111.104400635 L269.793579102,111.094497681 L270.579711914,111.112419128 L271.805847168,111.151847839 L273.425628662,111.178016663 L275.307281494,111.154335022 L277.284423828,111.050598145 L279.231445312,110.862693787 L281.038574219,110.612815857 L282.610595703,110.327270508 L283.747650146,110.086624146 L284.396911621,109.933769226 " fill="none" stroke="white" stroke-linecap="round" stroke-width="2" /><path d="M291.974914551,109.784332275 L291.920776367,109.547134399 L291.711425781,109.161994934 L291.221435547,108.699859619 L290.36895752,108.32636261 L289.126922607,108.159873962 L287.6043396,108.291503906 L285.975372314,108.761825562 L284.422698975,109.569152832 L283.127502441,110.648895264 L282.236572266,111.903846741 L281.845794678,113.200637817 L282.017211914,114.396537781 L282.737518311,115.361724854 L283.919281006,115.995491028 L285.440734863,116.229804993 L287.131774902,116.032966614 L288.83807373,115.424339294 L290.390228271,114.465965271 L291.668914795,113.254768372 L292.569580078,111.91381073 L293.070922852,110.604042053 L293.213562012,109.459564209 L293.089447021,108.585197449 L292.826782227,108.056037903 L292.575469971,107.890480042 L292.421905518,108.064300537 L292.441925049,108.559181213 L292.674621582,109.297782898 L293.112579346,110.159957886 L293.766418457,111.024742126 L294.603851318,111.765060425 L295.563751221,112.288200378 L296.559753418,112.546379089 L297.510894775,112.526382446 L298.351043701,112.237678528 L299.053588867,111.725242615 L299.58984375,111.054702759 L299.949615479,110.319488525 L300.135803223,109.604217529 L300.192749023,108.992683411 L300.175140381,108.534606934 L300.1355896,108.24987793 L300.103820801,108.114372253 L300.082366943,108.096435547 L300.071838379,108.174125671 L300.071594238,108.36100769 L300.055633545,108.706672668 L300.000518799,109.270935059 L299.892547607,110.073478699 L299.725982666,111.088760376 L299.524597168,112.232383728 L299.320678711,113.372215271 L299.119750977,114.379096985 L298.932128906,115.139694214 L298.774871826,115.623062134 L298.643127441,115.847938538 L298.543395996,115.839523315 L298.481140137,115.590568542 L298.465820312,115.051101685 L298.541351318,114.169372559 L298.783752441,112.996559143 L299.25479126,111.631492615 L299.988983154,110.209739685 L300.979400635,108.862861633 L302.17855835,107.669395447 L303.527923584,106.68901825 L304.970672607,105.978843689 L306.49899292,105.592689514 L308.052856445,105.54107666 L309.550537109,105.787033081 L310.712585449,106.129486084 L311.414520264,106.411979675 " fill="none" stroke="white" stroke-linecap="round" stroke-width="2" /><path d="M321.356079102,108.641120911 L321.340148926,108.327888489 L321.195465088,107.889793396 L320.797973633,107.44720459 L320.045623779,107.195404053 L318.913909912,107.223991394 L317.444244385,107.60231781 L315.789794922,108.34690094 L314.169647217,109.422012329 L312.822479248,110.699035645 L311.944793701,112.00112915 L311.660217285,113.147644043 L311.966339111,113.987167358 L312.821075439,114.427780151 L314.121063232,114.416542053 L315.726501465,113.95475769 L317.454040527,113.101272583 L319.124053955,111.997123718 L320.533081055,110.837379456 L321.569885254,109.800308228 L322.187255859,109.014083862 L322.436096191,108.565681458 L322.412658691,108.500999451 L322.222412109,108.879547119 L321.928100586,109.757995605 L321.595336914,111.101875305 L321.278015137,112.819595337 L321.037200928,114.796630859 L320.886810303,116.906723022 L320.79208374,119.042167664 L320.683135986,121.12008667 L320.47164917,123.037452698 L320.096740723,124.704910278 L319.517608643,126.057357788 L318.717346191,127.043823242 L317.718841553,127.618942261 L316.561187744,127.758789062 L315.324066162,127.462242126 L314.139831543,126.766479492 L313.142364502,125.757469177 L312.558135986,124.489364624 L312.541717529,123.051803589 L313.077423096,121.554290771 L313.806243896,120.332344055 L314.414154053,119.558105469 " fill="none" stroke="white" stroke-linecap="round" stroke-width="2" /><path d="M327.788604736,113.0001297 L327.95223999,113.004142761 L328.33114624,112.949584961 L328.974578857,112.769668579 L329.859405518,112.403083801 L330.905395508,111.831016541 L331.996459961,111.081100464 L333.017120361,110.204551697 L333.852874756,109.257049561 L334.415527344,108.307273865 L334.648101807,107.426490784 L334.504455566,106.705726624 L333.95892334,106.233192444 L333.045654297,106.085517883 L331.824920654,106.298225403 L330.425476074,106.875846863 L329.009124756,107.78276825 L327.752990723,108.963272095 L326.833374023,110.330612183 L326.396392822,111.774528503 L326.523956299,113.161109924 L327.260070801,114.349365234 L328.577209473,115.228630066 L330.380950928,115.735549927 L332.592376709,115.783966064 L335.017242432,115.354637146 L337.431854248,114.509910583 L339.32913208,113.614631653 L340.483154297,112.946533203 " fill="none" stroke="white" stroke-linecap="round" stroke-width="2" /><path class="linestart" d="M347.513702393,96.0 L347.539550781,96.010559082 L347.535339355,96.1978149414 L347.439422607,96.6981658936 L347.19052124,97.6201629639 L346.774627686,98.9500656128 L346.250732422,100.64024353 L345.718475342,102.595016479 L345.2940979,104.723762512 L345.047363281,106.89339447 L344.997406006,108.983055115 L345.107421875,110.865638733 L345.361541748,112.455993652 L345.723907471,113.682731628 L346.165344238,114.522590637 L346.55645752,114.987159729 L346.821838379,115.172721863 " fill="none" stroke="white" stroke-linecap="round" stroke-width="2" /><path d="M0,0 " fill="none" stroke="white" stroke-linecap="round" stroke-width="2" /><path d="M44.6097679138,161.959503174 L44.6981506348,161.928100586 L44.7988777161,162.010894775 L44.8555908203,162.350112915 L44.7902603149,163.103912354 L44.5766792297,164.316070557 L44.2382125854,165.920639038 L43.849067688,167.73677063 L43.5037536621,169.532608032 L43.3258895874,171.071044922 L43.3962402344,172.180114746 L43.7578964233,172.726654053 L44.4128456116,172.651702881 L45.318447113,171.951263428 L46.3895225525,170.72277832 L47.5093688965,169.178848267 L48.5556716919,167.597946167 L49.4162368774,166.221572876 L50.0425605774,165.213180542 L50.4686050415,164.639785767 L50.7482948303,164.517593384 L50.9307975769,164.856185913 L51.0997962952,165.651031494 L51.2824630737,166.812637329 L51.5336418152,168.167861938 L51.9368286133,169.505218506 L52.5412597656,170.607391357 L53.375667572,171.299423218 L54.4581184387,171.471176147 L55.7316627502,171.058868408 L57.1159706116,170.061981201 L58.4710922241,168.566650391 L59.6399459839,166.710845947 L60.4966239929,164.668746948 L60.9775428772,162.618148804 L61.1017875671,160.716278076 L60.9532241821,159.079345703 L60.6108093262,157.791732788 L60.1756591797,156.873275757 L59.7976226807,156.326751709 L59.5500869751,156.07472229 " fill="none" stroke="white" stroke-linecap="round" stroke-width="2" /><path d="M68.1880950928,151.0 L68.2041625977,151.294952393 L68.2225799561,151.984680176 L68.21068573,153.168762207 L68.1177062988,154.830673218 L67.8784179688,156.900527954 L67.4657897949,159.271759033 L66.9215240479,161.792510986 L66.3215789795,164.266448975 L65.7752151489,166.460510254 L65.3889083862,168.193237305 L65.2095184326,169.349197388 L65.2342834473,169.877960205 L65.4891052246,169.786560059 L65.9867553711,169.100448608 L66.7469711304,167.901672363 L67.7877655029,166.37940979 L69.0648345947,164.750610352 L70.4808807373,163.211166382 L71.9736633301,161.923660278 L73.4491577148,160.978897095 L74.8216552734,160.4427948 L76.0397186279,160.372817993 L77.0388336182,160.791854858 L77.7667922974,161.677810669 L78.2129745483,162.951644897 L78.3594894409,164.464294434 L78.240196228,166.033493042 L78.0076904297,167.4506073 L77.822555542,168.542526245 L77.8351364136,169.219833374 L77.9962310791,169.530700684 L78.1899795532,169.601882935 " fill="none" stroke="white" stroke-linecap="round" stroke-width="2" /><path d="M89.1938247681,162.747558594 L89.1190567017,162.466445923 L88.9278564453,162.068771362 L88.5487060547,161.661117554 L87.9233703613,161.423492432 L87.0203704834,161.450149536 L85.8630523682,161.820663452 L84.5412902832,162.574081421 L83.1748886108,163.715011597 L81.9098434448,165.148101807 L80.909942627,166.728317261 L80.3138504028,168.277481079 L80.2002639771,169.624786377 L80.5954818726,170.619033813 L81.4452972412,171.142944336 L82.662437439,171.103881836 L84.1536560059,170.497070312 L85.7714004517,169.397094727 L87.3637924194,167.951629639 L88.7965393066,166.337142944 L89.9540252686,164.75289917 L90.7889328003,163.367492676 L91.3350296021,162.302490234 L91.6097717285,161.622344971 L91.6822280884,161.34753418 L91.6021270752,161.476745605 L91.4085235596,162.045440674 L91.1401443481,163.065643311 L90.8771591187,164.459121704 L90.6712188721,166.073684692 L90.6321258545,167.716873169 L90.8212661743,169.214080811 L91.3243026733,170.414916992 L92.1264572144,171.217636108 L93.1468811035,171.568832397 L94.0582275391,171.60043335 L94.6725921631,171.485580444 " fill="none" stroke="white" stroke-linecap="round" stroke-width="2" /><path d="M104.256256104,152.922653198 L104.288467407,152.605484009 L104.335639954,152.270385742 L104.368095398,152.121765137 L104.343452454,152.407409668 L104.202766418,153.185516357 L103.908981323,154.435241699 L103.463348389,156.066329956 L102.897377014,157.989883423 L102.283126831,160.072006226 L101.702842712,162.180801392 L101.219970703,164.189834595 L100.893669128,165.981124878 L100.756790161,167.462982178 L100.779975891,168.579986572 L100.925300598,169.325698853 L101.077278137,169.660415649 L101.137390137,169.579620361 L101.063568115,169.1222229 L100.92325592,168.555847168 L100.78478241,168.097305298 " fill="none" stroke="white" stroke-linecap="round" stroke-width="2" /><path d="M96.7858810425,162.212692261 L96.9460067749,162.091796875 L97.4393692017,161.929046631 L98.4078903198,161.774108887 L99.8770980835,161.694290161 L101.712127686,161.672790527 L103.745132446,161.68119812 L105.831604004,161.666168213 L107.835388184,161.588165283 L109.654052734,161.439239502 L111.01184082,161.283737183 L111.80255127,161.163864136 " fill="none" stroke="white" stroke-linecap="round" stroke-width="2" /><path d="M126.633682251,153.663604736 L126.802314758,153.786239624 L127.060546875,154.167739868 L127.335243225,154.935684204 L127.487739563,156.145111084 L127.414535522,157.755905151 L127.076164246,159.683731079 L126.51399231,161.795776367 L125.791809082,163.934371948 L125.048843384,165.927749634 L124.395439148,167.612731934 L123.902816772,168.88079834 L123.591163635,169.677200317 L123.454414368,169.977172852 L123.473724365,169.783660889 L123.689086914,169.106369019 L124.133659363,167.995819092 L124.831619263,166.57963562 L125.749549866,165.014221191 L126.846939087,163.463088989 L128.086700439,162.085418701 L129.438964844,160.994934082 L130.857574463,160.28817749 L132.268280029,160.036636353 L133.557037354,160.261749268 L134.614624023,160.932312012 L135.360717773,161.985443115 L135.770874023,163.336685181 L135.868896484,164.889877319 L135.748901367,166.517089844 L135.541259766,168.074676514 L135.366592407,169.42288208 L135.37677002,170.405654907 L135.660736084,170.949279785 L136.225921631,171.052124023 L136.838806152,170.901687622 L137.309738159,170.690628052 " fill="none" stroke="white" stroke-linecap="round" stroke-width="2" /><path d="M146.985702515,163.553833008 L146.860626221,163.231185913 L146.561386108,162.772613525 L146.016586304,162.31867981 L145.198547363,162.09185791 L144.10043335,162.198577881 L142.786651611,162.707138062 L141.372848511,163.613098145 L140.013000488,164.837020874 L138.897613525,166.246017456 L138.183258057,167.660705566 L137.943237305,168.897720337 L138.170623779,169.802719116 L138.824142456,170.281936646 L139.824310303,170.259307861 L141.127182007,169.736053467 L142.653656006,168.764328003 L144.295852661,167.470672607 L145.888046265,166.01890564 L147.281097412,164.62562561 L148.342315674,163.447891235 L149.038497925,162.590805054 L149.385726929,162.10585022 L149.485473633,162.032867432 L149.411819458,162.385040283 L149.223495483,163.185287476 L148.964447021,164.369613647 L148.694030762,165.801025391 L148.503036499,167.292419434 L148.494552612,168.646209717 L148.709762573,169.710067749 L149.011062622,170.389358521 L149.270019531,170.716201782 " fill="none" stroke="white" stroke-linecap="round" stroke-width="2" /><path d="M161.18649292,161.657180786 L161.107162476,161.283691406 L160.822814941,160.784835815 L160.195358276,160.316864014 L159.154769897,160.10710144 L157.766983032,160.192703247 L156.211776733,160.555297852 L154.727218628,161.12020874 L153.547561646,161.847183228 L152.832015991,162.667297363 L152.681869507,163.525482178 L153.162445068,164.348144531 L154.252151489,165.100814819 L155.854003906,165.780395508 L157.75138855,166.425811768 L159.66696167,167.078491211 L161.337982178,167.749450684 L162.60647583,168.417922974 L163.359924316,169.05267334 L163.584716797,169.614898682 L163.282577515,170.09085083 L162.478500366,170.475845337 L161.237686157,170.752975464 L159.696914673,170.926116943 L157.979721069,170.972717285 L156.293060303,170.88760376 L154.843917847,170.717269897 L153.765213013,170.519592285 L153.224151611,170.315551758 L153.280517578,170.120132446 L153.866043091,169.87940979 L154.613876343,169.641036987 L155.227401733,169.45866394 " fill="none" stroke="white" stroke-linecap="round" stroke-width="2" /><path d="M171.433502197,152.042144775 L171.504394531,152.182785034 L171.599273682,152.575393677 L171.66242981,153.327636719 L171.614807129,154.472213745 L171.402770996,155.964492798 L171.036575317,157.732894897 L170.55632019,159.679092407 L170.061859131,161.697662354 L169.654296875,163.678268433 L169.40814209,165.505783081 L169.341506958,167.092666626 L169.435913086,168.342727661 L169.61680603,169.186752319 L169.836853027,169.6068573 L170.021438599,169.716278076 L170.138092041,169.664215088 " fill="none" stroke="white" stroke-linecap="round" stroke-width="2" /><path d="M165.254302979,160.43572998 L165.645446777,160.469741821 L166.490203857,160.551071167 L167.851776123,160.691162109 L169.674346924,160.894775391 L171.785293579,161.145401001 L173.951660156,161.415710449 L175.68132019,161.64163208 L176.740600586,161.783981323 " fill="none" stroke="white" stroke-linecap="round" stroke-width="2" /><path d="M197.615234375,156.462295532 L197.628082275,156.603897095 L197.626785278,156.985092163 L197.584243774,157.706359863 L197.464599609,158.797302246 L197.251541138,160.23638916 L196.931716919,161.94934082 L196.501815796,163.842269897 L195.985534668,165.80871582 L195.426513672,167.732299805 L194.875915527,169.503494263 L194.391921997,171.013534546 L194.010513306,172.044418335 L193.782409668,172.439025879 L193.728851318,172.134002686 L193.785522461,171.49206543 L193.878082275,170.883285522 " fill="none" stroke="white" stroke-linecap="round" stroke-width="2" /><path d="M188.985015869,155.852081299 L188.99861145,155.802032471 L189.374771118,155.740127563 L190.379013062,155.667877197 L192.142547607,155.582992554 L194.495544434,155.451690674 L197.197937012,155.246795654 L200.010223389,154.962097168 L202.777267456,154.576858521 L205.358184814,154.089813232 L207.61239624,153.527160645 L209.220153809,153.036849976 L210.115859985,152.710113525 " fill="none" stroke="white" stroke-linecap="round" stroke-width="2" /><path d="M210.117385864,153.652389526 L210.117355347,154.058609009 L210.058700562,154.908615112 L209.866439819,156.249893188 L209.48085022,157.97644043 L208.887069702,159.967437744 L208.117538452,162.099945068 L207.280319214,164.240097046 L206.498123169,166.212112427 L205.870834351,167.847625732 L205.466033936,168.993499756 L205.290603638,169.56010437 L205.328643799,169.538421631 L205.605270386,168.952270508 L206.162704468,167.848983765 L207.019470215,166.362350464 L208.157485962,164.659667969 L209.492492676,162.945755005 L210.928070068,161.420303345 L212.365081787,160.214141846 L213.768478394,159.414276123 L215.099822998,159.085693359 L216.325027466,159.252105713 L217.37789917,159.928665161 L218.18888855,161.087249756 L218.677627563,162.62411499 L218.869354248,164.389816284 L218.827285767,166.192428589 L218.695175171,167.808624268 L218.600982666,169.056900024 L218.64050293,169.84173584 L218.758483887,170.208847046 L218.89100647,170.302185059 " fill="none" stroke="white" stroke-linecap="round" stroke-width="2" /><path d="M228.697784424,162.693084717 L228.504180908,162.328948975 L228.134246826,161.805908203 L227.533874512,161.266357422 L226.695541382,160.941040039 L225.60345459,160.93057251 L224.315887451,161.285873413 L222.983825684,162.000930786 L221.790756226,163.060379028 L220.903121948,164.380233765 L220.453475952,165.839614868 L220.524139404,167.279983521 L221.145248413,168.520645142 L222.301589966,169.390579224 L223.891403198,169.787261963 L225.725143433,169.646011353 L227.566314697,168.983612061 L229.198623657,167.900817871 L230.428710938,166.542572021 L231.154983521,165.077392578 L231.350082397,163.675140381 L231.074691772,162.455734253 L230.490264893,161.485107422 L229.906707764,160.846588135 L229.502380371,160.515655518 " fill="none" stroke="white" stroke-linecap="round" stroke-width="2" /><path d="M236.269958496,160.963867188 L236.251480103,160.971679688 L236.208755493,161.138427734 L236.109436035,161.583496094 L235.937042236,162.385559082 L235.708969116,163.505325317 L235.478881836,164.836242676 L235.352813721,166.220184326 L235.472427368,167.498092651 L235.919235229,168.485336304 L236.720596313,169.035476685 L237.847290039,169.061431885 L239.219299316,168.558929443 L240.749526978,167.579681396 L242.333328247,166.262374878 L243.851257324,164.756973267 L245.197799683,163.257461548 L246.293731689,161.951644897 L247.102478027,160.975479126 L247.642837524,160.384414673 L247.942214966,160.209197998 L248.033096313,160.453399658 L247.958999634,161.146331787 L247.742721558,162.268371582 L247.454956055,163.746520996 L247.196166992,165.401306152 L247.047943115,167.009048462 L247.009994507,168.223876953 L247.044845581,168.930099487 " fill="none" stroke="white" stroke-linecap="round" stroke-width="2" /><path d="M270.410705566,164.777740479 L270.357116699,164.383453369 L270.206604004,163.763183594 L269.897644043,163.027877808 L269.36138916,162.397384644 L268.532775879,161.99041748 L267.400695801,161.919998169 L266.013275146,162.24786377 L264.469909668,163.008834839 L262.943237305,164.159378052 L261.613250732,165.598144531 L260.638183594,167.156143188 L260.119873047,168.651809692 L260.120361328,169.91078186 L260.642822266,170.780029297 L261.639160156,171.128433228 L263.023864746,170.886749268 L264.663574219,170.034362793 L266.406677246,168.644287109 L268.115570068,166.841201782 L269.674804688,164.776412964 L270.984680176,162.577438354 L272.004516602,160.362548828 L272.726867676,158.234695435 L273.197143555,156.326049805 L273.463439941,154.744155884 L273.580810547,153.566986084 L273.592834473,152.83946228 L273.538757324,152.599441528 L273.431640625,152.868087769 L273.264160156,153.688400269 L273.028686523,155.04788208 L272.728271484,156.854736328 L272.395751953,158.977523804 L272.093017578,161.255142212 L271.873413086,163.500869751 L271.793579102,165.549713135 L271.888000488,167.234207153 L272.151123047,168.441085815 L272.452331543,169.142196655 L272.689331055,169.442459106 " fill="none" stroke="white" stroke-linecap="round" stroke-width="2" /><path d="M284.72467041,163.137207031 L284.586853027,162.756958008 L284.325683594,162.193572998 L283.919555664,161.583908081 L283.344482422,161.143569946 L282.565795898,160.965286255 L281.585510254,161.115325928 L280.465576172,161.614334106 L279.308837891,162.453765869 L278.260925293,163.586135864 L277.437316895,164.898651123 L276.955322266,166.25843811 L276.87512207,167.513320923 L277.230895996,168.522567749 L278.00189209,169.172973633 L279.149719238,169.39855957 L280.570983887,169.170227051 L282.134643555,168.522033691 L283.64666748,167.523117065 L284.936523438,166.295700073 L285.860839844,164.995452881 L286.380859375,163.768890381 L286.528686523,162.73425293 L286.410644531,161.950805664 L286.144958496,161.439987183 L285.866821289,161.193725586 L285.65802002,161.179779053 L285.549621582,161.281280518 L285.51953125,161.402923584 " fill="none" stroke="white" stroke-linecap="round" stroke-width="2" /><path d="M290.480834961,161.197540283 L290.480834961,161.448287964 L290.448242188,162.004425049 L290.352722168,162.907577515 L290.157592773,164.075012207 L289.858764648,165.365097046 L289.493286133,166.610824585 L289.139648438,167.668609619 L288.873901367,168.438247681 L288.772216797,168.854019165 L288.862121582,168.866668701 L289.166015625,168.46144104 L289.710693359,167.66305542 L290.507873535,166.562866211 L291.530517578,165.298965454 L292.733337402,164.031555176 L294.028686523,162.896148682 L295.354003906,162.005096436 L296.679626465,161.430770874 L297.969787598,161.232192993 L299.163085938,161.438690186 L300.167114258,162.050613403 L300.858886719,163.025405884 L301.160644531,164.272735596 L301.081298828,165.675796509 L300.727844238,167.115203857 L300.249023438,168.472229004 L299.799926758,169.642105103 L299.533569336,170.492965698 L299.529174805,170.924331665 L299.79498291,170.922943115 L300.161315918,170.689041138 L300.465698242,170.424987793 " fill="none" stroke="white" stroke-linecap="round" stroke-width="2" /><path class="linestart" d="M304.15814209,168.261032104 L304.422485352,168.309860229 L304.993286133,168.331054688 L305.910766602,168.2527771 L307.119506836,168.000137329 L308.524230957,167.535110474 L310.0,166.865875244 L311.406066895,166.030792236 L312.625671387,165.091018677 L313.534545898,164.115432739 L314.05871582,163.179534912 L314.140441895,162.343994141 L313.744384766,161.677764893 L312.867248535,161.263397217 L311.553161621,161.18170166 L309.899597168,161.491912842 L308.104858398,162.208465576 L306.411621094,163.288894653 L305.072021484,164.642196655 L304.293579102,166.163009644 L304.212341309,167.728225708 L304.887207031,169.215011597 L306.327026367,170.491546631 L308.445861816,171.459533691 L311.151306152,172.026580811 L314.17755127,172.173233032 L317.207641602,171.955169678 L319.578430176,171.60395813 L321.007385254,171.299224854 " fill="none" stroke="white" stroke-linecap="round" stroke-width="2" /><path d="M0,0 " fill="none" stroke="white" stroke-linecap="round" stroke-width="2" /><path d="M40.6303329468,206.0 L40.5726623535,206.113113403 L40.4905509949,206.464401245 L40.3825340271,207.17175293 L40.2477455139,208.292617798 L40.0689430237,209.805175781 L39.8398666382,211.65272522 L39.5700798035,213.734146118 L39.3001480103,215.939666748 L39.0354042053,218.143981934 L38.7767105103,220.236328125 L38.5324134827,222.122909546 L38.3022727966,223.690109253 L38.0825004578,224.819519043 L37.883392334,225.45904541 L37.7271194458,225.695587158 L37.6258277893,225.698043823 " fill="none" stroke="white" stroke-linecap="round" stroke-width="2" /><path d="M32.819152832,216.720321655 L33.0593795776,216.612594604 L33.6861915588,216.428543091 L34.8112030029,216.182479858 L36.4506759644,215.920761108 L38.5460243225,215.66960144 L40.9643669128,215.438980103 L43.5213317871,215.210891724 L46.047744751,214.990570068 L48.292224884,214.775390625 L50.0927314758,214.585464478 L51.2778053284,214.454330444 L51.8825721741,214.388015747 " fill="none" stroke="white" stroke-linecap="round" stroke-width="2" /><path d="M57.1123886108,217.312484741 L57.1633491516,217.130493164 L57.1003608704,216.810699463 L56.7772445679,216.397689819 L56.0696411133,216.013748169 L54.9613723755,215.772735596 L53.5128593445,215.758209229 L51.8451805115,216.022293091 L50.114566803,216.598846436 L48.4832763672,217.490447998 L47.1218719482,218.672164917 L46.1658859253,220.075531006 L45.7182617188,221.560653687 L45.8638114929,222.96395874 L46.6328125,224.131057739 L47.9919548035,224.935791016 L49.8496437073,225.311706543 L52.0290679932,225.252227783 L54.3052558899,224.781677246 L56.4358558655,223.958450317 L58.1920928955,222.86618042 L59.4303894043,221.604522705 L60.0813446045,220.294708252 L60.1351356506,219.056655884 L59.6288528442,217.998550415 L58.6812477112,217.197387695 L57.5001869202,216.693389893 L56.4807014465,216.448455811 L55.8363189697,216.379455566 " fill="none" stroke="white" stroke-linecap="round" stroke-width="2" /><path d="M81.4075546265,217.172531128 L81.1894760132,216.910125732 L80.796333313,216.505874634 L80.2097854614,216.048233032 L79.4363098145,215.681793213 L78.46144104,215.469558716 L77.2953872681,215.458084106 L76.0296859741,215.65586853 L74.8110198975,216.061553955 L73.8037796021,216.653457642 L73.1379470825,217.377822876 L72.9223556519,218.162277222 L73.2132339478,218.940078735 L74.0515289307,219.663864136 L75.3897247314,220.3152771 L77.1094284058,220.909942627 L79.0102920532,221.486740112 L80.8582458496,222.085708618 L82.4045028687,222.720031738 L83.4727783203,223.385650635 L83.940536499,224.050262451 L83.788444519,224.682037354 L83.0699996948,225.248291016 L81.8880844116,225.719726562 L80.3266067505,226.050186157 L78.4972839355,226.208648682 L76.5114898682,226.168319702 L74.5242538452,225.954620361 L72.7105484009,225.575485229 L71.2395553589,225.070907593 L70.2111663818,224.495727539 L69.6385421753,224.005355835 L69.411529541,223.681762695 " fill="none" stroke="white" stroke-linecap="round" stroke-width="2" /><path d="M84.746711731,223.132400513 L85.2235412598,222.930877686 L86.0996246338,222.531234741 L87.3217849731,221.909118652 L88.6931152344,221.097824097 L90.0550537109,220.122360229 L91.2837371826,219.051864624 L92.2910079956,217.975753784 L92.9995803833,216.981582642 L93.3574829102,216.146118164 L93.3170623779,215.517105103 L92.857170105,215.145141602 L91.9710693359,215.086853027 L90.6940612793,215.406005859 L89.1498718262,216.120758057 L87.5362319946,217.201217651 L86.0512619019,218.549804688 L84.9091033936,220.052276611 L84.2266387939,221.579681396 L84.0918426514,223.022338867 L84.5512390137,224.272964478 L85.6135787964,225.236419678 L87.2201385498,225.829055786 L89.2566680908,226.01210022 L91.5237960815,225.798019409 L93.822303772,225.261352539 L95.9537887573,224.490066528 L97.8042373657,223.560272217 L99.3347167969,222.509902954 L100.552284241,221.362350464 L101.465576172,220.149963379 L102.058547974,218.93196106 L102.302307129,217.788085938 L102.201538086,216.807022095 L101.793243408,216.060882568 L101.133285522,215.613250732 L100.26071167,215.510452271 L99.2094421387,215.775161743 L98.0396881104,216.404541016 L96.8593063354,217.371139526 L95.8079605103,218.618637085 L95.0390701294,220.062469482 L94.6679840088,221.592315674 L94.7898712158,223.073303223 L95.4673843384,224.342575073 L96.7356109619,225.25630188 L98.5466461182,225.72203064 L100.764305115,225.727584839 L103.210868835,225.250793457 L105.644523621,224.352783203 L107.860908508,223.135498047 L109.497955322,222.001663208 L110.444793701,221.212966919 " fill="none" stroke="white" stroke-linecap="round" stroke-width="2" /><path d="M113.884490967,206.793746948 L113.926574707,206.77746582 L113.96030426,206.927947998 L113.938491821,207.405151367 L113.78704834,208.340530396 L113.485733032,209.731170654 L113.049865723,211.519515991 L112.515350342,213.585388184 L111.959983826,215.805908203 L111.434844971,218.040878296 L110.95401001,220.134841919 L110.543205261,221.938354492 L110.24646759,223.296325684 L110.092773438,224.106689453 L110.127609253,224.381210327 L110.26247406,224.324737549 L110.403701782,224.152328491 " fill="none" stroke="white" stroke-linecap="round" stroke-width="2" /><path d="M115.196777344,217.989135742 L114.757331848,218.025024414 L113.983734131,218.161148071 L112.881019592,218.447875977 L111.591400146,218.904174805 L110.218185425,219.499771118 L108.93195343,220.160797119 L107.934165955,220.817611694 L107.417549133,221.431304932 L107.47265625,221.976150513 L108.133216858,222.449905396 L109.356842041,222.8515625 L111.139083862,223.169784546 L113.35295105,223.414962769 L115.780174255,223.602233887 L117.800773621,223.726516724 L119.084526062,223.797348022 " fill="none" stroke="white" stroke-linecap="round" stroke-width="2" /><path d="M137.968139648,209.854171753 L137.924667358,210.01751709 L137.846969604,210.446060181 L137.711395264,211.237243652 L137.490020752,212.399765015 L137.15965271,213.877960205 L136.745223999,215.587875366 L136.311981201,217.421966553 L135.931594849,219.250900269 L135.647186279,220.965881348 L135.460784912,222.463775635 L135.356216431,223.692184448 L135.319412231,224.568435669 L135.32774353,225.031097412 L135.35383606,225.05645752 L135.378265381,224.839416504 L135.390060425,224.574447632 " fill="none" stroke="white" stroke-linecap="round" stroke-width="2" /><path d="M129.659683228,217.572921753 L129.732254028,217.649749756 L130.051605225,217.799667358 L130.774398804,217.992950439 L132.006317139,218.151275635 L133.713516235,218.205917358 L135.755462646,218.091705322 L137.949539185,217.810958862 L140.139373779,217.351623535 L142.160354614,216.717956543 L143.916793823,215.936325073 L145.175933838,215.231826782 L145.887268066,214.740921021 " fill="none" stroke="white" stroke-linecap="round" stroke-width="2" /><path d="M146.348495483,209.455993652 L146.362197876,209.643890381 L146.371109009,210.128845215 L146.339187622,210.999649048 L146.243865967,212.246749878 L146.066116333,213.767456055 L145.818588257,215.442703247 L145.536132812,217.141555786 L145.249588013,218.749282837 L144.971282959,220.150665283 L144.737197876,221.264144897 L144.555297852,222.042572021 L144.437744141,222.469604492 L144.399536133,222.533065796 L144.469619751,222.231750488 L144.689666748,221.561859131 L145.110473633,220.577331543 L145.758880615,219.399124146 L146.630432129,218.157440186 L147.680755615,216.969436646 L148.864944458,215.944473267 L150.137237549,215.150497437 L151.427764893,214.650604248 L152.663101196,214.494247437 L153.769424438,214.700271606 L154.674667358,215.253768921 L155.352172852,216.131515503 L155.825134277,217.262588501 L156.113479614,218.551254272 L156.257888794,219.863388062 L156.311859131,221.065994263 L156.324401855,222.051864624 L156.331848145,222.759490967 L156.401901245,223.152587891 L156.588317871,223.202651978 L156.968734741,222.885253906 L157.601348877,222.199691772 L158.468688965,221.197982788 L159.469436646,219.983108521 L160.473220825,218.688262939 L161.35887146,217.432540894 L162.054367065,216.313461304 L162.525253296,215.393417358 L162.745437622,214.719909668 L162.733169556,214.33795166 L162.503890991,214.296112061 L162.089263916,214.637268066 L161.51071167,215.384063721 L160.801834106,216.510421753 L160.027618408,217.924697876 L159.332977295,219.481567383 L158.896560669,221.003692627 L158.862808228,222.313949585 L159.298706055,223.284866333 L160.201019287,223.847122192 L161.480758667,223.97605896 L163.020431519,223.687866211 L164.710540771,223.00869751 L166.393539429,221.984069824 L167.917938232,220.704208374 L169.161560059,219.295913696 L170.042114258,217.921707153 L170.556350708,216.745483398 L170.802307129,215.860488892 L170.886367798,215.307647705 L170.898193359,215.097808838 L170.861038208,215.236846924 L170.759765625,215.765716553 L170.556930542,216.70803833 L170.281066895,217.9947052 L169.992965698,219.4815979 L169.765548706,220.968139648 L169.638916016,222.260421753 L169.616958618,223.232696533 L169.665664673,223.811950684 L169.766067505,223.963546753 L169.92666626,223.680496216 L170.175964355,222.970031738 L170.548187256,221.897979736 L171.051254272,220.589035034 L171.674804688,219.177001953 L172.401870728,217.80557251 L173.237579346,216.587081909 L174.171783447,215.59564209 L175.198867798,214.901779175 L176.262115479,214.569274902 L177.287124634,214.617538452 L178.198669434,215.050567627 L178.947463989,215.835601807 L179.476348877,216.894302368 L179.773376465,218.102706909 L179.857849121,219.310516357 L179.793930054,220.353118896 L179.65637207,221.118118286 L179.53326416,221.545623779 L179.477767944,221.623931885 L179.539276123,221.342224121 L179.792770386,220.707595825 L180.2865448,219.754882812 L181.020523071,218.594085693 L181.97795105,217.358093262 L183.11038208,216.20123291 L184.387435913,215.238037109 L185.805221558,214.548782349 L187.315719604,214.162277222 L188.832855225,214.10269165 L190.267120361,214.35987854 L191.515304565,214.92388916 L192.534118652,215.773178101 L193.319030762,216.865646362 L193.856674194,218.106109619 L194.153442383,219.40397644 L194.243515015,220.674423218 L194.156570435,221.860321045 L193.964187622,222.923629761 L193.74130249,223.844116211 L193.537124634,224.594680786 L193.406646729,225.167877197 L193.375473022,225.570373535 L193.404022217,225.810714722 L193.453369141,225.920562744 " fill="none" stroke="white" stroke-linecap="round" stroke-width="2" /><path d="M214.340759277,214.95274353 L214.323242188,214.869232178 L214.312744141,214.846130371 L214.285232544,215.018569946 L214.202651978,215.555267334 L213.994247437,216.542419434 L213.637329102,217.962417603 L213.16519165,219.71321106 L212.689453125,221.63583374 L212.32333374,223.497177124 L212.143676758,225.090591431 L212.159103394,226.253997803 L212.355331421,226.887512207 L212.719223022,226.968505859 L213.266159058,226.513381958 L214.022354126,225.557952881 L214.956726074,224.199859619 L215.983139038,222.610244751 L216.985427856,221.011566162 L217.851715088,219.619110107 L218.506408691,218.562591553 L218.945037842,217.904434204 L219.182159424,217.656417847 L219.260070801,217.835983276 L219.235580444,218.483688354 L219.159439087,219.579818726 L219.106918335,221.000717163 L219.173355103,222.549026489 L219.437530518,223.980178833 L219.965026855,225.07723999 L220.784393311,225.713424683 L221.847854614,225.819702148 L223.089538574,225.384048462 L224.405838013,224.455245972 L225.675796509,223.126312256 L226.804733276,221.534729004 L227.733779907,219.835586548 L228.41595459,218.210754395 L228.86668396,216.811447144 L229.114761353,215.83555603 L229.214233398,215.308197021 " fill="none" stroke="white" stroke-linecap="round" stroke-width="2" /><path d="M231.683288574,222.346832275 L232.324554443,222.103820801 L233.339172363,221.618728638 L234.578857422,220.870132446 L235.758209229,219.910598755 L236.798141479,218.806060791 L237.658950806,217.648712158 L238.318710327,216.548019409 L238.729705811,215.606735229 L238.845367432,214.899200439 L238.600311279,214.463943481 L237.965118408,214.343170166 L236.965408325,214.592224121 L235.680831909,215.251464844 L234.265335083,216.310440063 L232.934631348,217.691726685 L231.873794556,219.25944519 L231.247787476,220.862030029 L231.171798706,222.358810425 L231.680831909,223.625930786 L232.82661438,224.513198853 L234.544570923,224.926498413 L236.631912231,224.859893799 L238.470596313,224.55027771 L239.688583374,224.227325439 " fill="none" stroke="white" stroke-linecap="round" stroke-width="2" /><path d="M247.296768188,207.117843628 L247.344818115,207.204116821 L247.414138794,207.535705566 L247.462387085,208.255630493 L247.420959473,209.432739258 L247.244415283,211.038482666 L246.933349609,213.012573242 L246.528930664,215.257843018 L246.099578857,217.662246704 L245.720367432,220.081344604 L245.456283569,222.334152222 L245.335784912,224.270996094 L245.380722046,225.709625244 L245.580505371,226.515899658 L245.911468506,226.667953491 L246.242553711,226.435028076 L246.490036011,226.099914551 " fill="none" stroke="white" stroke-linecap="round" stroke-width="2" /><path class="linestart" d="M253.708053589,207.146377563 L253.720321655,207.155151367 L253.696975708,207.348953247 L253.608123779,207.873458862 L253.42098999,208.831420898 L253.146408081,210.196762085 L252.790100098,211.895172119 L252.373397827,213.83152771 L251.931777954,215.917434692 L251.526306152,218.054031372 L251.211135864,220.139007568 L251.046142578,222.052307129 L251.073669434,223.69380188 L251.309127808,224.989349365 L251.73336792,225.909698486 L252.173934937,226.450912476 L252.500579834,226.694869995 " fill="none" stroke="white" stroke-linecap="round" stroke-width="2" /><path d="M0,0 " fill="none" stroke="white" stroke-linecap="round" stroke-width="2" /><path d="M52.2786102295,316.082244873 L52.2681350708,316.0 L52.287689209,316.007843018 L52.3468017578,316.261901855 L52.415222168,316.931518555 L52.4231262207,318.082702637 L52.2977714539,319.708465576 L52.0471725464,321.764984131 L51.6949462891,324.178497314 L51.2991218567,326.815795898 L50.8966636658,329.514404297 L50.5211524963,332.085540771 L50.1926193237,334.3487854 L49.9603881836,336.18057251 L49.8322715759,337.529174805 L49.7919311523,338.353424072 L49.7970924377,338.74420166 " fill="none" stroke="white" stroke-linecap="round" stroke-width="2" /><path d="M66.0540313721,330.890869141 L66.2723846436,330.409729004 L66.5670471191,329.731323242 L66.8483276367,329.012481689 L66.9965515137,328.505859375 L66.9821624756,328.288085938 L66.8232498169,328.444152832 L66.5112609863,329.023895264 L66.0419387817,330.077301025 L65.4589538574,331.532440186 L64.8527526855,333.229522705 L64.3643188477,334.938598633 L64.1450576782,336.458251953 L64.2672271729,337.620819092 L64.7516174316,338.319793701 L65.5774993896,338.493865967 L66.6720275879,338.134399414 L67.9466400146,337.297424316 L69.2676315308,336.156616211 L70.4823608398,334.945983887 L71.4537353516,333.886230469 L72.1120452881,333.130157471 L72.4575195312,332.732727051 L72.5497894287,332.700134277 L72.4738922119,333.056640625 L72.3194732666,333.808288574 L72.1580581665,334.881164551 L72.0965118408,336.114440918 L72.2680892944,337.283660889 L72.7926101685,338.17578125 L73.7404174805,338.655334473 L75.1037750244,338.661468506 L76.7633056641,338.180450439 L78.5513916016,337.245056152 L80.2852478027,335.951873779 L81.7830200195,334.443511963 L82.8883972168,332.885284424 L83.5402374268,331.435211182 L83.7259063721,330.205108643 L83.5320892334,329.261322021 L83.1067352295,328.678100586 L82.6131896973,328.477935791 L82.1829528809,328.61428833 L81.909576416,328.893188477 L81.7807617188,329.1456604 " fill="none" stroke="white" stroke-linecap="round" stroke-width="2" /><path d="M88.5990447998,329.688446045 L88.6025848389,329.821411133 L88.6121063232,330.183258057 L88.6066436768,330.850708008 L88.5517730713,331.821777344 L88.4252471924,333.029144287 L88.2405700684,334.382659912 L88.0478515625,335.763519287 L87.944229126,336.940032959 L87.9908752441,337.671508789 L88.2016601562,337.785491943 L88.4646453857,337.497375488 L88.6764678955,337.101531982 " fill="none" stroke="white" stroke-linecap="round" stroke-width="2" /><path d="M90.5661621094,322.792419434 L90.5602416992,322.646331787 L90.5555877686,322.489837646 L90.5529327393,322.371063232 L90.5529785156,322.338012695 " fill="none" stroke="white" stroke-linecap="round" stroke-width="2" /><path d="M98.6641845703,319.6328125 L98.5172119141,320.036834717 L98.2247161865,320.889221191 L97.7597198486,322.2527771 L97.151763916,324.054870605 L96.4349060059,326.206481934 L95.6902770996,328.580108643 L94.9919128418,331.018615723 L94.463394165,333.323852539 L94.1793823242,335.279663086 L94.1723632812,336.73248291 L94.3180847168,337.606140137 L94.4919433594,337.998504639 " fill="none" stroke="white" stroke-linecap="round" stroke-width="2" /><path d="M102.046127319,319.027526855 L102.031021118,319.123565674 L101.986557007,319.511108398 L101.883789062,320.347839355 L101.697555542,321.697143555 L101.405227661,323.483184814 L101.054412842,325.588897705 L100.669006348,327.869415283 L100.321014404,330.221466064 L100.06312561,332.491516113 L99.9240570068,334.506652832 L99.8759460449,335.959106445 L99.8902587891,336.772491455 " fill="none" stroke="white" stroke-linecap="round" stroke-width="2" /><path d="M120.836700439,319.16696167 L120.869567871,319.285308838 L120.899261475,319.646514893 L120.889282227,320.377593994 L120.773162842,321.545501709 L120.516036987,323.140441895 L120.092315674,325.097595215 L119.527420044,327.31930542 L118.905792236,329.685058594 L118.323699951,332.050994873 L117.84815979,334.26159668 L117.536071777,336.178375244 L117.423828125,337.638549805 L117.546264648,338.544464111 L117.905792236,338.88269043 L118.3253479,338.851226807 L118.656341553,338.677276611 " fill="none" stroke="white" stroke-linecap="round" stroke-width="2" /><path d="M127.291122437,329.826873779 L127.015319824,329.653137207 L126.483322144,329.47467041 L125.646194458,329.429840088 L124.510360718,329.673126221 L123.084838867,330.241577148 L121.492172241,331.092987061 L119.911300659,332.127471924 L118.590789795,333.242889404 L117.730224609,334.345153809 L117.446182251,335.348999023 L117.792266846,336.187103271 L118.774581909,336.786193848 L120.328765869,337.081542969 L122.338806152,337.036071777 L124.605636597,336.657043457 L126.900802612,335.994445801 L128.990158081,335.121246338 L130.699539185,334.097320557 L131.909484863,332.980255127 L132.598373413,331.837890625 L132.826385498,330.759246826 L132.731781006,329.845977783 L132.467605591,329.19052124 L132.173660278,328.85055542 L131.910903931,328.872344971 L131.705871582,329.289428711 L131.543487549,330.104492188 L131.41104126,331.264556885 L131.299362183,332.661010742 L131.19821167,334.116729736 L131.102355957,335.449401855 L131.015396118,336.519622803 L130.943695068,337.227264404 L130.917800903,337.507476807 L130.96206665,337.334533691 L131.104110718,336.696136475 L131.372619629,335.639984131 L131.789123535,334.301086426 L132.384902954,332.842071533 L133.181533813,331.413452148 L134.162445068,330.135528564 L135.296264648,329.089355469 L136.525161743,328.337554932 L137.799072266,327.941925049 L139.07043457,327.933105469 L140.280715942,328.316955566 L141.335891724,329.070709229 L142.140182495,330.153717041 L142.626693726,331.491333008 L142.800750732,332.975524902 L142.714996338,334.459381104 L142.503356934,335.788696289 L142.29598999,336.831329346 L142.191574097,337.528808594 L142.188339233,337.898712158 L142.242095947,338.03717041 " fill="none" stroke="white" stroke-linecap="round" stroke-width="2" /><path d="M155.782119751,331.731842041 L155.756591797,331.274780273 L155.630020142,330.592285156 L155.300186157,329.826080322 L154.655883789,329.213134766 L153.633758545,328.848022461 L152.243560791,328.800598145 L150.601852417,329.10559082 L148.889816284,329.770965576 L147.304458618,330.744537354 L146.032913208,331.921386719 L145.236587524,333.185882568 L144.994247437,334.399047852 L145.354507446,335.453552246 L146.287979126,336.226013184 L147.670043945,336.629486084 L149.334564209,336.611297607 L151.087921143,336.180541992 L152.723373413,335.378601074 L154.099090576,334.291229248 L155.115249634,333.017486572 L155.698883057,331.696289062 L155.860458374,330.467681885 L155.683792114,329.457550049 L155.318557739,328.767059326 L154.94291687,328.428009033 L154.694122314,328.410675049 L154.584793091,328.559082031 L154.572174072,328.729431152 " fill="none" stroke="white" stroke-linecap="round" stroke-width="2" /><path d="M161.360702515,329.303833008 L161.306549072,329.243133545 L161.185943604,329.290344238 L160.982269287,329.60244751 L160.678649902,330.317108154 L160.285949707,331.430084229 L159.862335205,332.837646484 L159.52734375,334.373779297 L159.416946411,335.845245361 L159.653121948,337.073486328 L160.27243042,337.907562256 L161.255050659,338.218841553 L162.543319702,337.944610596 L164.045043945,337.115539551 L165.62701416,335.849243164 L167.130722046,334.352081299 L168.385055542,332.870574951 L169.272506714,331.613800049 L169.789306641,330.688812256 L170.009262085,330.111724854 L170.041290283,329.857849121 L169.972763062,329.937194824 L169.832305908,330.388458252 L169.638092041,331.24105835 L169.462310791,332.413421631 L169.428039551,333.734863281 L169.682281494,334.99697876 L170.323959351,336.027038574 L171.364273071,336.695739746 L172.727798462,336.93737793 L174.292785645,336.728363037 L175.903045654,336.097015381 L177.396484375,335.109710693 L178.625442505,333.865356445 L179.483718872,332.464477539 L179.907180786,331.003326416 L179.872283936,329.590484619 L179.433654785,328.35333252 L178.718719482,327.394622803 L178.027923584,326.793060303 L177.554794312,326.513244629 " fill="none" stroke="white" stroke-linecap="round" stroke-width="2" /><path d="M197.921951294,317.441131592 L197.924209595,317.412963867 L197.984069824,317.491455078 L198.13394165,317.795074463 L198.383636475,318.439483643 L198.699783325,319.455383301 L199.049179077,320.833709717 L199.412826538,322.49810791 L199.848739624,324.360565186 L200.409011841,326.276519775 L201.148086548,328.089477539 L202.073318481,329.647583008 L203.133071899,330.807891846 L204.2628479,331.452697754 L205.432235718,331.506591797 L206.594772339,330.942718506 L207.73638916,329.820068359 L208.81362915,328.29284668 L209.757217407,326.535736084 L210.511947632,324.742248535 L211.051651001,323.067871094 L211.383499146,321.643341064 L211.573059082,320.551940918 L211.666793823,319.860351562 L211.682266235,319.614837646 L211.596755981,319.875457764 L211.352539062,320.688049316 L210.903564453,322.083862305 L210.249481201,324.010742188 L209.431594849,326.365081787 L208.504257202,329.014160156 L207.502243042,331.832092285 L206.417236328,334.701538086 L205.228118896,337.533874512 L203.938476562,340.220001221 L202.633071899,342.620361328 L201.428833008,344.558898926 L200.445114136,345.904510498 L199.751907349,346.624450684 L199.357147217,346.874206543 L199.187454224,346.877044678 " fill="none" stroke="white" stroke-linecap="round" stroke-width="2" /><path d="M219.418884277,331.878509521 L219.256820679,331.38394165 L218.914367676,330.634002686 L218.369522095,329.782501221 L217.631637573,329.096343994 L216.701095581,328.685791016 L215.562179565,328.624023438 L214.257461548,328.932189941 L212.856628418,329.639221191 L211.511505127,330.722961426 L210.371154785,332.104614258 L209.570358276,333.644592285 L209.167770386,335.162628174 L209.202713013,336.480834961 L209.678375244,337.473327637 L210.570770264,338.061737061 L211.794082642,338.202850342 L213.245239258,337.890960693 L214.779541016,337.150970459 L216.248672485,336.04119873 L217.548080444,334.687438965 L218.586868286,333.242889404 L219.315872192,331.871063232 L219.749801636,330.713317871 L219.938949585,329.848144531 L219.947006226,329.305938721 L219.837524414,329.105834961 L219.665924072,329.263000488 L219.48223877,329.790008545 L219.352630615,330.654449463 L219.355300903,331.751800537 L219.557815552,332.929016113 L220.01663208,334.014465332 L220.770278931,334.855041504 L221.801895142,335.327301025 L223.073410034,335.36529541 L224.498748779,334.963134766 L225.938323975,334.173400879 L227.275650024,333.09942627 L228.409912109,331.888824463 L229.274551392,330.703826904 L229.878692627,329.694976807 L230.248413086,328.964477539 L230.391891479,328.577606201 L230.330596924,328.584350586 L230.066192627,329.040985107 L229.618942261,329.988983154 L229.069519043,331.374816895 L228.524795532,333.021331787 L228.126953125,334.70010376 L228.017807007,336.192596436 L228.296478271,337.339416504 L229.000900269,338.049804688 L230.109863281,338.253570557 L231.543106079,337.926757812 L233.181747437,337.107757568 L234.889083862,335.900787354 L236.532546997,334.454833984 L237.982574463,332.933166504 L239.1509552,331.473480225 L239.998855591,330.221282959 L240.521011353,329.256774902 L240.763687134,328.637969971 L240.791824341,328.388519287 L240.659667969,328.518157959 L240.410308838,329.024291992 L240.073608398,329.902832031 L239.689620972,331.06427002 L239.332351685,332.422393799 L239.078186035,333.826477051 L238.987182617,335.1277771 L239.01461792,336.091522217 L239.087341309,336.648254395 " fill="none" stroke="white" stroke-linecap="round" stroke-width="2" /><path d="M246.494476318,330.065216064 L246.423477173,330.039093018 L246.286483765,330.164642334 L246.068710327,330.579498291 L245.78868103,331.363494873 L245.456832886,332.447235107 L245.096206665,333.716918945 L244.738754272,335.02947998 L244.408843994,336.232757568 L244.135955811,337.222473145 L243.949264526,337.89755249 L243.85546875,338.174682617 L243.841110229,338.006835938 L243.882888794,337.367370605 L243.978012085,336.294006348 L244.149246216,334.920928955 L244.425064087,333.395843506 L244.83605957,331.8515625 L245.406661987,330.387237549 L246.131088257,329.063781738 L246.993667603,327.961730957 L247.966049194,327.155456543 L249.022293091,326.677947998 L250.147415161,326.492767334 L251.391464233,326.546569824 L252.74786377,326.759613037 L254.151397705,327.072753906 L255.299591064,327.365020752 L256.026550293,327.57019043 " fill="none" stroke="white" stroke-linecap="round" stroke-width="2" /><path d="M270.38885498,326.255645752 L270.358703613,326.544952393 L270.246154785,327.181518555 L270.002929688,328.220367432 L269.614227295,329.597015381 L269.122741699,331.193634033 L268.60357666,332.869873047 L268.143615723,334.461151123 L267.808319092,335.806884766 L267.61730957,336.809753418 L267.541992188,337.398773193 L267.544708252,337.523406982 L267.633239746,337.164001465 L267.84777832,336.321075439 L268.226074219,335.040008545 L268.794769287,333.487762451 L269.53112793,331.822143555 L270.423736572,330.188537598 L271.486236572,328.699554443 L272.71307373,327.458465576 L274.07144165,326.553588867 L275.493408203,326.07800293 L276.876434326,326.064331055 L278.141448975,326.513763428 L279.209197998,327.368774414 L280.010101318,328.556213379 L280.513336182,329.972381592 L280.712036133,331.484619141 L280.689788818,332.961395264 L280.577545166,334.273895264 L280.508636475,335.315368652 L280.514038086,335.99407959 L280.572113037,336.334564209 " fill="none" stroke="white" stroke-linecap="round" stroke-width="2" /><path d="M291.513885498,329.568145752 L291.42767334,329.16506958 L291.22366333,328.584777832 L290.840301514,327.976501465 L290.227539062,327.567504883 L289.362518311,327.44140625 L288.272003174,327.675506592 L287.039764404,328.298553467 L285.793823242,329.309143066 L284.668151855,330.634674072 L283.77456665,332.123809814 L283.198638916,333.590240479 L282.997161865,334.862762451 L283.218963623,335.788452148 L283.866760254,336.265136719 L284.889862061,336.233917236 L286.185333252,335.696594238 L287.589416504,334.724517822 L288.948303223,333.46081543 L290.167816162,332.066070557 L291.184906006,330.708557129 L291.964996338,329.521820068 L292.515106201,328.590484619 L292.839447021,327.96081543 L292.958007812,327.670074463 L292.917022705,327.755462646 L292.756164551,328.250244141 L292.492950439,329.167816162 L292.172912598,330.434143066 L291.847473145,331.905395508 L291.567993164,333.406311035 L291.390441895,334.785675049 L291.406890869,335.869750977 L291.658050537,336.555664062 L292.158203125,336.790771484 L292.701019287,336.728210449 L293.117706299,336.555145264 " fill="none" stroke="white" stroke-linecap="round" stroke-width="2" /><path d="M298.365875244,327.769744873 L298.426757812,327.83380127 L298.481719971,328.122467041 L298.477355957,328.767364502 L298.350341797,329.804077148 L298.100158691,331.121154785 L297.746246338,332.544311523 L297.35559082,333.880767822 L297.003387451,334.99786377 L296.739959717,335.814544678 L296.57723999,336.268737793 L296.521728516,336.318023682 L296.565338135,335.936706543 L296.755462646,335.131286621 L297.130371094,333.97946167 L297.702453613,332.598236084 L298.444824219,331.124023438 L299.326293945,329.701293945 L300.277648926,328.446563721 L301.241638184,327.451263428 L302.168060303,326.788299561 L303.009094238,326.492156982 L303.73248291,326.578826904 L304.335968018,327.05166626 L304.78414917,327.892730713 L305.035430908,329.034881592 L305.09085083,330.353485107 L304.979278564,331.673370361 L304.775085449,332.831085205 L304.573791504,333.699035645 L304.440124512,334.2003479 L304.421875,334.289337158 L304.564086914,333.939147949 L304.903900146,333.153045654 L305.458526611,332.003295898 L306.226135254,330.627044678 L307.165496826,329.187133789 L308.218444824,327.851013184 L309.317810059,326.747589111 L310.388458252,325.950866699 L311.355377197,325.501617432 L312.179718018,325.424194336 L312.853820801,325.711975098 L313.376403809,326.362487793 L313.729675293,327.346405029 L313.885437012,328.58984375 L313.833679199,329.98135376 L313.614196777,331.391906738 L313.383483887,332.653015137 L313.288391113,333.630615234 L313.419525146,334.243682861 L313.67199707,334.527252197 L313.914794922,334.592285156 " fill="none" stroke="white" stroke-linecap="round" stroke-width="2" /><path class="linestart" d="M317.056549072,332.51449585 L317.376861572,332.448242188 L318.032196045,332.244476318 L319.045471191,331.842651367 L320.313934326,331.223297119 L321.739593506,330.407836914 L323.189025879,329.439849854 L324.534576416,328.37512207 L325.657867432,327.280487061 L326.45413208,326.231842041 L326.838500977,325.320770264 L326.76461792,324.613952637 L326.205841064,324.187469482 L325.188690186,324.100952148 L323.795410156,324.401397705 L322.188354492,325.096405029 L320.572845459,326.153442383 L319.157287598,327.480224609 L318.135772705,328.978118896 L317.680908203,330.520751953 L317.912963867,331.982971191 L318.909667969,333.228271484 L320.667999268,334.133148193 L323.07421875,334.627746582 L325.978240967,334.681365967 L329.090148926,334.35144043 L332.063690186,333.758514404 L334.314056396,333.170318604 L335.624908447,332.756378174 " fill="none" stroke="white" stroke-linecap="round" stroke-width="2" /></svg>