<?xml version="1.0" encoding="utf-8" ?>
<svg baseProfile="full" height="100%" version="1.1" viewBox="0,0,491,275" width="100%" xmlns="http://www.w3.org/2000/svg" xmlns:ev="http://www.w3.org/2001/xml-events" xmlns:xlink="http://www.w3.org/1999/xlink"><defs /><path d="M0,0 " fill="none" stroke="white" stroke-linecap="round" stroke-width="2" /><path d="M42.6741371155,50.1730537415 L42.642288208,50.3553466797 L42.571269989,50.8129348755 L42.4439048767,51.6204795837 L42.2399139404,52.7645835876 L41.9549560547,54.1804618835 L41.6127319336,55.7722663879 L41.2744369507,57.4373092651 L41.0155639648,59.0323066711 L40.9006500244,60.3845596313 L40.9366874695,61.3527526855 L41.0469512939,61.8969535828 L41.1561279297,62.1051368713 " fill="none" stroke="white" stroke-linecap="round" stroke-width="2" /><path d="M41.6217002869,42.5614738464 L41.5722084045,42.5552558899 L41.5613021851,42.6164932251 L41.5862045288,42.7169647217 L41.6441345215,42.8284645081 " fill="none" stroke="white" stroke-linecap="round" stroke-width="2" /><path d="M54.507774353,45.7869377136 L54.4549560547,45.2855148315 L54.3628921509,44.4868087769 L54.1976776123,43.5161361694 L53.9236373901,42.6076507568 L53.5048065186,41.8501663208 L52.9397888184,41.3026809692 L52.2652435303,41.0 L51.552947998,41.0057983398 L50.8506546021,41.3795127869 L50.1872406006,42.1627426147 L49.5890426636,43.3703651428 L49.0772476196,44.9834823608 L48.6630554199,46.9516105652 L48.3405151367,49.2038536072 L48.1137771606,51.651714325 L47.9808120728,54.200252533 L47.9527816772,56.7478637695 L48.0358276367,59.187461853 L48.2081375122,61.4218406677 L48.4037857056,63.3430023193 L48.5744781494,64.8535385132 L48.6803359985,65.9150695801 L48.7041244507,66.5352554321 L48.6552352905,66.685218811 L48.5517196655,66.400680542 L48.406463623,65.7184143066 L48.2732772827,64.9541778564 L48.1845703125,64.3637771606 " fill="none" stroke="white" stroke-linecap="round" stroke-width="2" /><path d="M45.3136520386,54.6516265869 L45.556678772,54.5832519531 L46.1700439453,54.4790000916 L47.2398071289,54.3592529297 L48.7920150757,54.2659873962 L50.6910629272,54.2116737366 L52.7348709106,54.2052497864 L54.4150466919,54.227771759 L55.4774093628,54.2556762695 " fill="none" stroke="white" stroke-linecap="round" stroke-width="2" /><path d="M70.4429397583,49.0551490784 L70.3504333496,49.3475036621 L70.2528533936,49.9773483276 L70.2095413208,50.9771842957 L70.2784042358,52.2439727783 L70.4652938843,53.6532707214 L70.7564468384,55.0779266357 L71.1324996948,56.439781189 L71.6493606567,57.6386528015 L72.3370513916,58.5762901306 L73.1821670532,59.1685676575 L73.9543151855,59.4450302124 L74.4878997803,59.5038490295 " fill="none" stroke="white" stroke-linecap="round" stroke-width="2" /><path d="M81.2230987549,50.6898956299 L81.0807876587,50.7689781189 L80.7615203857,51.0792808533 L80.2069091797,51.7631950378 L79.3932037354,52.8962402344 L78.3269195557,54.4488182068 L77.0426483154,56.3436737061 L75.6245498657,58.4669456482 L74.1869506836,60.6895599365 L72.8363265991,62.8745040894 L71.6828765869,64.8923873901 L70.8508987427,66.5555801392 L70.4144287109,67.7042388916 L70.3732681274,68.2513275146 L70.552116394,68.3511962891 L70.7614135742,68.225769043 " fill="none" stroke="white" stroke-linecap="round" stroke-width="2" /><path d="M91.0647964478,52.7793235779 L90.935218811,52.3631401062 L90.6441192627,51.7467575073 L90.1558609009,51.0649375916 L89.4687728882,50.5495300293 L88.5908737183,50.2891731262 L87.5365905762,50.3536987305 L86.3276901245,50.7607727051 L85.0457000732,51.524066925 L83.8202667236,52.5978660583 L82.810546875,53.8951721191 L82.1780014038,55.2840843201 L82.0352096558,56.6347541809 L82.4173278809,57.8053779602 L83.3012619019,58.6682014465 L84.6057662964,59.1229667664 L86.2124938965,59.1067695618 L87.9863204956,58.6064109802 L89.7635498047,57.682510376 L91.3843002319,56.4514923096 L92.6964874268,55.062210083 L93.6090240479,53.7011795044 L94.123085022,52.5402374268 L94.3142929077,51.6850967407 L94.2696151733,51.187210083 L94.0799560547,51.0671844482 L93.7827224731,51.3037147522 L93.4174575806,51.8944702148 L93.0843963623,52.8059425354 L92.9033432007,53.9235420227 L92.9694061279,55.0913696289 L93.3490371704,56.1450805664 L94.0390014648,56.9233474731 L94.9776535034,57.3191108704 L96.1002044678,57.2777442932 L97.3174057007,56.782623291 L98.5293273926,55.8887557983 L99.6520996094,54.7064094543 L100.622970581,53.4094734192 L101.38079834,52.188621521 L101.898239136,51.2025337219 L102.168960571,50.5436172485 L102.217704773,50.2837409973 L102.074211121,50.4549865723 L101.778160095,51.1115722656 L101.372009277,52.2603874207 L100.949211121,53.7873153687 L100.624176025,55.4864578247 L100.530677795,57.1348724365 L100.773658752,58.5139503479 L101.417907715,59.4799880981 L102.455665588,59.9608345032 L103.863967896,59.8757972717 L105.489990234,59.2645263672 L107.116897583,58.2711715698 L108.377677917,57.3022422791 L109.120399475,56.6256065369 " fill="none" stroke="white" stroke-linecap="round" stroke-width="2" /><path d="M123.3776474,51.032989502 L123.293746948,50.8854675293 L123.096725464,50.6922683716 L122.727363586,50.5328559875 L122.119949341,50.5432090759 L121.221176147,50.8183746338 L120.026771545,51.4126663208 L118.6144104,52.3417816162 L117.115707397,53.5765609741 L115.727409363,55.018283844 L114.655784607,56.5455627441 L114.067878723,58.0243148804 L114.169372559,59.3012046814 L115.029037476,60.2674255371 L116.544143677,60.8611106873 L118.095191956,61.1294174194 L119.234840393,61.1897392273 " fill="none" stroke="white" stroke-linecap="round" stroke-width="2" /><path d="M133.443206787,52.0897064209 L132.937393188,51.7171440125 L132.073852539,51.2906341553 L130.883102417,51.0191497803 L129.504776001,51.1459503174 L128.006164551,51.6937789917 L126.507614136,52.6151809692 L125.185798645,53.8150863647 L124.248023987,55.2043495178 L123.840919495,56.6482582092 L124.022445679,57.9836540222 L124.792549133,59.0487442017 L126.078460693,59.7160758972 L127.766822815,59.9171447754 L129.687606812,59.6393699646 L131.620223999,58.9200553894 L133.353683472,57.8392753601 L134.719406128,56.5116043091 L135.628005981,55.0789451599 L136.069900513,53.687046051 L136.08581543,52.4798088074 L135.760757446,51.5714454651 L135.245544434,51.0179443359 L134.760787964,50.7690544128 L134.440795898,50.7152481079 " fill="none" stroke="white" stroke-linecap="round" stroke-width="2" /><path d="M140.767440796,50.2890319824 L140.626098633,50.3536949158 L140.385055542,50.6270027161 L140.061935425,51.2273712158 L139.68447876,52.2064933777 L139.266189575,53.4977226257 L138.895828247,54.975063324 L138.66255188,56.4903259277 L138.680450439,57.8872261047 L139.046722412,59.0057411194 L139.774551392,59.6941375732 L140.855575562,59.8327484131 L142.255706787,59.374332428 L143.872894287,58.3553733826 L145.572967529,56.9043884277 L147.181991577,55.2301826477 L148.513076782,53.5740661621 L149.46383667,52.1574363708 L150.016891479,51.140663147 L150.216369629,50.5921897888 L150.139984131,50.5417938232 L149.852127075,51.0151100159 L149.405441284,52.0023345947 L148.907318115,53.4156417847 L148.533462524,55.0768089294 L148.423126221,56.7217025757 L148.6300354,58.1157913208 L148.979949951,59.0547981262 L149.285873413,59.5354347229 " fill="none" stroke="white" stroke-linecap="round" stroke-width="2" /><path d="M157.743026733,41.6813735962 L157.65133667,41.9480705261 L157.506149292,42.596534729 L157.310699463,43.7159538269 L157.062408447,45.2612762451 L156.740371704,47.1249008179 L156.350448608,49.1988601685 L155.954772949,51.3842735291 L155.644729614,53.6109580994 L155.490951538,55.7367248535 L155.494384766,57.5908584595 L155.578598022,58.9029083252 L155.665283203,59.6215286255 " fill="none" stroke="white" stroke-linecap="round" stroke-width="2" /><path d="M166.907363892,53.8665351868 L166.799713135,53.4902305603 L166.555267334,52.9275550842 L166.115783691,52.3093681335 L165.45866394,51.8460350037 L164.57913208,51.6330223083 L163.501663208,51.7331161499 L162.298721313,52.1684303284 L161.090698242,52.9408493042 L160.011703491,53.9991569519 L159.198364258,55.2269096375 L158.750427246,56.4804916382 L158.735443115,57.6098327637 L159.159423828,58.478931427 L160.02015686,58.9688682556 L161.269119263,58.98777771 L162.846420288,58.4841117859 L164.617767334,57.4592170715 L166.432525635,55.9771499634 L168.122650146,54.1534156799 L169.589263916,52.1198310852 L170.765625,50.0153236389 L171.673095703,47.9741973877 L172.317199707,46.1368370056 L172.73085022,44.6225891113 L172.943771362,43.5055885315 L173.002120972,42.8313713074 L172.940368652,42.6418571472 L172.769882202,42.9612998962 L172.456130981,43.8418579102 L171.997344971,45.2843437195 L171.403198242,47.1853790283 L170.73979187,49.3956451416 L170.121185303,51.753528595 L169.635665894,54.0942802429 L169.321868896,56.2927818298 L169.243774414,58.229221344 L169.396255493,59.761138916 L169.75062561,60.8036384583 L170.143280029,61.3697433472 L170.444992065,61.5812759399 " fill="none" stroke="white" stroke-linecap="round" stroke-width="2" /><path d="M188.197311401,42.1868553162 " fill="none" stroke="white" stroke-linecap="round" stroke-width="2" /><path d="M188.060958862,43.3750457764 L187.936065674,44.1004676819 L187.715270996,45.3175125122 L187.395812988,46.932182312 L186.997665405,48.7077865601 L186.48928833,50.5926818848 L185.873397827,52.5292282104 L185.189575195,54.4249610901 L184.520782471,56.1107521057 L183.982421875,57.4319114685 L183.655288696,58.2679252625 L183.561309814,58.5658340454 L183.683364868,58.3306007385 L183.974899292,57.5849685669 L184.419631958,56.4253730774 L185.025512695,55.006401062 L185.813430786,53.4931793213 L186.825912476,52.0508308411 L188.075027466,50.803401947 L189.516967773,49.8378143311 L191.101913452,49.2530136108 L192.723007202,49.1171340942 L194.269119263,49.4640083313 L195.632247925,50.2599830627 L196.71421814,51.4088134766 L197.41746521,52.7789916992 L197.6847229,54.2414779663 L197.485748291,55.6608314514 L196.81552124,56.9303703308 L195.703369141,57.943031311 L194.229629517,58.628578186 L192.509994507,58.9460906982 L190.688247681,58.9015617371 L188.926956177,58.5409545898 L187.360397339,57.9557189941 L186.151748657,57.2052650452 L185.412979126,56.3736381531 L185.181228638,55.5343170166 L185.270645142,54.8651428223 L185.469467163,54.4483718872 " fill="none" stroke="white" stroke-linecap="round" stroke-width="2" /><path d="M198.972686768,56.4315032959 L199.444641113,56.3153419495 L200.26322937,56.0448074341 L201.369735718,55.5815887451 L202.581253052,54.9284629822 L203.822097778,54.1169204712 L204.997070312,53.1848297119 L206.031997681,52.2021751404 L206.832397461,51.2379341125 L207.307052612,50.3585968018 L207.393981934,49.6298332214 L207.072540283,49.1199302673 L206.332778931,48.8880653381 L205.24407959,49.0034141541 L203.916473389,49.4947853088 L202.497955322,50.338924408 L201.162536621,51.4738616943 L200.080062866,52.8075332642 L199.36730957,54.2380104065 L199.12991333,55.6714897156 L199.558425903,57.0068130493 L200.726165771,58.1432189941 L202.568557739,58.9980964661 L204.412246704,59.5215148926 L205.750106812,59.7597732544 " fill="none" stroke="white" stroke-linecap="round" stroke-width="2" /><path d="M230.179641724,54.309879303 L230.236480713,53.8756561279 L230.269851685,53.1737289429 L230.213134766,52.3148612976 L229.976898193,51.4992332458 L229.521453857,50.8270645142 L228.810089111,50.364402771 L227.821273804,50.1443061829 L226.574462891,50.2177963257 L225.150527954,50.627040863 L223.673965454,51.3797187805 L222.332168579,52.4714012146 L221.258148193,53.8290405273 L220.53717041,55.3277626038 L220.25453186,56.8218078613 L220.437194824,58.1221008301 L221.089706421,59.0590515137 L222.188323975,59.5068702698 L223.626693726,59.4063835144 L225.258163452,58.7799224854 L226.964447021,57.7462387085 L228.614486694,56.4413032532 L230.096298218,55.0453529358 L231.316055298,53.7286949158 L232.200576782,52.6294555664 L232.722595215,51.8438949585 L232.913818359,51.4390411377 L232.840423584,51.4493141174 L232.538925171,51.9030456543 L232.053833008,52.8119239807 L231.451034546,54.1099967957 L230.825836182,55.6619529724 L230.39289856,57.285118103 L230.356307983,58.7807273865 L230.802062988,59.9823989868 L231.445526123,60.7693367004 L232.009933472,61.1607894897 " fill="none" stroke="white" stroke-linecap="round" stroke-width="2" /><path d="M257.351745605,55.7088661194 L257.27923584,55.3291931152 L257.079498291,54.713092804 L256.680755615,53.9517707825 L256.01940918,53.2308502197 L255.050384521,52.6489753723 L253.762832642,52.2905387878 L252.222518921,52.225856781 L250.531997681,52.518901825 L248.833892822,53.1970748901 L247.275100708,54.2298240662 L245.990127563,55.5170669556 L245.082244873,56.9077033997 L244.647232056,58.2424888611 L244.74005127,59.3623886108 L245.353225708,60.1417045593 L246.428451538,60.4847221375 L247.873748779,60.3131561279 L249.568389893,59.5935935974 L251.395965576,58.3551826477 L253.248153687,56.6737327576 L255.018356323,54.6747245789 L256.611907959,52.4948387146 L257.985015869,50.2588996887 L259.13092041,48.0982971191 L260.0390625,46.1660003662 L260.711639404,44.5963935852 L261.172271729,43.4726219177 L261.426696777,42.8275375366 L261.495941162,42.6661491394 L261.414642334,42.9943847656 L261.173156738,43.8562393188 L260.764129639,45.2606277466 L260.223449707,47.1193161011 L259.58996582,49.2752571106 L258.92288208,51.5405921936 L258.321594238,53.7215423584 L257.85446167,55.6819343567 L257.568969727,57.3175239563 L257.507598877,58.559677124 L257.745147705,59.3218688965 L258.311859131,59.5757713318 L259.202545166,59.3577613831 L260.094055176,58.9407539368 L260.745361328,58.557723999 " fill="none" stroke="white" stroke-linecap="round" stroke-width="2" /><path d="M265.023468018,52.1915512085 L264.969329834,52.2452316284 L264.844024658,52.5115585327 L264.625610352,53.1238517761 L264.301879883,54.134853363 L263.862487793,55.435836792 L263.352172852,56.8698387146 L262.829559326,58.2312698364 L262.376922607,59.3406829834 L262.077667236,60.0783576965 L261.958679199,60.3605575562 L262.003753662,60.1323356628 L262.192565918,59.40467453 L262.501312256,58.2393951416 L262.905639648,56.7799720764 L263.397644043,55.2082748413 L263.957458496,53.6790122986 L264.563934326,52.3004608154 L265.204284668,51.1243896484 L265.890167236,50.1944007874 L266.635192871,49.5704460144 L267.473937988,49.3129730225 L268.44354248,49.4410858154 L269.554931641,49.9255523682 L270.7862854,50.6487503052 L272.082427979,51.460647583 L273.384338379,52.1979904175 L274.640655518,52.7238616943 L275.812133789,52.9247131348 L276.872528076,52.7599258423 L277.769836426,52.2485923767 L278.410766602,51.4868659973 L278.720275879,50.6316223145 L278.636474609,49.8574333191 L278.130645752,49.2967758179 L277.246795654,49.0536994934 L276.05682373,49.1986732483 L274.666442871,49.7681884766 L273.220550537,50.765625 L271.886047363,52.1328277588 L270.808166504,53.7347488403 L270.144012451,55.3977241516 L270.011169434,56.950088501 L270.452972412,58.2466049194 L271.535369873,59.1518478394 L273.195678711,59.5941390991 L275.235870361,59.5715026855 L277.047180176,59.3080024719 L278.259368896,59.0204391479 " fill="none" stroke="white" stroke-linecap="round" stroke-width="2" /><path class="linestart" d="M284.413452148,52.5411071777 L284.185577393,52.2796058655 L283.780456543,51.9097557068 L283.214508057,51.5409202576 L282.538360596,51.344745636 L281.749481201,51.3989830017 L280.861999512,51.7755126953 L279.899353027,52.4762573242 L278.931793213,53.4914855957 L278.078857422,54.7314834595 L277.454681396,56.0567359924 L277.155334473,57.2869491577 L277.25769043,58.2705955505 L277.762359619,58.859375 L278.627624512,58.9753417969 L279.775146484,58.591545105 L281.077667236,57.7534217834 L282.398193359,56.5610656738 L283.637786865,55.1733436584 L284.696289062,53.7568588257 L285.526733398,52.4851150513 L286.122558594,51.4716796875 L286.491241455,50.7686538696 L286.665740967,50.3898468018 L286.690887451,50.3506774902 L286.578155518,50.6876411438 L286.334686279,51.453994751 L285.993469238,52.6133842468 L285.621398926,54.0540847778 L285.334777832,55.5990753174 L285.239044189,57.0547561646 L285.413208008,58.2498931885 L285.880645752,59.0640563965 L286.63684082,59.4018096924 L287.66104126,59.2402458191 L288.917236328,58.6200218201 L290.317504883,57.6377410889 L291.761444092,56.4193115234 L293.129699707,55.1096000671 L294.304992676,53.854473114 L295.210418701,52.779712677 L295.8152771,51.9711227417 L296.137573242,51.4829750061 L296.222503662,51.3469619751 L296.123443604,51.6018791199 L295.857055664,52.2810707092 L295.443817139,53.3620796204 L294.940917969,54.729637146 L294.44241333,56.2096443176 L294.040344238,57.5871200562 L293.795074463,58.7104797363 L293.710235596,59.4860305786 L293.75668335,59.8640670776 L293.950469971,59.811466217 L294.308990479,59.3157348633 L294.85256958,58.3721618652 L295.578552246,57.091884613 L296.454925537,55.6245193481 L297.419128418,54.147228241 L298.429046631,52.820350647 L299.40133667,51.7534942627 L300.265594482,51.0037193298 L300.966522217,50.6274261475 L301.474975586,50.6465835571 L301.788726807,51.0681533813 L301.90713501,51.8606262207 L301.828887939,52.9369773865 L301.610931396,54.1675605774 L301.318695068,55.3900337219 L301.059539795,56.4715270996 L300.908325195,57.3103065491 L300.886993408,57.828037262 L301.016204834,57.9633293152 L301.343475342,57.6825027466 L301.888549805,56.9760360718 L302.695587158,55.9297332764 L303.736358643,54.6749191284 L304.960266113,53.3608207703 L306.331054688,52.1246643066 L307.810546875,51.0680618286 L309.330322266,50.2525672913 L310.82824707,49.7411689758 L312.209716797,49.5735549927 L313.388885498,49.769115448 L314.327636719,50.3260421753 L314.998779297,51.2097892761 L315.372375488,52.3636016846 L315.444000244,53.7106018066 L315.206298828,55.1625518799 L314.692230225,56.6295471191 L314.034576416,58.0329971313 L313.406585693,59.2813339233 L312.968322754,60.2891693115 L312.79901123,60.9930877686 L312.814697266,61.3861846924 L312.894256592,61.5394325256 " fill="none" stroke="white" stroke-linecap="round" stroke-width="2" /><path d="M0,0 " fill="none" stroke="white" stroke-linecap="round" stroke-width="2" /><path d="M41.3020172119,106.516784668 L41.3105621338,106.509643555 L41.3183326721,106.639694214 L41.3196105957,107.036231995 L41.3009109497,107.801109314 L41.2138786316,108.920677185 L41.0467910767,110.334327698 L40.8024520874,111.918289185 L40.5000305176,113.566368103 L40.207660675,115.15750885 L40.000213623,116.581214905 L39.8972549438,117.750061035 L39.906955719,118.546165466 L39.991645813,118.883270264 L40.1084060669,118.775688171 L40.2089195251,118.44745636 L40.2756462097,118.114974976 " fill="none" stroke="white" stroke-linecap="round" stroke-width="2" /><path d="M42.0393486023,98.1104660034 L42.1058120728,98.1357803345 L42.2655982971,98.2554016113 L42.4568634033,98.4197921753 L42.6177558899,98.5794296265 " fill="none" stroke="white" stroke-linecap="round" stroke-width="2" /><path d="M57.3654174805,100.711791992 L57.3148994446,100.260597229 L57.1872367859,99.5347595215 L56.9265327454,98.6401443481 L56.4897232056,97.8029022217 L55.8454551697,97.1408004761 L55.0093154907,96.7503738403 L54.0227928162,96.674079895 L52.9645118713,96.9653625488 L51.9136123657,97.6333084106 L50.9391441345,98.6699523926 L50.0994110107,100.052192688 L49.4229698181,101.739601135 L48.9236106873,103.67767334 L48.6049156189,105.819061279 L48.4596099854,108.107414246 L48.4503860474,110.485969543 L48.5437431335,112.89956665 L48.6917304993,115.276924133 L48.8748817444,117.523109436 L49.0788574219,119.50894165 L49.2939834595,121.093948364 L49.4929237366,122.184875488 L49.641330719,122.784393311 L49.7222747803,123.016059875 " fill="none" stroke="white" stroke-linecap="round" stroke-width="2" /><path d="M44.2057647705,110.999038696 L44.4606132507,110.997428894 L45.1123161316,110.957893372 L46.280796051,110.85925293 L48.0128669739,110.689170837 L50.1675834656,110.477005005 L52.4885101318,110.253250122 L54.384601593,110.076622009 L55.56690979,109.969764709 " fill="none" stroke="white" stroke-linecap="round" stroke-width="2" /><path d="M76.9773483276,108.431373596 L76.9337921143,108.453598022 L76.8703536987,108.63381958 L76.7933044434,109.104240417 L76.6973648071,109.957725525 L76.5680465698,111.167884827 L76.3903274536,112.622055054 L76.1941833496,114.143379211 L76.0704345703,115.545730591 L76.1239242554,116.687866211 L76.433883667,117.465309143 L77.0353012085,117.798355103 L77.9159545898,117.639587402 L79.0348358154,116.972877502 L80.3195800781,115.832252502 L81.6800537109,114.336898804 L83.0108032227,112.639923096 L84.1988830566,110.921310425 L85.1477890015,109.360023499 L85.8185348511,108.081031799 L86.200050354,107.170257568 L86.3385848999,106.694458008 L86.2962722778,106.705291748 L86.1246414185,107.281257629 L85.8407516479,108.488792419 L85.4711608887,110.293914795 L85.0096817017,112.59601593 L84.4713668823,115.224365234 L83.8762359619,118.000923157 L83.2443466187,120.781814575 L82.5921173096,123.440933228 L81.9383926392,125.845016479 L81.2785949707,127.891441345 L80.6217575073,129.486877441 L79.9605331421,130.58795166 L79.2729568481,131.201507568 L78.5059738159,131.301605225 L77.6394805908,130.919769287 L76.7131271362,130.154052734 L75.9453887939,129.348632812 L75.4577941895,128.753662109 " fill="none" stroke="white" stroke-linecap="round" stroke-width="2" /><path d="M96.395690918,107.197372437 L96.1714401245,106.954788208 L95.7844314575,106.658454895 L95.2296524048,106.438674927 L94.5285797119,106.471038818 L93.64402771,106.826393127 L92.5873184204,107.542289734 L91.414604187,108.608222961 L90.2365570068,109.995429993 L89.2137069702,111.597122192 L88.5173568726,113.259422302 L88.2861480713,114.803497314 L88.6111297607,116.059936523 L89.5008621216,116.897727966 L90.8705444336,117.232582092 L92.5847930908,117.019424438 L94.4716186523,116.284423828 L96.3250274658,115.107467651 L97.950088501,113.632827759 L99.2040023804,112.053482056 L100.000282288,110.557479858 L100.322929382,109.271987915 L100.252159119,108.267028809 L99.9009628296,107.539245605 L99.4238357544,107.062850952 L98.9920730591,106.808982849 L98.7091598511,106.747871399 L98.5798721313,106.791488647 L98.5643310547,106.865409851 " fill="none" stroke="white" stroke-linecap="round" stroke-width="2" /><path d="M104.593658447,106.597511292 L104.636421204,106.562469482 L104.672706604,106.604782104 L104.653793335,106.848243713 L104.507949829,107.418884277 L104.207275391,108.360786438 L103.797302246,109.638259888 L103.36605835,111.120872498 L103.036155701,112.633056641 L102.924087524,114.00869751 L103.080039978,115.096694946 L103.524200439,115.788490295 L104.267326355,116.013946533 L105.306365967,115.72492218 L106.581573486,114.919822693 L108.005729675,113.682533264 L109.424301147,112.149131775 L110.699615479,110.512710571 L111.735877991,108.985801697 L112.518577576,107.717628479 L113.032669067,106.781089783 L113.326286316,106.22492981 L113.430236816,106.08556366 L113.389266968,106.41242218 L113.230751038,107.266555786 L113.02960968,108.609611511 L112.838760376,110.271492004 L112.744018555,112.031188965 L112.827178955,113.655670166 L113.111907959,114.956825256 L113.547477722,115.859718323 L113.973854065,116.368583679 L114.269348145,116.57157135 " fill="none" stroke="white" stroke-linecap="round" stroke-width="2" /><path d="M135.391311646,105.916679382 L135.167785645,105.694129944 L134.791992188,105.429222107 L134.26940918,105.240219116 L133.625152588,105.28024292 L132.807098389,105.59147644 L131.788467407,106.199981689 L130.586791992,107.103538513 L129.282089233,108.299942017 L128.017333984,109.731231689 L126.95677948,111.304115295 L126.270263672,112.897239685 L126.089530945,114.376060486 L126.499755859,115.628395081 L127.499603271,116.57359314 L129.031829834,117.160369873 L131.035400391,117.331329346 L133.342025757,117.085250854 L135.714447021,116.480201721 L137.615783691,115.814414978 L138.782363892,115.311698914 " fill="none" stroke="white" stroke-linecap="round" stroke-width="2" /><path d="M145.569396973,107.297927856 L145.324325562,107.118782043 L144.886871338,106.907806396 L144.237808228,106.770339966 L143.418304443,106.845336914 L142.42918396,107.192657471 L141.289474487,107.848388672 L140.088317871,108.808204651 L138.949234009,110.030021667 L138.018692017,111.42036438 L137.446426392,112.845672607 L137.361633301,114.172912598 L137.794403076,115.26902771 L138.727508545,116.014076233 L140.049667358,116.315055847 L141.632644653,116.129096985 L143.309936523,115.477241516 L144.953292847,114.447776794 L146.387939453,113.166107178 L147.468414307,111.759254456 L148.098831177,110.360229492 L148.260269165,109.071266174 L148.002182007,107.979560852 L147.457504272,107.136253357 L146.747192383,106.586776733 L146.024688721,106.332244873 L145.430343628,106.352531433 L145.047393799,106.504493713 L144.872192383,106.667778015 " fill="none" stroke="white" stroke-linecap="round" stroke-width="2" /><path d="M153.367233276,105.659133911 L153.303634644,105.622261047 L153.198196411,105.720985413 L153.042800903,106.09375 L152.831878662,106.85219574 L152.550643921,107.969482422 L152.246185303,109.352424622 L151.99546814,110.857444763 L151.904953003,112.324752808 L152.054382324,113.594093323 L152.469696045,114.537399292 L153.127456665,115.054992676 L154.018371582,115.101593018 L155.112731934,114.681968689 L156.346939087,113.836051941 L157.620574951,112.649436951 L158.804504395,111.245727539 L159.779342651,109.770385742 L160.492599487,108.384902954 L160.960754395,107.233779907 L161.235595703,106.390472412 L161.364944458,105.902786255 L161.38331604,105.793670654 L161.310562134,106.095939636 L161.147125244,106.851547241 L160.913345337,108.046951294 L160.6769104,109.548446655 L160.499420166,111.175498962 L160.475067139,112.714767456 L160.694564819,113.996635437 L161.219192505,114.902679443 L162.074768066,115.351715088 L163.2628479,115.269447327 L164.70300293,114.625946045 L166.302963257,113.426246643 L167.938552856,111.735336304 L169.50440979,109.67464447 L170.918746948,107.404953003 L172.133331299,105.088600159 L173.113250732,102.877082825 L173.845153809,100.897354126 L174.316390991,99.245223999 L174.535598755,97.9944000244 L174.531311035,97.1990966797 L174.327392578,96.8994903564 L173.93699646,97.1210861206 L173.365493774,97.8798294067 L172.612258911,99.1546554565 L171.692276001,100.874389648 L170.684082031,102.943740845 L169.688308716,105.23097229 L168.81640625,107.569526672 L168.258102417,109.808792114 L168.125091553,111.784202576 L168.443511963,113.370231628 L168.954605103,114.426078796 L169.408615112,114.976005554 " fill="none" stroke="white" stroke-linecap="round" stroke-width="2" /><path d="M181.265426636,109.235939026 L181.110748291,108.841171265 L180.832397461,108.270843506 L180.390945435,107.66532135 L179.741729736,107.235794067 L178.802276611,107.069763184 L177.576721191,107.218650818 L176.151275635,107.69380188 L174.689956665,108.486755371 L173.387512207,109.540481567 L172.394424438,110.73425293 L171.817733765,111.950408936 L171.695358276,113.032859802 L172.01171875,113.854820251 L172.714248657,114.304977417 L173.746200562,114.323478699 L175.022842407,113.875045776 L176.471603394,112.971359253 L177.996139526,111.63999939 L179.503799438,109.937072754 L180.921569824,107.933860779 L182.199569702,105.75605011 L183.292037964,103.539863586 L184.205474854,101.425018311 L184.934936523,99.5564498901 L185.484893799,98.040435791 L185.875595093,96.9195098877 L186.108627319,96.2331771851 L186.175918579,96.0 L186.087814331,96.25415802 L185.808944702,97.0545196533 L185.329406738,98.4349594116 L184.674026489,100.317977905 L183.891860962,102.573722839 L183.080001831,105.028015137 L182.35446167,107.516082764 L181.796722412,109.918144226 L181.465637207,112.116653442 L181.361221313,113.978271484 L181.390548706,115.278625488 L181.463439941,115.987754822 " fill="none" stroke="white" stroke-linecap="round" stroke-width="2" /><path d="M197.939483643,97.1736450195 L197.957611084,97.1238327026 L197.953811646,97.1854553223 L197.887207031,97.50390625 L197.72253418,98.2272186279 L197.449203491,99.3809204102 L197.097167969,100.919540405 L196.708312988,102.755157471 L196.320404053,104.768379211 L195.946960449,106.828079224 L195.612762451,108.834693909 L195.322006226,110.654800415 L195.089874268,112.168785095 L194.935623169,113.306312561 L194.862213135,114.026008606 L194.850097656,114.310424805 L194.904663086,114.187240601 L195.021072388,113.647087097 L195.208236694,112.695808411 L195.513000488,111.399658203 L195.990219116,109.869117737 L196.694580078,108.242835999 L197.647781372,106.674934387 L198.819122314,105.285690308 L200.130340576,104.179351807 L201.508468628,103.443321228 L202.888198853,103.131919861 L204.226608276,103.261123657 L205.47013855,103.812484741 L206.551742554,104.738845825 L207.386917114,105.957077026 L207.910202026,107.364555359 L208.069824219,108.831947327 L207.82510376,110.20954895 L207.176712036,111.374603271 L206.144592285,112.250053406 L204.770935059,112.779388428 L203.137374878,112.94657135 L201.373825073,112.756072998 L199.60559082,112.231254578 L198.013793945,111.406303406 L196.75743103,110.388580322 L195.927612305,109.30721283 L195.500183105,108.430488586 L195.366043091,107.889755249 " fill="none" stroke="white" stroke-linecap="round" stroke-width="2" /><path d="M209.637435913,110.517196655 L210.067718506,110.404846191 L210.864105225,110.140762329 L212.001251221,109.679649353 L213.321624756,109.01599884 L214.699737549,108.175163269 L216.023223877,107.210914612 L217.206054688,106.221290588 L218.150421143,105.296768188 L218.778259277,104.50428009 L219.039398193,103.877677917 L218.887817383,103.435951233 L218.307846069,103.199363708 L217.323135376,103.22933197 L215.991668701,103.573616028 L214.436676025,104.249778748 L212.833511353,105.232559204 L211.361282349,106.458274841 L210.208145142,107.845252991 L209.516616821,109.296920776 L209.508880615,110.699836731 L210.295715332,111.934013367 L211.821426392,112.896286011 L213.434997559,113.505615234 L214.64680481,113.800048828 " fill="none" stroke="white" stroke-linecap="round" stroke-width="2" /><path d="M237.637908936,100.417106628 L237.519897461,99.9932098389 L237.325790405,99.3822555542 L237.047988892,98.7085571289 L236.689361572,98.1620788574 L236.21421814,97.7812957764 L235.599624634,97.6132202148 L234.82711792,97.7027511597 L233.915023804,98.1312103271 L232.891662598,98.9382858276 L231.817932129,100.118362427 L230.778015137,101.635719299 L229.830108643,103.435142517 L229.029251099,105.452842712 L228.405151367,107.612190247 L227.963531494,109.810546875 L227.718231201,111.934570312 L227.658691406,113.833358765 L227.733673096,115.376525879 L227.858459473,116.407020569 L227.963348389,116.938819885 " fill="none" stroke="white" stroke-linecap="round" stroke-width="2" /><path d="M225.29019165,106.965202332 L225.468048096,106.907264709 L225.977966309,106.793647766 L226.942077637,106.627540588 L228.447296143,106.427581787 L230.405441284,106.220932007 L232.588638306,106.036430359 L234.412246704,105.903564453 L235.575683594,105.830726624 " fill="none" stroke="white" stroke-linecap="round" stroke-width="2" /><path d="M245.205856323,104.910423279 L244.979476929,104.738136292 L244.545944214,104.51675415 L243.858566284,104.347549438 L242.93862915,104.392837524 L241.780349731,104.741500854 L240.461135864,105.416000366 L239.099227905,106.392494202 L237.864715576,107.608634949 L236.914520264,108.953819275 L236.38722229,110.319862366 L236.345581055,111.577125549 L236.802474976,112.581886292 L237.716827393,113.225654602 L239.030090332,113.420600891 L240.64704895,113.127159119 L242.439941406,112.386566162 L244.21534729,111.293251038 L245.759689331,109.974807739 L246.885574341,108.588653564 L247.515060425,107.264305115 L247.646072388,106.1042099 L247.372879028,105.198478699 L246.81060791,104.6015625 L246.108215332,104.37260437 L245.424743652,104.522041321 L244.908889771,104.9817276 L244.611129761,105.498809814 L244.504364014,105.891143799 " fill="none" stroke="white" stroke-linecap="round" stroke-width="2" /><path d="M252.218521118,104.779350281 L252.108459473,104.896827698 L251.901199341,105.235816956 L251.580886841,105.885734558 L251.18598938,106.853317261 L250.783630371,108.067359924 L250.474212646,109.394760132 L250.349853516,110.675765991 L250.519165039,111.763397217 L251.018585205,112.532371521 L251.835327148,112.884101868 L252.93069458,112.770339966 L254.238067627,112.187850952 L255.646850586,111.179115295 L257.068756104,109.841346741 L258.409454346,108.322532654 L259.572723389,106.794837952 L260.501922607,105.432144165 L261.183502197,104.356277466 L261.615753174,103.642875671 L261.822967529,103.337478638 L261.829040527,103.474487305 L261.64642334,104.074737549 L261.301849365,105.113746643 L260.887969971,106.48928833 L260.507019043,108.061058044 L260.256225586,109.669120789 L260.204467773,111.172676086 L260.369995117,112.446884155 L260.739562988,113.36492157 L261.327972412,113.834014893 L262.132019043,113.806495667 L263.139923096,113.282791138 L264.303588867,112.345062256 L265.528015137,111.110404968 L266.699920654,109.725502014 L267.751678467,108.351951599 L268.633209229,107.135154724 L269.321075439,106.161628723 L269.805389404,105.491889954 L270.083251953,105.143440247 L270.148651123,105.144325256 L270.032012939,105.517700195 L269.7628479,106.298057556 L269.379760742,107.44644928 L268.952301025,108.867767334 L268.567382812,110.402069092 L268.273895264,111.868186951 L268.102111816,113.094703674 L268.044616699,113.984054565 L268.075805664,114.460205078 L268.199859619,114.493774414 L268.449066162,114.078872681 L268.85760498,113.233009338 L269.464874268,112.018417358 L270.285552979,110.556930542 L271.293273926,108.97844696 L272.455474854,107.425750732 L273.718200684,106.034851074 L275.016571045,104.904045105 L276.29309082,104.108940125 L277.488098145,103.701011658 L278.538848877,103.697113037 L279.419281006,104.094657898 L280.096618652,104.876342773 L280.539245605,105.969276428 L280.749023438,107.26550293 L280.739135742,108.640266418 L280.583312988,109.975227356 L280.407989502,111.158416748 L280.321136475,112.119468689 L280.325378418,112.762870789 L280.386566162,113.096611023 " fill="none" stroke="white" stroke-linecap="round" stroke-width="2" /><path d="M290.82824707,108.178024292 L290.739685059,107.808105469 L290.55682373,107.267967224 L290.236785889,106.676620483 L289.734466553,106.221237183 L288.974487305,105.96799469 L287.920532227,105.979354858 L286.615753174,106.292778015 L285.160491943,106.945075989 L283.71774292,107.914581299 L282.461456299,109.122901917 L281.527160645,110.4451828 L281.019500732,111.734130859 L281.019348145,112.842086792 L281.553588867,113.637672424 L282.603118896,114.010917664 L284.0887146,113.89414978 L285.876434326,113.252555847 L287.813262939,112.127372742 L289.770263672,110.6120224 L291.642150879,108.83379364 L293.351989746,106.923065186 L294.843170166,104.987754822 L296.087158203,103.114936829 L297.06161499,101.42893219 L297.769897461,100.027748108 L298.237091064,98.9812927246 L298.493133545,98.3334655762 L298.547027588,98.1112670898 L298.410705566,98.3426132202 L298.062011719,99.087890625 L297.499755859,100.352455139 L296.768127441,102.066566467 L295.947357178,104.11541748 L295.131988525,106.35912323 L294.438293457,108.64012146 L293.949768066,110.815231323 L293.74597168,112.746910095 L293.890594482,114.311912537 L294.399414062,115.459503174 L295.297607422,116.154418945 L296.524261475,116.413276672 L297.94732666,116.306892395 L299.171783447,116.045043945 L299.973693848,115.79548645 " fill="none" stroke="white" stroke-linecap="round" stroke-width="2" /><path d="M314.03012085,106.189109802 L314.042541504,106.354560852 L314.021728516,106.758300781 L313.923522949,107.475639343 L313.710235596,108.500015259 L313.375366211,109.77596283 L312.944000244,111.217605591 L312.472625732,112.73777771 L312.050598145,114.171829224 L311.761199951,115.356842041 L311.654632568,116.157699585 L311.673828125,116.565887451 L311.74520874,116.686958313 " fill="none" stroke="white" stroke-linecap="round" stroke-width="2" /><path d="M315.87902832,98.0988693237 L315.926879883,98.1646347046 L316.034912109,98.3873901367 L316.161773682,98.6776885986 L316.266052246,98.9460449219 " fill="none" stroke="white" stroke-linecap="round" stroke-width="2" /><path d="M320.158172607,107.182647705 L320.024871826,107.487838745 L319.788604736,108.144256592 L319.438568115,109.177101135 L318.993011475,110.478050232 L318.475250244,111.884048462 L317.950469971,113.229560852 L317.49786377,114.382476807 L317.185913086,115.256271362 L317.050598145,115.765548706 L317.09085083,115.844581604 L317.340332031,115.451667786 L317.838439941,114.579101562 L318.600585938,113.310005188 L319.631225586,111.807777405 L320.891357422,110.235588074 L322.297729492,108.752975464 L323.771850586,107.496711731 L325.224700928,106.543334961 L326.576385498,105.958808899 L327.777709961,105.788948059 L328.780395508,106.048210144 L329.538787842,106.730331421 L329.999145508,107.805709839 L330.131439209,109.189292908 L329.968170166,110.748954773 L329.597412109,112.319747925 L329.14855957,113.758811951 L328.794067383,114.901351929 L328.654022217,115.641479492 L328.783874512,115.937309265 L329.046661377,115.931228638 L329.297180176,115.796379089 " fill="none" stroke="white" stroke-linecap="round" stroke-width="2" /><path d="M341.373565674,106.422813416 L341.463897705,106.653633118 L341.591888428,107.161773682 L341.725921631,107.993362427 L341.818023682,109.085327148 L341.876068115,110.342971802 L341.930969238,111.6483078 L342.024017334,112.890289307 L342.199371338,113.961837769 L342.501403809,114.758125305 L342.958953857,115.172187805 L343.61126709,115.144256592 L344.4637146,114.643188477 L345.489105225,113.725601196 L346.628570557,112.499610901 L347.785491943,111.114952087 L348.836090088,109.742805481 L349.685852051,108.548416138 L350.271026611,107.618835449 L350.584625244,107.034835815 L350.650634766,106.828269958 L350.489654541,107.042976379 L350.098236084,107.743858337 L349.474700928,108.97832489 L348.66317749,110.712303162 L347.742340088,112.872787476 L346.813415527,115.332946777 L345.953857422,117.94619751 L345.208007812,120.589012146 L344.592681885,123.094955444 L344.124511719,125.284599304 L343.824066162,126.847511292 L343.677581787,127.717674255 " fill="none" stroke="white" stroke-linecap="round" stroke-width="2" /><path d="M357.253997803,107.992782593 L357.166381836,107.738853455 L356.950531006,107.433166504 L356.538757324,107.221748352 L355.904388428,107.304138184 L355.036743164,107.753608704 L354.008453369,108.57270813 L352.93838501,109.68800354 L352.007720947,111.012924194 L351.366088867,112.412193298 L351.136993408,113.756011963 L351.332733154,114.911819458 L351.948852539,115.766906738 L352.911437988,116.218681335 L354.121612549,116.204971313 L355.447601318,115.71937561 L356.759765625,114.818023682 L357.908477783,113.594207764 L358.800628662,112.178840637 L359.377868652,110.713691711 L359.612915039,109.342979431 L359.560424805,108.204460144 L359.29309082,107.395553589 L358.983978271,106.935714722 L358.750793457,106.748077393 " fill="none" stroke="white" stroke-linecap="round" stroke-width="2" /><path d="M363.195556641,107.154945374 L363.150482178,106.85987854 L363.082855225,106.513038635 L362.981719971,106.294845581 L362.813415527,106.406814575 L362.528045654,106.923141479 L362.116119385,107.825637817 L361.62310791,109.03314209 L361.190673828,110.442756653 L360.969848633,111.896224976 L361.058990479,113.188285828 L361.486694336,114.168632507 L362.231231689,114.703224182 L363.219085693,114.732910156 L364.403259277,114.250534058 L365.727935791,113.313262939 L367.11315918,112.036209106 L368.466247559,110.582626343 L369.692138672,109.14691925 L370.686462402,107.897483826 L371.393951416,106.944366455 L371.792877197,106.358840942 L371.885955811,106.181861877 L371.716918945,106.43271637 L371.338195801,107.144035339 L370.818450928,108.268081665 L370.271514893,109.677497864 L369.824432373,111.194801331 L369.639923096,112.594451904 L369.813568115,113.685623169 L370.331115723,114.376976013 L370.924194336,114.70224762 L371.382232666,114.782287598 " fill="none" stroke="white" stroke-linecap="round" stroke-width="2" /><path d="M377.408294678,107.957344055 L377.377044678,107.90763855 L377.29119873,108.017539978 L377.127532959,108.433235168 L376.870880127,109.257629395 L376.544647217,110.409309387 L376.1875,111.726547241 L375.846069336,113.002998352 L375.576843262,114.079467773 L375.405212402,114.860801697 L375.307067871,115.306808472 L375.287994385,115.395751953 L375.35345459,115.082519531 L375.535247803,114.32598114 L375.874176025,113.145378113 L376.367645264,111.676292419 L376.962890625,110.085922241 L377.63684082,108.56022644 L378.384033203,107.213294983 L379.241394043,106.113899231 L380.251983643,105.297622681 L381.414978027,104.793716431 L382.695495605,104.596435547 L384.057067871,104.705673218 L385.409515381,105.065635681 L386.669372559,105.590408325 L387.621459961,106.081199646 L388.178375244,106.411903381 " fill="none" stroke="white" stroke-linecap="round" stroke-width="2" /><path d="M397.217529297,105.449401855 L397.209381104,105.374130249 L397.24420166,105.328140259 L397.341430664,105.433029175 L397.474273682,105.826179504 L397.558959961,106.590568542 L397.497802734,107.725502014 L397.23260498,109.147956848 L396.791015625,110.733055115 L396.271942139,112.328842163 L395.785827637,113.750732422 L395.421508789,114.877479553 L395.205474854,115.621063232 L395.121124268,115.922065735 L395.176757812,115.759674072 L395.383209229,115.126228333 L395.768951416,114.024131775 L396.349578857,112.573005676 L397.101409912,110.916694641 L398.011901855,109.228042603 L399.07019043,107.665359497 L400.225616455,106.357711792 L401.430389404,105.397323608 L402.600311279,104.872940063 L403.639038086,104.809425354 L404.505767822,105.214790344 L405.163299561,106.052474976 L405.592895508,107.251594543 L405.790557861,108.714752197 L405.762939453,110.316574097 L405.547210693,111.902946472 L405.216796875,113.32510376 L404.849090576,114.456825256 L404.531921387,115.194442749 L404.330871582,115.481422424 L404.311462402,115.287246704 L404.526000977,114.612739563 L405.008850098,113.505058289 L405.754943848,112.079406738 L406.723022461,110.499534607 L407.846221924,108.939971924 L409.06628418,107.545166016 L410.323120117,106.42616272 L411.574371338,105.653839111 L412.755889893,105.290489197 L413.780487061,105.382209778 L414.570556641,105.945976257 L415.069976807,106.960990906 L415.24041748,108.358055115 L415.089385986,110.011688232 L414.677398682,111.762489319 L414.106231689,113.443023682 L413.554351807,114.861068726 L413.184509277,115.868751526 L413.082855225,116.391731262 L413.161071777,116.541343689 L413.298095703,116.490631104 " fill="none" stroke="white" stroke-linecap="round" stroke-width="2" /><path d="M419.988739014,107.156616211 L420.079467773,107.206382751 L420.197113037,107.468185425 L420.287017822,108.068962097 L420.23727417,109.062408447 L419.991333008,110.372085571 L419.551422119,111.881416321 L418.986419678,113.466278076 L418.395507812,114.948921204 L417.898406982,116.146202087 L417.549560547,116.919746399 L417.361328125,117.278137207 L417.294555664,117.351196289 " fill="none" stroke="white" stroke-linecap="round" stroke-width="2" /><path d="M421.968017578,101.572303772 L422.095855713,101.075469971 L422.279876709,100.484031677 L422.456512451,99.9879150391 L422.562255859,99.7770385742 " fill="none" stroke="white" stroke-linecap="round" stroke-width="2" /><path d="M425.802062988,107.682754517 L425.884918213,107.439949036 L425.98526001,107.157150269 L426.079315186,106.917472839 L426.134368896,106.8491745 L426.161071777,106.937782288 L426.116668701,107.200454712 L425.970275879,107.678451538 L425.69644165,108.427383423 L425.292663574,109.427658081 L424.763793945,110.657028198 L424.152740479,112.020996094 L423.502593994,113.419792175 L422.90447998,114.734138489 L422.436920166,115.837059021 L422.14050293,116.630851746 L422.013031006,117.05606842 L422.065826416,117.072036743 L422.297485352,116.671577454 L422.755584717,115.8516922 L423.455505371,114.653961182 L424.378845215,113.199356079 L425.493713379,111.620277405 L426.741241455,110.065864563 L428.05065918,108.658660889 L429.392730713,107.496864319 L430.727600098,106.657463074 L432.017944336,106.212615967 L433.21496582,106.195800781 L434.231842041,106.619598389 L435.007354736,107.463722229 L435.500396729,108.674720764 L435.700042725,110.162864685 L435.634735107,111.797225952 L435.362457275,113.426422119 L434.952819824,114.924003601 L434.568786621,116.1823349 L434.340667725,117.11555481 L434.347503662,117.693099976 L434.498901367,117.963691711 L434.67855835,118.030075073 " fill="none" stroke="white" stroke-linecap="round" stroke-width="2" /><path class="linestart" d="M446.127075195,111.560935974 L446.135101318,111.172714233 L446.099761963,110.544425964 L445.971405029,109.768013 L445.696350098,109.027046204 L445.21987915,108.406494141 L444.512359619,107.980628967 L443.562408447,107.821609497 L442.381164551,108.001899719 L441.036987305,108.570350647 L439.660095215,109.518211365 L438.400177002,110.776565552 L437.421295166,112.234779358 L436.86151123,113.77960968 L436.779937744,115.264793396 L437.178222656,116.553741455 L438.033355713,117.505683899 L439.275695801,117.992355347 L440.809783936,117.930740356 L442.519226074,117.295211792 L444.245544434,116.111907959 L445.850311279,114.456863403 L447.257202148,112.448501587 L448.436645508,110.212425232 L449.397766113,107.884971619 L450.161132812,105.579078674 L450.741973877,103.440238953 L451.160736084,101.596351624 L451.452636719,100.163223267 L451.636108398,99.2157592773 L451.732299805,98.7973709106 L451.736206055,98.9127044678 L451.640686035,99.5949554443 L451.42565918,100.852722168 L451.081817627,102.616752625 L450.601104736,104.74395752 L450.034606934,107.052703857 L449.4503479,109.377105713 L448.953918457,111.583824158 L448.616821289,113.602989197 L448.517974854,115.345428467 L448.684387207,116.712280273 L449.094726562,117.646400452 L449.546508789,118.164627075 L449.896636963,118.36151886 " fill="none" stroke="white" stroke-linecap="round" stroke-width="2" /><path d="M0,0 " fill="none" stroke="white" stroke-linecap="round" stroke-width="2" /><path d="M41.2137069702,163.977493286 L41.2789764404,163.976150513 L41.3880653381,164.113143921 L41.5191230774,164.502929688 L41.6177978516,165.237731934 L41.6361122131,166.313461304 L41.5379562378,167.679260254 L41.3231887817,169.259063721 L41.0466194153,170.952758789 L40.7943305969,172.614379883 L40.6148033142,174.083175659 L40.5317573547,175.233215332 L40.529624939,175.944580078 L40.5796546936,176.189544678 L40.656047821,176.014831543 L40.7347183228,175.662399292 L40.7854766846,175.332473755 " fill="none" stroke="white" stroke-linecap="round" stroke-width="2" /><path d="M41.4654197693,154.963394165 L41.345539093,154.847579956 L41.2341461182,154.734985352 L41.1806755066,154.677001953 L41.2251472473,154.711730957 L41.3041725159,154.774414062 L41.3773994446,154.819198608 L41.4139556885,154.826828003 L41.4303245544,154.815948486 " fill="none" stroke="white" stroke-linecap="round" stroke-width="2" /><path d="M51.1572647095,155.059768677 L51.1194725037,155.371795654 L51.054069519,156.025161743 L50.9413566589,157.046585083 L50.7802467346,158.353500366 L50.549911499,159.865310669 L50.2380332947,161.528915405 L49.8609237671,163.314346313 L49.4480438232,165.178665161 L49.0205154419,167.047836304 L48.6074981689,168.83404541 L48.2284049988,170.449356079 L47.8943443298,171.823257446 L47.6160049438,172.907623291 L47.3863830566,173.636734009 L47.2247924805,174.026565552 L47.1271247864,174.166152954 " fill="none" stroke="white" stroke-linecap="round" stroke-width="2" /><path d="M45.3444633484,165.964996338 L45.415725708,165.9871521 L45.6991348267,166.04788208 L46.3024635315,166.142089844 L47.3392677307,166.227432251 L48.7531661987,166.251083374 L50.4057922363,166.186813354 L51.8292121887,166.080123901 L52.7600746155,165.98550415 " fill="none" stroke="white" stroke-linecap="round" stroke-width="2" /><path d="M68.982460022,163.744842529 L68.9952926636,163.801864624 L69.0382156372,164.037948608 L69.1144180298,164.555496216 L69.2025680542,165.398651123 L69.2525787354,166.530517578 L69.203918457,167.872528076 L69.0358047485,169.349365234 L68.7607345581,170.854354858 L68.4378662109,172.242507935 L68.1402282715,173.357681274 L67.9119262695,174.119400024 L67.7835540771,174.456695557 L67.7649459839,174.405303955 L67.8486328125,174.028091431 L67.9711380005,173.561630249 L68.0808639526,173.179275513 " fill="none" stroke="white" stroke-linecap="round" stroke-width="2" /><path d="M70.1244354248,154.746582031 L70.1566619873,154.746444702 L70.2198410034,154.78465271 L70.2958145142,154.882949829 L70.368057251,155.030075073 L70.4282531738,155.182876587 L70.4855651855,155.288101196 L70.5343170166,155.334869385 L70.5754776001,155.338729858 " fill="none" stroke="white" stroke-linecap="round" stroke-width="2" /><path d="M80.3180618286,162.268722534 L80.0457229614,162.178665161 L79.4813156128,162.075927734 L78.5671691895,162.037826538 L77.3607406616,162.157424927 L75.9586257935,162.474075317 L74.5469207764,162.984619141 L73.3452453613,163.648605347 L72.5494995117,164.419189453 L72.2935562134,165.258758545 L72.6364974976,166.132675171 L73.5551071167,167.014358521 L74.9583206177,167.874435425 L76.6973648071,168.707580566 L78.5554351807,169.510848999 L80.2980957031,170.27532959 L81.692527771,170.974655151 L82.562210083,171.58190918 L82.8158493042,172.070663452 L82.4457626343,172.452331543 L81.4861907959,172.724334717 L80.0273971558,172.883926392 L78.1758346558,172.918487549 L76.0826187134,172.843460083 L73.9172668457,172.678237915 L71.8865890503,172.470809937 L70.1707305908,172.256729126 L68.9960250854,172.090118408 L68.3745956421,171.987945557 " fill="none" stroke="white" stroke-linecap="round" stroke-width="2" /><path d="M97.0039901733,163.59916687 L96.9959411621,163.867858887 L96.9515838623,164.458358765 L96.847328186,165.426879883 L96.6683197021,166.708999634 L96.3989028931,168.197280884 L96.0616455078,169.745666504 L95.7165679932,171.204406738 L95.4006652832,172.440963745 L95.1548156738,173.365005493 L94.9933395386,173.909362793 L94.8975143433,174.040649414 L94.857673645,173.72706604 L94.8756713867,172.947677612 L94.9767684937,171.729568481 L95.189414978,170.167373657 L95.5584030151,168.388824463 L96.1352920532,166.54699707 L96.9647521973,164.773803711 L98.0521316528,163.192977905 L99.3931274414,161.919113159 L100.917259216,161.050765991 L102.539199829,160.644332886 L104.166999817,160.718933105 L105.692947388,161.251937866 L107.007041931,162.197616577 L108.025413513,163.480957031 L108.667793274,165.007339478 L108.916007996,166.664047241 L108.814567566,168.32611084 L108.447517395,169.87991333 L107.930877686,171.251312256 L107.416023254,172.385604858 L107.020217896,173.255111694 L106.829116821,173.85723877 L106.803977966,174.201248169 L106.861785889,174.344299316 " fill="none" stroke="white" stroke-linecap="round" stroke-width="2" /><path d="M119.464752197,165.310134888 L119.436447144,164.936325073 L119.306907654,164.384994507 L118.996604919,163.776824951 L118.441558838,163.314208984 L117.623947144,163.092407227 L116.561073303,163.17427063 L115.316520691,163.587005615 L113.978744507,164.370834351 L112.662506104,165.500198364 L111.510932922,166.902755737 L110.673912048,168.468185425 L110.279060364,170.035705566 L110.406906128,171.433258057 L111.062057495,172.511825562 L112.180595398,173.148681641 L113.664634705,173.275604248 L115.363708496,172.886047363 L117.098823547,172.035415649 L118.688789368,170.851928711 L119.97000885,169.491607666 L120.84526062,168.126342773 L121.319213867,166.888641357 L121.431762695,165.866287231 L121.265533447,165.104904175 L120.933647156,164.61869812 L120.54864502,164.373168945 L120.236091614,164.296951294 L120.05871582,164.302749634 " fill="none" stroke="white" stroke-linecap="round" stroke-width="2" /><path d="M129.856414795,154.68711853 L129.717681885,154.875350952 L129.488876343,155.376419067 L129.18989563,156.299865723 L128.861328125,157.647277832 L128.501983643,159.354858398 L128.1068573,161.329864502 L127.68309021,163.472946167 L127.290489197,165.675033569 L127.005783081,167.809936523 L126.866165161,169.716583252 L126.862304688,171.274017334 L126.934768677,172.340133667 L127.000404358,172.859664917 L127.018211365,172.858734131 L127.002677917,172.593612671 L126.973114014,172.29548645 " fill="none" stroke="white" stroke-linecap="round" stroke-width="2" /><path d="M125.01940155,164.15965271 L125.078765869,164.145278931 L125.400665283,164.147766113 L126.15120697,164.18170166 L127.448829651,164.246368408 L129.161468506,164.313659668 L131.044082642,164.353225708 L132.579177856,164.357955933 L133.521255493,164.345016479 " fill="none" stroke="white" stroke-linecap="round" stroke-width="2" /><path d="M155.299438477,165.672775269 L155.2706604,165.374160767 L155.196075439,164.873733521 L155.01890564,164.217132568 L154.690933228,163.529052734 L154.167770386,162.869918823 L153.450820923,162.314224243 L152.565734863,161.930297852 L151.559768677,161.82170105 L150.435592651,162.069824219 L149.195053101,162.714706421 L147.856018066,163.731384277 L146.526702881,165.048477173 L145.361816406,166.547271729 L144.542404175,168.105484009 L144.192764282,169.596725464 L144.343414307,170.880905151 L144.941497803,171.81892395 L145.921157837,172.307922363 L147.199981689,172.278182983 L148.706665039,171.714660645 L150.359619141,170.686248779 L152.034454346,169.316864014 L153.571578979,167.76713562 L154.842300415,166.219924927 L155.765319824,164.830047607 L156.339645386,163.687835693 L156.638183594,162.853500366 L156.752532959,162.367645264 L156.732498169,162.268432617 L156.593276978,162.613861084 L156.319320679,163.458786011 L155.901397705,164.774139404 L155.408035278,166.442062378 L154.970947266,168.267074585 L154.701705933,170.026763916 L154.705169678,171.512390137 L154.997299194,172.597625732 L155.506896973,173.235092163 L156.016326904,173.507522583 L156.384506226,173.557937622 " fill="none" stroke="white" stroke-linecap="round" stroke-width="2" /><path d="M179.42477417,166.008987427 L179.265914917,165.635253906 L178.954360962,165.092559814 L178.434188843,164.520278931 L177.689453125,164.146896362 L176.689025879,164.078598022 L175.451293945,164.386550903 L174.042938232,165.096755981 L172.580718994,166.193695068 L171.180496216,167.596389771 L169.978012085,169.165466309 L169.088378906,170.731307983 L168.604171753,172.122344971 L168.58644104,173.201385498 L169.059692383,173.854110718 L169.980514526,174.004196167 L171.2709198,173.583343506 L172.814483643,172.573959351 L174.480880737,171.027740479 L176.142440796,169.063705444 L177.698196411,166.834732056 L179.063186646,164.49822998 L180.203643799,162.155929565 L181.135391235,159.909194946 L181.885131836,157.892150879 L182.469848633,156.229827881 L182.89151001,155.011444092 L183.128067017,154.290878296 L183.164108276,154.069320679 L183.018615723,154.352386475 L182.73449707,155.179550171 L182.359603882,156.537612915 L181.962203979,158.336486816 L181.570617676,160.438568115 L181.205551147,162.679733276 L180.883468628,164.926773071 L180.649200439,167.084274292 L180.525466919,169.026733398 L180.543609619,170.625305176 L180.633666992,171.705215454 L180.730514526,172.263961792 " fill="none" stroke="white" stroke-linecap="round" stroke-width="2" /><path d="M187.131668091,164.650680542 " fill="none" stroke="white" stroke-linecap="round" stroke-width="2" /><path d="M187.282989502,166.405853271 L187.194610596,167.157028198 L187.006652832,168.326141357 L186.728637695,169.715438843 L186.406600952,170.948791504 L186.115432739,171.906814575 L185.91003418,172.536865234 L185.802154541,172.863357544 L185.770736694,172.881790161 L185.803436279,172.572158813 L185.896331787,171.88609314 L186.084457397,170.829788208 L186.395767212,169.487884521 L186.821578979,168.011154175 L187.362609863,166.556793213 L188.020080566,165.23286438 L188.814819336,164.096618652 L189.774612427,163.18611145 L190.878997803,162.521057129 L192.084396362,162.157318115 L193.319030762,162.101593018 L194.483306885,162.307983398 L195.367370605,162.603942871 L195.897262573,162.851165771 " fill="none" stroke="white" stroke-linecap="round" stroke-width="2" /><path d="M195.594100952,170.850906372 L195.920455933,170.706222534 L196.61416626,170.373733521 L197.699951172,169.820861816 L199.073059082,169.075561523 L200.596176147,168.185409546 L202.115570068,167.210372925 L203.488128662,166.21333313 L204.610519409,165.251159668 L205.375305176,164.385375977 L205.722473145,163.667480469 L205.62677002,163.140289307 L205.077163696,162.854614258 L204.071655273,162.873901367 L202.655822754,163.257659912 L200.946670532,164.03074646 L199.153396606,165.150650024 L197.545211792,166.51902771 L196.368057251,168.001754761 L195.761779785,169.466186523 L195.896896362,170.782272339 L196.8097229,171.848007202 L198.3959198,172.589172363 L200.017593384,173.00239563 L201.212661743,173.162872314 " fill="none" stroke="white" stroke-linecap="round" stroke-width="2" /><path d="M215.050247192,166.972808838 L215.000411987,166.707885742 L214.876571655,166.28338623 L214.645111084,165.768493652 L214.285766602,165.293334961 L213.751541138,164.936904907 L213.000793457,164.767944336 L212.021987915,164.843002319 L210.856307983,165.223358154 L209.617416382,165.934951782 L208.462799072,166.94909668 L207.527236938,168.187530518 L206.909790039,169.516799927 L206.656204224,170.777313232 L206.776153564,171.826629639 L207.260604858,172.549209595 L208.094772339,172.880950928 L209.255157471,172.778320312 L210.673965454,172.238571167 L212.243911743,171.299438477 L213.828659058,170.060348511 L215.27571106,168.662734985 L216.466278076,167.295501709 L217.336425781,166.107315063 L217.857116699,165.208129883 L218.059173584,164.66418457 L217.995452881,164.511672974 L217.72567749,164.759872437 L217.315917969,165.432540894 L216.848510742,166.493988037 L216.403808594,167.837890625 L216.076919556,169.313720703 L215.971862793,170.744430542 L216.136962891,171.958145142 L216.557647705,172.866790771 L217.030807495,173.422286987 L217.391540527,173.676391602 " fill="none" stroke="white" stroke-linecap="round" stroke-width="2" /><path d="M222.89364624,164.610549927 L222.928375244,164.899963379 L222.956863403,165.545730591 L222.944976807,166.578643799 L222.854370117,167.887252808 L222.697784424,169.292266846 L222.522140503,170.603485107 L222.363052368,171.676544189 L222.259674072,172.439666748 L222.240997314,172.828765869 L222.321456909,172.808609009 L222.522521973,172.344360352 L222.883270264,171.430953979 L223.403839111,170.128921509 L224.088500977,168.573455811 L224.924636841,166.93397522 L225.879272461,165.38343811 L226.880325317,164.054000854 L227.889221191,163.044769287 L228.858795166,162.418823242 L229.758926392,162.208221436 L230.556640625,162.438323975 L231.206176758,163.094528198 L231.618179321,164.116928101 L231.76361084,165.406539917 L231.669616699,166.824645996 L231.401901245,168.191940308 L231.071685791,169.356369019 L230.777954102,170.233428955 L230.562805176,170.777496338 L230.475708008,170.989700317 L230.568527222,170.88381958 L230.850585938,170.42791748 L231.354400635,169.607940674 L232.084991455,168.481369019 L233.040527344,167.152481079 L234.22845459,165.780181885 L235.65032959,164.530029297 L237.214904785,163.508010864 L238.81854248,162.785964966 L240.32421875,162.398498535 L241.643112183,162.365097046 L242.727706909,162.689331055 L243.576919556,163.360549927 L244.162017822,164.331039429 L244.497756958,165.533126831 L244.603378296,166.867919922 L244.549118042,168.233840942 L244.458969116,169.540237427 L244.442321777,170.697311401 L244.568527222,171.636962891 L244.770355225,172.269805908 L244.953704834,172.602294922 " fill="none" stroke="white" stroke-linecap="round" stroke-width="2" /><path d="M265.366912842,165.444580078 L265.290313721,165.202087402 L265.114990234,164.82093811 L264.788909912,164.363937378 L264.270355225,163.956924438 L263.521270752,163.677124023 L262.540740967,163.590591431 L261.343536377,163.744232178 L260.008575439,164.180419922 L258.641784668,164.891830444 L257.393035889,165.854400635 L256.423461914,167.019393921 L255.865509033,168.293930054 L255.828353882,169.55632019 L256.346008301,170.657165527 L257.402984619,171.432312012 L258.926300049,171.785263062 L260.771881104,171.686904907 L262.711547852,171.16368103 L264.535827637,170.290664673 L266.02432251,169.155715942 L267.048400879,167.847579956 L267.572418213,166.487976074 L267.640441895,165.208679199 L267.326507568,164.137863159 L266.792541504,163.374633789 L266.179382324,162.946975708 L265.679595947,162.779754639 L265.382293701,162.763092041 " fill="none" stroke="white" stroke-linecap="round" stroke-width="2" /><path d="M272.885894775,165.166564941 L273.312133789,164.418731689 L274.026916504,163.108642578 L274.937042236,161.343475342 L275.839416504,159.422790527 L276.630279541,157.503921509 L277.219970703,155.709838867 L277.552185059,154.095321655 L277.623474121,152.746627808 L277.430084229,151.740493774 L277.014465332,151.140991211 L276.414855957,151.0 L275.673583984,151.367538452 L274.823181152,152.277877808 L273.935821533,153.743865967 L273.066955566,155.709472656 L272.291595459,158.063537598 L271.668518066,160.662628174 L271.212005615,163.377349854 L270.896972656,166.083190918 L270.688232422,168.676956177 L270.537536621,171.004714966 L270.415710449,172.918197632 L270.334106445,174.210906982 L270.287506104,174.887481689 " fill="none" stroke="white" stroke-linecap="round" stroke-width="2" /><path d="M268.378936768,169.294876099 L268.326049805,168.869567871 L268.45916748,168.244674683 L268.955291748,167.548690796 L270.026824951,166.992248535 L271.635040283,166.629226685 L273.594024658,166.457336426 L275.31048584,166.40296936 L276.443115234,166.414901733 " fill="none" stroke="white" stroke-linecap="round" stroke-width="2" /><path d="M293.991119385,169.73387146 L294.345855713,169.450439453 L295.005187988,168.844818115 L295.96673584,167.857070923 L297.100189209,166.518463135 L298.340911865,164.881637573 L299.568359375,163.03086853 L300.681854248,161.066268921 L301.596496582,159.114883423 L302.251647949,157.302078247 L302.594512939,155.735107422 L302.630310059,154.495651245 L302.349517822,153.64201355 L301.79309082,153.22946167 L300.997344971,153.325485229 L300.011627197,153.986312866 L298.88394165,155.235565186 L297.688537598,157.025299072 L296.503295898,159.240020752 L295.449005127,161.728607178 L294.623779297,164.324905396 L294.114624023,166.870498657 L293.987701416,169.228881836 L294.279571533,171.263763428 L294.991516113,172.856582642 L296.116760254,173.931472778 L297.581054688,174.436431885 L299.26461792,174.361877441 L301.035614014,173.748382568 L302.749542236,172.673309326 L304.297027588,171.264831543 L305.61505127,169.688583374 L306.642669678,168.126739502 L307.361053467,166.755142212 L307.78894043,165.68687439 L307.972747803,164.96307373 L307.978515625,164.605010986 L307.849456787,164.623855591 L307.597167969,165.07774353 L307.226837158,166.018341064 L306.762756348,167.393096924 L306.271575928,169.031143188 L305.847381592,170.70980835 L305.557952881,172.20954895 L305.470947266,173.303527832 L305.581359863,173.850296021 L305.862976074,173.808395386 L306.173858643,173.44670105 L306.412994385,173.045196533 " fill="none" stroke="white" stroke-linecap="round" stroke-width="2" /><path d="M308.313537598,156.976959229 L308.338775635,156.780090332 L308.439605713,156.6043396 L308.574554443,156.498764038 L308.702148438,156.512451172 " fill="none" stroke="white" stroke-linecap="round" stroke-width="2" /><path d="M319.566436768,167.149429321 L319.388214111,166.784088135 L319.045623779,166.237258911 L318.505249023,165.642929077 L317.784240723,165.205703735 L316.892272949,165.005523682 L315.876739502,165.09513855 L314.81842041,165.478225708 L313.825927734,166.142730713 L313.007049561,167.030334473 L312.462890625,168.021438599 L312.282470703,168.964782715 L312.502929688,169.718505859 L313.124725342,170.167816162 L314.081329346,170.24156189 L315.274749756,169.920410156 L316.566223145,169.239547729 L317.833435059,168.288528442 L318.951660156,167.225128174 L319.830413818,166.202407837 L320.412231445,165.349349976 L320.71496582,164.762283325 L320.785583496,164.489105225 L320.707672119,164.57460022 L320.543487549,165.089889526 L320.317199707,166.06451416 L320.046112061,167.480865479 L319.771942139,169.291244507 L319.530914307,171.375152588 L319.344329834,173.603790283 L319.19708252,175.856567383 L319.002075195,178.007095337 L318.667419434,179.950210571 L318.136199951,181.625946045 L317.384429932,182.966537476 L316.42477417,183.927566528 L315.325164795,184.489318848 L314.138092041,184.642730713 L312.938690186,184.406723022 L311.824249268,183.836837769 L310.95892334,182.876251221 L310.481384277,181.52494812 L310.488525391,179.855117798 L310.772369385,178.342758179 L311.103271484,177.303268433 " fill="none" stroke="white" stroke-linecap="round" stroke-width="2" /><path d="M325.57244873,155.191375732 L325.632232666,155.345672607 L325.697296143,155.717330933 L325.714477539,156.389312744 L325.614196777,157.387512207 L325.37512207,158.682037354 L325.030792236,160.216781616 L324.646240234,161.892715454 L324.290466309,163.602828979 L324.022613525,165.245437622 L323.848571777,166.727264404 L323.753631592,167.941940308 L323.723815918,168.844589233 L323.737030029,169.401565552 L323.80355835,169.589355469 L323.98550415,169.394699097 L324.356994629,168.826004028 L324.996398926,167.9112854 L325.942108154,166.7918396 L327.149536133,165.631088257 L328.519989014,164.584655762 L329.920318604,163.766174316 L331.249725342,163.247848511 L332.429168701,163.054290771 L333.411834717,163.214477539 L334.145843506,163.707611084 L334.609436035,164.498718262 L334.787322998,165.504425049 L334.742584229,166.635620117 L334.567993164,167.799880981 L334.389373779,168.916595459 L334.269287109,169.922622681 L334.278991699,170.741882324 L334.420410156,171.281921387 L334.677276611,171.49055481 L334.940216064,171.467956543 L335.141662598,171.344390869 " fill="none" stroke="white" stroke-linecap="round" stroke-width="2" /><path class="linestart" d="M342.636444092,153.254119873 L342.730499268,153.30859375 L342.874511719,153.568115234 L343.005981445,154.168258667 L343.037353516,155.193557739 L342.943969727,156.627456665 L342.735687256,158.384689331 L342.48651123,160.341949463 L342.287628174,162.371353149 L342.17956543,164.341247559 L342.155609131,166.134368896 L342.1980896,167.662689209 L342.261657715,168.84034729 L342.304138184,169.622299194 L342.312438965,170.012619019 L342.296325684,170.121948242 L342.26751709,170.08883667 " fill="none" stroke="white" stroke-linecap="round" stroke-width="2" /><path d="M0,0 " fill="none" stroke="white" stroke-linecap="round" stroke-width="2" /><path d="M47.1603813171,214.904663086 L47.1503143311,215.045196533 L47.0915679932,215.428939819 L46.9637527466,216.143707275 L46.7647895813,217.194381714 L46.5041618347,218.50567627 L46.207988739,219.975280762 L45.8821258545,221.480926514 L45.5642662048,222.880340576 L45.3064193726,224.028991699 L45.1563491821,224.819641113 L45.1019210815,225.239974976 L45.1116981506,225.385681152 " fill="none" stroke="white" stroke-linecap="round" stroke-width="2" /><path d="M48.0827713013,207.026824951 L48.0138015747,206.799636841 L47.9478912354,206.540496826 L47.9038619995,206.331115723 L47.9005241394,206.253173828 " fill="none" stroke="white" stroke-linecap="round" stroke-width="2" /><path d="M54.6989593506,206.0 L54.7012863159,206.310394287 L54.6419181824,206.985336304 L54.4825668335,208.080047607 L54.2099113464,209.539916992 L53.8440246582,211.289413452 L53.4224472046,213.254302979 L52.9923400879,215.360626221 L52.5964813232,217.51550293 L52.2852859497,219.594665527 L52.1172218323,221.474075317 L52.0895462036,223.051345825 L52.158870697,224.224105835 L52.2809906006,224.934463501 L52.3897628784,225.174575806 L52.4522666931,225.115890503 L52.4818153381,224.950424194 " fill="none" stroke="white" stroke-linecap="round" stroke-width="2" /><path d="M49.5870895386,216.673995972 L49.8743972778,216.668487549 L50.5878868103,216.678863525 L51.8082847595,216.712142944 L53.4874191284,216.768417358 L55.4177970886,216.832366943 L57.3358306885,216.904098511 L58.8164176941,216.963806152 L59.6989822388,217.005584717 " fill="none" stroke="white" stroke-linecap="round" stroke-width="2" /><path d="M79.5074615479,216.48866272 L79.3328704834,216.326385498 L78.999671936,216.080718994 L78.4759750366,215.820678711 L77.7380142212,215.663696289 L76.7524490356,215.695953369 L75.512260437,215.98046875 L74.106918335,216.558181763 L72.6477127075,217.455749512 L71.277633667,218.65171814 L70.1217803955,220.077880859 L69.2769012451,221.620941162 L68.9428100586,223.138076782 L69.2752151489,224.476867676 L70.2784118652,225.521179199 L71.458480835,226.181015015 L72.4022521973,226.496627808 " fill="none" stroke="white" stroke-linecap="round" stroke-width="2" /><path d="M88.9539413452,218.339035034 L88.80859375,218.07963562 L88.5195083618,217.694534302 L88.0344696045,217.285430908 L87.3442230225,217.030578613 L86.4171829224,217.02671814 L85.2502975464,217.347747803 L83.8852539062,218.008117676 L82.4506759644,218.991363525 L81.0997695923,220.235748291 L80.0261306763,221.645507812 L79.3668518066,223.088882446 L79.1913299561,224.421859741 L79.5099487305,225.51348877 L80.2826004028,226.260787964 L81.4385223389,226.601959229 L82.8814544678,226.506881714 L84.4895019531,225.978424072 L86.1363830566,225.050613403 L87.7123413086,223.806045532 L89.1214294434,222.35585022 L90.294052124,220.84463501 L91.1639556885,219.420959473 L91.7236938477,218.225860596 L92.0171966553,217.332199097 L92.1082382202,216.777130127 L92.0857467651,216.573944092 L91.9895553589,216.757492065 L91.8073043823,217.37071228 L91.5461730957,218.435028076 L91.2594146729,219.863525391 L91.0017776489,221.51020813 L90.8762054443,223.20375061 L90.9246292114,224.768859863 L91.1207809448,226.069702148 L91.347869873,226.958877563 L91.525138855,227.425445557 " fill="none" stroke="white" stroke-linecap="round" stroke-width="2" /><path d="M96.7295913696,216.85887146 L96.7552261353,216.79234314 L96.7888641357,216.854492188 L96.7979354858,217.189941406 L96.7339706421,217.903640747 L96.5818328857,218.947006226 L96.3460388184,220.20703125 L96.0547485352,221.505386353 L95.7922515869,222.693206787 L95.6054000854,223.65234375 L95.5010147095,224.300643921 L95.4801254272,224.589492798 L95.5271453857,224.491165161 L95.6250534058,223.966445923 L95.8144607544,223.040222168 L96.1228485107,221.815505981 L96.5530929565,220.44190979 L97.1133041382,219.076644897 L97.7877883911,217.834365845 L98.5480728149,216.763061523 L99.4423980713,215.908981323 L100.49042511,215.313064575 L101.65687561,214.988800049 L102.665542603,214.87588501 L103.337234497,214.882034302 " fill="none" stroke="white" stroke-linecap="round" stroke-width="2" /><path d="M106.576957703,215.97052002 L106.584449768,216.150878906 L106.608886719,216.547424316 L106.629669189,217.205993652 L106.603797913,218.104797363 L106.455543518,219.204666138 L106.139862061,220.452789307 L105.680114746,221.781356812 L105.17350769,223.055419922 L104.730003357,224.155487061 L104.427909851,224.959732056 L104.278366089,225.36895752 L104.250358582,225.316970825 L104.347854614,224.769104004 L104.604766846,223.715164185 L105.060295105,222.271072388 L105.718528748,220.616851807 L106.552185059,218.946548462 L107.492553711,217.420074463 L108.502891541,216.148681641 L109.538566589,215.184555054 L110.576034546,214.557952881 L111.59160614,214.277023315 L112.567306519,214.301803589 L113.491882324,214.55657959 L114.376235962,214.955566406 L115.199684143,215.383956909 L115.96497345,215.741485596 L116.683631897,215.949310303 L117.360397339,215.936889648 L117.996131897,215.66217041 L118.579406738,215.150482178 L119.060134888,214.467803955 L119.409988403,213.748947144 L119.613121033,213.152633667 L119.653862,212.83114624 L119.524467468,212.898010254 L119.205863953,213.44039917 L118.68309021,214.457870483 L117.998512268,215.86428833 L117.219261169,217.522384644 L116.446273804,219.276168823 L115.7940979,220.973098755 L115.329925537,222.519683838 L115.082771301,223.753829956 L115.050796509,224.528686523 L115.180633545,224.775009155 L115.357551575,224.672454834 L115.502204895,224.440124512 " fill="none" stroke="white" stroke-linecap="round" stroke-width="2" /><path d="M117.81652832,208.812545776 L117.891082764,208.734375 L118.084075928,208.693878174 L118.320251465,208.697601318 L118.524330139,208.752090454 " fill="none" stroke="white" stroke-linecap="round" stroke-width="2" /><path d="M123.931335449,221.483581543 L124.385536194,221.216873169 L125.192199707,220.681182861 L126.265800476,219.873153687 L127.367393494,218.896102905 L128.332122803,217.862716675 L129.036102295,216.863708496 L129.459899902,215.969940186 L129.590606689,215.224441528 L129.423858643,214.663375854 L128.931732178,214.329528809 L128.096496582,214.279083252 L126.933601379,214.552841187 L125.546890259,215.181396484 L124.088638306,216.145614624 L122.755203247,217.389373779 L121.707702637,218.813400269 L121.067550659,220.313583374 L120.913795471,221.770690918 L121.259124756,223.069503784 L122.187232971,224.07472229 L123.677787781,224.694824219 L125.587493896,224.898742676 L127.324325562,224.841094971 L128.512069702,224.692611694 " fill="none" stroke="white" stroke-linecap="round" stroke-width="2" /><path d="M139.381256104,215.605163574 L139.081176758,215.313400269 L138.467163086,214.97102356 L137.506393433,214.731170654 L136.301940918,214.767242432 L135.003341675,215.07661438 L133.856796265,215.604202271 L133.029541016,216.258422852 L132.672302246,216.996154785 L132.841491699,217.775161743 L133.521942139,218.5625 L134.631713867,219.334396362 L136.049209595,220.075073242 L137.548095703,220.776763916 L138.937896729,221.433914185 L140.056518555,222.048141479 L140.786224365,222.603469849 L141.053009033,223.083770752 L140.813171387,223.482772827 L140.020202637,223.797409058 L138.700653076,224.019439697 L137.01411438,224.169448853 L135.206497192,224.259414673 L133.749954224,224.304458618 L132.871002197,224.325485229 " fill="none" stroke="white" stroke-linecap="round" stroke-width="2" /><path d="M157.537414551,215.325714111 L157.566040039,215.442337036 L157.597869873,215.765472412 L157.623626709,216.377502441 L157.638031006,217.283340454 L157.677459717,218.407485962 L157.760040283,219.614624023 L157.926727295,220.762802124 L158.228668213,221.723205566 L158.71862793,222.399765015 L159.432525635,222.713119507 L160.388031006,222.620452881 L161.52911377,222.121231079 L162.781860352,221.27355957 L164.035186768,220.176055908 L165.172424316,218.970336914 L166.087158203,217.81022644 L166.745117188,216.824584961 L167.123382568,216.108306885 L167.264648438,215.740142822 L167.205657959,215.774932861 L166.965362549,216.285217285 L166.53326416,217.350860596 L165.94519043,218.969604492 L165.222900391,221.078384399 L164.440856934,223.575958252 L163.660614014,226.319519043 L162.928497314,229.173950195 L162.236114502,232.001403809 L161.579498291,234.631546021 L160.91418457,236.914581299 L160.203643799,238.729782104 L159.401062012,239.999542236 L158.46697998,240.709487915 L157.376434326,240.878387451 L156.171173096,240.546401978 L154.925231934,239.774307251 L153.735443115,238.620849609 L152.712860107,237.181945801 L151.921539307,235.577728271 L151.489257812,233.861877441 L151.513031006,232.111190796 L152.012115479,230.401382446 L152.673309326,229.044128418 L153.234710693,228.199905396 " fill="none" stroke="white" stroke-linecap="round" stroke-width="2" /><path d="M174.869445801,215.777603149 L174.721008301,215.529968262 L174.398895264,215.193939209 L173.849487305,214.894363403 L173.045928955,214.820892334 L171.991760254,215.085403442 L170.721405029,215.751037598 L169.32913208,216.807891846 L168.002685547,218.186172485 L166.956695557,219.731246948 L166.365722656,221.248764038 L166.367431641,222.561981201 L166.960998535,223.531341553 L168.062713623,224.079391479 L169.527862549,224.171112061 L171.184844971,223.80267334 L172.839294434,223.008392334 L174.355773926,221.876724243 L175.590423584,220.53793335 L176.467590332,219.159423828 L176.94128418,217.914337158 L177.05569458,216.935119629 L176.906951904,216.288101196 L176.685424805,215.954605103 L176.508026123,215.839065552 " fill="none" stroke="white" stroke-linecap="round" stroke-width="2" /><path d="M181.868347168,216.125808716 L181.742004395,216.195449829 L181.475524902,216.470733643 L181.056945801,217.062683105 L180.540130615,218.014450073 L180.004821777,219.247085571 L179.563262939,220.622772217 L179.308441162,221.973068237 L179.283935547,223.140670776 L179.511016846,223.998886108 L180.003051758,224.46925354 L180.752532959,224.498733521 L181.743041992,224.072967529 L182.925079346,223.218276978 L184.180358887,222.016784668 L185.38293457,220.600479126 L186.42791748,219.152740479 L187.23550415,217.851303101 L187.785705566,216.819488525 L188.110229492,216.126815796 L188.251190186,215.820465088 L188.237823486,215.940887451 L188.083435059,216.533309937 L187.808258057,217.59614563 L187.465911865,219.00982666 L187.156982422,220.571777344 L187.003601074,222.055969238 L187.072265625,223.293182373 L187.4112854,224.135009766 L188.006134033,224.516952515 L188.792205811,224.445098877 L189.513946533,224.147003174 L190.014556885,223.834899902 " fill="none" stroke="white" stroke-linecap="round" stroke-width="2" /><path d="M194.213867188,216.879928589 L194.214904785,216.887481689 L194.176757812,217.089294434 L194.041595459,217.625518799 L193.754394531,218.55796814 L193.310699463,219.769546509 L192.765594482,221.056671143 L192.222167969,222.209671021 L191.781829834,223.091567993 L191.500976562,223.636749268 L191.390991211,223.813491821 L191.452148438,223.583816528 L191.685028076,222.895111084 L192.121124268,221.755279541 L192.766357422,220.274520874 L193.635040283,218.641372681 L194.715576172,217.04914856 L196.000152588,215.647232056 L197.451293945,214.50604248 L199.049346924,213.671981812 L200.677825928,213.152664185 L202.219329834,212.933303833 L203.383636475,212.907302856 L204.068878174,212.962692261 " fill="none" stroke="white" stroke-linecap="round" stroke-width="2" /><path d="M220.207763672,206.050354004 L220.057189941,206.403533936 L219.777679443,207.159057617 L219.353637695,208.39225769 L218.797943115,210.057601929 L218.103973389,212.079345703 L217.278625488,214.333099365 L216.395568848,216.668716431 L215.545654297,218.935882568 L214.827148438,220.966842651 L214.286102295,222.636154175 L213.948913574,223.857772827 L213.783721924,224.571182251 L213.800964355,224.739486694 L214.012207031,224.355865479 L214.450134277,223.42427063 L215.105377197,222.042480469 L215.982513428,220.377609253 L217.037414551,218.613983154 L218.223205566,216.946166992 L219.497375488,215.531417847 L220.809265137,214.483413696 L222.069946289,213.887268066 L223.195404053,213.786376953 L224.0987854,214.183502197 L224.704833984,215.05909729 L224.996765137,216.354858398 L225.004516602,217.967285156 L224.797180176,219.783309937 L224.483856201,221.629776001 L224.184509277,223.338195801 L223.977874756,224.608596802 L223.880706787,225.34475708 " fill="none" stroke="white" stroke-linecap="round" stroke-width="2" /><path d="M228.153106689,221.665512085 L228.374633789,221.702911377 L228.90045166,221.731643677 L229.773712158,221.688964844 L230.953948975,221.49836731 L232.311889648,221.122512817 L233.72845459,220.570175171 L235.093719482,219.882705688 L236.32019043,219.11088562 L237.291107178,218.295059204 L237.948028564,217.459335327 L238.213806152,216.649963379 L238.079162598,215.928955078 L237.552764893,215.384674072 L236.670471191,215.109954834 L235.468811035,215.186965942 L234.042999268,215.654998779 L232.514801025,216.530822754 L231.062744141,217.768356323 L229.865600586,219.285217285 L229.08291626,220.942962646 L228.816955566,222.58392334 L229.119232178,224.054504395 L229.962005615,225.261154175 L231.366729736,226.082595825 L233.238800049,226.460891724 L235.403045654,226.390533447 L237.268432617,226.093582153 L238.494903564,225.779495239 " fill="none" stroke="white" stroke-linecap="round" stroke-width="2" /><path d="M246.004821777,217.171737671 L245.720153809,216.910263062 L245.198577881,216.638702393 L244.409057617,216.528305054 L243.398345947,216.787765503 L242.188995361,217.452835083 L240.902618408,218.473312378 L239.704681396,219.717330933 L238.761322021,221.076080322 L238.162780762,222.39793396 L237.941986084,223.558273315 L238.07131958,224.437240601 L238.530548096,224.932739258 L239.304656982,224.967895508 L240.348693848,224.523101807 L241.580505371,223.631103516 L242.901885986,222.395355225 L244.195159912,220.951446533 L245.359863281,219.451858521 L246.320678711,218.061782837 L247.032073975,216.90397644 L247.462493896,216.05809021 L247.638122559,215.578170776 L247.602905273,215.49961853 L247.384216309,215.862228394 L247.015167236,216.719924927 L246.554656982,218.038513184 L246.051544189,219.685440063 L245.608795166,221.461074829 L245.321929932,223.151947021 L245.257629395,224.592849731 L245.466369629,225.666992188 L246.005340576,226.280227661 L246.873565674,226.354293823 L248.034820557,225.863540649 L249.388153076,224.866394043 L250.776977539,223.504364014 L252.052276611,221.948272705 L253.126098633,220.367721558 L253.954681396,218.895294189 L254.546264648,217.623428345 L254.93157959,216.626205444 L255.125793457,215.96244812 L255.155212402,215.686630249 L255.035217285,215.840240479 L254.772644043,216.441970825 L254.379211426,217.446090698 L253.891113281,218.764984131 L253.360473633,220.255462646 L252.864562988,221.757919312 L252.460723877,223.108612061 L252.187042236,224.191741943 L252.046844482,224.927307129 L252.032104492,225.279434204 L252.107757568,225.212646484 L252.263519287,224.71333313 L252.476501465,223.774932861 L252.751098633,222.472579956 L253.085113525,220.930252075 L253.502502441,219.290847778 L253.977050781,217.673538208 L254.509643555,216.199661255 L255.081451416,214.947769165 L255.697814941,213.977508545 L256.368621826,213.315475464 L257.151641846,212.955062866 L258.058868408,212.855743408 L259.093963623,212.99508667 L260.236206055,213.273162842 L261.409606934,213.539886475 L262.519958496,213.66166687 L263.368133545,213.643341064 L263.870513916,213.544754028 " fill="none" stroke="white" stroke-linecap="round" stroke-width="2" /><path d="M269.567810059,206.266693115 L269.63659668,206.425125122 L269.721405029,206.843780518 L269.76751709,207.628921509 L269.689331055,208.785018921 L269.447570801,210.270294189 L269.023193359,212.009994507 L268.447418213,213.922546387 L267.795318604,215.931716919 L267.137573242,217.972976685 L266.528564453,219.948074341 L266.02166748,221.796051025 L265.630157471,223.423324585 L265.353668213,224.737060547 L265.194061279,225.678466797 L265.120849609,226.229064941 L265.097839355,226.46156311 " fill="none" stroke="white" stroke-linecap="round" stroke-width="2" /><path class="linestart" d="M263.667236328,218.414337158 L263.733856201,218.040802002 L264.072845459,217.492523193 L264.823608398,216.880004883 L266.095977783,216.371414185 L267.779418945,215.988922119 L269.650146484,215.718307495 L271.195495605,215.53843689 L272.170654297,215.444351196 " fill="none" stroke="white" stroke-linecap="round" stroke-width="2" /></svg>