<?xml version="1.0" encoding="utf-8" ?>
<svg baseProfile="full" height="100%" version="1.1" viewBox="0,0,511,220" width="100%" xmlns="http://www.w3.org/2000/svg" xmlns:ev="http://www.w3.org/2001/xml-events" xmlns:xlink="http://www.w3.org/1999/xlink"><defs /><path d="M0,0 " fill="none" stroke="white" stroke-linecap="round" stroke-width="2" /><path d="M39.6172676086,50.232219696 L39.597366333,50.2026557922 L39.6003417969,50.3120956421 L39.6498603821,50.7001838684 L39.7741928101,51.4889678955 L39.9793167114,52.6567115784 L40.2819519043,54.0839538574 L40.6993408203,55.597026825 L41.2594680786,57.0186080933 L41.973323822,58.1853485107 L42.8377113342,58.9764213562 L43.8401489258,59.2909698486 L44.9584846497,59.0704879761 L46.1446533203,58.3182296753 L47.3072853088,57.1101303101 L48.3336296082,55.6026077271 L49.1005058289,53.9968719482 L49.5544471741,52.5103263855 L49.7314910889,51.2980957031 L49.7305183411,50.4518508911 L49.6137161255,50.011554718 L49.4261817932,50.0088195801 L49.1383781433,50.4896316528 L48.7497367859,51.5271644592 L48.3170127869,53.1336402893 L47.9247703552,55.2634658813 L47.6123695374,57.8162384033 L47.4000358582,60.6558532715 L47.2317276001,63.6347999573 L47.0753822327,66.6163253784 L46.9195098877,69.4387283325 L46.7401618958,71.9362106323 L46.4904747009,73.9719238281 L46.1341705322,75.4477081299 L45.6334915161,76.319190979 L44.9889945984,76.5984268188 L44.2481956482,76.2386474609 L43.4752655029,75.276473999 L42.7466850281,73.8476638794 L42.2047386169,72.4720306396 L41.8962745667,71.5055389404 " fill="none" stroke="white" stroke-linecap="round" stroke-width="2" /><path d="M58.8966369629,50.2397422791 L58.7765922546,49.8990058899 L58.5102615356,49.4274406433 L58.0288238525,48.9828605652 L57.2936401367,48.8057174683 L56.2654380798,49.0049743652 L54.9848251343,49.6368179321 L53.5822639465,50.6803627014 L52.2366104126,52.0580635071 L51.1760749817,53.650604248 L50.589630127,55.3049736023 L50.5745315552,56.8596191406 L51.1345214844,58.1516151428 L52.1864967346,59.0420570374 L53.602481842,59.422290802 L55.2749099731,59.2434272766 L57.0521392822,58.502281189 L58.7692070007,57.2736778259 L60.2354621887,55.6977844238 L61.2778816223,53.9751014709 L61.7862243652,52.312877655 L61.8069877625,50.8967437744 L61.4487953186,49.806060791 L61.0017356873,49.1135826111 L60.6616249084,48.7680282593 " fill="none" stroke="white" stroke-linecap="round" stroke-width="2" /><path d="M67.0909423828,48.2392807007 L67.0180740356,48.3866767883 L66.856842041,48.7857131958 L66.5657196045,49.5461044312 L66.1455688477,50.6847763062 L65.6306610107,52.1360168457 L65.1168060303,53.759677887 L64.7313232422,55.377281189 L64.617767334,56.8035697937 L64.8621292114,57.8894004822 L65.4945068359,58.5136871338 L66.4897460938,58.6084671021 L67.7996139526,58.1433563232 L69.342124939,57.1390113831 L71.0101623535,55.6860275269 L72.660987854,53.9595451355 L74.1256790161,52.2022819519 L75.2610549927,50.6513404846 L76.0111618042,49.4548568726 L76.4105072021,48.6882095337 L76.5257110596,48.3921585083 L76.4452514648,48.60389328 L76.2263183594,49.3716888428 L75.8916320801,50.669883728 L75.5394515991,52.3906173706 L75.2987136841,54.3200416565 L75.2462615967,56.2115478516 L75.3371200562,57.6586456299 L75.4785079956,58.5134048462 " fill="none" stroke="white" stroke-linecap="round" stroke-width="2" /><path d="M101.558067322,51.0894470215 L101.515518188,50.6525764465 L101.408294678,49.9876213074 L101.194114685,49.2114372253 L100.838264465,48.5276679993 L100.305603027,48.0147399902 L99.5347137451,47.747844696 L98.5026779175,47.7843551636 L97.2295303345,48.1942863464 L95.7904052734,48.9993667603 L94.3128890991,50.1801948547 L92.9639511108,51.6823768616 L91.883644104,53.399230957 L91.2117767334,55.17710495 L91.0505905151,56.8222961426 L91.4298477173,58.124332428 L92.3023910522,58.9179725647 L93.5680541992,59.1004714966 L95.0765457153,58.6518936157 L96.7011184692,57.639919281 L98.3504714966,56.2095146179 L99.9110565186,54.5399017334 L101.280075073,52.8541183472 L102.357620239,51.3480873108 L103.096435547,50.1719474792 L103.508094788,49.4144630432 L103.65007782,49.1335792542 L103.588027954,49.3471755981 L103.373252869,50.0775604248 L103.054168701,51.296131134 L102.719779968,52.8960990906 L102.46446991,54.6964645386 L102.390151978,56.4896736145 L102.565261841,58.0563964844 L102.96509552,59.2415618896 L103.398651123,59.9665756226 L103.724578857,60.2941818237 " fill="none" stroke="white" stroke-linecap="round" stroke-width="2" /><path d="M110.631599426,49.1972694397 L110.648239136,49.2346916199 L110.654190063,49.4968986511 L110.590744019,50.1400260925 L110.397209167,51.2456703186 L110.017791748,52.7203216553 L109.483978271,54.3911437988 L108.874504089,56.014377594 L108.316444397,57.3978652954 L107.896286011,58.3970985413 L107.671714783,58.9136199951 L107.632835388,58.8692359924 L107.755912781,58.22240448 L108.010749817,56.9575004578 L108.393348694,55.2268104553 L108.874809265,53.2696838379 L109.43032074,51.34034729 L110.051780701,49.645236969 L110.732124329,48.2970733643 L111.488342285,47.3225250244 L112.361442566,46.7546310425 L113.364929199,46.5990600586 L114.506828308,46.8123130798 L115.807327271,47.3088684082 L117.292434692,47.9956054688 L118.913337708,48.7664985657 L120.553070068,49.5296859741 L121.857345581,50.1250228882 L122.651878357,50.4863014221 " fill="none" stroke="white" stroke-linecap="round" stroke-width="2" /><path d="M119.86151886,54.2272109985 L120.04536438,54.3295249939 L120.52091217,54.4024810791 L121.372055054,54.3464279175 L122.598953247,54.0688552856 L124.109825134,53.5874481201 L125.730628967,52.9421653748 L127.284675598,52.1949386597 L128.619644165,51.3978157043 L129.613464355,50.5955429077 L130.19367981,49.8272285461 L130.298294067,49.1460037231 L129.855728149,48.6096076965 L128.864593506,48.3116378784 L127.357673645,48.3479347229 L125.479675293,48.7984886169 L123.433479309,49.6685752869 L121.475471497,50.9002189636 L119.842514038,52.3886566162 L118.749664307,54.0283699036 L118.335823059,55.6932792664 L118.708328247,57.2558784485 L119.884674072,58.5756835938 L121.801467896,59.5427398682 L124.348800659,60.0596237183 L127.237854004,60.1300735474 L130.129318237,59.8243522644 L132.387756348,59.3988685608 L133.739120483,59.0505828857 " fill="none" stroke="white" stroke-linecap="round" stroke-width="2" /><path d="M150.344741821,43.1001739502 L150.219268799,43.6301689148 L150.025604248,44.6404075623 L149.792633057,46.1293869019 L149.55368042,47.9362373352 L149.282699585,49.9533195496 L148.952133179,52.0588874817 L148.588302612,54.1504745483 L148.213027954,56.0653762817 L147.881668091,57.6347007751 L147.619125366,58.7309799194 L147.446670532,59.3373641968 L147.350219727,59.5669631958 " fill="none" stroke="white" stroke-linecap="round" stroke-width="2" /><path d="M144.237976074,49.6462249756 L144.445968628,49.663860321 L145.005645752,49.7358856201 L146.056991577,49.8702926636 L147.650543213,50.0350532532 L149.643600464,50.1652755737 L151.762969971,50.215045929 L153.473678589,50.2010650635 L154.514266968,50.1621437073 " fill="none" stroke="white" stroke-linecap="round" stroke-width="2" /><path d="M158.515304565,41.0305557251 L158.664779663,41.2072105408 L158.866241455,41.6782035828 L159.025619507,42.5603675842 L159.029403687,43.8905181885 L158.835388184,45.6216125488 L158.445648193,47.6474838257 L157.937774658,49.8175125122 L157.395355225,51.9334716797 L156.915298462,53.7995491028 L156.58114624,55.2654571533 L156.425247192,56.2280349731 L156.464813232,56.6527786255 L156.705673218,56.5517730713 L157.140670776,55.9354934692 L157.764099121,54.8801422119 L158.532394409,53.5374336243 L159.385528564,52.085899353 L160.289321899,50.703792572 L161.233291626,49.5317459106 L162.230819702,48.6383743286 L163.278106689,48.065990448 L164.329467773,47.8408660889 L165.320205688,47.9767913818 L166.170227051,48.4790878296 L166.812225342,49.3477172852 L167.216491699,50.5521392822 L167.381759644,52.0128250122 L167.344558716,53.5952644348 L167.186431885,55.1166725159 L166.992248535,56.4049377441 L166.83821106,57.2828826904 L166.756256104,57.74036026 " fill="none" stroke="white" stroke-linecap="round" stroke-width="2" /><path d="M170.458770752,55.2058792114 L170.699981689,55.2083778381 L171.2552948,55.1512908936 L172.18862915,54.9633102417 L173.429260254,54.5860671997 L174.839035034,54.0044555664 L176.286148071,53.2410049438 L177.654067993,52.3490867615 L178.83895874,51.389541626 L179.759429932,50.4173049927 L180.329040527,49.5017776489 L180.48260498,48.7065620422 L180.214950562,48.1038017273 L179.534042358,47.7741546631 L178.473892212,47.7876586914 L177.100021362,48.1990242004 L175.540313721,49.0307731628 L173.976989746,50.2327079773 L172.622039795,51.6937255859 L171.680786133,53.2783546448 L171.302276611,54.8361968994 L171.558670044,56.2400932312 L172.481689453,57.4019737244 L174.022613525,58.2539825439 L176.153823853,58.7219543457 L178.720932007,58.8028488159 L181.471557617,58.5447311401 L183.730728149,58.1679382324 L185.15562439,57.856502533 " fill="none" stroke="white" stroke-linecap="round" stroke-width="2" /><path d="M203.156616211,49.1722106934 L203.085494995,48.9434623718 L202.906158447,48.5841255188 L202.55241394,48.1629905701 L201.955078125,47.806804657 L201.087524414,47.5922851562 L199.979492188,47.5670547485 L198.776596069,47.7477455139 L197.661376953,48.1266555786 L196.817199707,48.6731872559 L196.365341187,49.3454170227 L196.367416382,50.1173706055 L196.808242798,50.944393158 L197.65826416,51.7991485596 L198.822937012,52.6527519226 L200.196563721,53.4841384888 L201.656402588,54.2762374878 L203.061935425,55.0244407654 L204.27204895,55.6981773376 L205.186248779,56.2954139709 L205.708618164,56.8169021606 L205.798080444,57.2782173157 L205.437133789,57.6911239624 L204.625198364,58.0532836914 L203.397598267,58.3273048401 L201.860595703,58.4823799133 L200.160049438,58.4882507324 L198.476730347,58.3565330505 L197.008575439,58.0870819092 L195.906936646,57.6939620972 L195.251754761,57.2112770081 L194.977218628,56.7781295776 L194.938415527,56.4793739319 " fill="none" stroke="white" stroke-linecap="round" stroke-width="2" /><path d="M210.790344238,48.36353302 L210.727264404,48.7149467468 L210.581451416,49.4248275757 L210.31942749,50.5050239563 L209.941101074,51.8547439575 L209.46055603,53.3779754639 L208.89831543,54.9317321777 L208.321762085,56.371925354 L207.817230225,57.5582199097 L207.445892334,58.3475608826 L207.26348877,58.6566772461 L207.280044556,58.4785919189 L207.468276978,57.8249740601 L207.830795288,56.7523384094 L208.343597412,55.3691177368 L208.990005493,53.8003616333 L209.763259888,52.1808280945 L210.6509552,50.6586799622 L211.62399292,49.347202301 L212.673034668,48.3413734436 L213.754638672,47.7108459473 L214.852645874,47.5037651062 L215.936935425,47.7363739014 L216.967819214,48.4037132263 L217.866607666,49.4640731812 L218.542266846,50.8366889954 L218.909454346,52.3858032227 L218.937896729,53.962600708 L218.669143677,55.4120788574 L218.217514038,56.609828949 L217.714126587,57.4696540833 L217.280059814,57.93359375 L217.001098633,57.9622573853 L216.910720825,57.5612182617 L217.029388428,56.7551803589 L217.376281738,55.6218338013 L217.967697144,54.2790260315 L218.818267822,52.8472290039 L219.936859131,51.4421615601 L221.284408569,50.1837692261 L222.78729248,49.1747512817 L224.356567383,48.5034255981 L225.891662598,48.2511940002 L227.281448364,48.4497337341 L228.454650879,49.0913314819 L229.345031738,50.1195335388 L229.931945801,51.44506073 L230.242767334,52.9245071411 L230.364501953,54.4404945374 L230.381210327,55.8486480713 L230.398834229,57.0465316772 L230.434936523,57.8789367676 L230.482757568,58.3351898193 " fill="none" stroke="white" stroke-linecap="round" stroke-width="2" /><path d="M241.308395386,52.0907783508 L241.230728149,51.7763366699 L241.055786133,51.2916603088 L240.729202271,50.7270355225 L240.220184326,50.2551345825 L239.503173828,49.9613723755 L238.572036743,49.9124183655 L237.478820801,50.1565284729 L236.329605103,50.7354393005 L235.211929321,51.6416244507 L234.231643677,52.8278579712 L233.46661377,54.1964149475 L233.006546021,55.6066207886 L232.950180054,56.9072227478 L233.343658447,57.9386863708 L234.167510986,58.5680999756 L235.373168945,58.7220611572 L236.853179932,58.3945159912 L238.499923706,57.6398696899 L240.190979004,56.5663414001 L241.761962891,55.2918968201 L243.070617676,53.9497299194 L244.023880005,52.6688232422 L244.609298706,51.5712165833 L244.884338379,50.7374649048 L244.945983887,50.2318954468 L244.878082275,50.0922317505 L244.711593628,50.3526344299 L244.433044434,51.0270767212 L244.073776245,52.1038856506 L243.689788818,53.4832878113 L243.395477295,55.0301933289 L243.35093689,56.554813385 L243.619415283,57.8680877686 L244.172958374,58.8299560547 L244.767486572,59.3940429688 L245.204910278,59.6262321472 " fill="none" stroke="white" stroke-linecap="round" stroke-width="2" /><path d="M254.004348755,41.001159668 L253.858947754,41.376953125 L253.593109131,42.1806106567 L253.207473755,43.4736824036 L252.73248291,45.1891365051 L252.191345215,47.2339630127 L251.639038086,49.4806213379 L251.129043579,51.7904586792 L250.760696411,54.0201301575 L250.609542847,55.9932289124 L250.692459106,57.5773429871 L250.889755249,58.6208496094 L251.085281372,59.1526489258 " fill="none" stroke="white" stroke-linecap="round" stroke-width="2" /><path d="M260.088012695,41.0 L260.142059326,41.0440483093 L260.192199707,41.2891998291 L260.186889648,41.8753662109 L260.050170898,42.8782081604 L259.755126953,44.2572402954 L259.324645996,45.9143676758 L258.82510376,47.7436599731 L258.353820801,49.6500740051 L258.009124756,51.5545349121 L257.84185791,53.3642883301 L257.868103027,54.9832305908 L258.101776123,56.3142471313 L258.568939209,57.2741508484 L259.312530518,57.7952384949 L260.370330811,57.8479423523 L261.742889404,57.4171600342 L263.360839844,56.5561294556 L265.114196777,55.3541603088 L266.858825684,53.927734375 L268.414520264,52.4086647034 L269.619659424,50.9360847473 L270.363037109,49.5958862305 L270.626617432,48.474937439 L270.457275391,47.6416778564 L269.934448242,47.1567001343 L269.120819092,47.0773010254 L268.081878662,47.4535102844 L266.900665283,48.2618598938 L265.736480713,49.4223365784 L264.753570557,50.8056030273 L264.097015381,52.2641792297 L263.958312988,53.6732788086 L264.416015625,54.9326934814 L265.435516357,55.9601707458 L266.557006836,56.6529693604 L267.414123535,57.0156707764 " fill="none" stroke="white" stroke-linecap="round" stroke-width="2" /><path d="M281.695587158,48.5250854492 L281.401489258,48.2157516479 L280.837860107,47.8291854858 L279.988769531,47.5151367188 L278.944702148,47.4557723999 L277.812896729,47.6577529907 L276.774108887,48.0718078613 L276.015808105,48.6169891357 L275.715240479,49.2551612854 L275.957977295,49.9465141296 L276.734222412,50.6724967957 L277.961608887,51.419708252 L279.478240967,52.1840629578 L281.055206299,52.9644813538 L282.462432861,53.7538070679 L283.487640381,54.5158958435 L283.9949646,55.2146224976 L283.975128174,55.8090820312 L283.465667725,56.2641525269 L282.52722168,56.5473823547 L281.258361816,56.6469192505 L279.747711182,56.5485229492 L278.109527588,56.2640380859 L276.491363525,55.8245239258 L275.072906494,55.2225265503 L273.997039795,54.4737472534 L273.365386963,53.6360740662 L273.108001709,52.9169540405 L273.080871582,52.4444198608 " fill="none" stroke="white" stroke-linecap="round" stroke-width="2" /><path d="M292.053161621,41.6201324463 L292.135253906,41.756401062 L292.2003479,42.1614685059 L292.164367676,42.9492645264 L291.953796387,44.1393508911 L291.580474854,45.6565055847 L291.100372314,47.3928070068 L290.589019775,49.2386856079 L290.133178711,51.1074562073 L289.786376953,52.8823394775 L289.568450928,54.4262542725 L289.46496582,55.5182647705 L289.435424805,56.1147460938 " fill="none" stroke="white" stroke-linecap="round" stroke-width="2" /><path d="M284.1300354,48.7139434814 L284.477416992,48.6619758606 L285.248901367,48.60496521 L286.514404297,48.5840759277 L288.279388428,48.6587944031 L290.429138184,48.8411521912 L292.759918213,49.0983810425 L294.698974609,49.3381233215 L295.936950684,49.498298645 " fill="none" stroke="white" stroke-linecap="round" stroke-width="2" /><path d="M318.421203613,50.0106163025 L318.255432129,49.7807540894 L317.952789307,49.4414367676 L317.483062744,49.069190979 L316.84085083,48.8022384644 L315.996368408,48.7215538025 L314.936859131,48.8941230774 L313.705169678,49.3692169189 L312.385528564,50.1707000732 L311.092041016,51.2744560242 L309.982147217,52.6133918762 L309.244415283,54.0841140747 L309.024047852,55.5441131592 L309.406280518,56.8318328857 L310.366851807,57.7937812805 L311.811035156,58.3300132751 L313.607177734,58.3883590698 L315.619445801,57.9760131836 L317.686309814,57.1470375061 L319.628845215,55.9806632996 L321.267730713,54.5892486572 L322.459442139,53.1117935181 L323.110046387,51.664768219 L323.199401855,50.3527030945 L322.754333496,49.2783355713 L321.897216797,48.5076980591 L320.825714111,48.0726203918 L319.897918701,47.9083175659 L319.306793213,47.898639679 " fill="none" stroke="white" stroke-linecap="round" stroke-width="2" /><path d="M327.211608887,49.3261184692 L327.249389648,49.2899551392 L327.298492432,49.3634872437 L327.327575684,49.6775016785 L327.258117676,50.3378295898 L327.003540039,51.3386535645 L326.569549561,52.6061897278 L326.019256592,54.018787384 L325.462371826,55.4326515198 L325.02935791,56.7099647522 L324.769592285,57.7317352295 L324.658294678,58.3953781128 L324.673065186,58.6323127747 L324.790496826,58.4097328186 L325.045135498,57.7465171814 L325.468505859,56.715057373 L326.073364258,55.4484710693 L326.841949463,54.0792350769 L327.770111084,52.7395248413 L328.854125977,51.5361366272 L330.088623047,50.566532135 L331.429046631,49.8976554871 L332.811920166,49.5888404846 L334.152435303,49.6582298279 L335.385223389,50.1131210327 L336.4375,50.933265686 L337.227905273,52.0756034851 L337.690582275,53.4393386841 L337.829620361,54.9217529297 L337.720123291,56.376663208 L337.507720947,57.6744308472 L337.323669434,58.6116943359 L337.226867676,59.1411399841 " fill="none" stroke="white" stroke-linecap="round" stroke-width="2" /><path d="M341.943511963,56.1294021606 L342.364990234,55.9309425354 L343.169952393,55.5461502075 L344.280914307,54.9500617981 L345.492462158,54.1804618835 L346.620788574,53.2695846558 L347.539611816,52.2892341614 L348.190765381,51.32006073 L348.549041748,50.4437599182 L348.536956787,49.7222328186 L348.117004395,49.215461731 L347.249420166,48.9878578186 L345.989990234,49.1011428833 L344.466766357,49.6004562378 L342.870758057,50.4735946655 L341.429992676,51.6656837463 L340.381500244,53.0744972229 L339.897003174,54.5828857422 L340.087402344,56.0570259094 L340.947937012,57.3890991211 L342.464660645,58.4579048157 L344.506317139,59.194442749 L346.85458374,59.5722961426 L348.866149902,59.687084198 L350.178222656,59.6609535217 " fill="none" stroke="white" stroke-linecap="round" stroke-width="2" /><path d="M365.376525879,43.0283622742 L365.40423584,42.9774627686 L365.432830811,43.0583534241 L365.426513672,43.4269943237 L365.332214355,44.2177734375 L365.107940674,45.4418258667 L364.749633789,47.030330658 L364.290435791,48.8816146851 L363.7840271,50.8929901123 L363.311096191,52.9545898438 L362.946838379,54.9608688354 L362.735809326,56.8150177002 L362.651000977,58.3818855286 L362.642181396,59.5556144714 L362.622619629,60.2699165344 L362.579071045,60.5866851807 L362.52746582,60.6479034424 " fill="none" stroke="white" stroke-linecap="round" stroke-width="2" /><path d="M359.404815674,51.9065208435 L359.675628662,51.8702583313 L360.311218262,51.8635749817 L361.375762939,51.9268188477 L362.805297852,52.0566215515 L364.394592285,52.1798858643 L365.921081543,52.2354278564 L367.063964844,52.2244338989 L367.716888428,52.1778717041 " fill="none" stroke="white" stroke-linecap="round" stroke-width="2" /><path d="M373.484313965,43.4830627441 L373.616271973,43.5970230103 L373.803894043,43.9383621216 L373.986053467,44.6068649292 L374.049743652,45.6365814209 L373.947174072,46.9926071167 L373.683258057,48.6272163391 L373.286712646,50.4656486511 L372.817199707,52.4122505188 L372.353729248,54.3331375122 L371.928100586,56.0554656982 L371.592010498,57.4327087402 L371.371307373,58.3812294006 L371.269012451,58.8651237488 L371.282958984,58.8921356201 L371.436584473,58.4974441528 L371.734771729,57.7031135559 L372.249206543,56.5947761536 L372.988250732,55.2920150757 L373.946044922,53.9336738586 L375.060424805,52.6486167908 L376.24710083,51.5502281189 L377.420288086,50.6964416504 L378.57699585,50.1511001587 L379.692840576,49.9509277344 L380.768676758,50.12550354 L381.767059326,50.6666870117 L382.622344971,51.5427398682 L383.270904541,52.6861076355 L383.694488525,54.0110778809 L383.912567139,55.4232940674 L383.96307373,56.8366546631 L383.903442383,58.1213378906 L383.79486084,59.1538925171 L383.691253662,59.8391418457 L383.622070312,60.1823997498 L383.598602295,60.2827720642 " fill="none" stroke="white" stroke-linecap="round" stroke-width="2" /><path d="M387.92086792,51.3673286438 L387.957427979,51.3538208008 L388.025726318,51.4744873047 L388.103179932,51.8458099365 L388.142608643,52.5492553711 L388.095977783,53.5570144653 L387.947723389,54.7750892639 L387.741668701,56.1074867249 L387.548095703,57.4229736328 L387.422271729,58.5745315552 L387.384521484,59.4376525879 L387.39944458,59.9496574402 L387.425140381,60.1585121155 " fill="none" stroke="white" stroke-linecap="round" stroke-width="2" /><path d="M389.277923584,45.1669845581 L389.295959473,45.1009216309 L389.329986572,45.0216789246 L389.374908447,44.9528846741 L389.44909668,44.9539642334 L389.563140869,45.0517272949 L389.738098145,45.2666053772 L389.920349121,45.5082969666 L390.060913086,45.7045402527 " fill="none" stroke="white" stroke-linecap="round" stroke-width="2" /><path d="M394.618011475,50.4585838318 L394.549194336,50.7144927979 L394.450317383,51.2552261353 L394.328430176,52.1015052795 L394.17855835,53.179725647 L393.961578369,54.3970108032 L393.6796875,55.6405944824 L393.342102051,56.7948570251 L393.024108887,57.7609367371 L392.789367676,58.4371795654 L392.670288086,58.7568092346 L392.666900635,58.6792182922 L392.782745361,58.1796989441 L393.003936768,57.2731781006 L393.34552002,56.0509567261 L393.829498291,54.6468276978 L394.468322754,53.2119941711 L395.259124756,51.8687934875 L396.193328857,50.6966705322 L397.227233887,49.7538986206 L398.32711792,49.1079978943 L399.47857666,48.8248710632 L400.647155762,48.9377708435 L401.790893555,49.4344596863 L402.839050293,50.2742881775 L403.709472656,51.3943901062 L404.357788086,52.7079277039 L404.779571533,54.1345787048 L405.000061035,55.5845565796 L405.078155518,56.935333252 L405.07510376,58.086856842 L405.046203613,58.8916168213 L405.025909424,59.3223381042 " fill="none" stroke="white" stroke-linecap="round" stroke-width="2" /><path class="linestart" d="M413.492919922,53.877872467 L413.597412109,53.491104126 L413.714508057,52.9481391907 L413.735717773,52.4083137512 L413.534759521,52.0913276672 L413.04876709,52.0829772949 L412.262420654,52.4170570374 L411.282196045,53.0984153748 L410.275939941,54.080657959 L409.40713501,55.2774925232 L408.866485596,56.5367507935 L408.771331787,57.7114486694 L409.173858643,58.6576957703 L410.063079834,59.2700653076 L411.374908447,59.4658279419 L412.937683105,59.2246246338 L414.584564209,58.569606781 L416.116241455,57.5863838196 L417.372070312,56.4021987915 L418.228302002,55.1550674438 L418.673065186,53.9726295471 L418.732116699,52.9592552185 L418.500213623,52.1924667358 L418.089263916,51.741230011 L417.599578857,51.6790046692 L417.084777832,52.0642433167 L416.605316162,52.9095458984 L416.194000244,54.1826248169 L415.8644104,55.8208618164 L415.620117188,57.7633132935 L415.462982178,59.9736061096 L415.354156494,62.3903503418 L415.238342285,64.9062957764 L415.037414551,67.392791748 L414.642883301,69.7169189453 L413.954620361,71.779258728 L412.946350098,73.5135955811 L411.625030518,74.838394165 L410.077972412,75.6963119507 L408.440765381,76.0651931763 L406.829162598,75.8850631714 L405.362487793,75.1951370239 L404.136901855,74.114440918 L403.28338623,73.0523681641 L402.817352295,72.3004684448 " fill="none" stroke="white" stroke-linecap="round" stroke-width="2" /><path d="M0,0 " fill="none" stroke="white" stroke-linecap="round" stroke-width="2" /><path d="M41.3535423279,105.478759766 L41.4257621765,105.520477295 L41.5553512573,105.711097717 L41.7238960266,106.158760071 L41.8862495422,106.935638428 L42.010269165,108.044776917 L42.0932769775,109.430664062 L42.1897697449,110.987670898 L42.3701591492,112.591629028 L42.7236099243,114.094909668 L43.3327560425,115.353317261 L44.2308731079,116.241851807 L45.3890075684,116.653160095 L46.7816085815,116.514938354 L48.3436431885,115.807510376 L50.0050506592,114.567146301 L51.653049469,112.926681519 L53.1406745911,111.097373962 L54.3013000488,109.320449829 L55.065826416,107.798339844 L55.4773101807,106.641448975 L55.6238288879,105.885040283 L55.5591697693,105.56048584 L55.3343429565,105.745079041 L54.9263458252,106.546195984 L54.330532074,108.025390625 L53.6510734558,110.123649597 L52.9459991455,112.66545105 L52.2554168701,115.447654724 L51.6278495789,118.304016113 L51.0370407104,121.111427307 L50.4398193359,123.769294739 L49.8808441162,126.142333984 L49.37840271,128.055114746 L48.9749832153,129.388458252 L48.7231178284,130.13230896 L48.6079940796,130.422363281 " fill="none" stroke="white" stroke-linecap="round" stroke-width="2" /><path d="M65.3335418701,107.262657166 L65.2629928589,106.911972046 L65.0919418335,106.427146912 L64.7345123291,105.947380066 L64.1439590454,105.682800293 L63.2546958923,105.704185486 L62.0910415649,106.068847656 L60.7622642517,106.786705017 L59.4089012146,107.854187012 L58.1729164124,109.214179993 L57.2346725464,110.76272583 L56.6845054626,112.35987854 L56.5936203003,113.864982605 L57.0094680786,115.126937866 L57.9206314087,116.016929626 L59.2927513123,116.44165802 L61.0606613159,116.351463318 L63.0740661621,115.74306488 L65.1179962158,114.67099762 L66.9566116333,113.237480164 L68.3711700439,111.61101532 L69.2370529175,109.982475281 L69.5214080811,108.523536682 L69.295249939,107.333869934 L68.7119293213,106.452079773 L67.9756011963,105.870307922 L67.2743682861,105.562835693 L66.7788925171,105.451858521 L66.5212173462,105.451782227 " fill="none" stroke="white" stroke-linecap="round" stroke-width="2" /><path d="M73.2666397095,105.065238953 L73.2285461426,105.015922546 L73.1671218872,105.086784363 L73.0534896851,105.433250427 L72.8630065918,106.202316284 L72.5713119507,107.400657654 L72.2319641113,108.943054199 L71.9642410278,110.660346985 L71.9123458862,112.361679077 L72.1538467407,113.853393555 L72.7074661255,114.985458374 L73.5343551636,115.638648987 L74.6259841919,115.741027832 L75.9955596924,115.258659363 L77.580581665,114.226280212 L79.251373291,112.747749329 L80.8206634521,110.99836731 L82.1064453125,109.190605164 L83.0211791992,107.538970947 L83.5897445679,106.180725098 L83.8742523193,105.18812561 L83.9768447876,104.594169617 L83.9638824463,104.421737671 L83.8570861816,104.710899353 L83.6582489014,105.535713196 L83.3890228271,106.876358032 L83.1094207764,108.6042099 L82.9356384277,110.514762878 L83.0098724365,112.406738281 L83.392250061,114.104766846 L84.0558776855,115.521774292 L84.7302780151,116.505195618 L85.2152481079,117.042907715 " fill="none" stroke="white" stroke-linecap="round" stroke-width="2" /><path d="M105.061729431,108.312919617 L104.881546021,107.977310181 L104.556510925,107.485984802 L104.071739197,106.950187683 L103.439712524,106.551734924 L102.619941711,106.352470398 L101.595748901,106.405334473 L100.374504089,106.730583191 L99.0360488892,107.364128113 L97.6779708862,108.314590454 L96.4157485962,109.563087463 L95.3648147583,111.042518616 L94.6503448486,112.632492065 L94.3631896973,114.162940979 L94.5765914917,115.457397461 L95.2739334106,116.357872009 L96.3778915405,116.760475159 L97.7688140869,116.616577148 L99.3250579834,115.93762207 L100.907691956,114.798927307 L102.412216187,113.337402344 L103.72895813,111.724365234 L104.773254395,110.150131226 L105.490394592,108.783409119 L105.901077271,107.715805054 L106.061454773,106.988327026 L106.055717468,106.632827759 L105.955848694,106.678794861 L105.795913696,107.174842834 L105.586708069,108.151512146 L105.380256653,109.522705078 L105.230735779,111.122955322 L105.197761536,112.766708374 L105.310150146,114.254150391 L105.542472839,115.445281982 L105.780357361,116.230133057 L105.954055786,116.626342773 " fill="none" stroke="white" stroke-linecap="round" stroke-width="2" /><path d="M111.038703918,107.224624634 L110.996017456,107.444969177 L110.89956665,107.987503052 L110.728561401,108.926605225 L110.471870422,110.217422485 L110.131416321,111.730865479 L109.755187988,113.273399353 L109.419471741,114.651977539 L109.176795959,115.737640381 L109.06918335,116.448783875 L109.083572388,116.737091064 L109.185333252,116.571731567 L109.373275757,115.913764954 L109.67301178,114.765396118 L110.077636719,113.243438721 L110.598068237,111.535812378 L111.200172424,109.824020386 L111.8646698,108.243095398 L112.604354858,106.854789734 L113.452194214,105.67993927 L114.444503784,104.768951416 L115.568115234,104.165237427 L116.742736816,103.869827271 L117.703414917,103.795631409 L118.306510925,103.829986572 " fill="none" stroke="white" stroke-linecap="round" stroke-width="2" /><path d="M119.465553284,112.360992432 L119.618057251,112.358985901 L120.024139404,112.294364929 L120.761482239,112.103347778 L121.811294556,111.735366821 L123.060951233,111.185653687 L124.378799438,110.464324951 L125.650161743,109.616134644 L126.794639587,108.687294006 L127.742782593,107.742225647 L128.418991089,106.840950012 L128.74810791,106.046783447 L128.685668945,105.402488708 L128.214767456,104.95211792 L127.329566956,104.744522095 L126.064987183,104.847236633 L124.499588013,105.290519714 L122.753067017,106.082244873 L120.989700317,107.181983948 L119.39503479,108.52507782 L118.132705688,110.021980286 L117.380187988,111.571006775 L117.312507629,113.045455933 L117.985694885,114.326515198 L119.471710205,115.289375305 L121.647087097,115.874656677 L124.232376099,116.084342957 L126.471138,116.059761047 L127.9425354,115.951591492 " fill="none" stroke="white" stroke-linecap="round" stroke-width="2" /><path d="M148.823623657,109.412063599 L148.980895996,109.006340027 L149.179504395,108.389167786 L149.320129395,107.659912109 L149.285186768,106.99546051 L149.018798828,106.439331055 L148.508758545,106.031524658 L147.782333374,105.825439453 L146.825042725,105.924415588 L145.637420654,106.406227112 L144.280288696,107.306053162 L142.857620239,108.594688416 L141.528991699,110.172851562 L140.482131958,111.895866394 L139.865722656,113.590507507 L139.783859253,115.080368042 L140.275344849,116.207962036 L141.280761719,116.86516571 L142.666732788,116.995521545 L144.26361084,116.589393616 L145.906143188,115.688659668 L147.464599609,114.396949768 L148.828140259,112.860305786 L149.902328491,111.25377655 L150.617584229,109.767715454 L150.990234375,108.536346436 L151.091873169,107.621780396 L151.049926758,107.051261902 L150.969696045,106.859016418 L150.900177002,107.100814819 L150.82081604,107.856262207 L150.737106323,109.119880676 L150.701278687,110.813514709 L150.803222656,112.740844727 L151.107116699,114.681945801 L151.482391357,116.202857971 L151.789901733,117.126609802 " fill="none" stroke="white" stroke-linecap="round" stroke-width="2" /><path d="M170.555603027,97.3266448975 L170.609405518,97.1728744507 L170.668411255,97.1017837524 L170.681945801,97.318977356 L170.59425354,98.0524291992 L170.383728027,99.3607330322 L170.047195435,101.18662262 L169.614273071,103.401992798 L169.115722656,105.867355347 L168.596450806,108.427818298 L168.114212036,110.907943726 L167.719177246,113.099014282 L167.437164307,114.812278748 L167.269042969,115.966094971 L167.174118042,116.562904358 L167.131332397,116.666183472 L167.14251709,116.310829163 L167.264587402,115.512001038 L167.562286377,114.288414001 L168.091323853,112.756607056 L168.868850708,111.065765381 L169.876174927,109.396812439 L171.073760986,107.901367188 L172.430984497,106.713371277 L173.888900757,105.922706604 L175.370834351,105.605781555 L176.778564453,105.779724121 L177.991409302,106.421974182 L178.926925659,107.465179443 L179.508972168,108.811347961 L179.705596924,110.333267212 L179.503738403,111.882415771 L178.915145874,113.320404053 L177.969146729,114.52532959 L176.747421265,115.409515381 L175.316116333,115.918739319 L173.802062988,115.995796204 L172.356384277,115.648849487 L171.139404297,114.978149414 L170.314056396,114.286247253 L169.897033691,113.788337708 " fill="none" stroke="white" stroke-linecap="round" stroke-width="2" /><path d="M180.750411987,113.942878723 L180.99382019,113.971611023 L181.519607544,113.92527771 L182.358917236,113.711914062 L183.45463562,113.266807556 L184.711364746,112.601585388 L186.015686035,111.766067505 L187.255889893,110.809761047 L188.346481323,109.784248352 L189.197006226,108.733695984 L189.770278931,107.721099854 L190.020370483,106.818939209 L189.932891846,106.113517761 L189.484741211,105.683105469 L188.697113037,105.6118927 L187.609619141,105.965377808 L186.340103149,106.762184143 L185.042739868,107.95124054 L183.919631958,109.41960907 L183.125717163,111.009529114 L182.884460449,112.561538696 L183.280410767,113.931388855 L184.264297485,115.01600647 L185.36026001,115.720497131 L186.201187134,116.073303223 " fill="none" stroke="white" stroke-linecap="round" stroke-width="2" /><path d="M199.895065308,109.437568665 L199.715393066,109.062942505 L199.370803833,108.540283203 L198.833358765,108.008560181 L198.117736816,107.68208313 L197.222091675,107.627410889 L196.167419434,107.866134644 L195.015396118,108.395965576 L193.862380981,109.205352783 L192.822509766,110.238586426 L192.018966675,111.414268494 L191.558258057,112.619865417 L191.498687744,113.72253418 L191.888900757,114.612014771 L192.716995239,115.169128418 L193.943908691,115.307342529 L195.474914551,114.987831116 L197.174987793,114.214897156 L198.870025635,113.067497253 L200.405914307,111.684402466 L201.656402588,110.236465454 L202.56489563,108.903900146 L203.124053955,107.834686279 L203.389724731,107.092437744 L203.425735474,106.716423035 L203.291488647,106.721130371 L203.015151978,107.131248474 L202.622238159,107.952880859 L202.171768188,109.167434692 L201.758209229,110.658699036 L201.492401123,112.277153015 L201.496871948,113.852859497 L201.811660767,115.21346283 L202.463745117,116.19342804 L203.435806274,116.702842712 L204.653259277,116.677368164 L206.019271851,116.121383667 L207.444458008,115.10736084 L208.795288086,113.757255554 L209.999145508,112.211776733 L210.97555542,110.658164978 L211.66506958,109.275230408 L212.065719604,108.182769775 L212.220733643,107.459625244 L212.176635742,107.163871765 L211.999176025,107.303237915 L211.723770142,107.901977539 L211.392852783,108.949516296 L211.097457886,110.330207825 L210.932312012,111.863929749 L210.973526001,113.35307312 L211.275024414,114.605705261 L211.834106445,115.501319885 L212.639053345,115.964317322 L213.676864624,115.960464478 L214.888366699,115.476753235 L216.193191528,114.560150146 L217.491577148,113.31829834 L218.667785645,111.897132874 L219.642456055,110.482727051 L220.375228882,109.265983582 L220.848709106,108.348922729 L221.099014282,107.79258728 L221.156021118,107.621078491 L221.061325073,107.840164185 L220.834579468,108.487548828 L220.512084961,109.562103271 L220.148178101,110.956871033 L219.864242554,112.517845154 L219.748245239,114.035736084 L219.862030029,115.32749939 L220.083633423,116.218170166 L220.292510986,116.694114685 " fill="none" stroke="white" stroke-linecap="round" stroke-width="2" /><path d="M229.07472229,96.0585708618 L229.134460449,96.0 L229.204574585,96.0661315918 L229.236999512,96.4305953979 L229.156173706,97.2546844482 L228.918960571,98.5661621094 L228.514083862,100.330787659 L227.991638184,102.444442749 L227.40663147,104.771095276 L226.843307495,107.171585083 L226.375579834,109.4948349 L226.04624939,111.591888428 L225.850708008,113.300956726 L225.770431519,114.495811462 L225.744766235,115.132545471 L225.73840332,115.343643188 L225.737472534,115.323173523 " fill="none" stroke="white" stroke-linecap="round" stroke-width="2" /><path d="M223.174545288,107.96194458 L223.345169067,107.791702271 L223.796310425,107.531158447 L224.635269165,107.231925964 L225.888000488,106.975959778 L227.48576355,106.767929077 L229.298202515,106.603187561 L231.163360596,106.462692261 L232.905044556,106.35332489 L234.359191895,106.300872803 L235.424407959,106.348548889 L236.058807373,106.543678284 L236.281921387,106.952270508 L236.185424805,107.617424011 L235.881866455,108.563804626 L235.468444824,109.738006592 L235.056655884,111.043525696 L234.735351562,112.368209839 L234.530273438,113.619911194 L234.456069946,114.665466309 L234.508651733,115.405754089 L234.648620605,115.758087158 L234.803756714,115.814628601 L234.928512573,115.723930359 " fill="none" stroke="white" stroke-linecap="round" stroke-width="2" /><path d="M237.474746704,100.26361084 L237.586410522,100.158599854 L237.783050537,100.071464539 L237.993301392,100.025444031 L238.145797729,100.043769836 " fill="none" stroke="white" stroke-linecap="round" stroke-width="2" /><path d="M250.202041626,102.380187988 L250.242996216,101.836288452 L250.239715576,100.995239258 L250.116744995,100.019386292 L249.795074463,99.1761169434 L249.251647949,98.5688476562 L248.502426147,98.2642059326 L247.62109375,98.2841796875 L246.681671143,98.6756439209 L245.763275146,99.4700393677 L244.909439087,100.649009705 L244.152603149,102.180755615 L243.522247314,104.009567261 L243.048156738,106.059288025 L242.718933105,108.255210876 L242.505905151,110.512878418 L242.358169556,112.728004456 L242.248825073,114.798294067 L242.168457031,116.635055542 L242.113601685,118.150634766 L242.07635498,119.188529968 L242.056121826,119.636505127 L242.063842773,119.465675354 L242.090087891,118.9845047 L242.12298584,118.506088257 " fill="none" stroke="white" stroke-linecap="round" stroke-width="2" /><path d="M240.300308228,108.935173035 L240.434646606,108.912208557 L240.833023071,108.907356262 L241.612808228,108.930938721 L242.850158691,108.950401306 L244.462249756,108.905006409 L246.24520874,108.760551453 L247.721405029,108.578834534 L248.646865845,108.429779053 " fill="none" stroke="white" stroke-linecap="round" stroke-width="2" /><path d="M253.786911011,105.78842926 L253.610427856,105.745651245 L253.319671631,105.792770386 L252.925842285,106.049873352 L252.460861206,106.617660522 L251.925460815,107.50125885 L251.351928711,108.643409729 L250.827331543,109.937416077 L250.483200073,111.268211365 L250.423049927,112.511665344 L250.698638916,113.548690796 L251.320892334,114.27431488 L252.260314941,114.604118347 L253.476898193,114.487998962 L254.879608154,113.929168701 L256.330535889,112.980499268 L257.684814453,111.764541626 L258.832672119,110.430473328 L259.722198486,109.120498657 L260.366424561,107.965209961 L260.793884277,107.036369324 L261.042388916,106.378425598 L261.122924805,106.04637146 L261.040161133,106.083946228 L260.800384521,106.525360107 L260.430450439,107.38155365 L260.010681152,108.55947876 L259.641571045,109.920593262 L259.402435303,111.312889099 L259.354156494,112.581474304 L259.533752441,113.607788086 L259.965515137,114.296928406 L260.682067871,114.560432434 L261.667907715,114.353935242 L262.879211426,113.678459167 L264.244659424,112.566574097 L265.684967041,111.090263367 L267.123718262,109.321670532 L268.494567871,107.340423584 L269.731658936,105.242546082 L270.784423828,103.147911072 L271.608459473,101.173164368 L272.180725098,99.4470367432 L272.517028809,98.0534515381 L272.639343262,97.0425949097 L272.576385498,96.4545669556 L272.34173584,96.3345184326 L271.919677734,96.7200622559 L271.302947998,97.6535263062 L270.538543701,99.1119384766 L269.685455322,101.003494263 L268.829925537,103.191642761 L268.071655273,105.510177612 L267.501739502,107.811958313 L267.207550049,109.981079102 L267.256347656,111.932876587 L267.707397461,113.57598114 L268.529174805,114.830299377 L269.620056152,115.648628235 L270.617889404,116.071113586 L271.296447754,116.211837769 " fill="none" stroke="white" stroke-linecap="round" stroke-width="2" /><path d="M289.001617432,107.741516113 L288.811004639,107.522834778 L288.482818604,107.227012634 L288.010223389,106.959541321 L287.39956665,106.877655029 L286.586242676,107.069961548 L285.516113281,107.583457947 L284.230163574,108.418830872 L282.865753174,109.555335999 L281.634399414,110.90978241 L280.777618408,112.369628906 L280.477844238,113.818763733 L280.81072998,115.133399963 L281.8046875,116.220710754 L283.393066406,116.99798584 L285.461242676,117.398452759 L287.940795898,117.342308044 L290.658660889,116.833869934 L293.371948242,115.956321716 L295.519592285,115.077484131 L296.829284668,114.448684692 " fill="none" stroke="white" stroke-linecap="round" stroke-width="2" /><path d="M301.743530273,108.947937012 L301.478271484,108.743492126 L300.990692139,108.523864746 L300.259521484,108.417396545 L299.330871582,108.58846283 L298.233703613,109.082649231 L297.060943604,109.894828796 L295.962280273,110.98210144 L295.118499756,112.284370422 L294.668792725,113.678565979 L294.692474365,115.011932373 L295.210357666,116.114860535 L296.174560547,116.846801758 L297.494293213,117.126594543 L299.042175293,116.935707092 L300.67388916,116.314697266 L302.219451904,115.339775085 L303.52557373,114.113746643 L304.436553955,112.769607544 L304.842559814,111.441673279 L304.679962158,110.257034302 L304.036132812,109.320793152 L303.070800781,108.685699463 L302.171264648,108.339157104 L301.56854248,108.20803833 " fill="none" stroke="white" stroke-linecap="round" stroke-width="2" /><path d="M308.809783936,106.98135376 L308.749389648,107.200889587 L308.641082764,107.722488403 L308.468139648,108.598251343 L308.225006104,109.770324707 L307.913421631,111.112426758 L307.550445557,112.464805603 L307.188598633,113.693740845 L306.916656494,114.701538086 L306.777435303,115.400093079 L306.796081543,115.726226807 L306.985900879,115.639221191 L307.348358154,115.107833862 L307.884338379,114.163513184 L308.611175537,112.904930115 L309.522003174,111.486175537 L310.616333008,110.076515198 L311.87902832,108.84413147 L313.246124268,107.89516449 L314.613739014,107.30304718 L315.877960205,107.100723267 L316.933349609,107.3179245 L317.724853516,107.950752258 L318.222900391,108.978683472 L318.427124023,110.328735352 L318.368011475,111.885864258 L318.140777588,113.490234375 L317.838226318,115.000007629 L317.629516602,116.245903015 L317.625030518,117.105133057 L317.885528564,117.525215149 L318.246246338,117.620552063 L318.562011719,117.55115509 " fill="none" stroke="white" stroke-linecap="round" stroke-width="2" /><path d="M323.927093506,108.755371094 L323.902709961,108.559623718 L323.891235352,108.406738281 L323.898193359,108.460151672 L323.911407471,108.890060425 L323.890563965,109.717773438 L323.833099365,110.880210876 L323.77243042,112.265693665 L323.779418945,113.757453918 L323.918182373,115.208534241 L324.207275391,116.483695984 L324.630279541,117.477348328 L325.156402588,118.099411011 L325.754943848,118.283905029 L326.423461914,117.9947052 L327.143341064,117.24029541 L327.870727539,116.097618103 L328.5625,114.687553406 L329.185150146,113.155181885 L329.72869873,111.629608154 L330.194488525,110.2109375 L330.574401855,108.979690552 L330.865264893,108.008010864 L331.051818848,107.372032166 L331.145568848,107.051094055 " fill="none" stroke="white" stroke-linecap="round" stroke-width="2" /><path d="M333.33114624,115.388038635 L333.891052246,115.209289551 L334.84085083,114.804832458 L336.074798584,114.129814148 L337.35369873,113.224029541 L338.547851562,112.154640198 L339.538116455,111.018432617 L340.260192871,109.90940094 L340.655731201,108.909545898 L340.677185059,108.092430115 L340.343963623,107.550384521 L339.692443848,107.358177185 L338.789855957,107.597137451 L337.739868164,108.283035278 L336.684234619,109.363548279 L335.764221191,110.706138611 L335.149139404,112.15927124 L334.965423584,113.565567017 L335.265563965,114.80745697 L336.036895752,115.758811951 L337.230743408,116.334159851 L338.75201416,116.459037781 L340.49319458,116.116737366 L342.305786133,115.345863342 L344.00793457,114.235694885 L345.42364502,112.894584656 L346.44909668,111.467918396 L347.053924561,110.092567444 L347.330352783,108.90032959 L347.401550293,107.978393555 L347.381988525,107.383071899 L347.321289062,107.152061462 L347.210449219,107.315223694 L346.987365723,107.895240784 L346.671844482,108.896400452 L346.30960083,110.248504639 L345.982299805,111.825950623 L345.742767334,113.47543335 L345.61328125,115.018013 L345.53918457,116.301017761 L345.50479126,117.253227234 L345.488006592,117.822120667 L345.485107422,117.980194092 L345.486114502,117.715942383 L345.505065918,116.999206543 L345.528411865,115.846252441 L345.60269165,114.374557495 L345.756195068,112.719726562 L346.033599854,111.026031494 L346.465301514,109.411575317 L347.072662354,107.93863678 L347.857971191,106.666305542 L348.836364746,105.663574219 L349.977081299,104.978973389 L351.253326416,104.62940979 L352.620300293,104.583175659 L354.020507812,104.760643005 L355.40713501,105.070632935 L356.751098633,105.419952393 L358.020751953,105.734153748 L359.17401123,105.950965881 L360.162200928,106.026229858 L360.91973877,105.94002533 L361.399261475,105.704017639 L361.597595215,105.356872559 L361.520904541,104.952041626 L361.16708374,104.545906067 L360.551116943,104.207710266 L359.708831787,104.005249023 L358.707458496,103.987373352 L357.6847229,104.185974121 L356.766815186,104.595664978 L356.069274902,105.193374634 L355.682739258,105.959266663 L355.678588867,106.867111206 L356.102172852,107.888206482 L356.957885742,109.001693726 L358.175689697,110.183883667 L359.649108887,111.410209656 L361.216705322,112.652656555 L362.69519043,113.848350525 L363.946411133,114.94052124 L364.779724121,115.871292114 L365.061096191,116.588348389 L364.739959717,117.060821533 L363.816558838,117.273864746 L362.384246826,117.225219727 L360.64352417,116.959388733 L358.777862549,116.474632263 L357.034820557,115.796905518 L355.633422852,114.992599487 L354.723571777,114.282661438 L354.281982422,113.806533813 " fill="none" stroke="white" stroke-linecap="round" stroke-width="2" /><path d="M372.106292725,108.459495544 L372.11831665,108.393180847 L372.086761475,108.274490356 L371.950622559,108.123840332 L371.642364502,108.003700256 L371.110870361,107.977684021 L370.366363525,108.127738953 L369.452209473,108.534538269 L368.440124512,109.241722107 L367.429748535,110.243766785 L366.533905029,111.478713989 L365.868865967,112.821510315 L365.561706543,114.13974762 L365.682037354,115.303611755 L366.254486084,116.194068909 L367.234954834,116.699829102 L368.54095459,116.743988037 L370.063049316,116.296020508 L371.663635254,115.403518677 L373.182495117,114.171630859 L374.479675293,112.744110107 L375.440917969,111.265083313 L376.045166016,109.899307251 L376.352996826,108.776191711 L376.466308594,107.974769592 L376.473968506,107.524681091 L376.4269104,107.428573608 L376.318450928,107.686386108 L376.132965088,108.342422485 L375.883300781,109.385253906 L375.629730225,110.727165222 L375.437103271,112.217720032 L375.429046631,113.668670654 L375.686737061,114.899139404 L376.212799072,115.807319641 L376.783203125,116.346427917 L377.222442627,116.579574585 " fill="none" stroke="white" stroke-linecap="round" stroke-width="2" /><path d="M385.713684082,97.6480407715 L385.717376709,97.6788635254 L385.714416504,97.9297332764 L385.676879883,98.5612716675 L385.557006836,99.6723937988 L385.300689697,101.233337402 L384.909851074,103.172142029 L384.409576416,105.385437012 L383.881408691,107.75881958 L383.419128418,110.152824402 L383.108459473,112.402381897 L382.983215332,114.370681763 L383.043945312,115.874862671 L383.242523193,116.797096252 L383.503387451,117.101737976 L383.725463867,117.008964539 L383.866638184,116.770454407 " fill="none" stroke="white" stroke-linecap="round" stroke-width="2" /><path d="M379.766113281,108.924758911 L379.960418701,108.90045166 L380.47857666,108.872123718 L381.435394287,108.855613708 L382.858001709,108.852676392 L384.661895752,108.839889526 L386.704559326,108.795684814 L388.824584961,108.716995239 L390.845428467,108.604156494 L392.592987061,108.488571167 L393.962371826,108.386886597 L394.878814697,108.314704895 L395.356872559,108.334892273 L395.460968018,108.547431946 L395.265533447,109.046730042 L394.833862305,109.891937256 L394.255828857,111.037887573 L393.624328613,112.35042572 L393.066101074,113.694068909 L392.663452148,114.954597473 L392.494873047,116.002182007 L392.551727295,116.727218628 L392.781158447,117.058738708 L393.041931152,117.093292236 L393.242706299,116.985832214 " fill="none" stroke="white" stroke-linecap="round" stroke-width="2" /><path d="M396.226196289,100.942886353 L396.228607178,100.709220886 L396.29196167,100.431419373 L396.388214111,100.198699951 L396.489349365,100.100250244 " fill="none" stroke="white" stroke-linecap="round" stroke-width="2" /><path d="M404.884979248,110.112861633 L404.691131592,109.835174561 L404.349151611,109.445243835 L403.835388184,109.057617188 L403.154632568,108.853973389 L402.282287598,108.92301178 L401.249908447,109.326896667 L400.173553467,110.058319092 L399.205718994,111.089065552 L398.501251221,112.320266724 L398.173126221,113.621559143 L398.284240723,114.860168457 L398.841033936,115.909454346 L399.831665039,116.644447327 L401.173522949,116.978599548 L402.755249023,116.848609924 L404.420562744,116.243392944 L405.994750977,115.232429504 L407.284820557,113.933197021 L408.169250488,112.500907898 L408.550598145,111.087104797 L408.455810547,109.824783325 L408.010620117,108.790428162 L407.385253906,108.033203125 L406.755157471,107.596107483 L406.283691406,107.494064331 L406.006195068,107.679710388 L405.898345947,107.980010986 L405.894714355,108.238594055 " fill="none" stroke="white" stroke-linecap="round" stroke-width="2" /><path class="linestart" d="M413.621826172,109.253303528 L413.594238281,109.216316223 L413.541320801,109.277763367 L413.449737549,109.543197632 L413.300415039,110.110595703 L413.082275391,110.964141846 L412.789459229,112.01650238 L412.453796387,113.137908936 L412.150665283,114.225692749 L411.932891846,115.160919189 L411.81048584,115.885902405 L411.788299561,116.331993103 L411.848388672,116.435447693 L412.007202148,116.137466431 L412.317474365,115.42729187 L412.813171387,114.317893982 L413.494689941,112.933288574 L414.356872559,111.421478271 L415.369995117,109.946166992 L416.506286621,108.651756287 L417.740661621,107.654075623 L419.004516602,107.024177551 L420.230957031,106.821784973 L421.345825195,107.063598633 L422.287689209,107.733787537 L423.026031494,108.787666321 L423.55178833,110.136894226 L423.862335205,111.674682617 L424.023834229,113.301849365 L424.100921631,114.893882751 L424.150695801,116.318450928 L424.197845459,117.357070923 L424.23651123,117.941436768 " fill="none" stroke="white" stroke-linecap="round" stroke-width="2" /><path d="M0,0 " fill="none" stroke="white" stroke-linecap="round" stroke-width="2" /><path d="M39.3585205078,164.27633667 L39.2245864868,164.434844971 L39.0397453308,164.864349365 L38.8698539734,165.64616394 L38.8223724365,166.750793457 L38.9574394226,168.06678772 L39.3149681091,169.440048218 L39.8949165344,170.763656616 L40.6951179504,171.953842163 L41.6974143982,172.930938721 L42.8909263611,173.597686768 L44.2557945251,173.860427856 L45.7671775818,173.625213623 L47.3606071472,172.874084473 L48.946521759,171.657821655 L50.4081878662,170.093048096 L51.6507530212,168.37348938 L52.6050720215,166.738113403 L53.2636184692,165.370529175 L53.6431922913,164.395828247 L53.7720680237,163.879302979 L53.6699066162,163.838394165 L53.345375061,164.321105957 L52.8104934692,165.387817383 L52.1330986023,167.027557373 L51.3905181885,169.147567749 L50.657169342,171.601196289 L50.000793457,174.211669922 L49.423789978,176.833084106 L48.911605835,179.336791992 L48.4754676819,181.603317261 L48.1172218323,183.535980225 L47.8745574951,184.995071411 L47.7939720154,185.878753662 L47.8841552734,186.161682129 L48.0500335693,186.06048584 L48.208946228,185.822723389 " fill="none" stroke="white" stroke-linecap="round" stroke-width="2" /><path d="M63.5156402588,166.109832764 L63.4283409119,165.701049805 L63.2047233582,165.125457764 L62.7484092712,164.545257568 L61.9764480591,164.205749512 L60.8526954651,164.202178955 L59.4388465881,164.591537476 L57.8881187439,165.366531372 L56.4161529541,166.501663208 L55.2080078125,167.900466919 L54.3995132446,169.432220459 L54.0693206787,170.946456909 L54.2514381409,172.293930054 L54.9492645264,173.339889526 L56.1140861511,173.964569092 L57.6225280762,174.068435669 L59.3061943054,173.628707886 L60.9647064209,172.69871521 L62.4174385071,171.411743164 L63.5467453003,169.944488525 L64.2900314331,168.45652771 L64.6460266113,167.062042236 L64.678527832,165.841995239 L64.4890518188,164.843734741 L64.2165527344,164.123321533 L63.9969711304,163.709915161 L63.9124031067,163.581390381 L63.935459137,163.622940063 L64.0039749146,163.718429565 " fill="none" stroke="white" stroke-linecap="round" stroke-width="2" /><path d="M69.5460357666,163.901321411 L69.5020675659,163.833587646 L69.4119567871,163.873474121 L69.2380828857,164.159362793 L68.971321106,164.830047607 L68.5880737305,165.887069702 L68.1626739502,167.273254395 L67.7739715576,168.846237183 L67.5316772461,170.447494507 L67.5015792847,171.886001587 L67.7383575439,173.007507324 L68.2431182861,173.680740356 L69.0333938599,173.838287354 L70.0882339478,173.440414429 L71.3666763306,172.517623901 L72.7750244141,171.15864563 L74.2065048218,169.517303467 L75.5468063354,167.793380737 L76.685218811,166.203933716 L77.5598526001,164.912582397 L78.1492080688,164.003570557 L78.4630584717,163.514663696 L78.5475006104,163.453872681 L78.4480514526,163.844329834 L78.1822280884,164.72428894 L77.7929534912,166.079467773 L77.356842041,167.772384644 L76.9539794922,169.600418091 L76.7111816406,171.31149292 L76.7033996582,172.683609009 L76.9370651245,173.597976685 L77.2529602051,174.075622559 L77.5218963623,174.235961914 " fill="none" stroke="white" stroke-linecap="round" stroke-width="2" /><path d="M82.4953613281,164.626159668 L82.5410461426,164.772445679 L82.5764770508,165.189941406 L82.5468139648,165.976135254 L82.4110565186,167.132827759 L82.174949646,168.540771484 L81.8848190308,170.022445679 L81.595413208,171.370010376 L81.3824310303,172.433914185 L81.2623062134,173.11895752 L81.2276229858,173.395721436 L81.2509155273,173.250411987 L81.2998962402,172.661346436 L81.3721618652,171.629989624 L81.5145797729,170.254928589 L81.750289917,168.691238403 L82.123085022,167.123687744 L82.6754455566,165.690032959 L83.4547805786,164.444198608 L84.4862747192,163.402496338 L85.7949142456,162.615371704 L87.3054885864,162.12336731 L88.8943252563,161.938858032 L90.184135437,161.958206177 L90.9942092896,162.054489136 " fill="none" stroke="white" stroke-linecap="round" stroke-width="2" /><path d="M110.160980225,152.642852783 L110.278007507,152.876968384 L110.43107605,153.437652588 L110.560325623,154.432998657 L110.565437317,155.877029419 L110.422439575,157.718475342 L110.139724731,159.858383179 L109.791572571,162.166290283 L109.429298401,164.469223022 L109.122116089,166.586456299 L108.875442505,168.341018677 L108.689086914,169.63508606 L108.546638489,170.435684204 L108.479034424,170.759262085 L108.503318787,170.60546875 L108.699790955,169.97857666 L109.103927612,168.901031494 L109.722984314,167.51864624 L110.53553772,166.009963989 L111.531593323,164.567779541 L112.662849426,163.316314697 L113.911720276,162.33392334 L115.236976624,161.665557861 L116.5701828,161.379272461 L117.849258423,161.511322021 L119.009933472,162.079330444 L119.967010498,163.032211304 L120.643859863,164.276565552 L120.981864929,165.689544678 L120.91255188,167.155715942 L120.423553467,168.566360474 L119.531242371,169.833297729 L118.283569336,170.86907959 L116.763031006,171.608612061 L115.069984436,172.002716064 L113.292137146,172.053878784 L111.5340271,171.778778076 L109.924385071,171.252334595 L108.576889038,170.588134766 L107.656318665,170.009307861 L107.170898438,169.634643555 " fill="none" stroke="white" stroke-linecap="round" stroke-width="2" /><path d="M130.310348511,164.37991333 L130.079574585,164.121368408 L129.607009888,163.741516113 L128.836166382,163.346542358 L127.807151794,163.108154297 L126.583053589,163.120803833 L125.256484985,163.448242188 L123.951164246,164.112197876 L122.798164368,165.095779419 L121.895713806,166.332595825 L121.35092926,167.696105957 L121.25453949,169.034133911 L121.633468628,170.188552856 L122.488227844,171.036621094 L123.761222839,171.489776611 L125.346817017,171.512191772 L127.104522705,171.107467651 L128.852127075,170.320098877 L130.406768799,169.236923218 L131.617858887,167.982131958 L132.370529175,166.673416138 L132.667831421,165.448364258 L132.596557617,164.419891357 L132.363586426,163.714202881 L132.149505615,163.340652466 " fill="none" stroke="white" stroke-linecap="round" stroke-width="2" /><path d="M143.881469727,166.580535889 L143.895874023,166.13067627 L143.828353882,165.406387329 L143.588134766,164.53793335 L143.077575684,163.775436401 L142.247192383,163.256530762 L141.089263916,163.066360474 L139.667922974,163.246612549 L138.083847046,163.81072998 L136.509841919,164.734786987 L135.12387085,165.944732666 L134.107803345,167.33026123 L133.581878662,168.751998901 L133.630264282,170.071868896 L134.255279541,171.139129639 L135.409317017,171.817733765 L136.982437134,171.990768433 L138.842987061,171.602874756 L140.814804077,170.665893555 L142.760421753,169.235458374 L144.544723511,167.399337769 L146.068206787,165.284622192 L147.296951294,163.040557861 L148.233459473,160.844604492 L148.889175415,158.890335083 L149.331329346,157.305541992 L149.595062256,156.160049438 L149.710769653,155.491333008 L149.703323364,155.340393066 L149.555358887,155.749588013 L149.23449707,156.780380249 L148.747848511,158.399215698 L148.137008667,160.484970093 L147.494674683,162.839675903 L146.93927002,165.256027222 L146.546051025,167.515029907 L146.392196655,169.428695679 L146.486755371,170.839584351 L146.804199219,171.690246582 L147.169464111,172.065444946 L147.456817627,172.150543213 " fill="none" stroke="white" stroke-linecap="round" stroke-width="2" /><path d="M152.055465698,163.444046021 L152.144714355,163.499084473 L152.344055176,163.678710938 L152.667266846,164.040237427 L153.082885742,164.597503662 L153.56578064,165.315124512 L154.107894897,166.121841431 L154.687927246,166.95993042 L155.350006104,167.771148682 L156.102218628,168.495925903 L156.917663574,169.085845947 L157.609481812,169.481079102 L158.070510864,169.681442261 " fill="none" stroke="white" stroke-linecap="round" stroke-width="2" /><path d="M162.768814087,164.886276245 L162.786239624,164.884109497 L162.706420898,165.018127441 L162.424453735,165.421630859 L161.817489624,166.206710815 L160.832321167,167.394088745 L159.479736328,168.956466675 L157.855911255,170.79977417 L156.128158569,172.793838501 L154.523010254,174.789459229 L153.212142944,176.625579834 L152.296386719,178.17489624 L151.866577148,179.290328979 L151.936584473,179.871154785 L152.451034546,179.904876709 L153.101150513,179.638702393 L153.628082275,179.317108154 " fill="none" stroke="white" stroke-linecap="round" stroke-width="2" /><path d="M177.569992065,162.574310303 L177.61920166,162.615783691 L177.691055298,162.834747314 L177.744827271,163.354431152 L177.713180542,164.248687744 L177.548873901,165.4815979 L177.236282349,166.963180542 L176.815948486,168.554367065 L176.366195679,170.069198608 L175.966537476,171.34185791 L175.675689697,172.242248535 L175.521133423,172.678833008 L175.488189697,172.634918213 L175.573730469,172.106887817 L175.806793213,171.107940674 L176.211990356,169.713302612 L176.819473267,168.050933838 L177.630065918,166.260482788 L178.602554321,164.514938354 L179.690628052,162.956878662 L180.865432739,161.715957642 L182.086090088,160.898132324 L183.326217651,160.572433472 L184.529800415,160.749664307 L185.627700806,161.414123535 L186.521652222,162.512939453 L187.129608154,163.961547852 L187.398452759,165.626358032 L187.343582153,167.325515747 L187.050735474,168.860122681 L186.666702271,170.073287964 L186.309280396,170.858612061 L186.071838379,171.157897949 L185.978790283,170.945602417 L186.04675293,170.209182739 L186.322616577,168.988128662 L186.851287842,167.430236816 L187.635009766,165.735198975 L188.652679443,164.114425659 L189.818450928,162.737411499 L191.072036743,161.699142456 L192.361328125,161.044235229 L193.634094238,160.815429688 L194.814453125,161.018295288 L195.813583374,161.631347656 L196.552749634,162.606735229 L197.020507812,163.863555908 L197.21206665,165.303329468 L197.201156616,166.836593628 L197.074401855,168.320877075 L196.909500122,169.614318848 L196.779632568,170.527954102 L196.718826294,171.021865845 " fill="none" stroke="white" stroke-linecap="round" stroke-width="2" /><path d="M207.249130249,165.152877808 L207.233673096,164.719558716 L207.164718628,164.082992554 L206.972900391,163.378112793 L206.58921814,162.829818726 L205.960906982,162.519134521 L205.067169189,162.5184021 L203.931594849,162.866317749 L202.626831055,163.61315918 L201.257034302,164.733551025 L199.979751587,166.131942749 L198.973266602,167.655044556 L198.379760742,169.12310791 L198.283477783,170.363494873 L198.68788147,171.229476929 L199.536056519,171.617507935 L200.740066528,171.477813721 L202.184783936,170.833282471 L203.731460571,169.77684021 L205.208999634,168.448257446 L206.454864502,167.0105896 L207.351745605,165.640472412 L207.893005371,164.471252441 L208.146209717,163.593887329 L208.224563599,163.083129883 L208.190811157,162.974304199 L208.063476562,163.297744751 L207.821350098,164.080230713 L207.506729126,165.281051636 L207.194107056,166.789123535 L206.968948364,168.46321106 L206.895797729,170.141677856 L207.03717041,171.622955322 L207.398971558,172.738098145 L207.963195801,173.380462646 L208.525772095,173.61869812 L208.930984497,173.613845825 " fill="none" stroke="white" stroke-linecap="round" stroke-width="2" /><path d="M215.281890869,153.135971069 L215.272888184,152.770706177 L215.283569336,152.342803955 L215.314285278,152.048965454 L215.338821411,152.140670776 L215.313980103,152.68800354 L215.195617676,153.734390259 L214.947616577,155.230987549 L214.60319519,157.127624512 L214.205505371,159.310379028 L213.790985107,161.644332886 L213.391677856,163.998168945 L213.029159546,166.232040405 L212.716842651,168.167114258 L212.483123779,169.656295776 L212.345413208,170.587692261 L212.288024902,171.024459839 " fill="none" stroke="white" stroke-linecap="round" stroke-width="2" /><path d="M221.199905396,162.612564087 L221.142471313,162.45324707 L220.87538147,162.329986572 L220.264556885,162.386459351 L219.245056152,162.783706665 L217.894241333,163.532073975 L216.394348145,164.56867981 L214.993637085,165.757339478 L213.910995483,166.969223022 L213.307159424,168.067779541 L213.263763428,168.972351074 L213.797531128,169.628417969 L214.875030518,170.00881958 L216.41545105,170.090072632 L218.289016724,169.894668579 L220.300308228,169.447296143 L222.259765625,168.802276611 L223.998138428,168.008026123 L225.395767212,167.105514526 L226.399002075,166.124816895 L226.987380981,165.133682251 L227.15222168,164.2137146 L226.936645508,163.463134766 L226.38873291,162.973602295 L225.580596924,162.83013916 L224.623214722,163.07081604 L223.608474731,163.697982788 L222.663818359,164.669403076 L221.928955078,165.886856079 L221.524871826,167.215057373 L221.566238403,168.511611938 L222.123809814,169.617385864 L223.260848999,170.352111816 L224.934112549,170.617004395 L226.981063843,170.412490845 L228.792877197,169.999862671 L230.002761841,169.623153687 " fill="none" stroke="white" stroke-linecap="round" stroke-width="2" /><path d="M235.977813721,161.768051147 L235.605209351,161.434997559 L234.930099487,161.040100098 L233.974075317,160.758026123 L232.894485474,160.785324097 L231.827163696,161.125335693 L230.951904297,161.725448608 L230.422225952,162.488723755 L230.401062012,163.351364136 L230.959106445,164.247848511 L232.090988159,165.117050171 L233.671279907,165.920898438 L235.49446106,166.652801514 L237.298995972,167.308670044 L238.87348938,167.896575928 L240.035705566,168.421661377 L240.674179077,168.878372192 L240.696228027,169.253982544 L240.064758301,169.558532715 L238.811889648,169.777328491 L237.104537964,169.913009644 L235.178466797,169.967758179 L233.292312622,169.944671631 L231.680450439,169.827606201 L230.506729126,169.633163452 L229.833511353,169.366073608 L229.570159912,169.115371704 L229.551239014,168.940536499 " fill="none" stroke="white" stroke-linecap="round" stroke-width="2" /><path d="M252.625396729,162.033035278 L252.63142395,162.22227478 L252.606048584,162.672149658 L252.503173828,163.45161438 L252.285842896,164.539672852 L251.946517944,165.860855103 L251.518493652,167.27520752 L251.073547363,168.610641479 L250.686264038,169.730941772 L250.413009644,170.521148682 L250.286865234,170.892196655 L250.318893433,170.814849854 L250.534240723,170.255844116 L250.960372925,169.216384888 L251.606307983,167.80178833 L252.453659058,166.168579102 L253.459701538,164.501464844 L254.569442749,163.009750366 L255.728302002,161.829696655 L256.867706299,161.04246521 L257.902679443,160.71081543 L258.748168945,160.856735229 L259.360473633,161.477935791 L259.716278076,162.532714844 L259.808959961,163.916351318 L259.656555176,165.462677002 L259.31262207,166.981964111 L258.865783691,168.292388916 L258.453186035,169.254455566 L258.187042236,169.762695312 L258.14743042,169.757888794 L258.381500244,169.230484009 L258.913574219,168.230331421 L259.737548828,166.899246216 L260.814788818,165.435775757 L262.07144165,164.050704956 L263.411376953,162.906585693 L264.727142334,162.111709595 L265.926391602,161.713851929 L266.944610596,161.747024536 L267.716918945,162.219223022 L268.210876465,163.104431152 L268.421875,164.313812256 L268.385528564,165.715988159 L268.186767578,167.14630127 L267.943328857,168.436401367 L267.745452881,169.45489502 L267.633453369,170.104827881 L267.595031738,170.416412354 " fill="none" stroke="white" stroke-linecap="round" stroke-width="2" /><path d="M271.497009277,168.757064819 L271.833740234,168.591339111 L272.483276367,168.257110596 L273.429473877,167.737686157 L274.54586792,167.056854248 L275.73034668,166.24017334 L276.862091064,165.3487854 L277.828948975,164.443405151 L278.534393311,163.613433838 L278.892272949,162.930648804 L278.854919434,162.429702759 L278.417053223,162.138046265 L277.59286499,162.110519409 L276.415130615,162.382339478 L274.991210938,162.98336792 L273.484130859,163.900222778 L272.090301514,165.075927734 L271.028686523,166.440261841 L270.485076904,167.917739868 L270.546966553,169.389633179 L271.374847412,170.690338135 L272.961364746,171.658309937 L275.137908936,172.191802979 L277.177703857,172.369979858 L278.597381592,172.351150513 " fill="none" stroke="white" stroke-linecap="round" stroke-width="2" /><path d="M296.953796387,153.892532349 L296.994354248,154.139816284 L296.988586426,154.716049194 L296.863464355,155.706207275 L296.552185059,157.095275879 L296.058319092,158.83732605 L295.392456055,160.828155518 L294.613037109,162.942977905 L293.781707764,165.052368164 L292.989501953,166.997421265 L292.313354492,168.637496948 L291.826568604,169.872314453 L291.549682617,170.619918823 L291.502624512,170.832595825 L291.699279785,170.514541626 L292.181915283,169.694595337 L292.955230713,168.489059448 L294.010162354,167.063751221 L295.272949219,165.594940186 L296.659790039,164.237579346 L298.093048096,163.123321533 L299.48815918,162.318664551 L300.757843018,161.881149292 L301.823699951,161.839141846 L302.598724365,162.202346802 L303.021087646,162.958328247 L303.070983887,164.079101562 L302.74987793,165.479110718 L302.172607422,167.034439087 L301.524108887,168.560562134 L301.008026123,169.879425049 L300.717224121,170.790344238 L300.6300354,171.271484375 " fill="none" stroke="white" stroke-linecap="round" stroke-width="2" /><path d="M313.990020752,164.332000732 L313.954467773,163.853302002 L313.769195557,163.17250061 L313.329437256,162.459838867 L312.560974121,161.980575562 L311.464019775,161.798721313 L310.109039307,161.95741272 L308.585174561,162.445373535 L307.025299072,163.266525269 L305.592376709,164.374160767 L304.443939209,165.687820435 L303.724517822,167.067550659 L303.530090332,168.366088867 L303.86328125,169.442047119 L304.680725098,170.177902222 L305.900726318,170.491790771 L307.386230469,170.360198975 L308.988494873,169.799682617 L310.533660889,168.887863159 L311.85458374,167.749557495 L312.82244873,166.498016357 L313.396118164,165.262680054 L313.603118896,164.158050537 L313.592651367,163.354904175 L313.506866455,162.901275635 " fill="none" stroke="white" stroke-linecap="round" stroke-width="2" /><path d="M321.913818359,151.203765869 L321.945861816,151.062286377 L322.003082275,151.0 L322.05255127,151.187728882 L322.019561768,151.802078247 L321.834472656,152.868942261 L321.467651367,154.350021362 L320.950469971,156.17326355 L320.348693848,158.266281128 L319.72555542,160.531829834 L319.124542236,162.874908447 L318.58303833,165.175506592 L318.175445557,167.324935913 L317.989501953,169.20350647 L318.076934814,170.702575684 L318.307006836,171.687942505 L318.54296875,172.18989563 " fill="none" stroke="white" stroke-linecap="round" stroke-width="2" /><path d="M332.336517334,166.628540039 L332.440032959,166.081161499 L332.488494873,165.255065918 L332.341888428,164.321533203 L331.86328125,163.561843872 L331.012359619,163.090087891 L329.814086914,162.967834473 L328.36618042,163.215164185 L326.806427002,163.85144043 L325.304748535,164.848770142 L324.039215088,166.107803345 L323.17388916,167.506408691 L322.801330566,168.872650146 L322.980865479,170.04145813 L323.69708252,170.848724365 L324.887878418,171.170562744 L326.456451416,170.904830933 L328.307952881,170.041625977 L330.329528809,168.626296997 L332.413604736,166.76461792 L334.421295166,164.602081299 L336.231781006,162.320526123 L337.758087158,160.101333618 L338.94418335,158.149215698 L339.806884766,156.60975647 L340.369689941,155.549713135 L340.644073486,154.992523193 L340.662231445,154.951919556 L340.441955566,155.455230713 L339.972442627,156.539886475 L339.278747559,158.174926758 L338.393432617,160.234039307 L337.41583252,162.608703613 L336.530548096,165.113555908 L335.907012939,167.545959473 L335.58493042,169.435623169 L335.499053955,170.57824707 " fill="none" stroke="white" stroke-linecap="round" stroke-width="2" /><path d="M353.184356689,163.678894043 L353.208526611,163.799606323 L353.281982422,164.082168579 L353.424346924,164.594161987 L353.614501953,165.355133057 L353.805236816,166.359832764 L353.980499268,167.547851562 L354.138519287,168.836883545 L354.359893799,170.083221436 L354.733154297,171.147979736 L355.282958984,171.910385132 L355.829956055,172.339767456 L356.23614502,172.500686646 " fill="none" stroke="white" stroke-linecap="round" stroke-width="2" /><path d="M363.670257568,165.92829895 L363.581970215,165.945419312 L363.301330566,166.181259155 L362.690917969,166.83744812 L361.646911621,168.046325684 L360.1512146,169.796325684 L358.257843018,171.976135254 L356.136810303,174.418731689 L354.034393311,176.909667969 L352.201385498,179.206542969 L350.826293945,181.060943604 L350.007995605,182.264129639 L349.64465332,182.845153809 " fill="none" stroke="white" stroke-linecap="round" stroke-width="2" /><path d="M371.306945801,167.790420532 L371.241546631,167.341827393 L371.006835938,166.684646606 L370.510498047,165.960388184 L369.712646484,165.427001953 L368.637481689,165.178909302 L367.353668213,165.305969238 L365.960906982,165.829193115 L364.595611572,166.764709473 L363.407775879,168.022201538 L362.55947876,169.480682373 L362.150085449,170.942642212 L362.236358643,172.229370117 L362.817138672,173.179626465 L363.830780029,173.683990479 L365.167633057,173.658859253 L366.692779541,173.110702515 L368.206970215,172.089828491 L369.538146973,170.73765564 L370.576080322,169.239593506 L371.266662598,167.787353516 L371.649169922,166.538970947 L371.824127197,165.599029541 L371.877075195,165.018432617 L371.880249023,164.74798584 " fill="none" stroke="white" stroke-linecap="round" stroke-width="2" /><path d="M377.558380127,165.853179932 L377.547821045,165.494659424 L377.515838623,164.980010986 L377.450256348,164.45072937 L377.313690186,164.125595093 L377.08694458,164.118652344 L376.729217529,164.501617432 L376.200195312,165.300567627 L375.550811768,166.475692749 L374.893310547,167.906616211 L374.36730957,169.412506104 L374.127197266,170.814422607 L374.254180908,171.942993164 L374.760437012,172.681640625 L375.615142822,172.944061279 L376.767974854,172.696777344 L378.146209717,171.961608887 L379.647949219,170.824966431 L381.141906738,169.414855957 L382.50592041,167.932128906 L383.621337891,166.574981689 L384.433227539,165.497558594 L384.924865723,164.799484253 L385.115905762,164.531097412 L385.022613525,164.687561035 L384.683441162,165.305358887 L384.127807617,166.348205566 L383.444671631,167.687469482 L382.824066162,169.130905151 L382.478881836,170.450439453 L382.544342041,171.450042725 L382.858978271,172.058349609 L383.203063965,172.329391479 " fill="none" stroke="white" stroke-linecap="round" stroke-width="2" /><path d="M391.129394531,165.337814331 L391.134246826,165.489685059 L391.054962158,165.907714844 L390.801696777,166.674209595 L390.324432373,167.75982666 L389.677703857,169.038879395 L388.974395752,170.316970825 L388.350769043,171.415054321 L387.931732178,172.215744019 L387.772674561,172.617156982 L387.87008667,172.562057495 L388.204711914,172.039489746 L388.741088867,171.060333252 L389.437347412,169.753387451 L390.284637451,168.307800293 L391.269348145,166.886795044 L392.358673096,165.631820679 L393.538391113,164.617263794 L394.78604126,163.862869263 L396.048919678,163.390441895 L397.286376953,163.223205566 L398.411956787,163.333206177 L399.348236084,163.657394409 L399.989227295,164.014556885 L400.332733154,164.279663086 " fill="none" stroke="white" stroke-linecap="round" stroke-width="2" /><path d="M419.624053955,155.672027588 L419.627685547,155.987335205 L419.540740967,156.717559814 L419.272918701,157.953979492 L418.754608154,159.679626465 L417.996856689,161.810852051 L417.027679443,164.195327759 L415.917694092,166.668838501 L414.773895264,169.053787231 L413.70489502,171.141418457 L412.808258057,172.799591064 L412.163757324,173.921951294 L411.798095703,174.447814941 L411.716339111,174.374542236 L411.934082031,173.727203369 L412.470550537,172.551605225 L413.320068359,170.988296509 L414.471740723,169.199020386 L415.882080078,167.372039795 L417.468719482,165.683013916 L419.123779297,164.295028687 L420.713592529,163.331390381 L422.093933105,162.882797241 L423.163269043,162.988555908 L423.851623535,163.639373779 L424.133544922,164.772216797 L424.01763916,166.307617188 L423.536499023,168.120819092 L422.794830322,170.042221069 L421.962646484,171.868087769 L421.213867188,173.394363403 L420.70324707,174.419754028 L420.454040527,174.945022583 " fill="none" stroke="white" stroke-linecap="round" stroke-width="2" /><path d="M427.022735596,171.633331299 L427.148406982,171.590957642 L427.47744751,171.509185791 L428.083587646,171.361816406 L428.979309082,171.115447998 L430.134460449,170.733322144 L431.481719971,170.177459717 L432.922027588,169.447601318 L434.347930908,168.568084717 L435.621948242,167.594772339 L436.610748291,166.594085693 L437.224731445,165.65737915 L437.401062012,164.864364624 L437.114105225,164.299240112 L436.378814697,164.049102783 L435.231079102,164.198699951 L433.756439209,164.785919189 L432.112884521,165.802520752 L430.494873047,167.184265137 L429.123382568,168.815536499 L428.196624756,170.558441162 L427.86340332,172.253143311 L428.199493408,173.729797363 L429.189025879,174.84815979 L430.828521729,175.470977783 L432.982727051,175.552368164 L435.422515869,175.147338867 L437.496307373,174.577453613 L438.840118408,174.102493286 " fill="none" stroke="white" stroke-linecap="round" stroke-width="2" /><path d="M445.50994873,167.739807129 L445.310974121,167.444519043 L444.910858154,167.077880859 L444.283630371,166.817367554 L443.443084717,166.872390747 L442.412780762,167.305923462 L441.246154785,168.123397827 L440.05090332,169.247238159 L438.980163574,170.582641602 L438.175720215,172.005950928 L437.738830566,173.360412598 L437.713470459,174.492111206 L438.095092773,175.27255249 L438.856933594,175.589309692 L439.945617676,175.403594971 L441.253356934,174.74230957 L442.657714844,173.707443237 L444.018585205,172.429077148 L445.217803955,171.058288574 L446.175598145,169.750793457 L446.861572266,168.644271851 L447.27432251,167.847702026 L447.424072266,167.442718506 L447.348876953,167.46585083 L447.076843262,167.941970825 L446.640014648,168.870895386 L446.113616943,170.16418457 L445.610870361,171.672805786 L445.238098145,173.201187134 L445.12512207,174.530822754 L445.359069824,175.479125977 L445.986236572,175.914047241 L447.017120361,175.760559082 L448.39553833,175.040924072 L449.988891602,173.878860474 L451.630432129,172.442077637 L453.157714844,170.923019409 L454.457733154,169.512557983 L455.462127686,168.351364136 L456.138397217,167.549118042 L456.48638916,167.18196106 L456.507843018,167.281936646 L456.240203857,167.851409912 L455.751953125,168.852096558 L455.133758545,170.139190674 L454.498718262,171.49331665 L453.96774292,172.699432373 L453.620697021,173.577972412 L453.502410889,174.014053345 L453.622802734,173.960693359 L453.970428467,173.400741577 L454.508453369,172.348510742 L455.180511475,170.931228638 L455.935546875,169.301177979 L456.716918945,167.634857178 L457.471466064,166.093688965 L458.161407471,164.81199646 L458.740386963,163.874252319 L459.154541016,163.33215332 L459.435333252,163.170394897 L459.62789917,163.325195312 L459.770080566,163.664581299 L459.900421143,164.05317688 L460.007141113,164.35774231 L460.062408447,164.522445679 " fill="none" stroke="white" stroke-linecap="round" stroke-width="2" /><path d="M467.556518555,154.962158203 L467.667663574,154.946182251 L467.76651001,155.097457886 L467.760894775,155.574371338 L467.549835205,156.517913818 L467.127319336,157.935638428 L466.506988525,159.766143799 L465.759887695,161.913391113 L464.94317627,164.253860474 L464.111694336,166.651672363 L463.304260254,168.983184814 L462.541351318,171.099090576 L461.849151611,172.832260132 L461.293029785,174.057891846 L460.914642334,174.712905884 L460.71762085,174.925796509 L460.657623291,174.902008057 " fill="none" stroke="white" stroke-linecap="round" stroke-width="2" /><path class="linestart" d="M461.262512207,166.604705811 L461.660491943,166.379364014 L462.512695312,166.083602905 L463.855957031,165.795166016 L465.577514648,165.617904663 L467.454833984,165.525161743 L469.236724854,165.489151001 L470.564788818,165.469360352 L471.325805664,165.461578369 " fill="none" stroke="white" stroke-linecap="round" stroke-width="2" /></svg>