<?xml version="1.0" encoding="utf-8" ?>
<svg baseProfile="full" height="100%" version="1.1" viewBox="0,0,420,330" width="100%" xmlns="http://www.w3.org/2000/svg" xmlns:ev="http://www.w3.org/2001/xml-events" xmlns:xlink="http://www.w3.org/1999/xlink"><defs /><path d="M0,0 " fill="none" stroke="white" stroke-linecap="round" stroke-width="2" /><path d="M42.8101654053,41.0227737427 L42.8525466919,41.0 L42.9300918579,41.0834655762 L43.0345535278,41.4078826904 L43.1255340576,42.1161270142 L43.1687545776,43.2607383728 L43.1173553467,44.8455543518 L42.9593734741,46.8141212463 L42.7201766968,49.0836791992 L42.4378051758,51.5481872559 L42.1357040405,54.097858429 L41.8508987427,56.5917663574 L41.5927124023,58.8919639587 L41.3848762512,60.8355522156 L41.2513656616,62.3035774231 L41.1882781982,63.2087516785 L41.16847229,63.6294326782 " fill="none" stroke="white" stroke-linecap="round" stroke-width="2" /><path d="M37.0409164429,52.6705474854 L37.1259384155,52.7030258179 L37.4442214966,52.7886695862 L38.1259727478,52.9296455383 L39.2091903687,53.081287384 L40.61951828,53.1796379089 L42.1964797974,53.1726760864 L43.8014755249,53.0457344055 L45.4060211182,52.7121963501 L46.9961471558,52.1251449585 L48.5448303223,51.263835907 L49.7807388306,50.4106521606 L50.5512313843,49.7820281982 " fill="none" stroke="white" stroke-linecap="round" stroke-width="2" /><path d="M52.3416976929,42.952960968 L52.3455276489,43.1487350464 L52.3527526855,43.6573410034 L52.3396530151,44.5928344727 L52.2830810547,45.9715194702 L52.1531829834,47.7437705994 L51.9338302612,49.8212280273 L51.6295089722,52.0811653137 L51.2786483765,54.3852272034 L50.9338989258,56.5553131104 L50.6638641357,58.403629303 L50.5084381104,59.8079528809 L50.4661407471,60.6980171204 L50.5233459473,61.0460472107 L50.6625976562,60.8503723145 L50.9102020264,60.109085083 L51.3208999634,58.8823127747 L51.9533538818,57.3354187012 L52.8350524902,55.6727828979 L53.951385498,54.0951194763 L55.227394104,52.7541542053 L56.565246582,51.7358055115 L57.8559799194,51.1036224365 L59.0219573975,50.909740448 L59.9995651245,51.1874427795 L60.7478408813,51.9296798706 L61.2422103882,53.0825309753 L61.4745407104,54.5323753357 L61.4720001221,56.1278533936 L61.3235702515,57.6945114136 L61.131149292,59.0886917114 L60.9950637817,60.2113571167 L61.0119857788,60.9806594849 L61.2141113281,61.3647117615 L61.5861968994,61.3840293884 L61.9752578735,61.2088470459 L62.2645263672,61.0042266846 " fill="none" stroke="white" stroke-linecap="round" stroke-width="2" /><path d="M65.3375015259,60.2731628418 L65.6727218628,60.2320709229 L66.3146438599,60.051864624 L67.2479782104,59.6438293457 L68.3477554321,58.9659957886 L69.5019683838,58.0401229858 L70.618347168,56.9293365479 L71.635559082,55.7016334534 L72.4978713989,54.4384689331 L73.1607055664,53.215385437 L73.5649337769,52.1223907471 L73.6383209229,51.2476844788 L73.3185577393,50.6818618774 L72.5704956055,50.4926528931 L71.4399337769,50.7575836182 L70.0670776367,51.4839477539 L68.6255264282,52.6253013611 L67.3452911377,54.0797157288 L66.4368286133,55.7188835144 L66.0736999512,57.3880386353 L66.3960189819,58.9612579346 L67.4544219971,60.2987594604 L69.1831130981,61.3004074097 L71.4614105225,61.9199142456 L74.1653442383,62.1527938843 L77.0808944702,62.0478820801 L79.9620056152,61.693939209 L82.2185287476,61.2953338623 L83.5835952759,60.9948234558 " fill="none" stroke="white" stroke-linecap="round" stroke-width="2" /><path d="M99.9411697388,51.8843345642 " fill="none" stroke="white" stroke-linecap="round" stroke-width="2" /><path d="M99.569984436,50.5450515747 L99.2159957886,50.2627334595 L98.5520401001,49.8671188354 L97.583656311,49.484161377 L96.4356842041,49.2975120544 L95.2145004272,49.3642501831 L94.0768737793,49.6923103333 L93.2009963989,50.2541732788 L92.7372894287,51.0049057007 L92.8025360107,51.8801651001 L93.4487609863,52.8095817566 L94.6354598999,53.7097587585 L96.2435150146,54.5373458862 L98.0904006958,55.3139343262 L99.902633667,56.0771179199 L101.426185608,56.8705215454 L102.465446472,57.720703125 L102.921722412,58.6041297913 L102.79486084,59.4705085754 L102.141426086,60.260433197 L101.00188446,60.9011535645 L99.4511795044,61.3307228088 L97.6063766479,61.5189590454 L95.6359024048,61.4705886841 L93.7465057373,61.225353241 L92.1177368164,60.8360748291 L90.8387374878,60.3409576416 L90.0341949463,59.7048950195 L89.7736053467,58.9124107361 L90.0429229736,57.9833221436 L90.5472412109,57.1608772278 L91.0177764893,56.6066436768 " fill="none" stroke="white" stroke-linecap="round" stroke-width="2" /><path d="M106.921409607,50.381565094 L106.932991028,50.5659141541 L106.928581238,51.0214729309 L106.874267578,51.8293609619 L106.745391846,52.9910812378 L106.54763031,54.439037323 L106.341941833,56.0554924011 L106.231620789,57.6884918213 L106.333984375,59.174331665 L106.710739136,60.343536377 L107.375167847,61.0739631653 L108.27255249,61.2985267639 L109.321350098,60.9915924072 L110.452629089,60.1931304932 L111.590484619,58.9924736023 L112.664764404,57.5128898621 L113.621780396,55.9120407104 L114.440223694,54.3490982056 L115.120315552,52.926322937 L115.690124512,51.7336387634 L116.142227173,50.8197059631 L116.484336853,50.2012062073 L116.698875427,49.8794708252 L116.812088013,49.8621330261 L116.846633911,50.1535568237 L116.824455261,50.7907867432 L116.735481262,51.7876968384 L116.587615967,53.0931091309 L116.386505127,54.6089820862 L116.199821472,56.2151451111 L116.085823059,57.7786026001 L116.085357666,59.1939125061 L116.21333313,60.3288726807 L116.450111389,61.0721092224 L116.750320435,61.3877296448 L117.022674561,61.4091186523 L117.205627441,61.3027915955 " fill="none" stroke="white" stroke-linecap="round" stroke-width="2" /><path d="M122.774353027,51.823928833 L122.874549866,51.6228637695 L123.019882202,51.44713974 L123.164230347,51.4862594604 L123.225669861,51.9482040405 L123.144737244,52.8896636963 L122.897171021,54.2382164001 L122.499328613,55.8032112122 L122.016532898,57.38022995 L121.552192688,58.770652771 L121.186691284,59.8417892456 L120.976753235,60.5269355774 L120.946670532,60.7815704346 L121.088546753,60.5627593994 L121.418075562,59.8486099243 L121.953369141,58.6878967285 L122.685325623,57.2252807617 L123.604133606,55.645149231 L124.673019409,54.1232261658 L125.832778931,52.7866897583 L127.032058716,51.7159233093 L128.226196289,50.9686050415 L129.374710083,50.5855789185 L130.451797485,50.5865135193 L131.440414429,50.9596672058 L132.311447144,51.673500061 L133.017990112,52.6828193665 L133.517776489,53.9198112488 L133.784072876,55.3126106262 L133.83430481,56.7498130798 L133.742248535,58.0925369263 L133.614776611,59.0967826843 L133.520095825,59.676864624 " fill="none" stroke="white" stroke-linecap="round" stroke-width="2" /><path d="M161.237991333,50.119140625 L160.917388916,49.8961334229 L160.304855347,49.5888824463 L159.35836792,49.3042755127 L158.105377197,49.1804466248 L156.566802979,49.2662353516 L154.861495972,49.5433616638 L153.192153931,49.9487609863 L151.805633545,50.4371414185 L150.898071289,50.9744720459 L150.563400269,51.544883728 L150.806167603,52.1581993103 L151.575714111,52.8120269775 L152.79850769,53.4969406128 L154.366958618,54.2151260376 L156.127838135,54.9676208496 L157.911468506,55.7768173218 L159.52645874,56.6344261169 L160.828521729,57.5245094299 L161.71270752,58.3900871277 L162.128265381,59.1735916138 L162.056106567,59.8272972107 L161.507064819,60.3302688599 L160.49786377,60.6445045471 L159.122756958,60.7724876404 L157.475646973,60.6961250305 L155.72807312,60.433757782 L154.054107666,60.0293960571 L152.630187988,59.4893035889 L151.590957642,58.8322219849 L151.017822266,58.1085472107 L150.802749634,57.4873962402 L150.8019104,57.0785865784 " fill="none" stroke="white" stroke-linecap="round" stroke-width="2" /><path d="M166.205978394,51.0972099304 L166.179153442,51.3494567871 L166.077957153,51.8831672668 L165.86340332,52.7412528992 L165.526321411,53.8793678284 L165.121337891,55.2555236816 L164.72744751,56.7904090881 L164.415481567,58.375579834 L164.260742188,59.8302268982 L164.275878906,60.9555702209 L164.428619385,61.610824585 L164.618118286,61.8587646484 L164.766540527,61.8612327576 " fill="none" stroke="white" stroke-linecap="round" stroke-width="2" /><path d="M166.498825073,44.1906509399 L166.543426514,43.8358459473 L166.646759033,43.4210548401 L166.769104004,43.078540802 L166.870803833,42.9405593872 " fill="none" stroke="white" stroke-linecap="round" stroke-width="2" /><path d="M171.606948853,52.0074272156 L171.587280273,52.1984443665 L171.498016357,52.6992149353 L171.28163147,53.6241378784 L170.908935547,54.983631134 L170.404937744,56.6636619568 L169.856994629,58.4237365723 L169.387023926,59.9770126343 L169.06439209,61.1242103577 L168.910003662,61.7674293518 L168.904190063,61.9210624695 L169.032684326,61.6279258728 L169.298904419,60.8756141663 L169.765914917,59.643737793 L170.450515747,58.029548645 L171.350845337,56.1881217957 L172.415512085,54.3553657532 L173.574432373,52.7531204224 L174.736541748,51.5224189758 L175.895462036,50.7274360657 L177.003601074,50.4097595215 L178.041244507,50.5556793213 L178.956420898,51.1631889343 L179.668457031,52.2053184509 L180.075393677,53.6260223389 L180.176513672,55.3085517883 L179.993637085,57.0673980713 L179.652526855,58.6793251038 L179.290405273,59.972694397 L178.988616943,60.8422279358 L178.76322937,61.2448577881 L178.640945435,61.1736984253 L178.634811401,60.6178855896 L178.807220459,59.5861816406 L179.227401733,58.177696228 L179.925430298,56.5586624146 L180.893753052,54.9035415649 L182.129196167,53.378993988 L183.584884644,52.107421875 L185.173187256,51.1622505188 L186.788925171,50.6130485535 L188.304412842,50.4966392517 L189.606781006,50.8103370667 L190.625869751,51.5240211487 L191.309463501,52.5871772766 L191.630966187,53.9175415039 L191.626647949,55.4193687439 L191.367660522,56.9745635986 L190.993942261,58.4131965637 L190.636260986,59.5541915894 L190.380767822,60.2764015198 L190.24861145,60.6053161621 L190.20993042,60.6702842712 " fill="none" stroke="white" stroke-linecap="round" stroke-width="2" /><path d="M196.431640625,50.8100585938 L196.497406006,51.0257911682 L196.533309937,51.5602531433 L196.456726074,52.5003662109 L196.197372437,53.8202018738 L195.770599365,55.4000587463 L195.253433228,57.0352554321 L194.755996704,58.5088157654 L194.364471436,59.6509437561 L194.109619141,60.3353462219 L194.012954712,60.5108795166 L194.07850647,60.1751937866 L194.341796875,59.347278595 L194.833755493,58.105091095 L195.536819458,56.5966186523 L196.390670776,54.9784927368 L197.36920166,53.4130134583 L198.435150146,52.0303955078 L199.576385498,50.9307365417 L200.764358521,50.1981010437 L201.922851562,49.9149665833 L202.939193726,50.1273956299 L203.74256897,50.8453903198 L204.260360718,52.0130119324 L204.464263916,53.518989563 L204.388473511,55.1699409485 L204.123291016,56.7350234985 L203.775878906,58.024772644 L203.473709106,58.9407272339 L203.277236938,59.4440345764 L203.203338623,59.5431518555 L203.275665283,59.2266273499 L203.541137695,58.4640693665 L204.061279297,57.2941932678 L204.895767212,55.8358192444 L206.014892578,54.2478523254 L207.334259033,52.700843811 L208.730255127,51.3321037292 L210.061904907,50.2412414551 L211.225585938,49.5176734924 L212.178024292,49.2272567749 L212.883377075,49.4094238281 L213.356460571,50.0565948486 L213.614562988,51.1152687073 L213.658615112,52.4807395935 L213.513946533,54.0094184875 L213.254043579,55.5509681702 L212.945526123,56.9816627502 L212.70854187,58.1649093628 L212.648986816,59.010559082 L212.799087524,59.4664154053 L213.038970947,59.6140556335 L213.260498047,59.5907211304 " fill="none" stroke="white" stroke-linecap="round" stroke-width="2" /><path d="M216.282684326,56.9520721436 L216.700027466,56.9014816284 L217.502258301,56.7187461853 L218.6824646,56.3399238586 L220.088897705,55.7313804626 L221.574020386,54.9227180481 L223.013320923,53.9770965576 L224.286804199,52.9767608643 L225.277999878,51.9942016602 L225.882324219,51.1023292542 L226.024658203,50.3605499268 L225.637115479,49.8486061096 L224.723175049,49.6549530029 L223.342483521,49.8819580078 L221.6353302,50.5709877014 L219.824478149,51.6932945251 L218.194564819,53.1335792542 L216.999343872,54.7384223938 L216.443527222,56.339214325 L216.626983643,57.7921142578 L217.573120117,58.947517395 L219.209381104,59.669883728 L221.386154175,59.8640594482 L223.868606567,59.5213012695 L226.387008667,58.6960449219 L228.668884277,57.5105133057 L230.551071167,56.0982780457 L231.941009521,54.6015129089 L232.863098145,53.1811447144 L233.377532959,51.9958457947 L233.573455811,51.1638412476 L233.511169434,50.7744026184 L233.248565674,50.865196228 L232.805099487,51.4602775574 L232.242111206,52.5358810425 L231.636123657,53.9815673828 L231.091003418,55.5979003906 L230.685974121,57.1383552551 L230.456161499,58.3947906494 L230.356185913,59.248626709 L230.321075439,59.6472930908 L230.300704956,59.5872268677 L230.292663574,59.0747299194 L230.335723877,58.146900177 L230.472427368,56.9071388245 L230.719329834,55.4942474365 L231.069656372,54.0359611511 L231.538665771,52.6310272217 L232.165542603,51.3247451782 L233.002624512,50.1658973694 L234.083099365,49.2170219421 L235.400253296,48.5357131958 L236.944915771,48.1754989624 L238.656951904,48.1338653564 L240.424636841,48.3459434509 L241.860610962,48.6364784241 L242.765838623,48.8722038269 " fill="none" stroke="white" stroke-linecap="round" stroke-width="2" /><path class="linestart" d="M254.210830688,49.7276878357 L254.052398682,49.4853134155 L253.601715088,49.1493797302 L252.701599121,48.8229980469 L251.289550781,48.6609420776 L249.424682617,48.701084137 L247.336456299,48.9439811707 L245.36100769,49.3556251526 L243.825912476,49.9067802429 L242.979507446,50.5658760071 L242.951156616,51.3194503784 L243.712783813,52.1445426941 L245.14289856,53.0222549438 L247.039321899,53.9348983765 L249.136322021,54.8703613281 L251.169555664,55.7969169617 L252.911300659,56.671585083 L254.180114746,57.4422340393 L254.882644653,58.0749206543 L254.948318481,58.5403785706 L254.342788696,58.8500595093 L253.074447632,59.0186843872 L251.180786133,59.0572090149 L248.754013062,58.9799499512 L245.957809448,58.81275177 L242.978210449,58.561126709 L240.062988281,58.2536964417 L237.46484375,57.9121398926 L235.34312439,57.5541191101 L233.760894775,57.2073822021 L232.678955078,56.9097633362 L232.038513184,56.699432373 L231.732116699,56.5882759094 " fill="none" stroke="white" stroke-linecap="round" stroke-width="2" /><path d="M0,0 " fill="none" stroke="white" stroke-linecap="round" stroke-width="2" /><path d="M43.5552864075,114.771400452 L44.0646781921,114.894996643 L44.981880188,115.022575378 L46.2885169983,115.064247131 L47.8195495605,114.908966064 L49.4916267395,114.525588989 L51.195224762,113.911956787 L52.8419685364,113.090614319 L54.3229179382,112.084777832 L55.5649375916,110.95123291 L56.4746284485,109.762382507 L56.9813156128,108.614402771 L57.0328102112,107.597167969 L56.6238441467,106.794784546 L55.7642021179,106.286262512 L54.5082702637,106.159889221 L52.9040489197,106.473213196 L51.0674629211,107.251266479 L49.1757049561,108.441009521 L47.4559516907,109.93963623 L46.1059455872,111.61819458 L45.2785606384,113.3514328 L45.0284729004,115.017173767 L45.3609313965,116.514663696 L46.2532043457,117.735412598 L47.6624755859,118.591262817 L49.4925956726,119.022209167 L51.6131401062,119.01083374 L53.8637275696,118.592300415 L56.0790061951,117.826835632 L58.1627197266,116.775382996 L60.1094856262,115.48815918 L61.9211082458,113.978515625 L63.6157989502,112.250473022 L65.2072601318,110.331794739 L66.6571655273,108.268058777 L67.9451141357,106.148216248 L69.0772323608,104.085731506 L70.0204696655,102.173217773 L70.7456436157,100.478355408 L71.2284164429,99.0460205078 L71.4344863892,97.8840408325 L71.3886260986,96.9927215576 L71.134513855,96.375 L70.7171173096,96.0382995605 L70.1527862549,96.0 L69.4484710693,96.2902755737 L68.5926513672,96.9136276245 L67.6152648926,97.8524780273 L66.5552520752,99.0784454346 L65.4853973389,100.559204102 L64.4597930908,102.252449036 L63.5459327698,104.11391449 L62.77784729,106.067626953 L62.2009391785,108.026512146 L61.8568725586,109.907577515 L61.7872009277,111.648338318 L62.0102653503,113.193916321 L62.5453033447,114.505943298 L63.3643760681,115.538917542 L64.4461517334,116.250427246 L65.7590789795,116.60168457 L67.241607666,116.575439453 L68.8318939209,116.174720764 L70.4523773193,115.424835205 L72.0090789795,114.371963501 L73.4301147461,113.085006714 L74.6445770264,111.662071228 L75.5813751221,110.22882843 L76.19896698,108.918052673 L76.4556121826,107.834114075 L76.3415756226,107.053573608 L75.8692092896,106.62587738 L75.082901001,106.595306396 L74.0600891113,106.990699768 L72.8963928223,107.803405762 L71.7230834961,108.966926575 L70.6837387085,110.374832153 L69.9101409912,111.894088745 L69.5257949829,113.3934021 L69.623550415,114.74281311 L70.2359390259,115.815994263 L71.3680648804,116.496055603 L72.9504394531,116.712265015 L74.85521698,116.438461304 L76.9013595581,115.698600769 L78.917755127,114.579116821 L80.7438201904,113.203025818 L82.2702789307,111.715484619 L83.4339447021,110.290184021 L84.2223434448,109.081626892 L84.6733856201,108.159591675 L84.8827972412,107.557846069 L84.9287948608,107.281776428 L84.8585357666,107.34753418 L84.6851119995,107.805358887 L84.4193572998,108.709777832 L84.1104660034,109.995986938 L83.8202438354,111.530189514 L83.6025390625,113.113235474 L83.485824585,114.540618896 L83.4468765259,115.667633057 L83.4417724609,116.432380676 L83.4391021729,116.791221619 L83.4164428711,116.729957581 L83.4240188599,116.220092773 L83.5476379395,115.260795593 L83.8689575195,113.931053162 L84.4203796387,112.367973328 L85.2190856934,110.733779907 L86.2246856689,109.1848526 L87.3818893433,107.832168579 L88.6124954224,106.765541077 L89.8129577637,106.080245972 L90.8590621948,105.843391418 L91.6946182251,106.080039978 L92.2868423462,106.766197205 L92.6276550293,107.819374084 L92.7535552979,109.106513977 L92.6885604858,110.454856873 L92.4927902222,111.691238403 L92.2519836426,112.681686401 L92.0414581299,113.34236908 L91.9158706665,113.630180359 L91.9303817749,113.517753601 L92.1297912598,112.975715637 L92.5696029663,112.021316528 L93.2754592896,110.761390686 L94.2382659912,109.366706848 L95.3898696899,108.027008057 L96.6386947632,106.900337219 L97.9125213623,106.091682434 L99.1348342896,105.653366089 L100.255409241,105.616210938 L101.253005981,105.987350464 L102.097610474,106.747772217 L102.75969696,107.834571838 L103.229393005,109.154602051 L103.514450073,110.565330505 L103.652618408,111.9164505 L103.730667114,113.059173584 L103.829704285,113.896286011 L103.99433136,114.386817932 L104.173057556,114.598213196 L104.316558838,114.637565613 " fill="none" stroke="white" stroke-linecap="round" stroke-width="2" /><path d="M106.494819641,113.006958008 L106.655975342,112.919570923 L107.016212463,112.728912354 L107.635421753,112.393379211 L108.511032104,111.898910522 L109.608726501,111.235595703 L110.80871582,110.410362244 L111.989456177,109.457321167 L113.022994995,108.433326721 L113.824653625,107.404640198 L114.351875305,106.447151184 L114.574447632,105.630447388 L114.442062378,105.011856079 L113.938819885,104.648193359 L113.039108276,104.5911026 L111.791595459,104.888526917 L110.320899963,105.556091309 L108.795501709,106.559814453 L107.421569824,107.818443298 L106.406059265,109.213539124 L105.88394928,110.607437134 L105.950935364,111.879455566 L106.63633728,112.923912048 L107.877662659,113.644180298 L109.584442139,113.982475281 L111.613838196,113.911857605 L113.779983521,113.444999695 L115.925056458,112.647979736 L117.914398193,111.61138916 L119.632843018,110.423927307 L121.039772034,109.194381714 L122.101318359,108.031410217 L122.805099487,107.033851624 L123.193473816,106.279762268 L123.32824707,105.824157715 L123.281318665,105.705490112 L123.126205444,105.970039368 L122.878196716,106.661819458 L122.538757324,107.76815033 L122.131446838,109.1820755 L121.704704285,110.731056213 L121.338371277,112.21169281 L121.081359863,113.444107056 L120.93094635,114.34085083 L120.856987,114.862640381 L120.836151123,114.982620239 L120.885559082,114.687820435 L121.070999146,113.966590881 L121.434547424,112.839912415 L121.996063232,111.431098938 L122.756034851,109.906394958 L123.68901825,108.426025391 L124.784515381,107.129547119 L126.024452209,106.10446167 L127.362953186,105.397743225 L128.734451294,105.05696106 L130.060775757,105.113304138 L131.245803833,105.560028076 L132.221893311,106.374938965 L132.929153442,107.50579071 L133.350280762,108.866439819 L133.508911133,110.360206604 L133.465255737,111.885047913 L133.304626465,113.325691223 L133.15222168,114.563446045 L133.105117798,115.497375488 L133.215911865,116.071426392 L133.40222168,116.333488464 L133.572418213,116.395645142 " fill="none" stroke="white" stroke-linecap="round" stroke-width="2" /><path d="M140.795837402,97.7456359863 L140.821228027,97.5846939087 L140.867416382,97.432762146 L140.926803589,97.4355392456 L140.966842651,97.7696990967 L140.936889648,98.5354309082 L140.823776245,99.7506637573 L140.597915649,101.368736267 L140.280670166,103.314178467 L139.907791138,105.455360413 L139.517547607,107.645332336 L139.131088257,109.752792358 L138.811462402,111.647979736 L138.570983887,113.215934753 L138.437454224,114.394142151 L138.390670776,115.124412537 L138.395172119,115.472061157 " fill="none" stroke="white" stroke-linecap="round" stroke-width="2" /><path d="M136.315231323,107.661727905 L136.536376953,107.354598999 L137.074630737,106.899490356 L138.019454956,106.379615784 L139.382949829,105.949638367 L141.111160278,105.658149719 L143.098632812,105.536834717 L145.220306396,105.563911438 L147.361312866,105.703056335 L149.388290405,105.871620178 L151.179382324,106.007888794 L152.629867554,106.086303711 L153.662857056,106.105232239 L154.243667603,106.062042236 L154.403121948,105.956863403 L154.158569336,105.806343079 L153.496368408,105.682739258 L152.415390015,105.706420898 L150.932525635,105.989479065 L149.158889771,106.596252441 L147.298278809,107.522499084 L145.584594727,108.705101013 L144.221374512,110.03793335 L143.360565186,111.387504578 L143.056137085,112.596878052 L143.324188232,113.512298584 L144.113342285,114.006599426 L145.333786011,114.00630188 L146.857788086,113.498039246 L148.544662476,112.529426575 L150.23600769,111.211608887 L151.787658691,109.705284119 L153.067337036,108.208137512 L153.991241455,106.918128967 L154.565795898,105.958106995 L154.85105896,105.365974426 L154.922866821,105.139221191 L154.830474854,105.280014038 L154.586349487,105.829971313 L154.195556641,106.82875061 L153.746170044,108.215591431 L153.351699829,109.832168579 L153.15284729,111.456817627 L153.243499756,112.903671265 L153.688354492,113.993255615 L154.447372437,114.625007629 L155.430374146,114.774810791 L156.31451416,114.636245728 L156.911453247,114.409286499 " fill="none" stroke="white" stroke-linecap="round" stroke-width="2" /><path d="M162.874404907,97.5924224854 L162.928039551,97.5666046143 L162.95703125,97.6858062744 L162.90713501,98.0954589844 L162.709640503,98.9082946777 L162.368408203,100.123420715 L161.916275024,101.678833008 L161.411499023,103.467330933 L160.931167603,105.359092712 L160.561782837,107.232032776 L160.356231689,108.977043152 L160.341461182,110.526390076 L160.526870728,111.846115112 L160.868545532,112.90411377 L161.312561035,113.682449341 L161.713424683,114.162490845 L161.984130859,114.38848114 " fill="none" stroke="white" stroke-linecap="round" stroke-width="2" /><path d="M178.619842529,106.72341156 " fill="none" stroke="white" stroke-linecap="round" stroke-width="2" /><path class="linestart" d="M179.772521973,104.971794128 L179.765594482,104.806137085 L179.736572266,104.616615295 L179.657531738,104.515922546 L179.49180603,104.675849915 L179.230636597,105.190010071 L178.81312561,106.132614136 L178.275726318,107.461181641 L177.685150146,109.067352295 L177.129333496,110.769767761 L176.678894043,112.37877655 L176.388244629,113.72518158 L176.216552734,114.719863892 L176.144973755,115.353309631 L176.1378479,115.669036865 L176.153396606,115.689651489 L176.159347534,115.397254944 L176.165908813,114.722442627 L176.17741394,113.635368347 L176.234939575,112.221763611 L176.36340332,110.630241394 L176.562652588,109.008712769 L176.828933716,107.47895813 L177.190719604,106.098571777 L177.694000244,104.908332825 L178.402755737,103.939331055 L179.365982056,103.200515747 L180.608764648,102.699119568 L182.096359253,102.426589966 L183.778198242,102.357627869 L185.571746826,102.459785461 L187.383666992,102.675125122 L189.13911438,102.935958862 L190.79699707,103.186378479 L192.323532104,103.368591309 L193.69178772,103.456573486 L194.850250244,103.442138672 L195.720596313,103.346443176 L196.24710083,103.201835632 L196.425247192,103.049865723 L196.266906738,102.931854248 L195.765701294,102.91166687 L194.905319214,103.058601379 L193.642547607,103.462738037 L192.031768799,104.194015503 L190.214172363,105.273605347 L188.389846802,106.658569336 L186.77281189,108.240936279 L185.548583984,109.869041443 L184.78616333,111.383506775 L184.539260864,112.650939941 L184.768218994,113.543952942 L185.438995361,113.977890015 L186.517456055,113.905700684 L187.958251953,113.326782227 L189.641418457,112.288452148 L191.442749023,110.905860901 L193.178222656,109.317619324 L194.708648682,107.696121216 L195.925292969,106.222747803 L196.793167114,105.025733948 L197.313995361,104.177589417 L197.539535522,103.722518921 L197.524871826,103.696922302 L197.302139282,104.142105103 L196.88243103,105.100128174 L196.318847656,106.495475769 L195.708267212,108.146980286 L195.207504272,109.827484131 L194.986633301,111.32334137 L195.142288208,112.480506897 L195.681091309,113.228721619 L196.542556763,113.510559082 L197.633285522,113.297111511 L198.872329712,112.613891602 L200.183624268,111.544700623 L201.487487793,110.221908569 L202.688690186,108.803192139 L203.697692871,107.447853088 L204.453048706,106.284042358 L204.946517944,105.384651184 L205.194717407,104.803260803 L205.234390259,104.586853027 L205.077377319,104.756500244 L204.750610352,105.355323792 L204.296539307,106.347923279 L203.833465576,107.60004425 L203.492507935,108.936859131 L203.404373169,110.190933228 L203.6146698,111.208518982 L204.152740479,111.926963806 L204.989624023,112.293930054 L206.114196777,112.272827148 L207.466415405,111.850875854 L208.98248291,111.050453186 L210.537887573,109.935852051 L212.022354126,108.61831665 L213.297744751,107.257049561 L214.285095215,106.012405396 L214.938171387,105.007492065 L215.27973938,104.317863464 L215.356338501,104.009849548 L215.207351685,104.118453979 L214.815490723,104.719345093 L214.184814453,105.854560852 L213.345794678,107.494560242 L212.378372192,109.551368713 L211.381454468,111.928436279 L210.422683716,114.511993408 L209.516311646,117.235809326 L208.652908325,120.02167511 L207.810821533,122.767211914 L206.998657227,125.337852478 L206.237564087,127.601005554 L205.571502686,129.44078064 L205.030822754,130.779937744 L204.618942261,131.553283691 L204.313247681,131.715362549 L204.122711182,131.222381592 L204.066879272,130.060333252 L204.215667725,128.292816162 L204.603591919,126.04485321 L205.251525879,123.49382019 L206.134963989,120.834259033 L207.229385376,118.233436584 L208.498123169,115.80381012 L209.945236206,113.63407135 L211.543411255,111.771591187 L213.290039062,110.248474121 L215.157516479,109.070373535 L217.107971191,108.211502075 L219.088012695,107.619186401 L221.036834717,107.253067017 L222.853118896,107.091903687 L224.461929321,107.13923645 L225.811965942,107.408714294 L226.864883423,107.913612366 L227.603027344,108.64768219 L228.000534058,109.590690613 L228.017288208,110.695877075 L227.655715942,111.88256073 L226.966415405,113.050689697 L226.003250122,114.098678589 L224.778366089,114.897293091 L223.344497681,115.364974976 L221.781799316,115.483062744 L220.465545654,115.387672424 L219.617736816,115.232765198 " fill="none" stroke="white" stroke-linecap="round" stroke-width="2" /><path d="M0,0 " fill="none" stroke="white" stroke-linecap="round" stroke-width="2" /><path d="M43.9869270325,151.0 L43.9978942871,151.006088257 L44.0228881836,151.167861938 L44.0463142395,151.613739014 L44.0375099182,152.446182251 L43.9670372009,153.661697388 L43.7981643677,155.216430664 L43.5075836182,157.043609619 L43.1445617676,159.069000244 L42.7597122192,161.203170776 L42.4061317444,163.347579956 L42.1239242554,165.371231079 L41.9291229248,167.151809692 L41.804561615,168.576629639 L41.7469215393,169.58833313 L41.7449111938,170.204193115 L41.7687225342,170.446517944 L41.7916755676,170.365966797 L41.7994155884,170.025390625 L41.789516449,169.617767334 L41.7719116211,169.291778564 " fill="none" stroke="white" stroke-linecap="round" stroke-width="2" /><path d="M38.2944068909,162.140869141 L38.4319343567,162.161560059 L38.8371276855,162.176925659 L39.6414108276,162.154418945 L40.8782730103,162.053939819 L42.4813613892,161.849380493 L44.2993659973,161.537490845 L46.1693153381,161.144668579 L47.9753913879,160.726379395 L49.6281204224,160.343093872 L51.0470504761,160.059234619 L52.1540222168,159.920471191 L52.926738739,159.984268188 L53.3755874634,160.316894531 L53.5280723572,160.974960327 L53.4469528198,161.98374939 L53.1893844604,163.309432983 L52.8207015991,164.837142944 L52.4421348572,166.427276611 L52.1407318115,167.948867798 L51.9506225586,169.24118042 L51.8952980042,170.183486938 L51.9351615906,170.707824707 L52.0060272217,170.889541626 L52.0644454956,170.872589111 " fill="none" stroke="white" stroke-linecap="round" stroke-width="2" /><path d="M55.054271698,153.625534058 L55.1433677673,153.661437988 L55.3393325806,153.801589966 L55.5676612854,153.989044189 L55.7538452148,154.1668396 " fill="none" stroke="white" stroke-linecap="round" stroke-width="2" /><path d="M59.1812438965,160.507156372 L59.1571311951,160.731536865 L59.0805549622,161.263870239 L58.898223877,162.187026978 L58.5635871887,163.469406128 L58.0821990967,165.000152588 L57.5262260437,166.57723999 L57.0091743469,167.993759155 L56.629699707,169.094085693 L56.422492981,169.780960083 L56.3750190735,170.008285522 L56.475276947,169.756988525 L56.7458877563,168.986053467 L57.2460899353,167.731994629 L58.0209388733,166.11680603 L59.0838279724,164.31817627 L60.4128265381,162.542800903 L61.9275360107,160.984100342 L63.5197639465,159.787643433 L65.0792694092,159.072402954 L66.4838409424,158.908828735 L67.62449646,159.296295166 L68.4328231812,160.175750732 L68.8538970947,161.444580078 L68.9015960693,162.975616455 L68.6673126221,164.593017578 L68.2818450928,166.096237183 L67.882019043,167.32131958 L67.5887298584,168.145294189 L67.4459228516,168.495452881 L67.483505249,168.350845337 L67.7397994995,167.703735352 L68.262878418,166.577468872 L69.0841064453,165.111358643 L70.2093505859,163.494232178 L71.5575256348,161.927108765 L73.0011520386,160.585144043 L74.4142608643,159.59197998 L75.7032089233,159.011947632 L76.8039703369,158.900604248 L77.6767578125,159.278076172 L78.2836074829,160.124206543 L78.5886764526,161.374435425 L78.6003952026,162.916885376 L78.4070510864,164.595809937 L78.1411209106,166.209716797 L77.9148788452,167.569854736 L77.7981948853,168.540481567 L77.8113174438,169.051467896 L77.9651565552,169.091629028 L78.3358230591,168.70350647 L79.0155715942,167.914978027 L80.0415267944,166.799179077 L81.3484573364,165.470184326 L82.7819061279,164.059143066 L84.1670684814,162.69883728 L85.343963623,161.497680664 L86.2186203003,160.49269104 L86.7625198364,159.711120605 L86.9558486938,159.172225952 L86.7800521851,158.896453857 L86.2489700317,158.922698975 L85.3300323486,159.283340454 L84.0754776001,159.981079102 L82.6385192871,161.002258301 L81.2414779663,162.281509399 L80.1477966309,163.723449707 L79.5722122192,165.21232605 L79.6921081543,166.631622314 L80.5356674194,167.868942261 L81.9834442139,168.851821899 L83.4418640137,169.493148804 L84.5011901855,169.81918335 " fill="none" stroke="white" stroke-linecap="round" stroke-width="2" /><path d="M108.214759827,160.275466919 L108.245903015,160.540679932 L108.272972107,161.107849121 L108.266456604,162.022476196 L108.198318481,163.225402832 L108.062423706,164.625473022 L107.865837097,166.112960815 L107.620620728,167.571472168 L107.394378662,168.817321777 L107.245315552,169.684844971 L107.219848633,170.068450928 L107.275856018,170.091110229 L107.355873108,169.949401855 " fill="none" stroke="white" stroke-linecap="round" stroke-width="2" /><path d="M109.209075928,154.193695068 L109.188201904,154.057144165 L109.190002441,153.90447998 L109.210235596,153.78352356 L109.244667053,153.742080688 " fill="none" stroke="white" stroke-linecap="round" stroke-width="2" /><path d="M121.864532471,159.32093811 L121.550071716,159.128097534 L120.963806152,158.866455078 L120.065246582,158.626159668 L118.91519165,158.538604736 L117.567260742,158.635101318 L116.170654297,158.907333374 L114.916915894,159.318603516 L114.01751709,159.841064453 L113.617149353,160.44569397 L113.788360596,161.115951538 L114.528182983,161.826904297 L115.76499176,162.568084717 L117.344390869,163.342498779 L119.056732178,164.157302856 L120.667114258,164.992034912 L121.950737,165.812698364 L122.754455566,166.572982788 L122.99772644,167.248794556 L122.647476196,167.828720093 L121.715042114,168.29460144 L120.245277405,168.609329224 L118.33506012,168.74130249 L116.160614014,168.681472778 L113.942962646,168.456604004 L111.920021057,168.124053955 L110.279769897,167.751022339 L109.196777344,167.443756104 L108.644233704,167.252502441 " fill="none" stroke="white" stroke-linecap="round" stroke-width="2" /><path d="M147.777633667,162.551925659 L147.704833984,162.230438232 L147.548553467,161.736785889 L147.268341064,161.168716431 L146.8309021,160.699752808 L146.179885864,160.420166016 L145.276290894,160.407226562 L144.098205566,160.707107544 L142.681625366,161.361373901 L141.131088257,162.367370605 L139.599761963,163.655914307 L138.269302368,165.104751587 L137.307067871,166.561157227 L136.808273315,167.86857605 L136.809844971,168.898956299 L137.312271118,169.561035156 L138.257003784,169.776184082 L139.578918457,169.494384766 L141.186233521,168.732162476 L142.934799194,167.580657959 L144.672912598,166.193511963 L146.25982666,164.767974854 L147.550613403,163.482070923 L148.494827271,162.461242676 L149.095031738,161.76071167 L149.387237549,161.382446289 L149.450683594,161.307525635 L149.349655151,161.551895142 L149.107772827,162.150466919 L148.788665771,163.119628906 L148.430221558,164.388122559 L148.102905273,165.827270508 L147.889358521,167.27583313 L147.840301514,168.601119995 L147.979736328,169.713378906 L148.302093506,170.575683594 L148.785919189,171.085174561 L149.411621094,171.186981201 L150.136688232,170.866653442 L150.765594482,170.377288818 L151.188034058,169.944564819 " fill="none" stroke="white" stroke-linecap="round" stroke-width="2" /><path d="M158.518005371,151.458969116 L158.569946289,151.563522339 L158.609420776,151.858047485 L158.571029663,152.425537109 L158.39364624,153.29598999 L158.056838989,154.466186523 L157.589569092,155.928359985 L157.043106079,157.65007019 L156.473632812,159.575317383 L155.929397583,161.598342896 L155.470169067,163.581115723 L155.135147095,165.394195557 L154.960952759,166.925003052 L154.943908691,168.082839966 L155.06312561,168.838317871 L155.220504761,169.226806641 L155.349349976,169.359893799 " fill="none" stroke="white" stroke-linecap="round" stroke-width="2" /><path d="M161.658462524,161.05607605 L161.607925415,161.011489868 L161.515975952,161.134002686 L161.364700317,161.582962036 L161.153793335,162.474014282 L160.886550903,163.743408203 L160.616836548,165.253356934 L160.406616211,166.804779053 L160.351852417,168.23638916 L160.511810303,169.395996094 L160.923095703,170.180114746 L161.593856812,170.491439819 L162.517852783,170.274093628 L163.636749268,169.514129639 L164.879577637,168.310394287 L166.114303589,166.823394775 L167.202636719,165.286483765 L168.043762207,163.912857056 L168.611801147,162.838378906 L168.934631348,162.123397827 L169.074386597,161.795593262 L169.072189331,161.860458374 L168.947631836,162.349945068 L168.709381104,163.274139404 L168.419570923,164.541275024 L168.182601929,165.970153809 L168.097549438,167.337097168 L168.245544434,168.441879272 L168.643783569,169.156860352 L169.257293701,169.413970947 L170.079620361,169.180633545 L171.100509644,168.446578979 L172.257629395,167.267044067 L173.454925537,165.759490967 L174.553970337,164.087677002 L175.42074585,162.397750854 L176.015304565,160.835754395 L176.370376587,159.511352539 L176.547775269,158.509841919 L176.622268677,157.887985229 L176.649520874,157.601806641 " fill="none" stroke="white" stroke-linecap="round" stroke-width="2" /><path d="M188.295501709,162.361862183 L188.170349121,161.919342041 L187.885025024,161.260498047 L187.36857605,160.520111084 L186.593994141,159.941818237 L185.519088745,159.621917725 L184.163024902,159.651275635 L182.579071045,160.074935913 L180.876556396,160.915466309 L179.227264404,162.126266479 L177.83215332,163.60508728 L176.84916687,165.197799683 L176.370941162,166.729705811 L176.406417847,168.04083252 L176.891815186,168.988922119 L177.755767822,169.48274231 L178.92565918,169.478424072 L180.32901001,168.982849121 L181.870651245,168.047073364 L183.459716797,166.783966064 L184.952606201,165.317932129 L186.217025757,163.798568726 L187.175872803,162.382965088 L187.814208984,161.196670532 L188.16519165,160.313430786 L188.317749023,159.785217285 L188.293746948,159.634765625 L188.110397339,159.890106201 L187.791320801,160.593170166 L187.383468628,161.723678589 L186.956939697,163.167922974 L186.615509033,164.765899658 L186.458862305,166.32611084 L186.570373535,167.664718628 L186.969665527,168.673461914 L187.450927734,169.291305542 L187.837188721,169.570068359 " fill="none" stroke="white" stroke-linecap="round" stroke-width="2" /><path d="M194.405395508,160.675323486 L194.375076294,160.879180908 L194.34576416,161.35534668 L194.351165771,162.146713257 L194.450439453,163.174377441 L194.687149048,164.282302856 L195.072647095,165.285324097 L195.618148804,166.021209717 L196.345428467,166.384033203 L197.25151062,166.317001343 L198.32649231,165.821380615 L199.488220215,164.955718994 L200.633331299,163.842437744 L201.657440186,162.656890869 L202.485717773,161.572753906 L203.072113037,160.710891724 L203.406158447,160.14390564 L203.450881958,159.914733887 L203.224212646,160.065063477 L202.749908447,160.666687012 L202.098480225,161.769012451 L201.366607666,163.353469849 L200.641983032,165.353607178 L199.939651489,167.667449951 L199.251113892,170.173370361 L198.513977051,172.762466431 L197.687667847,175.32862854 L196.773651123,177.728408813 L195.815826416,179.811080933 L194.862121582,181.430328369 L193.960510254,182.47428894 L193.129989624,182.883560181 L192.376434326,182.677505493 L191.736633301,181.903442383 L191.27166748,180.646575928 L191.053924561,179.03364563 L191.252532959,177.148574829 L191.95085144,175.118972778 L193.119857788,173.104064941 L194.316055298,171.511306763 L195.19720459,170.52923584 " fill="none" stroke="white" stroke-linecap="round" stroke-width="2" /><path d="M212.934967041,159.566558838 L212.80255127,159.247070312 L212.486984253,158.812332153 L211.903121948,158.394592285 L211.025924683,158.187194824 L209.884033203,158.249435425 L208.573776245,158.577423096 L207.281860352,159.130065918 L206.206237793,159.869812012 L205.511306763,160.729614258 L205.31199646,161.651367188 L205.649551392,162.586578369 L206.486816406,163.478530884 L207.740524292,164.306442261 L209.264450073,165.06098938 L210.890899658,165.743881226 L212.440643311,166.359298706 L213.748947144,166.902359009 L214.694442749,167.349380493 L215.220535278,167.704940796 L215.315734863,167.975418091 L215.003036499,168.188461304 L214.307952881,168.368865967 L213.239242554,168.522964478 L211.826660156,168.632720947 L210.166107178,168.692932129 L208.370101929,168.691055298 L206.585174561,168.636550903 L204.963226318,168.521713257 L203.623718262,168.341400146 L202.638458252,168.090759277 L202.053283691,167.849975586 L201.789169312,167.673797607 " fill="none" stroke="white" stroke-linecap="round" stroke-width="2" /><path d="M234.621200562,151.469390869 L234.616012573,151.747543335 L234.590118408,152.320892334 L234.503067017,153.232177734 L234.315612793,154.446685791 L234.010101318,155.932662964 L233.568603516,157.638381958 L233.02142334,159.503479004 L232.438598633,161.448532104 L231.867340088,163.375045776 L231.360061646,165.196029663 L230.962966919,166.829345703 L230.682647705,168.168960571 L230.537963867,169.134918213 L230.525558472,169.689041138 L230.579284668,169.906021118 L230.643234253,169.925476074 " fill="none" stroke="white" stroke-linecap="round" stroke-width="2" /><path d="M227.892364502,161.585220337 L228.263442993,161.525909424 L229.010360718,161.435272217 L230.15335083,161.319869995 L231.562408447,161.1822052 L233.128692627,160.988586426 L234.749603271,160.706420898 L236.381759644,160.317443848 L237.983413696,159.763778687 L239.471328735,159.024230957 L240.724075317,158.126113892 L241.583099365,157.316116333 L242.029495239,156.760696411 " fill="none" stroke="white" stroke-linecap="round" stroke-width="2" /><path d="M243.586471558,151.223098755 L243.605239868,151.315673828 L243.607971191,151.64074707 L243.564910889,152.328735352 L243.433792114,153.433746338 L243.183563232,154.907089233 L242.816467285,156.659591675 L242.37713623,158.588195801 L241.899276733,160.573867798 L241.444000244,162.500610352 L241.04637146,164.225814819 L240.737350464,165.619155884 L240.517669678,166.607696533 L240.408432007,167.184814453 L240.395523071,167.36807251 L240.483840942,167.171356201 L240.70173645,166.578857422 L241.115142822,165.590179443 L241.750976562,164.290618896 L242.646453857,162.835388184 L243.772232056,161.401626587 L245.055587769,160.149917603 L246.425079346,159.181838989 L247.803329468,158.545440674 L249.097122192,158.278991699 L250.243133545,158.391326904 L251.155975342,158.882537842 L251.772506714,159.752716064 L252.073410034,160.972793579 L252.080291748,162.458816528 L251.866744995,164.090576172 L251.536636353,165.693374634 L251.18510437,167.104354858 L250.901184082,168.206741333 L250.739425659,168.956375122 L250.683349609,169.368041992 L250.692596436,169.538375854 " fill="none" stroke="white" stroke-linecap="round" stroke-width="2" /><path d="M254.495361328,165.85357666 L254.941040039,165.676376343 L255.734542847,165.322555542 L256.82598877,164.773834229 L258.028503418,164.057327271 L259.229858398,163.2056427 L260.301147461,162.270294189 L261.162475586,161.319412231 L261.756347656,160.428619385 L262.060333252,159.663513184 L262.054748535,159.06829834 L261.729644775,158.691696167 L261.056152344,158.591430664 L260.050415039,158.83694458 L258.795043945,159.467895508 L257.445587158,160.471038818 L256.171936035,161.768737793 L255.157821655,163.239379883 L254.540237427,164.75227356 L254.406433105,166.189315796 L254.779296875,167.447189331 L255.644058228,168.429885864 L256.9034729,169.049667358 L258.457580566,169.239639282 L260.178222656,168.9793396 L261.923461914,168.299057007 L263.539489746,167.284805298 L264.916625977,166.04486084 L265.953338623,164.69821167 L266.639038086,163.370040894 L267.023742676,162.183990479 L267.195922852,161.226913452 L267.241455078,160.566116333 L267.232635498,160.233856201 L267.187194824,160.251144409 L267.105773926,160.652435303 L266.970153809,161.442901611 L266.775024414,162.570236206 L266.518981934,163.93762207 L266.20715332,165.377609253 L265.875305176,166.718170166 L265.566009521,167.838745117 L265.331115723,168.636825562 L265.225585938,169.047348022 L265.271362305,169.032745361 L265.449829102,168.559631348 L265.746795654,167.649078369 L266.138031006,166.426269531 L266.606750488,165.036376953 L267.141418457,163.630249023 L267.74609375,162.316482544 L268.426239014,161.164169312 L269.204711914,160.210891724 L270.114379883,159.515014648 L271.149902344,159.104248047 L272.27935791,158.983352661 L273.475952148,159.131561279 L274.67364502,159.49647522 L275.796508789,159.982788086 L276.654937744,160.419525146 L277.165740967,160.70664978 " fill="none" stroke="white" stroke-linecap="round" stroke-width="2" /><path class="linestart" d="M278.257049561,164.423446655 L278.387176514,164.431167603 L278.762481689,164.348526001 L279.467193604,164.114196777 L280.446777344,163.688613892 L281.540374756,163.108123779 L282.57699585,162.428710938 L283.435821533,161.706192017 L284.068817139,160.987045288 L284.469604492,160.3175354 L284.582366943,159.740020752 L284.341674805,159.312164307 L283.705322266,159.097305298 L282.686706543,159.169158936 L281.371368408,159.573822021 L279.895843506,160.30229187 L278.432373047,161.297286987 L277.161010742,162.468811035 L276.248168945,163.718505859 L275.826568604,164.968353271 L275.978515625,166.139068604 L276.729522705,167.144042969 L278.096252441,167.904052734 L280.028991699,168.378173828 L282.525390625,168.532363892 L285.418212891,168.385162354 L288.454467773,167.994125366 L290.91986084,167.561859131 L292.462127686,167.231170654 " fill="none" stroke="white" stroke-linecap="round" stroke-width="2" /><path d="M0,0 " fill="none" stroke="white" stroke-linecap="round" stroke-width="2" /><path d="M43.2120933533,213.491363525 L43.2136421204,213.685394287 L43.2109413147,214.165145874 L43.1899833679,215.02444458 L43.1431846619,216.279205322 L43.0454750061,217.865905762 L42.8964996338,219.669158936 L42.7297134399,221.527145386 L42.5969581604,223.249847412 L42.5477256775,224.667373657 L42.6065940857,225.68447876 L42.7083587646,226.269989014 L42.7971725464,226.521408081 " fill="none" stroke="white" stroke-linecap="round" stroke-width="2" /><path d="M44.6895561218,206.403656006 L44.7100372314,206.458282471 L44.8236846924,206.655654907 L44.9824752808,206.916000366 L45.1383705139,207.159622192 " fill="none" stroke="white" stroke-linecap="round" stroke-width="2" /><path d="M56.6038551331,214.297897339 L56.6196670532,214.234710693 L56.5008430481,214.114959717 L56.1055374146,213.965576172 L55.3147239685,213.867523193 L54.1280250549,213.91217041 L52.6345062256,214.149108887 L51.0213279724,214.585174561 L49.5260429382,215.177062988 L48.3609390259,215.866744995 L47.6806411743,216.611953735 L47.5626411438,217.380187988 L48.0345153809,218.136520386 L49.0862884521,218.858413696 L50.6570739746,219.533508301 L52.612411499,220.172592163 L54.7307090759,220.796951294 L56.7303466797,221.416931152 L58.3433685303,222.025375366 L59.3617401123,222.606842041 L59.6538734436,223.140655518 L59.2224388123,223.61781311 L58.1398544312,224.025436401 L56.5432548523,224.332641602 L54.6104545593,224.506408691 L52.5470466614,224.52961731 L50.5215797424,224.408706665 L48.7068901062,224.186035156 L47.2124900818,223.912780762 L46.1011161804,223.635696411 L45.3764533997,223.391738892 L44.9976844788,223.219558716 L44.8523406982,223.125030518 " fill="none" stroke="white" stroke-linecap="round" stroke-width="2" /><path d="M81.2949447632,216.589431763 L81.0906295776,216.227600098 L80.7279586792,215.726028442 L80.1696624756,215.230789185 L79.4155426025,214.964996338 L78.4294281006,215.015777588 L77.2354202271,215.456848145 L75.9347000122,216.30821228 L74.6913452148,217.553619385 L73.6534423828,219.09147644 L72.9606246948,220.754165649 L72.6921234131,222.330627441 L72.8979492188,223.643615723 L73.5714569092,224.543258667 L74.6426696777,224.921508789 L76.0029602051,224.728469849 L77.5391921997,223.971939087 L79.1095199585,222.714645386 L80.6022186279,221.115661621 L81.9051132202,219.365341187 L82.9292602539,217.686660767 L83.6301879883,216.264389038 L84.0350646973,215.197265625 L84.1814575195,214.51965332 L84.1445617676,214.261642456 L83.9820480347,214.442169189 L83.7420349121,215.112762451 L83.4733734131,216.259292603 L83.2600631714,217.756225586 L83.1722412109,219.414627075 L83.2777633667,221.049697876 L83.579284668,222.523254395 L84.0702209473,223.70803833 L84.6995315552,224.506576538 L85.4128723145,224.850875854 L86.0210876465,224.866989136 L86.4239883423,224.732345581 " fill="none" stroke="white" stroke-linecap="round" stroke-width="2" /><path d="M93.8281784058,206.0 L93.8189468384,206.367431641 L93.7596893311,207.166931152 L93.6078491211,208.471450806 L93.3072052002,210.224639893 L92.8569488525,212.345062256 L92.3157653809,214.704055786 L91.8116378784,217.146484375 L91.5116424561,219.483673096 L91.5328292847,221.492523193 L91.8635482788,223.007522583 L92.29322052,223.933731079 L92.6367645264,224.356781006 " fill="none" stroke="white" stroke-linecap="round" stroke-width="2" /><path d="M98.6794128418,214.705795288 L98.5276031494,215.06413269 L98.2768783569,215.812103271 L97.9472198486,216.969650269 L97.6181640625,218.403015137 L97.3623428345,219.945114136 L97.2686462402,221.393539429 L97.4210128784,222.584899902 L97.8785629272,223.385299683 L98.6354522705,223.691299438 L99.659942627,223.467178345 L100.876174927,222.74659729 L102.192260742,221.626556396 L103.476493835,220.254043579 L104.586250305,218.798324585 L105.403785706,217.419525146 L105.896728516,216.254211426 L106.110687256,215.394683838 L106.134292603,214.904647827 L106.032081604,214.823608398 L105.84236145,215.20513916 L105.574554443,216.081558228 L105.276695251,217.396072388 L105.049491882,218.977783203 L104.988433838,220.604721069 L105.190200806,222.030990601 L105.701438904,223.083496094 L106.516853333,223.662216187 L107.604988098,223.712463379 L108.891120911,223.207824707 L110.253662109,222.214202881 L111.562446594,220.838012695 L112.660865784,219.252685547 L113.44732666,217.640884399 L113.908073425,216.160079956 L114.078865051,214.889678955 L114.05456543,213.910644531 L113.943740845,213.255599976 L113.804244995,212.932632446 L113.691268921,212.849258423 L113.629798889,212.892364502 " fill="none" stroke="white" stroke-linecap="round" stroke-width="2" /><path d="M122.898948669,215.990585327 L122.661079407,215.687957764 L122.274284363,215.281265259 L121.755058289,214.899353027 L121.117042542,214.730911255 L120.301803589,214.842483521 L119.278442383,215.281799316 L118.08177948,216.046585083 L116.846542358,217.124145508 L115.747581482,218.426223755 L114.926269531,219.814056396 L114.504356384,221.115997314 L114.540962219,222.165557861 L115.047836304,222.824768066 L115.978004456,223.017089844 L117.255363464,222.720092773 L118.733802795,221.980697632 L120.263961792,220.898071289 L121.685012817,219.601837158 L122.860343933,218.245651245 L123.690727234,216.976394653 L124.188026428,215.90411377 L124.400123596,215.098236084 L124.449134827,214.589324951 L124.416305542,214.392608643 L124.316864014,214.53553772 L124.115104675,215.048049927 L123.798324585,215.911087036 L123.392364502,217.055709839 L123.005409241,218.359420776 L122.733131409,219.693359375 L122.644462585,220.929733276 L122.782577515,221.962432861 L123.165977478,222.675033569 L123.790428162,222.980773926 L124.624755859,222.830841064 L125.611877441,222.243942261 L126.670310974,221.28453064 L127.72190094,220.058654785 L128.69909668,218.677780151 L129.526748657,217.26385498 L130.129425049,215.940765381 L130.497772217,214.82359314 L130.651611328,213.989013672 L130.635375977,213.494522095 L130.505508423,213.38053894 L130.281585693,213.67149353 L129.964294434,214.365325928 L129.607589722,215.404754639 L129.280883789,216.660049438 L129.055587769,217.978530884 L129.001998901,219.214950562 L129.167221069,220.244415283 L129.592010498,220.969543457 L130.319381714,221.307952881 L131.34954834,221.210235596 L132.612380981,220.682632446 L133.988937378,219.779846191 L135.34437561,218.603408813 L136.585510254,217.283676147 L137.641662598,215.962600708 L138.466674805,214.778518677 L139.032714844,213.844696045 L139.350128174,213.188339233 L139.461578369,212.812286377 L139.441467285,212.707687378 L139.34677124,212.904769897 L139.203765869,213.452819824 L139.017318726,214.381546021 L138.814743042,215.627365112 L138.626876831,217.11151123 L138.473388672,218.73286438 L138.376327515,220.420562744 L138.304641724,222.129241943 L138.210693359,223.815872192 L138.050079346,225.436386108 L137.790145874,226.968963623 L137.399810791,228.378646851 L136.884674072,229.624511719 L136.236587524,230.672286987 L135.467666626,231.475219727 L134.581802368,232.015686035 L133.618621826,232.29296875 L132.611572266,232.314880371 L131.618850708,232.042053223 L130.7162323,231.489700317 L129.978729248,230.706558228 L129.482223511,229.963287354 L129.232040405,229.443756104 " fill="none" stroke="white" stroke-linecap="round" stroke-width="2" /><path class="linestart" d="M149.338668823,213.649993896 L149.238876343,213.297866821 L148.991790771,212.776992798 L148.522598267,212.20703125 L147.764663696,211.776672363 L146.684417725,211.546340942 L145.327392578,211.533615112 L143.838150024,211.707351685 L142.432632446,212.038467407 L141.342956543,212.495452881 L140.735153198,213.04927063 L140.697845459,213.679672241 L141.246887207,214.357208252 L142.319290161,215.05960083 L143.737731934,215.765670776 L145.29473877,216.471878052 L146.764343262,217.180358887 L147.962097168,217.891723633 L148.777130127,218.594589233 L149.13848877,219.282775879 L148.968734741,219.925094604 L148.256591797,220.479690552 L147.035385132,220.901153564 L145.415466309,221.160888672 L143.533004761,221.242523193 L141.592788696,221.180999756 L139.801803589,221.023925781 L138.483261108,220.858596802 L137.734558105,220.740875244 " fill="none" stroke="white" stroke-linecap="round" stroke-width="2" /><path d="M0,0 " fill="none" stroke="white" stroke-linecap="round" stroke-width="2" /><path d="M48.0926475525,276.100280762 L47.9275283813,275.564147949 L47.6113471985,274.734313965 L47.1155776978,273.76449585 L46.454246521,272.931518555 L45.5940284729,272.343841553 L44.497089386,272.079223633 L43.1337509155,272.192871094 L41.5591125488,272.749420166 L39.8847808838,273.767669678 L38.3098220825,275.203430176 L37.0358657837,276.920440674 L36.2052764893,278.729309082 L35.8995361328,280.428131104 L36.1484146118,281.831237793 L36.8944168091,282.782623291 L38.06275177,283.175384521 L39.5640029907,282.952148438 L41.2675132751,282.128662109 L43.0474395752,280.786834717 L44.8065338135,279.085174561 L46.3787345886,277.224365234 L47.6471939087,275.452545166 L48.5508575439,273.96685791 L49.0834770203,272.904205322 L49.3045730591,272.335540771 L49.3233184814,272.285064697 L49.1836929321,272.756317139 L48.9455528259,273.77822876 L48.6583328247,275.254119873 L48.3916320801,277.004058838 L48.2227172852,278.794616699 L48.2269287109,280.39074707 L48.4586334229,281.610931396 L48.9702301025,282.370819092 L49.7850646973,282.600524902 L50.8936920166,282.280731201 L52.2392082214,281.435119629 L53.7136001587,280.150726318 L55.1758918762,278.563354492 L56.5050392151,276.859436035 L57.5964508057,275.242553711 L58.3919296265,273.892425537 L58.8989830017,272.906280518 L59.1687088013,272.318847656 L59.2516899109,272.122741699 L59.1998710632,272.322937012 L59.0129203796,272.957885742 L58.6868171692,274.033813477 L58.2505455017,275.449401855 L57.7885437012,277.02722168 L57.4027671814,278.526794434 L57.1513748169,279.754058838 L57.0325393677,280.614562988 L57.0006256104,281.070983887 L57.0257072449,281.113494873 L57.1329956055,280.753845215 L57.4089241028,279.975952148 L57.9072570801,278.834350586 L58.6654624939,277.456420898 L59.6641654968,275.989196777 L60.8702964783,274.595977783 L62.2253990173,273.410949707 L63.663269043,272.504150391 L65.0921173096,271.930633545 L66.4251861572,271.736358643 L67.5753936768,271.935974121 L68.4925231934,272.533172607 L69.1370544434,273.499633789 L69.4752655029,274.759429932 L69.5306243896,276.203979492 L69.3603591919,277.706634521 L69.064453125,279.128540039 L68.770980835,280.339385986 L68.575668335,281.251312256 L68.4867858887,281.809082031 L68.4786148071,282.065643311 " fill="none" stroke="white" stroke-linecap="round" stroke-width="2" /><path d="M81.2945251465,275.586486816 L81.391784668,275.220947266 L81.4714355469,274.631378174 L81.4441986084,273.897460938 L81.1993560791,273.187683105 L80.6832275391,272.584686279 L79.866897583,272.176300049 L78.7841033936,272.037384033 L77.4720230103,272.246185303 L76.0160293579,272.839019775 L74.5388946533,273.804138184 L73.1599273682,275.080871582 L72.0146179199,276.572998047 L71.2313919067,278.14453125 L70.8928451538,279.641387939 L71.0261077881,280.891021729 L71.6311340332,281.739807129 L72.6687850952,282.070861816 L74.0762786865,281.815673828 L75.7592468262,280.954833984 L77.5944976807,279.539764404 L79.4175567627,277.658843994 L81.0992736816,275.44418335 L82.5587463379,273.045532227 L83.7802886963,270.603729248 L84.7873535156,268.240997314 L85.6358795166,266.079864502 L86.3500213623,264.241851807 L86.9423522949,262.810699463 L87.3938293457,261.840637207 L87.6868591309,261.35949707 L87.7738647461,261.391052246 L87.6699981689,261.984222412 L87.3771057129,263.194641113 L86.9220428467,264.983001709 L86.3494110107,267.224639893 L85.7012634277,269.72543335 L85.005645752,272.285522461 L84.3504333496,274.747924805 L83.7920074463,276.995635986 L83.4031677246,278.932434082 L83.2224731445,280.476043701 L83.2321166992,281.581237793 L83.329574585,282.236114502 L83.4355926514,282.532562256 " fill="none" stroke="white" stroke-linecap="round" stroke-width="2" /><path d="M105.944702148,262.467193604 L105.978134155,262.384765625 L106.016571045,262.350402832 L106.035400391,262.499267578 L105.971191406,262.982330322 L105.773178101,263.885528564 L105.399597168,265.224090576 L104.840988159,266.943969727 L104.149414062,268.956420898 L103.424987793,271.144714355 L102.747741699,273.377716064 L102.198196411,275.536956787 L101.790924072,277.493713379 L101.50340271,279.126037598 L101.305862427,280.344665527 L101.185653687,281.090637207 L101.118255615,281.434082031 " fill="none" stroke="white" stroke-linecap="round" stroke-width="2" /><path d="M97.8205108643,272.95098877 L98.0143585205,272.937835693 L98.5837249756,272.955566406 L99.6548614502,273.019317627 L101.227310181,273.119262695 L103.14666748,273.193237305 L105.267242432,273.168487549 L107.451156616,272.982025146 L109.633712769,272.558410645 L111.707443237,271.881713867 L113.55607605,271.009521484 L114.892852783,270.212615967 L115.649490356,269.669311523 " fill="none" stroke="white" stroke-linecap="round" stroke-width="2" /><path d="M117.38684082,261.319061279 L117.435821533,261.459716797 L117.501220703,261.846679688 L117.547943115,262.587799072 L117.523162842,263.721282959 L117.395721436,265.231506348 L117.132110596,267.070831299 L116.726104736,269.166809082 L116.188659668,271.396911621 L115.572494507,273.613494873 L114.954528809,275.63873291 L114.427703857,277.325164795 L114.041992188,278.597412109 L113.829345703,279.426391602 L113.776168823,279.789611816 L113.894134521,279.680236816 L114.208938599,279.084777832 L114.752548218,278.024047852 L115.527694702,276.618804932 L116.514556885,275.020690918 L117.668197632,273.39251709 L118.929107666,271.898406982 L120.233566284,270.664764404 L121.50567627,269.771118164 L122.673049927,269.284820557 L123.6690979,269.227142334 L124.467575073,269.599884033 L125.038391113,270.38394165 L125.379196167,271.537994385 L125.510681152,272.969177246 L125.475723267,274.551391602 L125.343032837,276.134460449 L125.211410522,277.570220947 L125.145965576,278.727172852 L125.185775757,279.542602539 L125.283462524,280.006744385 L125.377822876,280.200775146 " fill="none" stroke="white" stroke-linecap="round" stroke-width="2" /><path d="M129.399414062,277.867492676 L129.563232422,277.745147705 L130.004867554,277.478515625 L130.789855957,277.037963867 L131.898422241,276.438415527 L133.204467773,275.698120117 L134.597137451,274.8543396 L135.94708252,273.935821533 L137.152420044,272.979217529 L138.098358154,272.027679443 L138.706069946,271.134155273 L138.888946533,270.350799561 L138.656494141,269.744506836 L138.018112183,269.387237549 L137.019271851,269.356292725 L135.734390259,269.700714111 L134.29258728,270.427246094 L132.861282349,271.480560303 L131.663955688,272.765350342 L130.868438721,274.167602539 L130.608703613,275.589813232 L130.910964966,276.931365967 L131.768005371,278.103668213 L133.120193481,279.021453857 L134.978942871,279.583251953 L137.242904663,279.73614502 L139.75617981,279.517089844 L141.874557495,279.149932861 L143.249771118,278.829864502 " fill="none" stroke="white" stroke-linecap="round" stroke-width="2" /><path d="M163.628616333,271.55645752 L163.378356934,271.406982422 L162.908325195,271.190124512 L162.190185547,270.966430664 L161.251358032,270.831237793 L160.10987854,270.829956055 L158.849380493,270.986663818 L157.605789185,271.283691406 L156.567626953,271.695526123 L155.891387939,272.189422607 L155.682525635,272.734954834 L156.00328064,273.329193115 L156.854751587,273.967163086 L158.201705933,274.636444092 L159.953903198,275.33770752 L161.94178772,276.071014404 L163.940322876,276.83505249 L165.717514038,277.632629395 L167.04447937,278.442474365 L167.783752441,279.229949951 L167.872390747,279.968200684 L167.328857422,280.620910645 L166.219268799,281.148498535 L164.659667969,281.508911133 L162.767059326,281.667419434 L160.699981689,281.628753662 L158.637939453,281.432342529 L156.749313354,281.129821777 L155.211410522,280.714569092 L154.163253784,280.176025391 L153.650405884,279.513641357 L153.528671265,278.908813477 L153.60836792,278.487670898 " fill="none" stroke="white" stroke-linecap="round" stroke-width="2" /><path d="M171.284927368,270.691040039 L171.275878906,270.817382812 L171.252212524,271.156524658 L171.198394775,271.803070068 L171.089248657,272.791473389 L170.909957886,274.098754883 L170.670272827,275.657714844 L170.421554565,277.339355469 L170.243240356,278.970397949 L170.22013855,280.379486084 L170.405044556,281.413635254 L170.844284058,281.97277832 L171.525939941,282.008392334 L172.438552856,281.517852783 L173.539001465,280.538665771 L174.757949829,279.175506592 L176.005996704,277.561889648 L177.213775635,275.84967041 L178.282684326,274.210754395 L179.148452759,272.807556152 L179.78263855,271.744354248 L180.180252075,271.090637207 L180.390228271,270.862945557 L180.465988159,271.066070557 L180.42048645,271.738342285 L180.236251831,272.887176514 L179.929077148,274.420623779 L179.538604736,276.171539307 L179.210250854,277.930328369 L179.062423706,279.489379883 L179.152099609,280.718811035 L179.358184814,281.515472412 L179.559585571,281.911102295 " fill="none" stroke="white" stroke-linecap="round" stroke-width="2" /><path d="M186.529037476,272.138244629 L186.564666748,272.28527832 L186.611236572,272.699676514 L186.626876831,273.485168457 L186.545639038,274.651702881 L186.335754395,276.11630249 L185.997238159,277.72164917 L185.584075928,279.267486572 L185.188430786,280.578277588 L184.883255005,281.519989014 L184.710510254,282.014038086 L184.694671631,282.051483154 L184.84197998,281.636169434 L185.140548706,280.772674561 L185.599441528,279.535705566 L186.225662231,278.042266846 L187.031814575,276.425567627 L188.024795532,274.821044922 L189.203735352,273.32019043 L190.514663696,271.994781494 L191.898132324,270.932922363 L193.278686523,270.219726562 L194.572067261,269.90423584 L195.708877563,269.995178223 L196.645523071,270.465118408 L197.353790283,271.286102295 L197.863601685,272.409667969 L198.211898804,273.765228271 L198.444107056,275.267120361 L198.60760498,276.772216797 L198.731750488,278.132080078 L198.814743042,279.123718262 L198.867507935,279.682220459 " fill="none" stroke="white" stroke-linecap="round" stroke-width="2" /><path d="M218.739303589,274.099731445 L218.619430542,273.812103271 L218.405899048,273.349761963 L218.055130005,272.791259766 L217.510101318,272.298370361 L216.658721924,271.972839355 L215.446121216,271.917663574 L213.925720215,272.201782227 L212.260986328,272.86505127 L210.648208618,273.893127441 L209.291702271,275.225524902 L208.313354492,276.746948242 L207.794509888,278.305084229 L207.783721924,279.726501465 L208.306274414,280.837585449 L209.340057373,281.474121094 L210.851715088,281.526519775 L212.725311279,280.929718018 L214.821380615,279.705444336 L216.965927124,277.957489014 L218.992279053,275.843444824 L220.764434814,273.531738281 L222.214523315,271.186645508 L223.324539185,268.939941406 L224.125686646,266.933990479 L224.661987305,265.283996582 L224.994354248,264.07232666 L225.153839111,263.353363037 L225.139282227,263.171508789 L224.934020996,263.550872803 L224.508834839,264.516967773 L223.889526367,266.00680542 L223.166061401,267.892608643 L222.443984985,270.010681152 L221.81338501,272.207763672 L221.324279785,274.342407227 L220.974563599,276.299255371 L220.766983032,277.941711426 L220.689865112,279.178436279 L220.695297241,279.940673828 L220.73449707,280.299072266 " fill="none" stroke="white" stroke-linecap="round" stroke-width="2" /><path d="M232.287628174,273.178863525 L232.214736938,272.847290039 L232.013626099,272.395629883 L231.609741211,271.963409424 L230.950332642,271.753387451 L230.002288818,271.833190918 L228.798248291,272.248718262 L227.442260742,273.008361816 L226.085037231,274.108856201 L224.911026001,275.488494873 L224.093322754,277.029571533 L223.748519897,278.575134277 L223.91633606,279.954681396 L224.590423584,281.02734375 L225.695983887,281.681274414 L227.114486694,281.84387207 L228.689300537,281.491912842 L230.252105713,280.654052734 L231.640792847,279.412139893 L232.742019653,277.914306641 L233.483566284,276.33392334 L233.831481934,274.830200195 L233.791015625,273.534759521 L233.429885864,272.523254395 L232.876480103,271.859222412 L232.284103394,271.560913086 L231.790817261,271.596191406 L231.478210449,271.791290283 L231.334075928,271.995056152 " fill="none" stroke="white" stroke-linecap="round" stroke-width="2" /><path d="M236.257278442,277.84475708 L236.591690063,277.598571777 L237.251846313,277.118469238 L238.242965698,276.399902344 L239.444076538,275.516418457 L240.718566895,274.532348633 L241.889068604,273.515655518 L242.818099976,272.531524658 L243.40776062,271.638000488 L243.608306885,270.882202148 L243.40335083,270.327178955 L242.77911377,270.046142578 L241.736633301,270.115325928 L240.354858398,270.596923828 L238.784927368,271.504119873 L237.239639282,272.759399414 L235.945495605,274.254821777 L235.081085205,275.840789795 L234.758056641,277.369262695 L235.007446289,278.724700928 L235.877487183,279.799682617 L237.297348022,280.511474609 L239.111083984,280.848815918 L240.750579834,280.918884277 L241.862319946,280.858551025 " fill="none" stroke="white" stroke-linecap="round" stroke-width="2" /><path d="M255.094711304,272.575164795 L254.709487915,272.231201172 L253.993759155,271.764007568 L252.942520142,271.316223145 L251.683456421,271.098571777 L250.329666138,271.131134033 L249.04498291,271.410736084 L248.020126343,271.87890625 L247.452194214,272.507659912 L247.455245972,273.248291016 L248.080413818,274.075439453 L249.270385742,274.926849365 L250.88949585,275.794219971 L252.75793457,276.66595459 L254.650634766,277.544952393 L256.332641602,278.39541626 L257.61505127,279.184631348 L258.356323242,279.851806641 L258.495758057,280.382171631 L258.056732178,280.76461792 L257.086395264,281.013183594 L255.679138184,281.130310059 L253.97543335,281.139312744 L252.136642456,281.044219971 L250.33833313,280.865997314 L248.771759033,280.62677002 L247.547439575,280.367584229 L246.762130737,280.153594971 L246.378875732,280.025634766 " fill="none" stroke="white" stroke-linecap="round" stroke-width="2" /><path d="M272.357635498,271.317108154 L272.372161865,271.298950195 L272.383575439,271.375091553 L272.368286133,271.659606934 L272.284484863,272.256164551 L272.09362793,273.200653076 L271.764953613,274.470581055 L271.29385376,275.970916748 L270.722930908,277.583129883 L270.139434814,279.144348145 L269.627075195,280.495147705 L269.257659912,281.519073486 L269.030609131,282.117889404 L268.922149658,282.234802246 L268.90246582,281.863952637 L268.9815979,281.001861572 L269.196899414,279.707794189 L269.619506836,278.110900879 L270.297485352,276.349822998 L271.246520996,274.578491211 L272.434783936,272.950683594 L273.791717529,271.580871582 L275.230712891,270.561767578 L276.669586182,269.983886719 L278.04473877,269.893157959 L279.301147461,270.300018311 L280.385253906,271.156646729 L281.220245361,272.373809814 L281.739776611,273.828521729 L281.901702881,275.422180176 L281.744445801,277.055541992 L281.365081787,278.640289307 L280.934875488,280.027099609 L280.608123779,281.078979492 L280.498931885,281.706970215 L280.548126221,281.971099854 L280.664276123,282.008209229 " fill="none" stroke="white" stroke-linecap="round" stroke-width="2" /><path d="M292.526428223,273.83782959 L292.362060547,273.446716309 L291.993713379,272.898620605 L291.327758789,272.338653564 L290.331970215,272.004699707 L288.987030029,271.98147583 L287.394195557,272.324829102 L285.727874756,273.023345947 L284.222991943,274.043029785 L283.083251953,275.283081055 L282.468963623,276.623748779 L282.428039551,277.924133301 L282.966491699,279.061828613 L284.02243042,279.917633057 L285.496368408,280.387969971 L287.261779785,280.407501221 L289.155975342,279.949127197 L290.99029541,279.048919678 L292.596282959,277.809082031 L293.823760986,276.362701416 L294.580535889,274.857727051 L294.865478516,273.422821045 L294.724731445,272.139678955 L294.251586914,271.081268311 L293.571807861,270.287414551 L292.815338135,269.758239746 L292.092956543,269.454345703 L291.559265137,269.314086914 L291.257507324,269.262542725 " fill="none" stroke="white" stroke-linecap="round" stroke-width="2" /><path d="M304.466156006,261.0 L304.518341064,261.233581543 L304.563018799,261.829345703 L304.544403076,262.896514893 L304.392364502,264.437957764 L304.070953369,266.383605957 L303.58114624,268.652801514 L302.945404053,271.132751465 L302.217987061,273.702026367 L301.481323242,276.206329346 L300.829681396,278.487121582 L300.329559326,280.416351318 L300.021148682,281.868408203 L299.907684326,282.753417969 L299.942596436,283.066009521 L300.03817749,283.012390137 L300.130767822,282.823120117 " fill="none" stroke="white" stroke-linecap="round" stroke-width="2" /><path d="M299.121520996,273.08190918 L299.17376709,273.038330078 L299.496307373,273.021179199 L300.260528564,273.065185547 L301.638580322,273.184356689 L303.552337646,273.332061768 L305.783172607,273.45489502 L307.700408936,273.5284729 L308.943511963,273.556213379 " fill="none" stroke="white" stroke-linecap="round" stroke-width="2" /><path d="M321.818115234,272.26348877 L321.863647461,272.29510498 L321.925354004,272.475250244 L321.959594727,272.9168396 L321.897521973,273.684204102 L321.680328369,274.736053467 L321.291046143,275.996673584 L320.767944336,277.346069336 L320.190002441,278.639465332 L319.667541504,279.77331543 L319.286193848,280.641387939 L319.076843262,281.164154053 L319.023681641,281.307769775 L319.088134766,281.040679932 L319.21295166,280.353668213 L319.390991211,279.31628418 L319.614746094,278.004150391 L319.90612793,276.536651611 L320.285095215,275.025146484 L320.778106689,273.548187256 L321.396118164,272.175079346 L322.155914307,270.987762451 L323.048919678,270.041503906 L324.068145752,269.380828857 L325.219848633,269.046783447 L326.473358154,269.031982422 L327.756256104,269.287200928 L328.795013428,269.625946045 L329.447967529,269.902557373 " fill="none" stroke="white" stroke-linecap="round" stroke-width="2" /><path d="M330.700500488,276.062194824 L331.271728516,275.861175537 L332.268341064,275.469360352 L333.58404541,274.872039795 L334.957885742,274.127563477 L336.238739014,273.298156738 L337.27935791,272.46472168 L337.989471436,271.700622559 L338.318145752,271.076141357 L338.216674805,270.630187988 L337.686584473,270.414093018 L336.765716553,270.490447998 L335.511474609,270.906707764 L334.035949707,271.673980713 L332.52255249,272.762786865 L331.173492432,274.069763184 L330.16027832,275.48046875 L329.59375,276.884338379 L329.508453369,278.179962158 L329.887634277,279.292907715 L330.825286865,280.135650635 L332.340026855,280.628540039 L334.328887939,280.751403809 L336.172637939,280.648071289 L337.452209473,280.476196289 " fill="none" stroke="white" stroke-linecap="round" stroke-width="2" /><path d="M348.688415527,273.267608643 L348.441680908,273.061218262 L347.974578857,272.804351807 L347.247314453,272.596832275 L346.28692627,272.603912354 L345.110321045,272.905303955 L343.769439697,273.52835083 L342.373199463,274.45425415 L341.092803955,275.627624512 L340.094177246,276.914916992 L339.524688721,278.18951416 L339.465606689,279.319519043 L339.908660889,280.174285889 L340.772216797,280.659332275 L341.939453125,280.705596924 L343.293365479,280.285064697 L344.72833252,279.430084229 L346.153106689,278.225311279 L347.49206543,276.78616333 L348.650848389,275.26776123 L349.559936523,273.842346191 L350.191040039,272.662658691 L350.542541504,271.842590332 L350.651489258,271.462493896 L350.570373535,271.551818848 L350.318817139,272.126403809 L349.943603516,273.154998779 L349.52355957,274.511047363 L349.204467773,276.044250488 L349.128326416,277.567901611 L349.376403809,278.921783447 L349.763916016,279.897644043 L350.110992432,280.451446533 " fill="none" stroke="white" stroke-linecap="round" stroke-width="2" /><path d="M362.669769287,273.586425781 L362.519348145,273.40927124 L362.162536621,273.196105957 L361.503204346,273.054412842 L360.523651123,273.136535645 L359.248687744,273.485870361 L357.788238525,274.116455078 L356.333221436,274.996459961 L355.088348389,276.071136475 L354.237762451,277.256134033 L353.944396973,278.452758789 L354.289489746,279.530609131 L355.292938232,280.374237061 L356.906921387,280.893920898 L358.968292236,281.022857666 L361.257873535,280.761566162 L363.560150146,280.05291748 L365.661865234,278.916870117 L367.437927246,277.44039917 L368.683105469,276.083648682 L369.371673584,275.142486572 " fill="none" stroke="white" stroke-linecap="round" stroke-width="2" /><path d="M371.062835693,264.210693359 L371.076690674,264.11026001 L371.122344971,264.132080078 L371.171936035,264.447143555 L371.16583252,265.212585449 L371.014801025,266.4296875 L370.68548584,268.031402588 L370.208862305,269.917663574 L369.657531738,271.959472656 L369.101867676,274.016143799 L368.604125977,275.935211182 L368.197143555,277.567199707 L367.891967773,278.798339844 L367.690185547,279.568206787 L367.603668213,279.843719482 L367.649841309,279.638885498 L367.879089355,278.981903076 L368.362213135,277.942626953 L369.127990723,276.641601562 L370.165588379,275.226257324 L371.433563232,273.8487854 L372.853179932,272.644287109 L374.339263916,271.715301514 L375.82244873,271.134490967 L377.204742432,270.936981201 L378.414031982,271.128936768 L379.388153076,271.697967529 L380.091400146,272.606048584 L380.514678955,273.79486084 L380.685913086,275.17376709 L380.641479492,276.608886719 L380.483795166,277.982299805 L380.294250488,279.184814453 L380.137939453,280.132507324 L380.039215088,280.785308838 L379.992370605,281.152801514 L379.968048096,281.297180176 " fill="none" stroke="white" stroke-linecap="round" stroke-width="2" /><path class="linestart" d="M369.71673584,271.186126709 L369.758300781,271.314300537 L369.716369629,271.617340088 L369.500488281,272.147644043 L369.06463623,272.905609131 L368.465911865,273.854309082 L367.769317627,274.929901123 L367.053100586,276.063293457 L366.395324707,277.193145752 L365.842071533,278.243103027 L365.434844971,279.150543213 L365.1925354,279.792114258 L365.08190918,280.145141602 " fill="none" stroke="white" stroke-linecap="round" stroke-width="2" /></svg>